<svg width="22" height="20" viewBox="0 0 22 20" fill="none" xmlns="http://www.w3.org/2000/svg">
<path fill-rule="evenodd" clip-rule="evenodd" d="M12.0249 0.673458C12.2398 0.601913 12.4682 0.579977 12.6928 0.609298C12.9174 0.638619 13.1325 0.718434 13.3218 0.842754C13.5112 0.967074 13.67 1.13267 13.7862 1.32711C13.9024 1.52156 13.9731 1.7398 13.9929 1.96546L13.9989 2.09746V7.58346L17.7929 8.34346C18.1091 8.40647 18.3965 8.56966 18.6127 8.80886C18.8288 9.04807 18.9621 9.35054 18.9929 9.67146L18.9989 9.81346V17.4035H19.9989C20.2538 17.4037 20.4989 17.5013 20.6843 17.6763C20.8696 17.8513 20.9811 18.0904 20.9961 18.3449C21.011 18.5993 20.9282 18.8498 20.7646 19.0453C20.601 19.2407 20.369 19.3664 20.1159 19.3965L19.9989 19.4035H1.99889C1.74401 19.4032 1.49886 19.3056 1.31352 19.1306C1.12819 18.9556 1.01666 18.7165 1.00172 18.4621C0.986783 18.2076 1.06957 17.9571 1.23316 17.7616C1.39675 17.5662 1.6288 17.4406 1.88189 17.4105L1.99889 17.4035H2.99889V4.76346C2.99889 4.16346 3.35489 3.62746 3.89689 3.38946L4.02489 3.34046L12.0249 0.673458ZM11.9989 2.79146L4.99889 5.12446V17.4035H11.9989V2.79146ZM13.9989 9.62446V17.4035H16.9989V10.2235L13.9989 9.62446Z" fill="#29ABE2" stroke="white"/>
</svg>
