<svg width="19" height="18" viewBox="0 0 19 18" fill="none" xmlns="http://www.w3.org/2000/svg">
<path d="M7.10286 10.8573C7.01806 10.7763 6.90306 10.7307 6.78315 10.7307C6.66325 10.7307 6.54825 10.7763 6.46345 10.8573L3.61729 13.5798V11.1636C3.61729 11.0489 3.56965 10.9388 3.48485 10.8577C3.40004 10.7766 3.28502 10.731 3.16509 10.731C3.04516 10.731 2.93014 10.7766 2.84534 10.8577C2.76053 10.9388 2.71289 11.0489 2.71289 11.1636V14.6239C2.71289 14.7386 2.76053 14.8486 2.84534 14.9298C2.93014 15.0109 3.04516 15.0564 3.16509 15.0564H6.7827C6.90263 15.0564 7.01765 15.0109 7.10246 14.9298C7.18726 14.8486 7.2349 14.7386 7.2349 14.6239C7.2349 14.5092 7.18726 14.3992 7.10246 14.3181C7.01765 14.2369 6.90263 14.1914 6.7827 14.1914H4.25671L7.10196 11.4698C7.14413 11.4297 7.17761 11.382 7.20048 11.3295C7.22336 11.277 7.23518 11.2207 7.23526 11.1638C7.23534 11.1069 7.22369 11.0505 7.20097 10.9979C7.17826 10.9454 7.14491 10.8976 7.10286 10.8573ZM15.0951 2.97819C15.0401 2.957 14.9816 2.94585 14.9223 2.94531H11.3047C11.1848 2.94531 11.0698 2.99088 10.985 3.072C10.9002 3.15312 10.8525 3.26314 10.8525 3.37785C10.8525 3.49257 10.9002 3.60259 10.985 3.68371C11.0698 3.76482 11.1848 3.81039 11.3047 3.81039H13.8307L10.9855 6.53194C10.9434 6.5721 10.9101 6.61978 10.8873 6.67228C10.8645 6.72477 10.8528 6.78104 10.8527 6.83787C10.8526 6.95265 10.9002 7.06276 10.985 7.14398C11.0698 7.2252 11.1849 7.27088 11.3048 7.27096C11.4248 7.27104 11.54 7.22552 11.6249 7.14442L14.4701 4.42201V6.83818C14.4701 6.95289 14.5178 7.06291 14.6026 7.14403C14.6874 7.22515 14.8024 7.27072 14.9223 7.27072C15.0423 7.27072 15.1573 7.22515 15.2421 7.14403C15.3269 7.06291 15.3745 6.95289 15.3745 6.83818V3.37785C15.3744 3.29229 15.3478 3.20867 15.2981 3.13755C15.2483 3.06643 15.1777 3.01098 15.0951 2.97819Z" fill="#757575"/>
<path d="M15.827 0.349609H2.26101C1.66157 0.350296 1.08689 0.578372 0.663027 0.983809C0.239161 1.38925 0.000718031 1.93894 0 2.51231V15.4885C0 16.6815 1.01474 17.6512 2.26101 17.6512H15.827C17.0733 17.6512 18.0881 16.6815 18.0881 15.4885V2.51231C18.0881 1.31937 17.0733 0.349609 15.827 0.349609ZM17.1837 15.4885C17.1837 16.2039 16.575 16.7861 15.827 16.7861H2.26101C1.51307 16.7861 0.904403 16.2039 0.904403 15.4885V2.51231C0.904403 1.79689 1.51307 1.21469 2.26101 1.21469H15.827C16.575 1.21469 17.1837 1.79689 17.1837 2.51231V15.4885Z" fill="#757575"/>
</svg>
