<svg width="22" height="16" viewBox="0 0 22 16" fill="none" xmlns="http://www.w3.org/2000/svg">
<path d="M20.6774 11.7812H20.3548V9.03125C20.3544 8.66672 20.2183 8.31726 19.9764 8.05951C19.7345 7.80175 19.4066 7.65673 19.0645 7.65625V1.8125C19.0641 1.44797 18.928 1.09851 18.6861 0.840756C18.4442 0.582997 18.1163 0.437978 17.7742 0.4375H4.22581C3.88373 0.437978 3.55579 0.582997 3.31391 0.840756C3.07202 1.09851 2.93593 1.44797 2.93548 1.8125V7.65625C2.59341 7.65673 2.26547 7.80175 2.02358 8.05951C1.7817 8.31726 1.64561 8.66672 1.64516 9.03125V11.7812H1.32258C1.23703 11.7812 1.15498 11.8175 1.09448 11.8819C1.03399 11.9464 1 12.0338 1 12.125V13.5C1 13.5912 1.03399 13.6786 1.09448 13.7431C1.15498 13.8075 1.23703 13.8438 1.32258 13.8438H1.64516V15.2188C1.64516 15.3099 1.67915 15.3974 1.73964 15.4618C1.80014 15.5263 1.88219 15.5625 1.96774 15.5625H2.93548C3.01004 15.5625 3.0823 15.535 3.13994 15.4846C3.19759 15.4343 3.23706 15.3641 3.25161 15.2862L3.52258 13.8438H18.4774L18.7484 15.2862C18.7629 15.3641 18.8024 15.4343 18.8601 15.4846C18.9177 15.535 18.99 15.5625 19.0645 15.5625H20.0323C20.1178 15.5625 20.1999 15.5263 20.2604 15.4618C20.3209 15.3974 20.3548 15.3099 20.3548 15.2188V13.8438H20.6774C20.763 13.8438 20.845 13.8075 20.9055 13.7431C20.966 13.6786 21 13.5912 21 13.5V12.125C21 12.0338 20.966 11.9464 20.9055 11.8819C20.845 11.8175 20.763 11.7812 20.6774 11.7812ZM3.58065 1.8125C3.58087 1.63024 3.64891 1.45551 3.76986 1.32663C3.8908 1.19775 4.05477 1.12524 4.22581 1.125H17.7742C17.9452 1.12524 18.1092 1.19775 18.2301 1.32663C18.3511 1.45551 18.4191 1.63024 18.4194 1.8125V7.65625H17.7742V6.28125C17.7737 5.91672 17.6377 5.56726 17.3958 5.30951C17.1539 5.05175 16.8259 4.90673 16.4839 4.90625H12.6129C12.2708 4.90673 11.9429 5.05175 11.701 5.30951C11.4591 5.56726 11.323 5.91672 11.3226 6.28125V7.65625H10.6774V6.28125C10.677 5.91672 10.5409 5.56726 10.299 5.30951C10.0571 5.05175 9.72917 4.90673 9.3871 4.90625H5.51613C5.17405 4.90673 4.84611 5.05175 4.60423 5.30951C4.36234 5.56726 4.22625 5.91672 4.22581 6.28125V7.65625H3.58065V1.8125ZM17.129 6.28125V7.65625H11.9677V6.28125C11.968 6.09899 12.036 5.92426 12.157 5.79538C12.2779 5.6665 12.4419 5.59399 12.6129 5.59375H16.4839C16.6549 5.59399 16.8189 5.6665 16.9398 5.79538C17.0608 5.92426 17.1288 6.09899 17.129 6.28125ZM10.0323 6.28125V7.65625H4.87097V6.28125C4.87119 6.09899 4.93924 5.92426 5.06018 5.79538C5.18112 5.6665 5.34509 5.59399 5.51613 5.59375H9.3871C9.55814 5.59399 9.7221 5.6665 9.84305 5.79538C9.96399 5.92426 10.032 6.09899 10.0323 6.28125ZM2.29032 9.03125C2.29055 8.84899 2.35859 8.67426 2.47953 8.54538C2.60048 8.4165 2.76445 8.34399 2.93548 8.34375H19.0645C19.2356 8.34399 19.3995 8.4165 19.5205 8.54538C19.6414 8.67426 19.7095 8.84899 19.7097 9.03125V11.7812H2.29032V9.03125ZM2.67097 14.875H2.29032V13.8438H2.86452L2.67097 14.875ZM19.7097 14.875H19.329L19.1355 13.8438H19.7097V14.875ZM20.3548 13.1562H1.64516V12.4688H20.3548V13.1562Z" fill="#757575" stroke="#757575" stroke-width="0.2"/>
</svg>
