<svg width="15" height="16" viewBox="0 0 15 16" fill="none" xmlns="http://www.w3.org/2000/svg">
<path d="M8.80859 14.75C8.77318 14.7823 8.73664 14.8139 8.69824 14.8438C8.36385 15.1037 7.93989 15.2484 7.49805 15.249C7.05682 15.2481 6.63384 15.1033 6.2998 14.8438C6.26135 14.8139 6.22394 14.7823 6.18848 14.75H8.80859ZM8.09668 2.12988C10.1314 2.40912 11.6494 4.0635 11.6494 6V7.8584L11.6572 8.14453C11.6949 8.81167 11.866 9.46595 12.1611 10.0713C12.4974 10.7609 12.9865 11.3688 13.5908 11.8555V11.8564C13.7033 11.9482 13.75 12.0617 13.75 12.167C13.7498 12.3618 13.5707 12.583 13.2744 12.583H1.72461C1.61935 12.5826 1.51982 12.5515 1.43945 12.498C1.35946 12.4448 1.3045 12.3738 1.27539 12.2988C1.24648 12.2243 1.24223 12.1448 1.2627 12.0693C1.28329 11.9936 1.32936 11.9195 1.40137 11.8604C2.00663 11.3738 2.49586 10.7652 2.83301 10.0752C3.17149 9.38242 3.34797 8.62565 3.34766 7.8584V6C3.34766 4.06344 4.86507 2.40914 6.90039 2.12988L7.49805 2.04688L8.09668 2.12988Z" stroke="white" stroke-width="1.5"/>
</svg>
