<svg width="16" height="16" viewBox="0 0 16 16" fill="none" xmlns="http://www.w3.org/2000/svg">
<path fill-rule="evenodd" clip-rule="evenodd" d="M14.8162 13.496C14.3532 14.903 12.5392 15.605 11.2432 15.488C9.47323 15.328 7.54723 14.389 6.08523 13.355C3.93623 11.835 1.92323 9.48396 0.750234 6.98896C-0.0787659 5.22596 -0.264766 3.05796 0.968234 1.45096C1.42423 0.856958 1.91823 0.539958 2.65823 0.502958C3.68623 0.452958 3.83023 1.04096 4.18323 1.95696C4.44623 2.64196 4.79723 3.34096 4.99323 4.05096C5.36023 5.37596 4.07723 5.43096 3.91523 6.51396C3.81523 7.19696 4.64223 8.11296 5.01623 8.59996C5.73712 9.54843 6.62005 10.362 7.62423 11.003C8.19423 11.362 9.11223 12.009 9.76423 11.652C10.7682 11.102 10.6742 9.40896 12.0772 9.98196C12.8042 10.278 13.5082 10.705 14.2022 11.079C15.2752 11.656 15.2252 12.254 14.8162 13.496C15.1222 12.568 14.5102 14.424 14.8162 13.496Z" fill="#29ABE2"/>
</svg>
