<svg width="20" height="20" viewBox="0 0 20 20" fill="none" xmlns="http://www.w3.org/2000/svg">
<path d="M10 0.625C8.1458 0.625 6.33324 1.17483 4.79153 2.20497C3.24982 3.23511 2.04821 4.69929 1.33863 6.41234C0.629062 8.1254 0.443406 10.0104 0.805142 11.829C1.16688 13.6475 2.05976 15.318 3.37088 16.6291C4.682 17.9402 6.35246 18.8331 8.17103 19.1949C9.98961 19.5566 11.8746 19.3709 13.5877 18.6614C15.3007 17.9518 16.7649 16.7502 17.795 15.2085C18.8252 13.6668 19.375 11.8542 19.375 10C19.3722 7.51446 18.3836 5.13152 16.626 3.37398C14.8685 1.61644 12.4855 0.627812 10 0.625ZM10 18.75C8.26942 18.75 6.57769 18.2368 5.13876 17.2754C3.69983 16.3139 2.57833 14.9473 1.91606 13.3485C1.25379 11.7496 1.08051 9.99029 1.41813 8.29296C1.75575 6.59563 2.58911 5.03652 3.81282 3.81282C5.03653 2.58911 6.59563 1.75575 8.29296 1.41813C9.9903 1.08051 11.7496 1.25379 13.3485 1.91605C14.9473 2.57832 16.3139 3.69983 17.2754 5.13876C18.2368 6.57769 18.75 8.26941 18.75 10C18.7474 12.3198 17.8246 14.5439 16.1843 16.1843C14.5439 17.8246 12.3198 18.7474 10 18.75ZM9.0625 6.25H12.8125C12.8954 6.25 12.9749 6.21708 13.0335 6.15847C13.0921 6.09987 13.125 6.02038 13.125 5.9375C13.125 5.85462 13.0921 5.77513 13.0335 5.71653C12.9749 5.65792 12.8954 5.625 12.8125 5.625H10.3125V4.6875C10.3125 4.60462 10.2796 4.52513 10.221 4.46653C10.1624 4.40792 10.0829 4.375 10 4.375C9.91712 4.375 9.83764 4.40792 9.77903 4.46653C9.72043 4.52513 9.6875 4.60462 9.6875 4.6875V5.625H9.0625C8.48234 5.625 7.92594 5.85547 7.51571 6.2657C7.10547 6.67594 6.875 7.23234 6.875 7.8125C6.875 8.39266 7.10547 8.94906 7.51571 9.3593C7.92594 9.76953 8.48234 10 9.0625 10H10.9375C11.3519 10 11.7493 10.1646 12.0424 10.4576C12.3354 10.7507 12.5 11.1481 12.5 11.5625C12.5 11.9769 12.3354 12.3743 12.0424 12.6674C11.7493 12.9604 11.3519 13.125 10.9375 13.125H7.1875C7.10462 13.125 7.02514 13.1579 6.96653 13.2165C6.90793 13.2751 6.875 13.3546 6.875 13.4375C6.875 13.5204 6.90793 13.5999 6.96653 13.6585C7.02514 13.7171 7.10462 13.75 7.1875 13.75H9.6875V14.6875C9.6875 14.7704 9.72043 14.8499 9.77903 14.9085C9.83764 14.9671 9.91712 15 10 15C10.0829 15 10.1624 14.9671 10.221 14.9085C10.2796 14.8499 10.3125 14.7704 10.3125 14.6875V13.75H10.9375C11.5177 13.75 12.0741 13.5195 12.4843 13.1093C12.8945 12.6991 13.125 12.1427 13.125 11.5625C13.125 10.9823 12.8945 10.4259 12.4843 10.0157C12.0741 9.60547 11.5177 9.375 10.9375 9.375H9.0625C8.6481 9.375 8.25068 9.21038 7.95765 8.91735C7.66462 8.62433 7.5 8.2269 7.5 7.8125C7.5 7.3981 7.66462 7.00067 7.95765 6.70765C8.25068 6.41462 8.6481 6.25 9.0625 6.25Z" fill="#29ABE2" stroke="#29ABE2" stroke-width="0.5"/>
</svg>
