<svg width="24" height="20" viewBox="0 0 24 20" fill="none" xmlns="http://www.w3.org/2000/svg">
<path d="M7.28516 11.2793H16.7137" stroke="#757575" stroke-linecap="round" stroke-linejoin="round"/>
<path d="M4.14355 7.01562V4.45759C4.14355 3.55301 4.47468 2.68548 5.06408 2.04585C5.65348 1.40622 6.45287 1.04688 7.28641 1.04688H16.715C17.5485 1.04688 18.3479 1.40622 18.9373 2.04585C19.5267 2.68548 19.8578 3.55301 19.8578 4.45759V7.01562" stroke="#757575" stroke-linecap="round" stroke-linejoin="round"/>
<path d="M7.28571 14.6897V10.4263C7.28571 9.75176 7.10139 9.09234 6.75605 8.53145C6.41071 7.97056 5.91986 7.5334 5.34558 7.27525C4.7713 7.0171 4.13937 6.94956 3.52972 7.08116C2.92006 7.21277 2.36006 7.5376 1.92052 8.0146C1.48099 8.4916 1.18166 9.09933 1.06039 9.76094C0.939123 10.4226 1.00136 11.1083 1.23924 11.7316C1.47711 12.3548 1.87994 12.8875 2.39678 13.2622C2.91362 13.637 3.52126 13.8371 4.14286 13.8371V18.1004C4.14286 18.3266 4.22564 18.5435 4.37299 18.7034C4.52034 18.8633 4.72019 18.9531 4.92857 18.9531H19.0714C19.2798 18.9531 19.4797 18.8633 19.627 18.7034C19.7744 18.5435 19.8571 18.3266 19.8571 18.1004V13.8371C20.4787 13.8371 21.0864 13.637 21.6032 13.2622C22.1201 12.8875 22.5229 12.3548 22.7608 11.7316C22.9986 11.1083 23.0609 10.4226 22.9396 9.76094C22.8183 9.09933 22.519 8.4916 22.0795 8.0146C21.6399 7.5376 21.0799 7.21277 20.4703 7.08116C19.8606 6.94956 19.2287 7.0171 18.6544 7.27525C18.0801 7.5334 17.5893 7.97056 17.244 8.53145C16.8986 9.09234 16.7143 9.75176 16.7143 10.4263V14.6897" stroke="#757575" stroke-linecap="round" stroke-linejoin="round"/>
</svg>
