<svg width="23" height="18" viewBox="0 0 23 18" fill="none" xmlns="http://www.w3.org/2000/svg">
<path d="M12.3125 2.88281C12.3125 2.64245 12.131 2.30236 11.7012 1.99414C11.2871 1.6972 10.731 1.5 10.1875 1.5H3.625C3.08171 1.50006 2.52632 1.6974 2.1123 1.99414C1.68249 2.30236 1.5 2.64245 1.5 2.88281V16.5H21.5V6.64746C21.5 6.4071 21.3185 6.067 20.8887 5.75879C20.4746 5.46183 19.9186 5.26465 19.375 5.26465H12.8125C12.5364 5.26459 12.3125 5.04075 12.3125 4.76465V2.88281ZM13.3125 4.26465H19.375C20.1438 4.26465 20.9005 4.53752 21.4707 4.94629C22.0252 5.34394 22.5 5.94666 22.5 6.64746V17C22.4999 17.276 22.2761 17.5 22 17.5H1C0.724063 17.4999 0.500131 17.2759 0.5 17V2.88281C0.5 2.18202 0.974753 1.5793 1.5293 1.18164C2.09946 0.772843 2.85623 0.500056 3.625 0.5H10.1875C10.9562 0.5 11.713 0.772903 12.2832 1.18164C12.8377 1.5793 13.3125 2.18202 13.3125 2.88281V4.26465Z" fill="#757575"/>
<path d="M12.3125 17L12.3125 10.4121C12.3125 10.136 12.5364 9.91211 12.8125 9.91211C13.0886 9.91211 13.3125 10.136 13.3125 10.4121L13.3125 17C13.3125 17.2761 13.0886 17.5 12.8125 17.5C12.5364 17.5 12.3125 17.2761 12.3125 17Z" fill="#757575"/>
</svg>
