<svg width="24" height="24" viewBox="0 0 24 24" fill="none" xmlns="http://www.w3.org/2000/svg">
<path d="M12 6.5C10.8456 6.5 9.72055 6.86321 8.78409 7.53817C7.84763 8.21313 7.14728 9.16563 6.78224 10.2607C6.4172 11.3559 6.40598 12.5381 6.75018 13.6399C7.09437 14.7418 7.77652 15.7074 8.7 16.4V20.8C8.7 21.3835 8.93179 21.9431 9.34437 22.3556C9.75695 22.7682 10.3165 23 10.9 23H13.1C13.6835 23 14.2431 22.7682 14.6556 22.3556C15.0682 21.9431 15.3 21.3835 15.3 20.8V16.4C16.2235 15.7074 16.9056 14.7418 17.2498 13.6399C17.594 12.5381 17.5828 11.3559 17.2178 10.2607C16.8527 9.16563 16.1524 8.21313 15.2159 7.53817C14.2794 6.86321 13.1544 6.5 12 6.5ZM13.65 14.849C13.4821 14.9459 13.3429 15.0855 13.2463 15.2535C13.1497 15.4216 13.0992 15.6122 13.1 15.806V20.8H10.9V15.806C10.9008 15.6122 10.8503 15.4216 10.7537 15.2535C10.6571 15.0855 10.5179 14.9459 10.35 14.849C9.84964 14.5601 9.43389 14.1449 9.14433 13.645C8.85477 13.145 8.70156 12.5778 8.7 12C8.7 11.1248 9.04768 10.2854 9.66655 9.66655C10.2854 9.04768 11.1248 8.7 12 8.7C12.8752 8.7 13.7146 9.04768 14.3335 9.66655C14.9523 10.2854 15.3 11.1248 15.3 12C15.2984 12.5778 15.1452 13.145 14.8557 13.645C14.5661 14.1449 14.1504 14.5601 13.65 14.849ZM12 5.4C12.2917 5.4 12.5715 5.28411 12.7778 5.07782C12.9841 4.87153 13.1 4.59174 13.1 4.3V2.1C13.1 1.80826 12.9841 1.52847 12.7778 1.32218C12.5715 1.11589 12.2917 1 12 1C11.7083 1 11.4285 1.11589 11.2222 1.32218C11.0159 1.52847 10.9 1.80826 10.9 2.1V4.3C10.9 4.59174 11.0159 4.87153 11.2222 5.07782C11.4285 5.28411 11.7083 5.4 12 5.4ZM21.9 10.9H19.7C19.4083 10.9 19.1285 11.0159 18.9222 11.2222C18.7159 11.4285 18.6 11.7083 18.6 12C18.6 12.2917 18.7159 12.5715 18.9222 12.7778C19.1285 12.9841 19.4083 13.1 19.7 13.1H21.9C22.1917 13.1 22.4715 12.9841 22.6778 12.7778C22.8841 12.5715 23 12.2917 23 12C23 11.7083 22.8841 11.4285 22.6778 11.2222C22.4715 11.0159 22.1917 10.9 21.9 10.9ZM4.3 10.9H2.1C1.80826 10.9 1.52847 11.0159 1.32218 11.2222C1.11589 11.4285 1 11.7083 1 12C1 12.2917 1.11589 12.5715 1.32218 12.7778C1.52847 12.9841 1.80826 13.1 2.1 13.1H4.3C4.59174 13.1 4.87153 12.9841 5.07782 12.7778C5.28411 12.5715 5.4 12.2917 5.4 12C5.4 11.7083 5.28411 11.4285 5.07782 11.2222C4.87153 11.0159 4.59174 10.9 4.3 10.9ZM7.226 5.862L5.642 4.3C5.42757 4.09724 5.14138 3.98797 4.84639 3.99622C4.55139 4.00447 4.27176 4.12957 4.069 4.344C3.86624 4.55843 3.75697 4.84462 3.76522 5.13961C3.77347 5.43461 3.89857 5.71424 4.113 5.917L5.697 7.446C5.8033 7.54864 5.92919 7.62881 6.06715 7.68173C6.20512 7.73465 6.35233 7.75923 6.5 7.754C6.64818 7.75343 6.79471 7.72294 6.93081 7.66434C7.0669 7.60574 7.18976 7.52025 7.292 7.413C7.48835 7.1983 7.59165 6.91456 7.57928 6.62387C7.56691 6.33319 7.43988 6.05924 7.226 5.862ZM19.909 4.355C19.7029 4.15012 19.4241 4.03513 19.1335 4.03513C18.8429 4.03513 18.5641 4.15012 18.358 4.355L16.774 5.862C16.5691 6.0681 16.4541 6.3469 16.4541 6.6375C16.4541 6.9281 16.5691 7.2069 16.774 7.413C16.8762 7.52025 16.9991 7.60574 17.1352 7.66434C17.2713 7.72294 17.4178 7.75343 17.566 7.754C17.8492 7.75287 18.1211 7.64255 18.325 7.446L19.909 5.917C20.0121 5.81474 20.0939 5.69308 20.1498 5.55903C20.2056 5.42499 20.2344 5.28121 20.2344 5.136C20.2344 4.99079 20.2056 4.84701 20.1498 4.71297C20.0939 4.57892 20.0121 4.45726 19.909 4.355Z" fill="#757575" stroke="white"/>
</svg>
