<svg width="124" height="36" viewBox="0 0 124 36" fill="none" xmlns="http://www.w3.org/2000/svg">
<rect x="0.5378" y="0.5378" width="122.924" height="34.9244" rx="9.4622" stroke="#757575" stroke-width="1.0756"/>
<path d="M14.9348 11.09C14.9022 9.7645 16.0175 8.82812 17.2129 8.82812H26.2304C27.4258 8.82812 28.5425 9.7645 28.5098 11.09C28.4759 12.4884 28.1838 13.5526 27.7396 14.3996C27.2981 15.2439 26.7248 15.8296 26.191 16.2971C26.0062 16.4594 25.816 16.6134 25.6435 16.755L25.4438 16.92C25.2417 17.0799 25.0511 17.254 24.8733 17.4411C24.5853 17.7519 24.4399 18.0406 24.4399 18.4531C24.4399 18.8656 24.5853 19.1544 24.8746 19.4651C25.0268 19.6315 25.2142 19.7965 25.4438 19.9876L25.6435 20.1526C25.816 20.2929 26.0062 20.4469 26.1896 20.6091C26.7235 21.0766 27.2954 21.6624 27.7382 22.5066C28.1811 23.3523 28.4732 24.4165 28.5098 25.8135C28.5438 27.1404 27.4258 28.0781 26.229 28.0781H17.2129C16.0175 28.0781 14.8981 27.1404 14.9334 25.8135C14.9688 24.4151 15.2608 23.3523 15.705 22.5066C16.1492 21.661 16.7212 21.0752 17.255 20.6091C17.4398 20.4469 17.6286 20.2929 17.8011 20.1512L18.0022 19.9862C18.2318 19.7965 18.4192 19.6315 18.5727 19.4651C18.8594 19.1544 19.0061 18.8656 19.0061 18.4531C19.0061 18.0406 18.8594 17.7519 18.5714 17.4411C18.3936 17.2535 18.203 17.0789 18.0008 16.9186L17.7998 16.755C17.6153 16.6054 17.4332 16.4527 17.2537 16.2971C16.7198 15.8296 16.1465 15.2439 15.7037 14.3996C15.2595 13.5526 14.9688 12.4884 14.9348 11.09ZM17.2129 10.2031C16.6627 10.2031 16.2797 10.6156 16.2905 11.0556C16.3204 12.2711 16.5704 13.1209 16.9018 13.7548C17.2333 14.3886 17.6721 14.8479 18.1394 15.2576C18.3065 15.4034 18.4681 15.5354 18.6325 15.6701L18.8594 15.8558C19.0971 16.0524 19.343 16.2655 19.5617 16.502C20.0154 16.9929 20.3632 17.602 20.3632 18.4531C20.3632 19.3029 20.0168 19.9134 19.5617 20.4056C19.3443 20.6394 19.0985 20.8525 18.8607 21.0505L18.6325 21.2375C18.4681 21.3722 18.3065 21.5029 18.1407 21.65C17.6734 22.0584 17.236 22.5162 16.9018 23.1515C16.5704 23.784 16.3191 24.6337 16.2878 25.8492C16.2769 26.2892 16.66 26.7031 17.2102 26.7031H26.2276C26.7778 26.7031 27.1609 26.2892 27.15 25.8492C27.1188 24.6337 26.8688 23.784 26.5374 23.1515C26.2032 22.5162 25.7671 22.0584 25.2998 21.6486C25.1327 21.5029 24.9738 21.3709 24.8081 21.2361L24.5812 21.0505C24.3329 20.8519 24.0987 20.6359 23.8802 20.4042C23.4251 19.9134 23.0787 19.3042 23.0787 18.4531C23.0787 17.6034 23.4265 16.9929 23.8802 16.5006C24.0989 16.2655 24.3448 16.0524 24.5825 15.8558L24.8094 15.6701C24.9751 15.5354 25.1354 15.4034 25.3025 15.2576C25.7698 14.8479 26.2073 14.39 26.5401 13.7548C26.8715 13.1223 27.1215 12.2711 27.1514 11.0556C27.1623 10.6156 26.7792 10.2031 26.2304 10.2031H17.2129Z" fill="#757575"/>
<path d="M27.1689 4.42188C30.4337 4.42192 33.0908 7.10247 33.0908 10.4219C33.0908 13.7413 30.4337 16.4218 27.1689 16.4219C23.9041 16.4219 21.2471 13.7413 21.2471 10.4219C21.2471 7.10244 23.9041 4.42188 27.1689 4.42188Z" fill="white" stroke="white"/>
<path d="M46.6525 22.598C45.9992 22.598 45.4112 22.486 44.8885 22.262C44.3658 22.0287 43.9552 21.702 43.6565 21.282C43.3578 20.862 43.2085 20.372 43.2085 19.812H44.9165C44.9538 20.232 45.1172 20.5773 45.4065 20.848C45.7052 21.1187 46.1205 21.254 46.6525 21.254C47.2032 21.254 47.6325 21.1233 47.9405 20.862C48.2485 20.5913 48.4025 20.246 48.4025 19.826C48.4025 19.4993 48.3045 19.2333 48.1085 19.028C47.9218 18.8227 47.6838 18.664 47.3945 18.552C47.1145 18.44 46.7225 18.3187 46.2185 18.188C45.5838 18.02 45.0658 17.852 44.6645 17.684C44.2725 17.5067 43.9365 17.236 43.6565 16.872C43.3765 16.508 43.2365 16.0227 43.2365 15.416C43.2365 14.856 43.3765 14.366 43.6565 13.946C43.9365 13.526 44.3285 13.204 44.8325 12.98C45.3365 12.756 45.9198 12.644 46.5825 12.644C47.5252 12.644 48.2952 12.882 48.8925 13.358C49.4992 13.8247 49.8352 14.4687 49.9005 15.29H48.1365C48.1085 14.9353 47.9405 14.632 47.6325 14.38C47.3245 14.128 46.9185 14.002 46.4145 14.002C45.9572 14.002 45.5838 14.1187 45.2945 14.352C45.0052 14.5853 44.8605 14.9213 44.8605 15.36C44.8605 15.6587 44.9492 15.906 45.1265 16.102C45.3132 16.2887 45.5465 16.438 45.8265 16.55C46.1065 16.662 46.4892 16.7833 46.9745 16.914C47.6185 17.0913 48.1412 17.2687 48.5425 17.446C48.9532 17.6233 49.2985 17.8987 49.5785 18.272C49.8678 18.636 50.0125 19.126 50.0125 19.742C50.0125 20.2367 49.8772 20.7033 49.6065 21.142C49.3452 21.5807 48.9578 21.9353 48.4445 22.206C47.9405 22.4673 47.3432 22.598 46.6525 22.598ZM55.8857 14.66C56.4737 14.66 56.9964 14.786 57.4537 15.038C57.9204 15.29 58.2844 15.6633 58.5457 16.158C58.8164 16.6527 58.9517 17.25 58.9517 17.95V22.5H57.3697V18.188C57.3697 17.4973 57.197 16.97 56.8517 16.606C56.5064 16.2327 56.035 16.046 55.4377 16.046C54.8404 16.046 54.3644 16.2327 54.0097 16.606C53.6644 16.97 53.4917 17.4973 53.4917 18.188V22.5H51.8957V12.14H53.4917V15.682C53.7624 15.3553 54.103 15.1033 54.5137 14.926C54.9337 14.7487 55.391 14.66 55.8857 14.66ZM64.3335 22.626C63.6055 22.626 62.9475 22.4627 62.3595 22.136C61.7715 21.8 61.3095 21.3333 60.9735 20.736C60.6375 20.1293 60.4695 19.4293 60.4695 18.636C60.4695 17.852 60.6422 17.1567 60.9875 16.55C61.3328 15.9433 61.8042 15.4767 62.4015 15.15C62.9988 14.8233 63.6662 14.66 64.4035 14.66C65.1408 14.66 65.8082 14.8233 66.4055 15.15C67.0028 15.4767 67.4742 15.9433 67.8195 16.55C68.1648 17.1567 68.3375 17.852 68.3375 18.636C68.3375 19.42 68.1602 20.1153 67.8055 20.722C67.4508 21.3287 66.9655 21.8 66.3495 22.136C65.7428 22.4627 65.0708 22.626 64.3335 22.626ZM64.3335 21.24C64.7442 21.24 65.1268 21.142 65.4815 20.946C65.8455 20.75 66.1395 20.456 66.3635 20.064C66.5875 19.672 66.6995 19.196 66.6995 18.636C66.6995 18.076 66.5922 17.6047 66.3775 17.222C66.1628 16.83 65.8782 16.536 65.5235 16.34C65.1688 16.144 64.7862 16.046 64.3755 16.046C63.9648 16.046 63.5822 16.144 63.2275 16.34C62.8822 16.536 62.6068 16.83 62.4015 17.222C62.1962 17.6047 62.0935 18.076 62.0935 18.636C62.0935 19.4667 62.3035 20.1107 62.7235 20.568C63.1528 21.016 63.6895 21.24 64.3335 21.24ZM71.5112 15.906C71.7446 15.514 72.0526 15.2107 72.4352 14.996C72.8272 14.772 73.2892 14.66 73.8212 14.66V16.312H73.4152C72.7899 16.312 72.3139 16.4707 71.9872 16.788C71.6699 17.1053 71.5112 17.656 71.5112 18.44V22.5H69.9152V14.786H71.5112V15.906ZM77.1503 16.088V20.358C77.1503 20.6473 77.2156 20.8573 77.3463 20.988C77.4863 21.1093 77.7196 21.17 78.0463 21.17H79.0263V22.5H77.7663C77.0476 22.5 76.4969 22.332 76.1143 21.996C75.7316 21.66 75.5403 21.114 75.5403 20.358V16.088H74.6303V14.786H75.5403V12.868H77.1503V14.786H79.0263V16.088H77.1503ZM86.934 22.626C86.3273 22.626 85.7813 22.5187 85.296 22.304C84.82 22.08 84.442 21.7813 84.162 21.408C83.882 21.0253 83.7327 20.6007 83.714 20.134H85.366C85.394 20.4607 85.548 20.736 85.828 20.96C86.1173 21.1747 86.4767 21.282 86.906 21.282C87.354 21.282 87.6993 21.198 87.942 21.03C88.194 20.8527 88.32 20.6287 88.32 20.358C88.32 20.0687 88.18 19.854 87.9 19.714C87.6293 19.574 87.1953 19.42 86.598 19.252C86.0193 19.0933 85.548 18.9393 85.184 18.79C84.82 18.6407 84.5027 18.412 84.232 18.104C83.9707 17.796 83.84 17.39 83.84 16.886C83.84 16.4753 83.9613 16.102 84.204 15.766C84.4467 15.4207 84.792 15.15 85.24 14.954C85.6973 14.758 86.22 14.66 86.808 14.66C87.6853 14.66 88.39 14.884 88.922 15.332C89.4633 15.7707 89.7527 16.3727 89.79 17.138H88.194C88.166 16.7927 88.026 16.5173 87.774 16.312C87.522 16.1067 87.1813 16.004 86.752 16.004C86.332 16.004 86.01 16.0833 85.786 16.242C85.562 16.4007 85.45 16.6107 85.45 16.872C85.45 17.0773 85.5247 17.25 85.674 17.39C85.8233 17.53 86.0053 17.642 86.22 17.726C86.4347 17.8007 86.752 17.8987 87.172 18.02C87.732 18.1693 88.1893 18.3233 88.544 18.482C88.908 18.6313 89.2207 18.8553 89.482 19.154C89.7433 19.4527 89.8787 19.8493 89.888 20.344C89.888 20.7827 89.7667 21.1747 89.524 21.52C89.2813 21.8653 88.936 22.136 88.488 22.332C88.0493 22.528 87.5313 22.626 86.934 22.626ZM93.4745 16.088V20.358C93.4745 20.6473 93.5398 20.8573 93.6705 20.988C93.8105 21.1093 94.0438 21.17 94.3705 21.17H95.3505V22.5H94.0905C93.3718 22.5 92.8212 22.332 92.4385 21.996C92.0558 21.66 91.8645 21.114 91.8645 20.358V16.088H90.9545V14.786H91.8645V12.868H93.4745V14.786H95.3505V16.088H93.4745ZM96.2895 18.608C96.2895 17.8333 96.4482 17.1473 96.7655 16.55C97.0922 15.9527 97.5308 15.4907 98.0815 15.164C98.6415 14.828 99.2575 14.66 99.9295 14.66C100.536 14.66 101.063 14.7813 101.511 15.024C101.969 15.2573 102.333 15.5513 102.603 15.906V14.786H104.213V22.5H102.603V21.352C102.333 21.716 101.964 22.0193 101.497 22.262C101.031 22.5047 100.499 22.626 99.9015 22.626C99.2388 22.626 98.6322 22.458 98.0815 22.122C97.5308 21.7767 97.0922 21.3007 96.7655 20.694C96.4482 20.078 96.2895 19.3827 96.2895 18.608ZM102.603 18.636C102.603 18.104 102.491 17.642 102.267 17.25C102.053 16.858 101.768 16.5593 101.413 16.354C101.059 16.1487 100.676 16.046 100.265 16.046C99.8548 16.046 99.4722 16.1487 99.1175 16.354C98.7628 16.55 98.4735 16.844 98.2495 17.236C98.0348 17.6187 97.9275 18.076 97.9275 18.608C97.9275 19.14 98.0348 19.6067 98.2495 20.008C98.4735 20.4093 98.7628 20.7173 99.1175 20.932C99.4815 21.1373 99.8642 21.24 100.265 21.24C100.676 21.24 101.059 21.1373 101.413 20.932C101.768 20.7267 102.053 20.428 102.267 20.036C102.491 19.6347 102.603 19.168 102.603 18.636ZM113.254 14.786L108.522 26.126H106.87L108.438 22.374L105.4 14.786H107.178L109.348 20.666L111.602 14.786H113.254Z" fill="#757575"/>
<path d="M31.6972 5.80152C31.9903 5.47201 31.7141 5.00001 31.227 5.00001H27.4491C27.3468 4.99935 27.2461 5.02209 27.1565 5.06605C27.067 5.11001 26.9917 5.1737 26.9378 5.25101L24.0791 9.47902C23.8536 9.81202 24.1371 10.2275 24.5899 10.2275H26.5187L24.7018 14.26C24.4391 14.77 25.149 15.2365 25.626 14.8675L33 8.66552H29.1474L31.6972 5.80152Z" fill="#757575"/>
</svg>
