<svg width="25" height="24" viewBox="0 0 25 24" fill="none" xmlns="http://www.w3.org/2000/svg">
<path d="M9.30176 6.5C9.30176 6.36739 9.35444 6.24021 9.4482 6.14645C9.54197 6.05268 9.66915 6 9.80176 6H15.8018C15.9344 6 16.0615 6.05268 16.1553 6.14645C16.2491 6.24021 16.3018 6.36739 16.3018 6.5C16.3018 6.63261 16.2491 6.75979 16.1553 6.85355C16.0615 6.94732 15.9344 7 15.8018 7H9.80176C9.66915 7 9.54197 6.94732 9.4482 6.85355C9.35444 6.75979 9.30176 6.63261 9.30176 6.5ZM8.80176 12C8.53654 12 8.28219 12.1054 8.09465 12.2929C7.90711 12.4804 7.80176 12.7348 7.80176 13C7.80176 13.2652 7.90711 13.5196 8.09465 13.7071C8.28219 13.8946 8.53654 14 8.80176 14C9.06697 14 9.32133 13.8946 9.50886 13.7071C9.6964 13.5196 9.80176 13.2652 9.80176 13C9.80176 12.7348 9.6964 12.4804 9.50886 12.2929C9.32133 12.1054 9.06697 12 8.80176 12ZM16.8018 12C16.5365 12 16.2822 12.1054 16.0947 12.2929C15.9071 12.4804 15.8018 12.7348 15.8018 13C15.8018 13.2652 15.9071 13.5196 16.0947 13.7071C16.2822 13.8946 16.5365 14 16.8018 14C17.067 14 17.3213 13.8946 17.5089 13.7071C17.6964 13.5196 17.8018 13.2652 17.8018 13C17.8018 12.7348 17.6964 12.4804 17.5089 12.2929C17.3213 12.1054 17.067 12 16.8018 12ZM11.8018 13C11.8018 12.7348 11.9071 12.4804 12.0947 12.2929C12.2822 12.1054 12.5365 12 12.8018 12C13.067 12 13.3213 12.1054 13.5089 12.2929C13.6964 12.4804 13.8018 12.7348 13.8018 13C13.8018 13.2652 13.6964 13.5196 13.5089 13.7071C13.3213 13.8946 13.067 14 12.8018 14C12.5365 14 12.2822 13.8946 12.0947 13.7071C11.9071 13.5196 11.8018 13.2652 11.8018 13ZM8.80176 16C8.53654 16 8.28219 16.1054 8.09465 16.2929C7.90711 16.4804 7.80176 16.7348 7.80176 17C7.80176 17.2652 7.90711 17.5196 8.09465 17.7071C8.28219 17.8946 8.53654 18 8.80176 18C9.06697 18 9.32133 17.8946 9.50886 17.7071C9.6964 17.5196 9.80176 17.2652 9.80176 17C9.80176 16.7348 9.6964 16.4804 9.50886 16.2929C9.32133 16.1054 9.06697 16 8.80176 16ZM11.8018 17C11.8018 16.7348 11.9071 16.4804 12.0947 16.2929C12.2822 16.1054 12.5365 16 12.8018 16C13.067 16 13.3213 16.1054 13.5089 16.2929C13.6964 16.4804 13.8018 16.7348 13.8018 17C13.8018 17.2652 13.6964 17.5196 13.5089 17.7071C13.3213 17.8946 13.067 18 12.8018 18C12.5365 18 12.2822 17.8946 12.0947 17.7071C11.9071 17.5196 11.8018 17.2652 11.8018 17Z" fill="#757575"/>
<path d="M14.4248 3H11.1788C10.0788 3 9.22076 3 8.53376 3.056C7.83576 3.113 7.26876 3.231 6.75876 3.49C5.9118 3.92147 5.22323 4.61005 4.79176 5.457C4.53176 5.967 4.41476 6.534 4.35776 7.232C4.30176 7.92 4.30176 8.776 4.30176 9.877V14.123C4.30176 15.223 4.30176 16.081 4.35776 16.768C4.41476 17.466 4.53276 18.033 4.79176 18.543C5.22323 19.39 5.9118 20.0785 6.75876 20.51C7.26876 20.77 7.83576 20.887 8.53376 20.944C9.22176 21 10.0778 21 11.1788 21H14.4248C15.5248 21 16.3828 21 17.0698 20.944C17.7678 20.887 18.3348 20.769 18.8448 20.51C19.6917 20.0785 20.3803 19.39 20.8118 18.543C21.0718 18.033 21.1888 17.466 21.2458 16.768C21.3018 16.081 21.3018 15.224 21.3018 14.123V9.877C21.3018 8.777 21.3018 7.919 21.2458 7.232C21.1888 6.534 21.0708 5.967 20.8118 5.457C20.3803 4.61005 19.6917 3.92147 18.8448 3.49C18.3348 3.23 17.7678 3.113 17.0698 3.056C16.3818 3 15.5258 3 14.4248 3ZM7.21176 4.381C7.55776 4.205 7.97776 4.105 8.61476 4.053C9.25676 4 10.0738 4 11.2018 4H14.4018C15.5298 4 16.3468 4 16.9878 4.053C17.6248 4.105 18.0448 4.205 18.3908 4.381C19.0496 4.7166 19.5852 5.2522 19.9208 5.911C20.0968 6.257 20.1968 6.677 20.2488 7.314C20.2868 7.771 20.2978 8.316 20.3008 9H5.30176C5.30576 8.316 5.31576 7.77 5.35376 7.314C5.40576 6.677 5.50576 6.257 5.68176 5.911C6.01735 5.2522 6.55296 4.7166 7.21176 4.381ZM5.30176 10H20.3018V14.1C20.3018 15.228 20.3018 16.045 20.2488 16.686C20.1968 17.323 20.0968 17.743 19.9208 18.089C19.5852 18.7478 19.0496 19.2834 18.3908 19.619C18.0448 19.795 17.6248 19.895 16.9888 19.947C16.3468 20 15.5298 20 14.4018 20H11.2018C10.0738 20 9.25676 20 8.61576 19.947C7.97876 19.895 7.55876 19.795 7.21276 19.619C6.55396 19.2834 6.01835 18.7478 5.68276 18.089C5.50676 17.743 5.40676 17.323 5.35476 16.687C5.30176 16.045 5.30176 15.228 5.30176 14.1V10Z" fill="#757575"/>
</svg>
