<svg width="16" height="26" viewBox="0 0 16 26" fill="none" xmlns="http://www.w3.org/2000/svg">
<path fill-rule="evenodd" clip-rule="evenodd" d="M3.61719 9.61654V7.16654C3.61719 3.39004 6.72402 0.283203 10.5005 0.283203H14.0005C14.5804 0.283203 15.0505 0.75337 15.0505 1.3332V5.99987C15.0505 6.5797 14.5804 7.04987 14.0005 7.04987H10.5005C10.4364 7.04987 10.3839 7.10237 10.3839 7.16654V9.61654H14.0005C14.3237 9.61654 14.6294 9.76587 14.8277 10.0202C15.0272 10.2757 15.0972 10.607 15.019 10.9209L13.8524 15.5875C13.7357 16.0554 13.3157 16.3832 12.8339 16.3832H10.3839V24.6665C10.3839 25.2464 9.91369 25.7165 9.33385 25.7165H4.66719C4.08735 25.7165 3.61719 25.2464 3.61719 24.6665V16.3832H1.16719C0.587354 16.3832 0.117188 15.913 0.117188 15.3332V10.6665C0.117188 10.0867 0.587354 9.61654 1.16719 9.61654H3.61719ZM12.9505 2.3832H10.5005C7.87669 2.3832 5.71719 4.5427 5.71719 7.16654V10.6665C5.71719 11.2464 5.24702 11.7165 4.66719 11.7165H2.21719V14.2832H4.66719C5.24702 14.2832 5.71719 14.7534 5.71719 15.3332V23.6165H8.28385V15.3332C8.28385 14.7534 8.75402 14.2832 9.33385 14.2832H12.0137L12.6554 11.7165H9.33385C8.75402 11.7165 8.28385 11.2464 8.28385 10.6665V7.16654C8.28385 5.95087 9.28485 4.94987 10.5005 4.94987H12.9505V2.3832Z" fill="white"/>
</svg>
