<svg width="24" height="24" viewBox="0 0 24 24" fill="none" xmlns="http://www.w3.org/2000/svg">
<path d="M18.2297 4.37016C17.9528 4.37016 17.6821 4.45227 17.4519 4.60611C17.2216 4.75994 17.0422 4.97859 16.9362 5.23441C16.8303 5.49022 16.8026 5.77172 16.8566 6.04329C16.9106 6.31486 17.0439 6.56432 17.2397 6.76011C17.4355 6.95591 17.685 7.08924 17.9565 7.14326C18.2281 7.19728 18.5096 7.16956 18.7654 7.06359C19.0212 6.95763 19.2399 6.77819 19.3937 6.54796C19.5476 6.31773 19.6297 6.04706 19.6297 5.77016C19.6297 5.39886 19.4822 5.04276 19.2196 4.78021C18.9571 4.51766 18.601 4.37016 18.2297 4.37016ZM23.5963 7.1935C23.5737 6.22551 23.3924 5.2678 23.0597 4.3585C22.763 3.58048 22.3013 2.87599 21.7063 2.2935C21.1286 1.69549 20.4225 1.2367 19.6413 0.951829C18.7344 0.609017 17.7757 0.423574 16.8063 0.403496C15.5697 0.333496 15.173 0.333496 11.9997 0.333496C8.82634 0.333496 8.42967 0.333496 7.19301 0.403496C6.22369 0.423574 5.26491 0.609017 4.35801 0.951829C3.5783 1.23959 2.87276 1.69798 2.29301 2.2935C1.695 2.8712 1.23621 3.57734 0.951341 4.3585C0.608529 5.2654 0.423086 6.22417 0.403008 7.1935C0.333008 8.43016 0.333008 8.82683 0.333008 12.0002C0.333008 15.1735 0.333008 15.5702 0.403008 16.8068C0.423086 17.7762 0.608529 18.7349 0.951341 19.6418C1.23621 20.423 1.695 21.1291 2.29301 21.7068C2.87276 22.3023 3.5783 22.7607 4.35801 23.0485C5.26491 23.3913 6.22369 23.5768 7.19301 23.5968C8.42967 23.6668 8.82634 23.6668 11.9997 23.6668C15.173 23.6668 15.5697 23.6668 16.8063 23.5968C17.7757 23.5768 18.7344 23.3913 19.6413 23.0485C20.4225 22.7636 21.1286 22.3048 21.7063 21.7068C22.304 21.1265 22.7661 20.4214 23.0597 19.6418C23.3924 18.7325 23.5737 17.7748 23.5963 16.8068C23.5963 15.5702 23.6663 15.1735 23.6663 12.0002C23.6663 8.82683 23.6663 8.43016 23.5963 7.1935ZM21.4963 16.6668C21.4878 17.4074 21.3537 18.1411 21.0997 18.8368C20.9134 19.3446 20.6142 19.8033 20.2247 20.1785C19.8463 20.5641 19.3884 20.8627 18.883 21.0535C18.1873 21.3075 17.4536 21.4417 16.713 21.4502C15.5463 21.5085 15.1147 21.5202 12.0463 21.5202C8.97801 21.5202 8.54634 21.5202 7.37967 21.4502C6.61071 21.4646 5.84504 21.3462 5.11634 21.1002C4.63309 20.8996 4.19626 20.6017 3.83301 20.2252C3.44578 19.8504 3.15032 19.3912 2.96967 18.8835C2.68484 18.1778 2.52686 17.4274 2.50301 16.6668C2.50301 15.5002 2.43301 15.0685 2.43301 12.0002C2.43301 8.93183 2.43301 8.50016 2.50301 7.3335C2.50824 6.57639 2.64645 5.8261 2.91134 5.11683C3.11673 4.62439 3.43198 4.18543 3.83301 3.8335C4.18746 3.43236 4.62551 3.11377 5.11634 2.90016C5.82748 2.64355 6.577 2.50942 7.33301 2.5035C8.49967 2.5035 8.93134 2.4335 11.9997 2.4335C15.068 2.4335 15.4997 2.4335 16.6663 2.5035C17.4069 2.51199 18.1407 2.64612 18.8363 2.90016C19.3665 3.09692 19.8423 3.41682 20.2247 3.8335C20.607 4.19187 20.9057 4.63002 21.0997 5.11683C21.359 5.82725 21.4932 6.57724 21.4963 7.3335C21.5547 8.50016 21.5663 8.93183 21.5663 12.0002C21.5663 15.0685 21.5547 15.5002 21.4963 16.6668ZM11.9997 6.01516C10.8165 6.01747 9.66046 6.37044 8.67777 7.02948C7.69508 7.68852 6.92978 8.62406 6.47858 9.71787C6.02738 10.8117 5.91052 12.0147 6.14277 13.1749C6.37502 14.3351 6.94595 15.4005 7.78343 16.2363C8.62091 17.0722 9.68735 17.641 10.848 17.871C12.0087 18.101 13.2115 17.9818 14.3044 17.5285C15.3973 17.0751 16.3314 16.308 16.9885 15.324C17.6456 14.3401 17.9963 13.1834 17.9963 12.0002C17.9979 11.2128 17.8437 10.4329 17.5428 9.70528C17.2418 8.97769 16.8 8.31677 16.2427 7.76055C15.6854 7.20434 15.0236 6.76379 14.2954 6.46425C13.5673 6.16471 12.787 6.01209 11.9997 6.01516ZM11.9997 15.8852C11.2313 15.8852 10.4802 15.6573 9.84128 15.2304C9.2024 14.8035 8.70445 14.1968 8.4104 13.4869C8.11636 12.777 8.03942 11.9959 8.18932 11.2422C8.33923 10.4886 8.70924 9.79638 9.25256 9.25305C9.79589 8.70973 10.4881 8.33972 11.2417 8.18981C11.9954 8.03991 12.7765 8.11684 13.4864 8.41089C14.1963 8.70494 14.803 9.20289 15.2299 9.84177C15.6568 10.4807 15.8847 11.2318 15.8847 12.0002C15.8847 12.5103 15.7842 13.0155 15.5889 13.4869C15.3937 13.9582 15.1075 14.3865 14.7468 14.7473C14.386 15.108 13.9577 15.3942 13.4864 15.5894C13.015 15.7847 12.5099 15.8852 11.9997 15.8852Z" fill="white"/>
</svg>
