<svg width="28" height="26" viewBox="0 0 28 26" fill="none" xmlns="http://www.w3.org/2000/svg">
<path d="M7.37614 9.24979C7.37583 9.24979 7.37637 9.24979 7.37614 9.24979H2.37537C2.03037 9.24957 1.7506 9.52911 1.75037 9.87403C1.75037 9.8738 1.75037 9.87434 1.75037 9.87403V24.8748C1.75015 25.2198 2.02969 25.4996 2.37461 25.4998C2.37438 25.4998 2.37492 25.4998 2.37461 25.4998H7.37537C7.72038 25.5 8.00014 25.2205 8.00037 24.8755C8.00037 24.8753 8.00037 24.8757 8.00037 24.8755V9.87479C8.0006 9.52979 7.72106 9.25002 7.37614 9.24979ZM6.75037 24.2498H3.00037V10.4998H6.75037V24.2498ZM20.5004 9.24979C19.1443 9.24987 17.8262 9.69741 16.7504 10.523V9.87479C16.7506 9.52979 16.4711 9.25002 16.1261 9.24979C16.1258 9.24979 16.1264 9.24979 16.1261 9.24979H11.1254C10.7804 9.24957 10.5006 9.52911 10.5004 9.87403C10.5004 9.8738 10.5004 9.87434 10.5004 9.87403V24.8748C10.5001 25.2198 10.7797 25.4996 11.1247 25.4998C11.1245 25.4998 11.1249 25.4998 11.1247 25.4998H16.1254C16.4704 25.5 16.7501 25.2205 16.7504 24.8755C16.7504 24.8753 16.7504 24.8757 16.7504 24.8755V17.9998C16.7504 16.9643 17.5898 16.1248 18.6254 16.1248C19.6609 16.1248 20.5004 16.9643 20.5004 17.9998V24.8748C20.5001 25.2198 20.7797 25.4996 21.1247 25.4998C21.1245 25.4998 21.1249 25.4998 21.1247 25.4998H26.1254C26.4704 25.5 26.7501 25.2205 26.7504 24.8755C26.7504 24.8753 26.7504 24.8757 26.7504 24.8755V15.4998C26.7463 12.0497 23.9505 9.25384 20.5004 9.24979ZM25.5004 24.2498H21.7504V17.9998C21.7504 16.2739 20.3513 14.8748 18.6254 14.8748C16.8995 14.8748 15.5004 16.2739 15.5004 17.9998V24.2498H11.7504V10.4998H15.5004V12.0037C15.5004 12.2693 15.6684 12.5058 15.9192 12.5933C16.1693 12.6835 16.4492 12.6033 16.6137 12.3943C18.3169 10.2358 21.4474 9.86678 23.6059 11.57C24.8082 12.5188 25.507 13.9682 25.5004 15.4998V24.2498ZM5.33535 0.502083C5.18833 0.491783 5.04078 0.49102 4.89368 0.499794C3.00709 0.370933 1.37325 1.79588 1.24439 3.68247C1.23921 3.75838 1.23661 3.83437 1.23646 3.91044C1.22021 5.78101 2.72343 7.31055 4.594 7.32681C4.67037 7.32749 4.74667 7.32551 4.82288 7.32101H4.85828C6.7413 7.45277 8.37452 6.03309 8.50628 4.15008C8.63804 2.26707 7.21836 0.633842 5.33535 0.502083ZM5.29217 6.07459C5.14782 6.08787 5.0024 6.08672 4.85828 6.07101H4.82288C3.62774 6.16286 2.5845 5.26855 2.49264 4.0734C2.40078 2.87833 3.2951 1.83501 4.49024 1.74316C4.62467 1.73286 4.75971 1.73507 4.89368 1.74979C6.08791 1.63978 7.14527 2.51868 7.25536 3.71291C7.36538 4.90722 6.48647 5.96458 5.29217 6.07459Z" fill="white"/>
<path d="M7.37614 9.24979C7.37583 9.24979 7.37637 9.24979 7.37614 9.24979ZM7.37614 9.24979H2.37537C2.03037 9.24957 1.7506 9.52911 1.75037 9.87403M7.37614 9.24979C7.72106 9.25002 8.0006 9.52979 8.00037 9.87479V24.8755M1.75037 9.87403C1.75037 9.87434 1.75037 9.8738 1.75037 9.87403ZM1.75037 9.87403V24.8748C1.75015 25.2198 2.02969 25.4996 2.37461 25.4998M2.37461 25.4998C2.37492 25.4998 2.37438 25.4998 2.37461 25.4998ZM2.37461 25.4998H7.37537C7.72038 25.5 8.00015 25.2205 8.00037 24.8755M8.00037 24.8755C8.00037 24.8753 8.00037 24.8757 8.00037 24.8755ZM16.1261 9.24979C16.4711 9.25002 16.7506 9.52979 16.7504 9.87479V10.523C17.8262 9.69741 19.1443 9.24987 20.5004 9.24979C23.9505 9.25384 26.7463 12.0497 26.7504 15.4998V24.8755M16.1261 9.24979C16.1258 9.24979 16.1264 9.24979 16.1261 9.24979ZM16.1261 9.24979H11.1254C10.7804 9.24957 10.5006 9.52911 10.5004 9.87403M10.5004 9.87403C10.5004 9.87434 10.5004 9.8738 10.5004 9.87403ZM10.5004 9.87403V24.8748C10.5001 25.2198 10.7797 25.4996 11.1247 25.4998M11.1247 25.4998C11.1249 25.4998 11.1245 25.4998 11.1247 25.4998ZM11.1247 25.4998H16.1254C16.4704 25.5 16.7501 25.2205 16.7504 24.8755M16.7504 24.8755C16.7504 24.8753 16.7504 24.8757 16.7504 24.8755ZM16.7504 24.8755V17.9998C16.7504 16.9643 17.5898 16.1248 18.6254 16.1248C19.6609 16.1248 20.5004 16.9643 20.5004 17.9998V24.8748C20.5001 25.2198 20.7797 25.4996 21.1247 25.4998M21.1247 25.4998C21.1249 25.4998 21.1245 25.4998 21.1247 25.4998ZM21.1247 25.4998H26.1254C26.4704 25.5 26.7501 25.2205 26.7504 24.8755M26.7504 24.8755C26.7504 24.8753 26.7504 24.8757 26.7504 24.8755ZM6.75037 24.2498H3.00037V10.4998H6.75037V24.2498ZM25.5004 24.2498H21.7504V17.9998C21.7504 16.2739 20.3513 14.8748 18.6254 14.8748C16.8995 14.8748 15.5004 16.2739 15.5004 17.9998V24.2498H11.7504V10.4998H15.5004V12.0037C15.5004 12.2693 15.6684 12.5058 15.9192 12.5933C16.1693 12.6835 16.4492 12.6033 16.6137 12.3943C18.3169 10.2358 21.4474 9.86678 23.6059 11.57C24.8082 12.5188 25.507 13.9682 25.5004 15.4998V24.2498ZM5.33535 0.502083C5.18833 0.491783 5.04078 0.49102 4.89368 0.499794C3.00709 0.370933 1.37325 1.79588 1.24439 3.68247C1.23921 3.75838 1.23661 3.83437 1.23646 3.91044C1.22021 5.78101 2.72343 7.31055 4.594 7.32681C4.67037 7.32749 4.74667 7.32551 4.82288 7.32101H4.85828C6.7413 7.45277 8.37452 6.03309 8.50628 4.15008C8.63804 2.26707 7.21836 0.633842 5.33535 0.502083ZM5.29217 6.07459C5.14782 6.08787 5.0024 6.08672 4.85828 6.07101H4.82288C3.62774 6.16286 2.5845 5.26855 2.49264 4.0734C2.40078 2.87833 3.2951 1.83501 4.49024 1.74316C4.62467 1.73286 4.75971 1.73507 4.89368 1.74979C6.08791 1.63978 7.14527 2.51868 7.25536 3.71291C7.36538 4.90722 6.48647 5.96458 5.29217 6.07459Z" stroke="white"/>
</svg>
