<svg width="30" height="22" viewBox="0 0 30 22" fill="none" xmlns="http://www.w3.org/2000/svg">
<path fill-rule="evenodd" clip-rule="evenodd" d="M27.8073 3.51579C27.0476 2.17804 26.2245 1.93221 24.5464 1.83883C22.8703 1.7264 18.6538 1.68066 15.0028 1.68066C11.3444 1.68066 7.12599 1.7264 5.4517 1.83883C3.77741 1.93411 2.9524 2.17804 2.18525 3.51579C1.40317 4.85355 1 7.15366 1 11.205V11.2203C1 15.2545 1.40317 17.5718 2.18525 18.8924C2.95054 20.2282 3.77555 20.4722 5.4517 20.5846C7.12599 20.6799 11.3425 20.737 15.0028 20.737C18.6538 20.737 22.8703 20.6799 24.5483 20.5846C26.2263 20.4722 27.0495 20.2282 27.8091 18.8924C28.6006 17.5699 29 15.2526 29 11.2203V11.205C28.9981 7.15366 28.6006 4.85355 27.8073 3.51579Z" stroke="white" stroke-width="2" stroke-miterlimit="10" stroke-linecap="round" stroke-linejoin="round"/>
<path fill-rule="evenodd" clip-rule="evenodd" d="M12.7578 14.7501V7.14941L18.8489 10.9497L12.7578 14.7501Z" stroke="white" stroke-width="2" stroke-miterlimit="10" stroke-linecap="round" stroke-linejoin="round"/>
</svg>
