<svg width="28" height="28" viewBox="0 0 28 28" fill="none" xmlns="http://www.w3.org/2000/svg">
<path d="M15.7431 22.5679C15.1479 23.6583 13.5123 23.3946 13.2902 22.1723L11.526 12.4684C11.4835 12.2355 11.5045 11.9955 11.5869 11.7735C11.6692 11.5516 11.8099 11.356 11.9941 11.2072C12.1782 11.0585 12.3991 10.9621 12.6334 10.9283C12.8677 10.8944 13.1068 10.9244 13.3255 11.015L22.4399 14.7851C23.5874 15.26 23.5007 16.9144 22.3098 17.2662L18.4527 18.4047C18.118 18.5038 17.8358 18.7312 17.6692 19.0368L15.7431 22.5679Z" stroke="white" stroke-width="1.5" stroke-linejoin="round"/>
<path d="M5.39303 12.0608L7.86283 11.6734M11.0248 7.63257L10.6374 5.16277M7.91198 8.64419L5.8915 7.17253M14.2979 7.64246L15.7707 5.62281" stroke="white" stroke-width="1.5" stroke-linecap="round" stroke-linejoin="round"/>
</svg>
