<svg width="22" height="18" viewBox="0 0 22 18" fill="none" xmlns="http://www.w3.org/2000/svg">
<path d="M18 1C18.7956 1 19.5587 1.31607 20.1213 1.87868C20.6839 2.44129 21 3.20435 21 4V14C21 14.7956 20.6839 15.5587 20.1213 16.1213C19.5587 16.6839 18.7956 17 18 17H4C3.20435 17 2.44129 16.6839 1.87868 16.1213C1.31607 15.5587 1 14.7956 1 14V4C1 3.20435 1.31607 2.44129 1.87868 1.87868C2.44129 1.31607 3.20435 1 4 1H18ZM18 3H4C3.73478 3 3.48043 3.10536 3.29289 3.29289C3.10536 3.48043 3 3.73478 3 4V14C3 14.2652 3.10536 14.5196 3.29289 14.7071C3.48043 14.8946 3.73478 15 4 15H18C18.2652 15 18.5196 14.8946 18.7071 14.7071C18.8946 14.5196 19 14.2652 19 14V4C19 3.73478 18.8946 3.48043 18.7071 3.29289C18.5196 3.10536 18.2652 3 18 3ZM9.707 5.293C9.89447 5.48053 9.99979 5.73484 9.99979 6C9.99979 6.26516 9.89447 6.51947 9.707 6.707L6.707 9.707C6.5184 9.88916 6.2658 9.98995 6.0036 9.98767C5.7414 9.9854 5.49059 9.88023 5.30518 9.69482C5.11977 9.50941 5.0146 9.2586 5.01233 8.9964C5.01005 8.7342 5.11084 8.4816 5.293 8.293L8.293 5.293C8.48053 5.10553 8.73484 5.00021 9 5.00021C9.26516 5.00021 9.51947 5.10553 9.707 5.293ZM5.293 4.293C5.47296 4.11365 5.71443 4.00953 5.96838 4.00177C6.22233 3.99402 6.46971 4.08322 6.66028 4.25125C6.85084 4.41928 6.97031 4.65355 6.9944 4.90647C7.01849 5.1594 6.94541 5.41201 6.79 5.613L6.707 5.707L5.707 6.707C5.52704 6.88635 5.28557 6.99047 5.03162 6.99823C4.77767 7.00598 4.53029 6.91679 4.33972 6.74875C4.14916 6.58072 4.02969 6.34645 4.0056 6.09353C3.98151 5.8406 4.05459 5.58799 4.21 5.387L4.293 5.293L5.293 4.293Z" fill="white" stroke="#29ABE2" stroke-width="0.5"/>
</svg>
