<svg width="22" height="16" viewBox="0 0 22 16" fill="none" xmlns="http://www.w3.org/2000/svg">
<path d="M20.75 8C20.75 10.25 16.385 14.75 11 14.75C5.615 14.75 1.25 10.25 1.25 8C1.25 5.75 5.615 1.25 11 1.25C16.385 1.25 20.75 5.75 20.75 8Z" stroke="white" stroke-width="1.5" stroke-linejoin="round"/>
<path d="M14.75 8C14.75 8.99456 14.3549 9.94839 13.6517 10.6517C12.9484 11.3549 11.9946 11.75 11 11.75C10.0054 11.75 9.05161 11.3549 8.34835 10.6517C7.64509 9.94839 7.25 8.99456 7.25 8C7.25 7.00544 7.64509 6.05161 8.34835 5.34835C9.05161 4.64509 10.0054 4.25 11 4.25C11.9946 4.25 12.9484 4.64509 13.6517 5.34835C14.3549 6.05161 14.75 7.00544 14.75 8Z" stroke="white" stroke-width="1.5" stroke-linejoin="round"/>
</svg>
