<svg width="21" height="20" viewBox="0 0 21 20" fill="none" xmlns="http://www.w3.org/2000/svg">
<path d="M8.36388 11.5673C8.27053 11.478 8.14393 11.4278 8.01194 11.4278C7.87994 11.4278 7.75334 11.478 7.65999 11.5673L4.52685 14.5642V11.9044C4.52685 11.7781 4.4744 11.657 4.38105 11.5677C4.28769 11.4784 4.16107 11.4282 4.02905 11.4282C3.89702 11.4282 3.77041 11.4784 3.67705 11.5677C3.5837 11.657 3.53125 11.7781 3.53125 11.9044V15.7136C3.53125 15.8399 3.5837 15.961 3.67705 16.0503C3.77041 16.1396 3.89702 16.1898 4.02905 16.1898H8.01144C8.14346 16.1898 8.27008 16.1396 8.36344 16.0503C8.45679 15.961 8.50924 15.8399 8.50924 15.7136C8.50924 15.5873 8.45679 15.4662 8.36344 15.3769C8.27008 15.2876 8.14346 15.2375 8.01144 15.2375H5.23073L8.36288 12.2415C8.40931 12.1973 8.44617 12.1448 8.47135 12.087C8.49653 12.0292 8.50954 11.9672 8.50963 11.9046C8.50972 11.8419 8.4969 11.7799 8.47189 11.722C8.44688 11.6641 8.41017 11.6115 8.36388 11.5673ZM17.162 2.89361C17.1015 2.87029 17.037 2.85801 16.9718 2.85742H12.9894C12.8574 2.85742 12.7308 2.90759 12.6374 2.99688C12.5441 3.08618 12.4916 3.20729 12.4916 3.33358C12.4916 3.45986 12.5441 3.58097 12.6374 3.67027C12.7308 3.75957 12.8574 3.80973 12.9894 3.80973H15.7701L12.638 6.8057C12.5917 6.84991 12.555 6.90241 12.5299 6.96019C12.5048 7.01798 12.4919 7.07992 12.4918 7.14248C12.4918 7.26884 12.5441 7.39005 12.6375 7.47946C12.7308 7.56887 12.8575 7.61915 12.9896 7.61924C13.1217 7.61933 13.2484 7.56922 13.3419 7.47994L16.474 4.48302V7.14282C16.474 7.2691 16.5265 7.39022 16.6198 7.47951C16.7132 7.56881 16.8398 7.61897 16.9718 7.61897C17.1038 7.61897 17.2305 7.56881 17.3238 7.47951C17.4172 7.39022 17.4696 7.2691 17.4696 7.14282V3.33358C17.4695 3.23938 17.4402 3.14734 17.3854 3.06905C17.3307 2.99075 17.2529 2.92971 17.162 2.89361Z" fill="#757575"/>
<path d="M17.9679 0H3.03392C2.37404 0.000756067 1.74141 0.25183 1.2748 0.698148C0.808199 1.14447 0.545712 1.74959 0.544922 2.38078V16.6654C0.544922 17.9787 1.66198 19.0462 3.03392 19.0462H17.9679C19.3398 19.0462 20.4569 17.9787 20.4569 16.6654V2.38078C20.4569 1.06754 19.3398 0 17.9679 0ZM19.4613 16.6654C19.4613 17.453 18.7912 18.0939 17.9679 18.0939H3.03392C2.21056 18.0939 1.54052 17.453 1.54052 16.6654V2.38078C1.54052 1.59322 2.21056 0.95231 3.03392 0.95231H17.9679C18.7912 0.95231 19.4613 1.59322 19.4613 2.38078V16.6654Z" fill="#757575"/>
</svg>
