<svg width="14" height="20" viewBox="0 0 14 20" fill="none" xmlns="http://www.w3.org/2000/svg">
<path d="M0.00217254 2.26187C-0.0304304 0.936375 1.08486 0 2.2803 0H11.2977C12.4932 0 13.6098 0.936375 13.5772 2.26187C13.5433 3.66025 13.2512 4.7245 12.807 5.5715C12.3655 6.41575 11.7922 7.0015 11.2583 7.469C11.0736 7.63125 10.8834 7.78525 10.7109 7.92687L10.5112 8.09188C10.3091 8.25174 10.1184 8.42588 9.94064 8.613C9.65265 8.92375 9.50729 9.2125 9.50729 9.625C9.50729 10.0375 9.65265 10.3263 9.942 10.637C10.0941 10.8034 10.2816 10.9684 10.5112 11.1595L10.7109 11.3245C10.8834 11.4648 11.0736 11.6188 11.257 11.781C11.7909 12.2485 12.3628 12.8343 12.8056 13.6785C13.2485 14.5241 13.5406 15.5884 13.5772 16.9854C13.6112 18.3123 12.4932 19.25 11.2964 19.25H2.2803C1.08486 19.25 -0.0345057 18.3123 0.00081418 16.9854C0.0361341 15.587 0.328202 14.5241 0.772417 13.6785C1.21663 12.8329 1.78854 12.2471 2.32242 11.781C2.50717 11.6188 2.69599 11.4648 2.86852 11.3231L3.06957 11.1581C3.29915 10.9684 3.48661 10.8034 3.64012 10.637C3.92675 10.3263 4.07347 10.0375 4.07347 9.625C4.07347 9.2125 3.92675 8.92375 3.63876 8.613C3.46101 8.42541 3.27035 8.2508 3.06821 8.0905L2.86716 7.92687C2.68268 7.77727 2.50062 7.62462 2.32106 7.469C1.78718 7.0015 1.21392 6.41575 0.771059 5.5715C0.326844 4.7245 0.036134 3.66025 0.00217254 2.26187ZM2.2803 1.375C1.73013 1.375 1.34704 1.7875 1.35791 2.2275C1.3878 3.443 1.63776 4.29275 1.96922 4.92663C2.30068 5.5605 2.73946 6.01975 3.20677 6.4295C3.37386 6.57525 3.53552 6.70725 3.69989 6.842L3.92675 7.02763C4.16448 7.22425 4.41037 7.43738 4.62908 7.67387C5.0828 8.16475 5.43057 8.77388 5.43057 9.625C5.43057 10.4747 5.08416 11.0852 4.62908 11.5775C4.41172 11.8113 4.16584 12.0244 3.92811 12.2224L3.69989 12.4094C3.53552 12.5441 3.37386 12.6747 3.20813 12.8219C2.74082 13.2302 2.3034 13.6881 1.96922 14.3234C1.63776 14.9559 1.38644 15.8056 1.3552 17.0211C1.34433 17.4611 1.72741 17.875 2.27759 17.875H11.295C11.8452 17.875 12.2283 17.4611 12.2174 17.0211C12.1862 15.8056 11.9362 14.9559 11.6048 14.3234C11.2706 13.6881 10.8345 13.2303 10.3672 12.8205C10.2001 12.6748 10.0412 12.5428 9.87544 12.408L9.64857 12.2224C9.40033 12.0237 9.16611 11.8078 8.94761 11.5761C8.49253 11.0852 8.14612 10.4761 8.14612 9.625C8.14612 8.77525 8.49389 8.16475 8.94761 7.6725C9.16632 7.43737 9.4122 7.22425 9.64993 7.02763L9.8768 6.842C10.0425 6.70725 10.2028 6.57525 10.3699 6.4295C10.8372 6.01975 11.2746 5.56188 11.6075 4.92663C11.9389 4.29413 12.1889 3.443 12.2188 2.2275C12.2296 1.7875 11.8466 1.375 11.2977 1.375H2.2803Z" fill="url(#paint0_linear_3086_678)"/>
<defs>
<linearGradient id="paint0_linear_3086_678" x1="6.78899" y1="0" x2="6.78899" y2="19.25" gradientUnits="userSpaceOnUse">
<stop stop-color="#29ABE2"/>
<stop offset="0.5" stop-color="#32D3D5"/>
<stop offset="0.985577" stop-color="#29FFC6"/>
</linearGradient>
</defs>
</svg>
