<svg width="17" height="24" viewBox="0 0 17 24" fill="none" xmlns="http://www.w3.org/2000/svg">
<path d="M7.79336 9.85184C7.63141 9.50562 7.37426 9.21263 7.05197 9.00714C6.72967 8.80165 6.35554 8.69214 5.97331 8.69141C5.19852 8.69141 4.52494 9.13464 4.19164 9.7803C3.86009 9.536 3.45001 9.38941 3.00677 9.38941C1.90043 9.38941 1 10.2898 1 11.3962V14.7117C1 15.8181 1.90043 16.7185 3.00677 16.7185C3.68384 16.7185 4.28238 16.38 4.64709 15.8652C4.86871 16.0624 5.13395 16.2124 5.43235 16.2962C5.56609 16.3333 5.70907 16.3159 5.83005 16.2479C5.95103 16.1799 6.04017 16.0668 6.07801 15.9332C6.15653 15.654 5.9925 15.3661 5.71504 15.2876C5.51337 15.2308 5.33573 15.1098 5.20912 14.9429C5.08251 14.7759 5.01384 14.5722 5.01355 14.3627V10.6982C5.01355 10.1694 5.44457 9.73842 5.97331 9.73842C6.345 9.73842 6.68702 9.95655 6.84407 10.2933C6.96622 10.5551 7.27684 10.6685 7.54034 10.5464C7.80209 10.426 7.91552 10.1153 7.79336 9.85184ZM3.96653 14.7117C3.96653 15.2405 3.53551 15.6715 3.00677 15.6715C2.47803 15.6715 2.04701 15.2405 2.04701 14.7117V11.3962C2.04701 10.8674 2.47803 10.4364 3.00677 10.4364C3.53551 10.4364 3.96653 10.8674 3.96653 11.3962V14.7117Z" fill="white" stroke="white" stroke-width="0.2"/>
<path d="M7.63176 23.0003C4.69314 23.0003 2.07387 21.0302 1.26069 18.212C1.22228 18.0787 1.23839 17.9356 1.30547 17.8142C1.37256 17.6928 1.48513 17.603 1.61842 17.5646C1.75171 17.5262 1.8948 17.5423 2.01621 17.6094C2.13762 17.6765 2.22741 17.789 2.26582 17.9223C2.95161 20.2956 5.15732 21.9533 7.63176 21.9533C10.7117 21.9533 13.2158 19.4492 13.2158 16.3693V16.036C13.2178 15.865 13.1745 15.6967 13.0902 15.548C13.0059 15.3993 12.8836 15.2756 12.7359 15.1896L8.50427 12.7466C8.39527 12.6835 8.27488 12.6425 8.15001 12.626C8.02513 12.6095 7.89823 12.6179 7.7766 12.6506C7.6547 12.6828 7.5404 12.7388 7.44035 12.8155C7.34029 12.8922 7.25647 12.988 7.19376 13.0973C6.92851 13.5563 7.08731 14.1444 7.54451 14.4079L10.4011 16.0569C10.6524 16.2017 10.7379 16.5211 10.5931 16.7724C10.5235 16.8926 10.4091 16.9803 10.275 17.0163C10.1409 17.0523 9.99797 17.0336 9.8776 16.9643L7.021 15.317C6.06298 14.7638 5.73318 13.5336 6.28635 12.5756C6.55508 12.1114 6.98785 11.7799 7.50437 11.6403C8.02264 11.5024 8.5636 11.5722 9.02777 11.8409L13.2594 14.284C13.567 14.4621 13.8219 14.7186 13.9981 15.0273C14.1744 15.3359 14.2657 15.6858 14.2628 16.0412V16.3693C14.2628 20.0251 11.2876 23.0003 7.63176 23.0003Z" fill="white" stroke="white" stroke-width="0.2"/>
<path d="M3.00677 16.7182C1.90043 16.7182 1 15.8178 1 14.7114C1 14.4218 1.23383 14.1879 1.52351 14.1879C1.81318 14.1879 2.04701 14.4218 2.04701 14.7114C2.04701 15.2402 2.47803 15.6712 3.00677 15.6712C3.29645 15.6712 3.53028 15.905 3.53028 16.1947C3.53028 16.4844 3.29645 16.7182 3.00677 16.7182ZM15.7035 2.14206C15.561 1.92027 15.3759 1.72885 15.1591 1.57881C14.9423 1.42877 14.698 1.32308 14.4401 1.26781C13.9166 1.15438 13.3792 1.2521 12.929 1.54352C12.7072 1.6861 12.5157 1.87112 12.3657 2.08794C12.2157 2.30476 12.11 2.5491 12.0547 2.80691L10.9553 7.90586L10.2556 2.73711C10.1073 1.64124 9.0934 0.869941 7.99753 1.01827C6.90166 1.16659 6.13036 2.18045 6.27869 3.27632L6.87025 7.64411C6.87953 7.71228 6.90215 7.77796 6.93681 7.8374C6.97147 7.89683 7.01751 7.94885 7.07228 7.9905C7.12704 8.03214 7.18948 8.06259 7.25602 8.08011C7.32255 8.09762 7.39189 8.10186 7.46006 8.09258C7.52824 8.0833 7.59392 8.06068 7.65335 8.02602C7.71279 7.99135 7.76481 7.94532 7.80645 7.89055C7.8481 7.83578 7.87855 7.77335 7.89606 7.70681C7.91358 7.64027 7.91782 7.57094 7.90854 7.50276L7.31697 3.13498C7.24543 2.60973 7.61537 2.12636 8.13888 2.05481C8.66238 1.98326 9.1475 2.35321 9.21904 2.87671L10.3202 11.0033C10.3293 11.0715 10.3518 11.1373 10.3864 11.1968C10.421 11.2563 10.467 11.3084 10.5219 11.3501C10.5767 11.3918 10.6392 11.4222 10.7058 11.4396C10.7724 11.4571 10.8418 11.4612 10.91 11.4517C11.0165 11.4375 11.1159 11.3905 11.1947 11.3174C11.2734 11.2443 11.3276 11.1486 11.3497 11.0434H11.3515L13.0808 3.02679C13.1068 2.90352 13.1571 2.78666 13.2287 2.683C13.3003 2.57935 13.3918 2.49097 13.4978 2.42301C13.7125 2.28341 13.969 2.23629 14.2203 2.29213C14.7368 2.40381 15.0684 2.9151 14.9567 3.43338L13.2291 11.45C13.2186 11.4866 13.2151 11.5233 13.2151 11.5599V12.9071C13.2151 13.1968 13.449 13.4306 13.7386 13.4306C14.0283 13.4306 14.2622 13.1968 14.2622 12.9071V11.6158L15.9775 3.65325C16.0909 3.12974 15.9932 2.59228 15.7035 2.14206Z" fill="white" stroke="white" stroke-width="0.2"/>
</svg>
