<svg width="22" height="21" viewBox="0 0 22 21" fill="none" xmlns="http://www.w3.org/2000/svg">
<path fill-rule="evenodd" clip-rule="evenodd" d="M12.0261 1.07757C12.2411 1.00529 12.4694 0.983126 12.6941 1.01275C12.9187 1.04237 13.1338 1.12301 13.3232 1.2486C13.5126 1.3742 13.6714 1.5415 13.7876 1.73794C13.9038 1.93438 13.9745 2.15486 13.9943 2.38284L14.0003 2.5162V8.05856L17.7948 8.82637C18.111 8.89002 18.3985 9.0549 18.6146 9.29656C18.8308 9.53822 18.9641 9.8438 18.9949 10.168L19.0009 10.3115V17.9795H20.001C20.2559 17.9797 20.5011 18.0783 20.6864 18.2551C20.8718 18.4319 20.9833 18.6735 20.9983 18.9305C21.0132 19.1876 20.9304 19.4407 20.7668 19.6382C20.6032 19.8356 20.3711 19.9625 20.118 19.9929L20.001 20H1.999C1.74409 19.9997 1.49892 19.9011 1.31356 19.7243C1.1282 19.5476 1.01666 19.306 1.00172 19.0489C0.986781 18.7919 1.06957 18.5388 1.23318 18.3413C1.39679 18.1438 1.62887 18.0169 1.88199 17.9865L1.999 17.9795H2.99911V5.20959C2.99911 4.60342 3.35515 4.06192 3.89721 3.82147L4.02523 3.77197L12.0261 1.07757ZM12.0001 3.21733L4.99934 5.5743V17.9795H12.0001V3.21733ZM14.0003 10.1205V17.9795H17.0007V10.7257L14.0003 10.1205Z" fill="#757575" stroke="white"/>
</svg>
