<svg width="130" height="130" viewBox="0 0 130 130" fill="none" xmlns="http://www.w3.org/2000/svg">
<g clip-path="url(#clip0_2813_371)">
<path d="M86.2 31.4632H61.0667V23.6577C61.0601 18.2715 56.7365 13.9075 51.4 13.9009H16.6C11.2635 13.9075 6.93986 18.2715 6.93333 23.6577V31.4632H-18.2C-21.403 31.4632 -24 34.0844 -24 37.3173V80.7544C-23.9943 81.9624 -23.62 83.1392 -22.9282 84.125C-22.2363 85.1107 -21.2605 85.8574 -20.1333 86.2636V113.421C-20.1333 116.654 -17.5364 119.275 -14.3333 119.275H82.3333C85.5364 119.275 88.1333 116.654 88.1333 113.421V86.2655C89.2606 85.859 90.2366 85.1119 90.9284 84.1259C91.6202 83.1398 91.9944 81.9626 92 80.7544V37.3173C92 34.0844 89.403 31.4632 86.2 31.4632ZM10.8 23.6577C10.8 20.4248 13.3969 17.8036 16.6 17.8036H51.4C54.6031 17.8036 57.2 20.4248 57.2 23.6577V31.4632H53.3333V23.6577C53.3333 23.1402 53.1296 22.6439 52.7671 22.2779C52.4045 21.912 51.9128 21.7064 51.4 21.7064H16.6C16.0872 21.7064 15.5955 21.912 15.2329 22.2779C14.8704 22.6439 14.6667 23.1402 14.6667 23.6577V31.4632H10.8V23.6577ZM49.4667 31.4632H18.5333V25.6091H49.4667V31.4632ZM84.2667 113.421C84.2667 113.938 84.063 114.435 83.7004 114.801C83.3378 115.167 82.8461 115.372 82.3333 115.372H-14.3333C-14.8461 115.372 -15.3378 115.167 -15.7004 114.801C-16.063 114.435 -16.2667 113.938 -16.2667 113.421V86.9344L26.2667 92.8553V97.8098C26.2667 101.043 28.8636 103.664 32.0667 103.664H35.9333C39.1364 103.664 41.7333 101.043 41.7333 97.8098V92.8551L84.2667 86.9344V113.421ZM37.8667 97.8098C37.8667 98.3274 37.663 98.8237 37.3004 99.1897C36.9378 99.5556 36.4461 99.7612 35.9333 99.7612H32.0667C31.5539 99.7612 31.0622 99.5556 30.6996 99.1897C30.337 98.8237 30.1333 98.3274 30.1333 97.8098V86.1016C30.1333 85.5841 30.337 85.0877 30.6996 84.7218C31.0622 84.3558 31.5539 84.1502 32.0667 84.1502H35.9333C36.4461 84.1502 36.9378 84.3558 37.3004 84.7218C37.663 85.0877 37.8667 85.5841 37.8667 86.1016V97.8098ZM88.1333 80.7544C88.1339 81.2249 87.9659 81.6798 87.6604 82.0352C87.3549 82.3907 86.9325 82.6227 86.4709 82.6887L85.9346 82.7631L41.7333 88.915V86.1016C41.7333 82.8687 39.1364 80.2475 35.9333 80.2475H32.0667C28.8636 80.2475 26.2667 82.8687 26.2667 86.1016V88.9152L-18.469 82.6887C-18.9309 82.6231 -19.3538 82.3912 -19.6596 82.0358C-19.9655 81.6803 -20.1337 81.2252 -20.1333 80.7544V37.3173C-20.1333 36.7998 -19.9296 36.3035 -19.5671 35.9375C-19.2045 35.5716 -18.7128 35.366 -18.2 35.366H86.2C86.7127 35.366 87.2045 35.5716 87.5671 35.9375C87.9296 36.3035 88.1333 36.7998 88.1333 37.3173V80.7544Z" fill="#F5F5F5" stroke="#F5F5F5" stroke-width="0.5378"/>
</g>
<defs>
<clipPath id="clip0_2813_371">
<path d="M0 0H130V130H25C11.1929 130 0 118.807 0 105V0Z" fill="white"/>
</clipPath>
</defs>
</svg>
