<svg width="18" height="20" viewBox="0 0 18 20" fill="none" xmlns="http://www.w3.org/2000/svg">
<path d="M11.0605 18.25C10.9341 18.4166 10.7838 18.5688 10.6123 18.7021C10.1609 19.0531 9.59099 19.2481 8.99805 19.249C8.40527 19.248 7.83512 19.0531 7.38379 18.7021C7.2125 18.5689 7.06289 18.4165 6.93652 18.25H11.0605ZM8.99805 0.75C9.04261 0.75 9.07861 0.767235 9.09961 0.787109C9.11912 0.805684 9.12296 0.82304 9.12305 0.833008V2.3877L9.77148 2.47656C12.3989 2.83714 14.374 4.97701 14.374 7.5V9.82227C14.3732 10.7508 14.5859 11.6675 14.9951 12.5068C15.4033 13.3442 15.9973 14.0832 16.7324 14.6748V14.6758C16.9143 14.8243 16.9999 15.0175 17 15.208C17 15.5637 16.684 15.9168 16.2188 15.917H1.78027C1.61254 15.9164 1.45189 15.8669 1.32031 15.7793C1.18904 15.6919 1.09473 15.5722 1.04395 15.4414C0.99343 15.3112 0.98643 15.1711 1.02246 15.0381C1.04962 14.9379 1.10121 14.8418 1.17578 14.7588L1.25781 14.6807C1.99408 14.0891 2.58868 13.3495 2.99805 12.5117C3.4087 11.6712 3.62242 10.7534 3.62207 9.82324V7.5C3.62207 4.97706 5.59665 2.83732 8.22461 2.47656L8.87305 2.3877V0.833008C8.87313 0.823042 8.87699 0.80568 8.89648 0.787109C8.91742 0.767176 8.95343 0.750061 8.99805 0.75Z" fill="white" stroke="white" stroke-width="1.5"/>
</svg>
