<svg width="36" height="34" viewBox="0 0 36 34" fill="none" xmlns="http://www.w3.org/2000/svg">
<ellipse cx="18.1161" cy="17" rx="17.3094" ry="17" fill="#42C1F8" fill-opacity="0.32"/>
<mask id="mask0_5795_2184" style="mask-type:alpha" maskUnits="userSpaceOnUse" x="0" y="0" width="36" height="34">
<path d="M35.4235 17C35.4235 26.3888 27.6738 34 18.1141 34C8.55438 34 0.804688 26.3888 0.804688 17C0.804688 7.61116 8.55438 0 18.1141 0C27.6738 0 35.4235 7.61116 35.4235 17Z" fill="#D4F2FF"/>
<path d="M35.4235 17C35.4235 26.3888 27.6738 34 18.1141 34C8.55438 34 0.804688 26.3888 0.804688 17C0.804688 7.61116 8.55438 0 18.1141 0C27.6738 0 35.4235 7.61116 35.4235 17Z" fill="#42C1F8"/>
<path d="M35.4235 17C35.4235 26.3888 27.6738 34 18.1141 34C8.55438 34 0.804688 26.3888 0.804688 17C0.804688 7.61116 8.55438 0 18.1141 0C27.6738 0 35.4235 7.61116 35.4235 17Z" fill="#BF3737" fill-opacity="0.2"/>
</mask>
<g mask="url(#mask0_5795_2184)">
<path d="M25.3508 13.6392C25.3508 13.6392 26.539 8.78482 25.3508 7.13903C24.1626 5.496 23.6902 4.40065 21.0776 3.61648C18.465 2.83231 19.417 2.98859 17.5173 3.06881C15.6176 3.14902 14.0339 4.16554 14.0339 4.7146C14.0339 4.7146 12.8457 4.79205 12.3732 5.26227C11.898 5.7325 11.1068 7.9232 11.1068 8.47087C11.1068 9.01855 11.5024 12.7029 11.898 13.4843L11.4269 13.642C11.0299 18.1824 13.0065 18.7315 13.0065 18.7315C13.7194 22.9608 14.4323 21.1601 14.4323 22.2554C14.4323 23.3508 13.7194 22.9608 13.7194 22.9608C13.7194 22.9608 13.0875 24.6826 11.5052 25.3091C9.92283 25.9356 1.13879 29.3005 0.424496 30.0058C-0.291199 30.7112 -0.210124 34 -0.210124 34H37.4575C37.4575 34 37.5414 30.7126 36.8257 30.0058C36.1128 29.3005 27.3274 25.9342 25.745 25.3091C24.1626 24.6826 23.5308 22.9608 23.5308 22.9608C23.5308 22.9608 22.8179 23.3508 22.8179 22.2554C22.8179 21.1601 23.5308 22.9608 24.2437 18.7315C24.2437 18.7315 26.2189 18.1824 25.8233 13.642H25.348L25.3508 13.6392Z" fill="#42C1F8"/>
</g>
</svg>
