<svg width="26" height="26" viewBox="0 0 26 26" fill="none" xmlns="http://www.w3.org/2000/svg">
<path d="M13 7C11.7407 7 10.5133 7.39622 9.49174 8.13255C8.47015 8.86887 7.70612 9.90796 7.3079 11.1026C6.90968 12.2973 6.89744 13.587 7.27292 14.789C7.6484 15.991 8.39256 17.0444 9.4 17.8V22.6C9.4 23.2365 9.65286 23.847 10.1029 24.2971C10.553 24.7471 11.1635 25 11.8 25H14.2C14.8365 25 15.447 24.7471 15.8971 24.2971C16.3471 23.847 16.6 23.2365 16.6 22.6V17.8C17.6074 17.0444 18.3516 15.991 18.7271 14.789C19.1026 13.587 19.0903 12.2973 18.6921 11.1026C18.2939 9.90796 17.5299 8.86887 16.5083 8.13255C15.4867 7.39622 14.2593 7 13 7ZM14.8 16.108C14.6169 16.2137 14.4649 16.366 14.3596 16.5493C14.2542 16.7326 14.1992 16.9405 14.2 17.152V22.6H11.8V17.152C11.8008 16.9405 11.7458 16.7326 11.6404 16.5493C11.5351 16.366 11.3831 16.2137 11.2 16.108C10.6542 15.7929 10.2006 15.3399 9.88473 14.7945C9.56885 14.2491 9.4017 13.6303 9.4 13C9.4 12.0452 9.77928 11.1295 10.4544 10.4544C11.1295 9.77928 12.0452 9.4 13 9.4C13.9548 9.4 14.8705 9.77928 15.5456 10.4544C16.2207 11.1295 16.6 12.0452 16.6 13C16.5983 13.6303 16.4312 14.2491 16.1153 14.7945C15.7994 15.3399 15.3458 15.7929 14.8 16.108ZM13 5.8C13.3183 5.8 13.6235 5.67357 13.8485 5.44853C14.0736 5.22348 14.2 4.91826 14.2 4.6V2.2C14.2 1.88174 14.0736 1.57652 13.8485 1.35147C13.6235 1.12643 13.3183 1 13 1C12.6817 1 12.3765 1.12643 12.1515 1.35147C11.9264 1.57652 11.8 1.88174 11.8 2.2V4.6C11.8 4.91826 11.9264 5.22348 12.1515 5.44853C12.3765 5.67357 12.6817 5.8 13 5.8ZM23.8 11.8H21.4C21.0817 11.8 20.7765 11.9264 20.5515 12.1515C20.3264 12.3765 20.2 12.6817 20.2 13C20.2 13.3183 20.3264 13.6235 20.5515 13.8485C20.7765 14.0736 21.0817 14.2 21.4 14.2H23.8C24.1183 14.2 24.4235 14.0736 24.6485 13.8485C24.8736 13.6235 25 13.3183 25 13C25 12.6817 24.8736 12.3765 24.6485 12.1515C24.4235 11.9264 24.1183 11.8 23.8 11.8ZM4.6 11.8H2.2C1.88174 11.8 1.57652 11.9264 1.35147 12.1515C1.12643 12.3765 1 12.6817 1 13C1 13.3183 1.12643 13.6235 1.35147 13.8485C1.57652 14.0736 1.88174 14.2 2.2 14.2H4.6C4.91826 14.2 5.22348 14.0736 5.44853 13.8485C5.67357 13.6235 5.8 13.3183 5.8 13C5.8 12.6817 5.67357 12.3765 5.44853 12.1515C5.22348 11.9264 4.91826 11.8 4.6 11.8ZM7.792 6.304L6.064 4.6C5.83008 4.37881 5.51787 4.2596 5.19606 4.2686C4.87425 4.27761 4.56919 4.41408 4.348 4.648C4.12681 4.88192 4.0076 5.19413 4.0166 5.51594C4.02561 5.83775 4.16208 6.14281 4.396 6.364L6.124 8.032C6.23996 8.14397 6.37729 8.23143 6.5278 8.28916C6.67831 8.34689 6.8389 8.3737 7 8.368C7.16165 8.36738 7.3215 8.33411 7.46997 8.27019C7.61844 8.20626 7.75246 8.113 7.864 7.996C8.0782 7.76178 8.19089 7.45224 8.1774 7.13513C8.1639 6.81802 8.02533 6.51917 7.792 6.304ZM21.628 4.66C21.4032 4.4365 21.099 4.31105 20.782 4.31105C20.465 4.31105 20.1608 4.4365 19.936 4.66L18.208 6.304C17.9845 6.52883 17.859 6.83298 17.859 7.15C17.859 7.46702 17.9845 7.77116 18.208 7.996C18.3195 8.113 18.4536 8.20626 18.602 8.27019C18.7505 8.33411 18.9104 8.36738 19.072 8.368C19.381 8.36677 19.6775 8.24642 19.9 8.032L21.628 6.364C21.7405 6.25244 21.8297 6.11972 21.8907 5.97349C21.9516 5.82726 21.983 5.67041 21.983 5.512C21.983 5.35359 21.9516 5.19674 21.8907 5.05051C21.8297 4.90428 21.7405 4.77156 21.628 4.66Z" fill="black" stroke="white" stroke-width="0.9"/>
</svg>
