<svg width="17" height="18" viewBox="0 0 17 18" fill="none" xmlns="http://www.w3.org/2000/svg">
<g clip-path="url(#clip0_2969_358)">
<path fill-rule="evenodd" clip-rule="evenodd" d="M16.6943 15.2288C16.1696 16.8234 14.1137 17.6189 12.6449 17.4864C10.6389 17.305 8.45614 16.2408 6.7992 15.069C4.36367 13.3463 2.08227 10.6818 0.752869 7.85415C-0.186664 5.85608 -0.397464 3.39902 0.999936 1.57775C1.51674 0.904552 2.0766 0.545285 2.91527 0.503352C4.08034 0.446686 4.24354 1.11309 4.6436 2.15122C4.94167 2.92755 5.33947 3.71975 5.5616 4.52442C5.97754 6.02608 4.52347 6.08842 4.33987 7.31582C4.22654 8.08988 5.1638 9.12802 5.58767 9.67995C6.40467 10.7549 7.40532 11.6769 8.5434 12.4034C9.1894 12.8102 10.2298 13.5435 10.9687 13.1389C12.1066 12.5156 12.0001 10.5968 13.5901 11.2462C14.4141 11.5817 15.2119 12.0656 15.9985 12.4895C17.2145 13.1434 17.1579 13.8212 16.6943 15.2288C17.0411 14.177 16.3475 16.2805 16.6943 15.2288Z" fill="#757575"/>
</g>
<defs>
<clipPath id="clip0_2969_358">
<rect width="17" height="17" fill="white" transform="translate(0 0.5)"/>
</clipPath>
</defs>
</svg>
