<svg width="38" height="39" viewBox="0 0 38 39" fill="none" xmlns="http://www.w3.org/2000/svg">
<ellipse cx="19" cy="19.5" rx="19" ry="19.5" fill="#F5F5F5"/>
<path d="M19.0014 23.4051C20.6191 23.4051 21.9305 22.0937 21.9305 20.476C21.9305 18.8583 20.6191 17.5469 19.0014 17.5469C17.3837 17.5469 16.0723 18.8583 16.0723 20.476C16.0723 22.0937 17.3837 23.4051 19.0014 23.4051Z" stroke="#B3B3B3" stroke-width="1.5"/>
<path d="M16.8315 28.2866H21.1705C24.2177 28.2866 25.7418 28.2866 26.8363 27.5689C27.3087 27.2596 27.7155 26.8601 28.0333 26.3934C28.7646 25.3194 28.7646 23.8226 28.7646 20.831C28.7646 17.8394 28.7646 16.3427 28.0333 15.2687C27.7155 14.802 27.3087 14.4025 26.8363 14.0931C26.1333 13.6313 25.2527 13.4663 23.9043 13.4077C23.2609 13.4077 22.7073 12.9293 22.5813 12.3093C22.4851 11.8552 22.235 11.4482 21.8733 11.1571C21.5116 10.8661 21.0606 10.7088 20.5964 10.712H17.4056C16.4409 10.712 15.6101 11.3808 15.4206 12.3093C15.2947 12.9293 14.7411 13.4077 14.0977 13.4077C12.7503 13.4663 11.8696 13.6323 11.1656 14.0931C10.6936 14.4026 10.2872 14.802 9.96958 15.2687C9.2373 16.3427 9.2373 17.8385 9.2373 20.831C9.2373 23.8236 9.2373 25.3184 9.9686 26.3934C10.2849 26.8581 10.6911 27.2575 11.1656 27.5689C12.2601 28.2866 13.7842 28.2866 16.8315 28.2866Z" stroke="#B3B3B3" stroke-width="1.5"/>
<path d="M25.8357 17.5469H24.8594" stroke="#B3B3B3" stroke-width="1.5" stroke-linecap="round"/>
</svg>
