<svg width="22" height="19" viewBox="0 0 22 19" fill="none" xmlns="http://www.w3.org/2000/svg">
<path d="M19.9503 11.3415C19.9462 11.334 19.9393 11.3293 19.9352 11.3225C19.9167 11.2893 19.8898 11.2635 19.8658 11.2343C19.8355 11.197 19.8067 11.159 19.7696 11.1298C19.7427 11.1081 19.7118 11.0945 19.6816 11.0769C19.637 11.0494 19.5892 11.0273 19.5393 11.0111C19.5262 11.007 19.5166 10.9975 19.5035 10.9941C19.4795 10.988 19.4568 10.9941 19.4334 10.9907C19.341 10.976 19.2463 10.9818 19.1564 11.0077C19.1379 11.0131 19.1186 11.0104 19.1 11.0179L15.2184 12.4482C15.0477 12.5112 14.9093 12.6385 14.8337 12.8022C14.7581 12.9659 14.7515 13.1526 14.8153 13.3211C14.8791 13.4896 15.0081 13.6262 15.1739 13.7009C15.3398 13.7755 15.5288 13.782 15.6996 13.7191L18.2346 12.7854C16.9671 15.7017 14.0987 17.643 10.8542 17.643C7.185 17.643 3.9763 15.1419 3.05246 11.5607C3.03017 11.4743 2.99085 11.3931 2.93676 11.3217C2.88267 11.2503 2.81487 11.1901 2.73722 11.1446C2.65957 11.0991 2.5736 11.0691 2.48422 11.0564C2.39483 11.0437 2.30378 11.0484 2.21627 11.0704C2.12875 11.0925 2.04648 11.1313 1.97416 11.1847C1.90184 11.238 1.84088 11.305 1.79477 11.3816C1.74865 11.4583 1.71828 11.5431 1.70539 11.6314C1.6925 11.7196 1.69734 11.8095 1.71963 11.8959C2.79882 16.0783 6.55467 19 10.8535 19C14.6321 19 17.9741 16.7568 19.4685 13.3825L20.701 15.7465C20.7422 15.8258 20.7988 15.8964 20.8677 15.954C20.9366 16.0117 21.0163 16.0554 21.1024 16.0825C21.1884 16.1097 21.279 16.1198 21.369 16.1124C21.459 16.1049 21.5466 16.0799 21.6269 16.0389C21.7072 15.9982 21.7786 15.9422 21.8369 15.8742C21.8953 15.8062 21.9396 15.7275 21.9672 15.6427C21.9947 15.5578 22.0051 15.4684 21.9977 15.3796C21.9902 15.2907 21.9651 15.2042 21.9238 15.125L19.9503 11.3415ZM10.8529 1.35705C14.4025 1.35705 17.4957 3.65452 18.5508 7.07428C18.6067 7.24302 18.7274 7.38341 18.8869 7.46535C19.0465 7.54729 19.2322 7.56424 19.4042 7.51257C19.5763 7.46089 19.721 7.34472 19.8073 7.18895C19.8936 7.03319 19.9146 6.85025 19.8658 6.67938C18.6333 2.68424 15.0108 0 10.8529 0C7.23105 0 4.02098 2.03421 2.43657 5.19613L1.31133 2.86337C1.27319 2.78191 1.21906 2.70874 1.15208 2.64808C1.08509 2.58742 1.00658 2.54047 0.921095 2.50996C0.835607 2.47945 0.744837 2.46598 0.654041 2.47034C0.563244 2.47469 0.474224 2.49677 0.392133 2.53532C0.310042 2.57386 0.236511 2.62809 0.175796 2.69487C0.115082 2.76166 0.0683898 2.83967 0.0384232 2.92438C0.00845649 3.0091 -0.00418966 3.09884 0.00121685 3.18841C0.00662336 3.27799 0.0299752 3.36561 0.0699204 3.44622L1.87223 7.18081C1.87498 7.18691 1.87979 7.19099 1.88254 7.19641C1.89079 7.21202 1.90248 7.22491 1.9121 7.24052C1.95639 7.31285 2.01425 7.37617 2.08257 7.42711C2.14237 7.47122 2.20699 7.50786 2.27779 7.53093C2.28329 7.53296 2.28741 7.53771 2.2936 7.53907L2.29841 7.53975C2.36152 7.55846 2.42704 7.56806 2.49294 7.56825H2.495C2.5561 7.56813 2.6169 7.55992 2.67578 7.54382L6.59247 6.47718C6.67945 6.45348 6.76084 6.4131 6.832 6.35835C6.90317 6.30359 6.96271 6.23554 7.00723 6.15808C7.05175 6.08061 7.08038 5.99524 7.09148 5.90686C7.10258 5.81847 7.09593 5.72879 7.07192 5.64294C7.04791 5.55708 7.007 5.47674 6.95154 5.40649C6.89607 5.33625 6.82713 5.27747 6.74865 5.23352C6.67017 5.18958 6.58369 5.16132 6.49415 5.15036C6.40461 5.13941 6.31376 5.14597 6.22679 5.16967L3.62849 5.87737C4.97026 3.12935 7.73421 1.35705 10.8529 1.35705Z" fill="#757575"/>
</svg>
