<svg width="20" height="21" viewBox="0 0 20 21" fill="none" xmlns="http://www.w3.org/2000/svg">
<path d="M10 1.125C8.1458 1.125 6.33324 1.67483 4.79153 2.70497C3.24982 3.73511 2.04821 5.19929 1.33863 6.91234C0.629062 8.6254 0.443406 10.5104 0.805142 12.329C1.16688 14.1475 2.05976 15.818 3.37088 17.1291C4.682 18.4402 6.35246 19.3331 8.17103 19.6949C9.98961 20.0566 11.8746 19.8709 13.5877 19.1614C15.3007 18.4518 16.7649 17.2502 17.795 15.7085C18.8252 14.1668 19.375 12.3542 19.375 10.5C19.3722 8.01446 18.3836 5.63152 16.626 3.87398C14.8685 2.11644 12.4855 1.12781 10 1.125ZM10 19.25C8.26942 19.25 6.57769 18.7368 5.13876 17.7754C3.69983 16.8139 2.57833 15.4473 1.91606 13.8485C1.25379 12.2496 1.08051 10.4903 1.41813 8.79296C1.75575 7.09563 2.58911 5.53652 3.81282 4.31282C5.03653 3.08911 6.59563 2.25575 8.29296 1.91813C9.9903 1.58051 11.7496 1.75379 13.3485 2.41605C14.9473 3.07832 16.3139 4.19983 17.2754 5.63876C18.2368 7.07769 18.75 8.76941 18.75 10.5C18.7474 12.8198 17.8246 15.0439 16.1843 16.6843C14.5439 18.3246 12.3198 19.2474 10 19.25ZM9.0625 6.75H12.8125C12.8954 6.75 12.9749 6.71708 13.0335 6.65847C13.0921 6.59987 13.125 6.52038 13.125 6.4375C13.125 6.35462 13.0921 6.27513 13.0335 6.21653C12.9749 6.15792 12.8954 6.125 12.8125 6.125H10.3125V5.1875C10.3125 5.10462 10.2796 5.02513 10.221 4.96653C10.1624 4.90792 10.0829 4.875 10 4.875C9.91712 4.875 9.83764 4.90792 9.77903 4.96653C9.72043 5.02513 9.6875 5.10462 9.6875 5.1875V6.125H9.0625C8.48234 6.125 7.92594 6.35547 7.51571 6.7657C7.10547 7.17594 6.875 7.73234 6.875 8.3125C6.875 8.89266 7.10547 9.44906 7.51571 9.8593C7.92594 10.2695 8.48234 10.5 9.0625 10.5H10.9375C11.3519 10.5 11.7493 10.6646 12.0424 10.9576C12.3354 11.2507 12.5 11.6481 12.5 12.0625C12.5 12.4769 12.3354 12.8743 12.0424 13.1674C11.7493 13.4604 11.3519 13.625 10.9375 13.625H7.1875C7.10462 13.625 7.02514 13.6579 6.96653 13.7165C6.90793 13.7751 6.875 13.8546 6.875 13.9375C6.875 14.0204 6.90793 14.0999 6.96653 14.1585C7.02514 14.2171 7.10462 14.25 7.1875 14.25H9.6875V15.1875C9.6875 15.2704 9.72043 15.3499 9.77903 15.4085C9.83764 15.4671 9.91712 15.5 10 15.5C10.0829 15.5 10.1624 15.4671 10.221 15.4085C10.2796 15.3499 10.3125 15.2704 10.3125 15.1875V14.25H10.9375C11.5177 14.25 12.0741 14.0195 12.4843 13.6093C12.8945 13.1991 13.125 12.6427 13.125 12.0625C13.125 11.4823 12.8945 10.9259 12.4843 10.5157C12.0741 10.1055 11.5177 9.875 10.9375 9.875H9.0625C8.6481 9.875 8.25068 9.71038 7.95765 9.41735C7.66462 9.12433 7.5 8.7269 7.5 8.3125C7.5 7.8981 7.66462 7.50067 7.95765 7.20765C8.25068 6.91462 8.6481 6.75 9.0625 6.75Z" fill="black" stroke="black" stroke-width="0.5"/>
</svg>
