<svg width="160" height="126" viewBox="0 0 160 126" fill="none" xmlns="http://www.w3.org/2000/svg">
<g clip-path="url(#clip0_2813_823)">
<g clip-path="url(#clip1_2813_823)">
<path d="M143.703 9.99044C138.611 8.89216 133.596 12.1315 132.498 17.2236L121.504 68.1883L114.504 16.5247C114.355 15.2845 113.96 14.0865 113.344 13.0001C112.728 11.9137 111.901 10.9607 110.913 10.1963C109.925 9.43202 108.795 8.87167 107.589 8.54785C106.383 8.22404 105.124 8.14321 103.886 8.31008C102.648 8.47694 101.456 8.88817 100.378 9.51986C99.3007 10.1515 98.3594 10.9911 97.6091 11.9897C96.8588 12.9884 96.3144 14.1262 96.0077 15.337C95.7009 16.5478 95.6379 17.8075 95.8222 19.0429L101.669 62.1533L99.1503 62.6968C98.3918 61.0675 97.184 59.6884 95.6689 58.7216C94.1538 57.7548 92.3943 57.2403 90.597 57.2387C85.3941 57.2387 81.1673 61.4654 81.1673 66.6684V71.1059C81.1673 65.9029 76.9406 61.6762 71.7377 61.6762C66.5347 61.6762 62.2969 65.914 62.2969 71.117V102.734C62.2969 124.178 79.6808 141.562 101.125 141.562C122.569 141.562 139.953 124.178 139.953 102.734V72.1598H139.942L150.936 21.1951C152.034 16.1031 148.795 11.0887 143.703 9.99044Z" fill="white"/>
<path d="M92.2402 53.4946C94.4277 53.4988 96.5694 54.1263 98.4141 55.3042C100.258 56.4818 101.73 58.1609 102.657 60.145V60.146C103.272 61.4743 102.699 63.0332 101.391 63.6362H101.39C100.066 64.2509 98.5073 63.6809 97.8945 62.3657C96.8748 60.1755 94.6559 58.7573 92.2412 58.7573C88.8068 58.7575 86.0098 61.5606 86.0098 64.9985V86.9185C86.0117 88.2803 86.4575 89.6047 87.2793 90.6899C88.1009 91.7748 89.2537 92.5609 90.5625 92.9302V92.9312C91.9566 93.3263 92.7791 94.7743 92.3857 96.1763C92.1956 96.8479 91.7477 97.4164 91.1406 97.7583C90.5336 98.1001 89.8165 98.1875 89.1455 98.0015H89.1465C87.4409 97.5219 85.9236 96.6629 84.6543 95.5317L84.2363 95.1597L83.9131 95.6157C81.8234 98.57 78.3974 100.509 74.5254 100.509C68.1952 100.509 63.041 95.3476 63.041 89.0054V69.1733C63.041 62.8311 68.1953 57.6695 74.5254 57.6694C77.0602 57.6694 79.4063 58.5096 81.3047 59.9106L81.7773 60.2593L82.0459 59.7368C83.9545 56.0338 87.8096 53.4951 92.2402 53.4946ZM74.5254 62.9321C71.0909 62.9321 68.294 65.7353 68.2939 69.1733V89.0054C68.2939 92.4434 71.0909 95.2466 74.5254 95.2466C77.9599 95.2466 80.7568 92.4434 80.7568 89.0054V69.1733C80.7568 65.7353 77.9599 62.9321 74.5254 62.9321Z" fill="#F5F5F5" stroke="white"/>
<path d="M101.547 71.2549C104.511 70.4689 107.599 70.867 110.251 72.3975H110.252L135.479 86.918V86.9189C137.237 87.9339 138.693 89.3944 139.7 91.1523C140.707 92.9103 141.228 94.9027 141.212 96.9268V98.8809C141.212 120.334 123.699 137.797 102.178 137.797C85.1498 137.797 69.9423 126.591 64.9062 110.467L64.6748 109.695C64.4827 109.031 64.5629 108.317 64.8984 107.712C65.234 107.107 65.7974 106.659 66.4648 106.467C67.1324 106.275 67.8491 106.356 68.457 106.69C69.0648 107.025 69.5139 107.587 69.7061 108.251V108.252C73.857 122.573 87.2042 132.573 102.178 132.573C120.815 132.573 135.97 117.466 135.97 98.8809V96.8994C135.982 95.7969 135.701 94.711 135.155 93.752C134.609 92.7913 133.817 91.9921 132.86 91.4365L132.858 91.4355L107.629 76.9141H107.63C106.923 76.506 106.143 76.2412 105.333 76.1348C104.524 76.0284 103.702 76.082 102.914 76.293C102.124 76.5008 101.382 76.8635 100.733 77.3594C100.165 77.7934 99.6776 78.3224 99.292 78.9219L99.1338 79.1816C97.4134 82.1497 98.4437 85.9514 101.408 87.6553L118.439 97.458C119.619 98.136 120.068 99.5772 119.522 100.788L119.4 101.026C119.052 101.626 118.48 102.064 117.808 102.244C117.22 102.401 116.598 102.35 116.048 102.103L115.816 101.984L98.7852 92.1924C93.3134 89.0416 91.4311 82.0351 94.5898 76.5811L94.5889 76.5801C96.1241 73.937 98.5948 72.0498 101.546 71.2539L101.547 71.2549Z" fill="#F5F5F5" stroke="white"/>
<path d="M65.6562 86.4619C67.1037 86.4621 68.2705 87.6291 68.2705 89.0752C68.2707 92.4958 71.0597 95.2822 74.4814 95.2822C75.9288 95.2824 77.0956 96.4495 77.0957 97.8955C77.0957 99.3417 75.9289 100.509 74.4814 100.509C68.1749 100.509 63.0412 95.378 63.041 89.0752C63.041 87.6289 64.2086 86.4619 65.6562 86.4619ZM104.242 8.13867C110.489 7.29354 116.27 11.6888 117.115 17.9316L121.278 48.6699L122.263 48.708L128.804 18.3848C129.119 16.9161 129.722 15.5243 130.577 14.2891C131.432 13.0539 132.523 11.9998 133.787 11.1875L133.788 11.1865C136.355 9.52584 139.417 8.96884 142.402 9.61523H142.403C143.873 9.93014 145.266 10.5329 146.502 11.3877C147.738 12.2424 148.792 13.3332 149.604 14.5967C151.153 17.0023 151.739 19.8426 151.273 22.6465L151.167 23.207L140.96 70.5596L140.949 70.6123V78.3447C140.949 79.7909 139.782 80.958 138.334 80.958C136.887 80.9578 135.72 79.7908 135.72 78.3447V70.333C135.72 70.1467 135.737 69.9772 135.783 69.8164L135.788 69.8008L135.791 69.7852L146.07 22.1104C146.793 18.7574 144.647 15.4517 141.305 14.7295C139.68 14.3697 138.019 14.6743 136.632 15.5752C135.945 16.0151 135.352 16.5878 134.889 17.2588C134.426 17.929 134.1 18.6845 133.932 19.4814L123.728 66.7617H123.715L123.631 67.1582C123.521 67.6823 123.251 68.1599 122.858 68.5244C122.466 68.889 121.969 69.1231 121.438 69.1943H121.436C121.095 69.2415 120.749 69.2208 120.416 69.1338C120.083 69.0467 119.771 68.8955 119.497 68.6875C119.223 68.4795 118.994 68.2189 118.821 67.9219C118.649 67.6249 118.536 67.2965 118.49 66.9561L111.938 18.6279V18.627C111.475 15.2413 108.338 12.8488 104.949 13.3115C101.668 13.7597 99.3182 16.7067 99.5957 19.9805L99.6309 20.2979L103.15 46.2725V46.2734C103.197 46.6136 103.175 46.96 103.088 47.292C103 47.624 102.849 47.9357 102.641 48.209C102.433 48.4824 102.173 48.7127 101.876 48.8857C101.579 49.0588 101.251 49.1714 100.91 49.2178C100.57 49.2641 100.223 49.2427 99.8906 49.1553C99.5583 49.0678 99.2462 48.9159 98.9727 48.708C98.6991 48.5001 98.469 48.24 98.2959 47.9434C98.1228 47.6467 98.0102 47.3187 97.9639 46.9785L94.4443 21.0039C93.599 14.7606 97.9959 8.98388 104.242 8.13867Z" fill="#F5F5F5" stroke="white"/>
</g>
</g>
<defs>
<clipPath id="clip0_2813_823">
<path d="M0 0H140C151.046 0 160 8.95431 160 20V126H0V0Z" fill="white"/>
</clipPath>
<clipPath id="clip1_2813_823">
<path d="M0 4H161C174.807 4 186 15.1929 186 29V131H0V4Z" fill="white"/>
</clipPath>
</defs>
</svg>
