<svg width="136" height="150" viewBox="0 0 136 150" fill="none" xmlns="http://www.w3.org/2000/svg">
<g clip-path="url(#clip0_2813_2420)">
<path d="M103.811 -5.95551C103.181 -5.95551 102.577 -5.71732 102.132 -5.29336C101.687 -4.86939 101.436 -4.29436 101.436 -3.69478C101.436 -3.0952 101.687 -2.52017 102.132 -2.0962C102.577 -1.67224 103.181 -1.43405 103.811 -1.43405H114.508C116.805 -1.43405 118.673 -3.21254 118.673 -5.39831V-13.2327C118.673 -15.4188 116.805 -17.1973 114.508 -17.1973H65.3844C63.0878 -17.1973 61.2194 -15.4188 61.2194 -13.2327V-5.39802C61.2194 -3.21225 63.0878 -1.43376 65.3844 -1.43376H92.6479C93.2778 -1.43376 93.8819 -1.67194 94.3273 -2.09591C94.7727 -2.51988 95.0229 -3.09491 95.0229 -3.69449C95.0229 -4.29407 94.7727 -4.8691 94.3273 -5.29307C93.8819 -5.71703 93.2778 -5.95522 92.6479 -5.95522H65.9698V-12.6755H113.923V-5.9558L103.811 -5.95551ZM50.6038 10.1732C50.6038 10.4701 50.6652 10.7641 50.7845 11.0384C50.9039 11.3127 51.0788 11.5619 51.2993 11.7718C51.5199 11.9818 51.7817 12.1483 52.0699 12.2619C52.3581 12.3755 52.6669 12.4339 52.9788 12.4339H127.417C127.729 12.4339 128.037 12.3755 128.326 12.2619C128.614 12.1483 128.876 11.9818 129.096 11.7718C129.317 11.5619 129.492 11.3127 129.611 11.0384C129.73 10.7641 129.792 10.4701 129.792 10.1732C129.792 9.87627 129.73 9.58228 129.611 9.30798C129.492 9.03368 129.317 8.78444 129.096 8.57451C128.876 8.36457 128.614 8.19805 128.326 8.08445C128.037 7.97085 127.729 7.9124 127.417 7.91244H52.9788C52.6669 7.91236 52.358 7.97079 52.0699 8.08437C51.7817 8.19796 51.5198 8.36448 51.2993 8.57442C51.0787 8.78436 50.9038 9.03362 50.7844 9.30794C50.6651 9.58225 50.6037 9.87626 50.6038 10.1732ZM52.9788 26.6589H127.417C127.729 26.6589 128.037 26.6005 128.326 26.4869C128.614 26.3733 128.876 26.2067 129.096 25.9968C129.317 25.7869 129.492 25.5376 129.611 25.2633C129.73 24.989 129.792 24.695 129.792 24.3981C129.792 24.1012 129.73 23.8073 129.611 23.533C129.492 23.2587 129.317 23.0094 129.096 22.7995C128.876 22.5896 128.614 22.423 128.326 22.3094C128.037 22.1958 127.729 22.1374 127.417 22.1374H52.9788C52.3489 22.1374 51.7448 22.3756 51.2994 22.7996C50.854 23.2235 50.6038 23.7986 50.6038 24.3981C50.6038 24.9977 50.854 25.5728 51.2994 25.9967C51.7448 26.4207 52.3489 26.6589 52.9788 26.6589ZM112.734 38.6234C112.734 38.3265 112.673 38.0325 112.553 37.7582C112.434 37.4839 112.259 37.2347 112.039 37.0248C111.818 36.8148 111.556 36.6483 111.268 36.5347C110.98 36.4211 110.671 36.3627 110.359 36.3627H52.9788C52.3489 36.3627 51.7448 36.6009 51.2994 37.0248C50.854 37.4488 50.6038 38.0238 50.6038 38.6234C50.6038 39.223 50.854 39.798 51.2994 40.222C51.7448 40.646 52.3489 40.8841 52.9788 40.8841H110.359C110.989 40.8841 111.593 40.646 112.038 40.222C112.484 39.798 112.734 39.223 112.734 38.6234ZM82.646 55.1091C83.2759 55.1091 83.88 54.8709 84.3254 54.447C84.7708 54.023 85.021 53.448 85.021 52.8484C85.021 52.2488 84.7708 51.6738 84.3254 51.2498C83.88 50.8258 83.2759 50.5877 82.646 50.5877H52.9788C52.3489 50.5877 51.7448 50.8258 51.2994 51.2498C50.854 51.6738 50.6038 52.2488 50.6038 52.8484C50.6038 53.448 50.854 54.023 51.2994 54.447C51.7448 54.8709 52.3489 55.1091 52.9788 55.1091H82.646ZM50.1152 99.0698C51.3775 99.4141 52.6907 98.716 53.0503 97.515C53.0655 97.4648 54.6235 92.4916 60.689 92.4916C63.683 92.4916 65.104 93.6112 67.071 95.1611C69.3309 96.9419 72.1439 99.1579 77.5788 99.1579C84.3557 99.1579 87.9985 92.3376 88.1505 92.0474C88.7334 90.9327 88.257 89.5827 87.0881 89.0241C85.9192 88.4652 84.4934 88.9151 83.9016 90.0255C83.8769 90.0717 81.4011 94.6361 77.5788 94.6361C73.8548 94.6361 72.1976 93.3306 70.0997 91.6776C67.8938 89.9395 65.3939 87.9698 60.6887 87.9698C52.999 87.9698 49.3412 93.4032 48.4815 96.276C48.3089 96.8527 48.3841 97.471 48.6905 97.995C48.9969 98.5189 49.5093 98.9055 50.1152 99.0698Z" fill="#F5F5F5"/>
<path d="M185.381 -6.53029C185.265 -6.80655 185.092 -7.05822 184.873 -7.27089C184.654 -7.48355 184.394 -7.65303 184.106 -7.76959L178.587 -10.0048C179.05 -11.1186 178.468 -12.4407 177.322 -12.9119L176.222 -13.3642L178.008 -17.3C180.024 -21.7543 177.794 -27.0938 173.119 -29.0161C168.448 -30.937 162.833 -28.8131 160.814 -24.368L158.975 -20.314C156.87 -20.6632 154.741 -19.5624 153.897 -17.7003L148.949 -6.79494V-18.3687C148.949 -24.6414 143.588 -29.7441 136.998 -29.7441H43.3964C36.8088 -29.7441 31.4492 -24.6425 31.4492 -18.3719V107.623C31.4492 113.894 36.8088 118.996 43.3964 118.996H137.002C143.589 118.996 148.949 113.894 148.949 107.623V75.9703C148.949 75.3707 148.698 74.7957 148.253 74.3717C147.808 73.9477 147.204 73.7096 146.574 73.7096C145.944 73.7096 145.34 73.9477 144.894 74.3717C144.449 74.7957 144.199 75.3707 144.199 75.9703V107.623C144.199 111.401 140.97 114.474 137.002 114.474H43.3964C39.428 114.474 36.1996 111.401 36.1996 107.623V-18.3719C36.1996 -22.1494 39.4283 -25.2224 43.3964 -25.2224H136.998C140.968 -25.2224 144.199 -22.148 144.199 -18.3687V3.67553L107.793 83.9345C107.665 84.2181 107.598 84.5234 107.597 84.8322L107.624 103.877C107.628 108.126 113.149 110.415 116.416 107.49L130.995 94.45C131.197 94.2682 131.364 94.0538 131.488 93.8167C131.501 93.7926 131.514 93.7688 131.526 93.7441C131.533 93.7287 131.542 93.7139 131.549 93.6982L176.707 -5.85224L180.052 -4.49761L162.386 34.6053C162.137 35.1561 162.129 35.7784 162.362 36.3354C162.595 36.8924 163.051 37.3384 163.63 37.5752C164.208 37.8121 164.862 37.8205 165.447 37.5985C166.032 37.3765 166.501 36.9424 166.75 36.3916L185.358 -4.79596C185.481 -5.06936 185.547 -5.36331 185.551 -5.66092C185.555 -5.95854 185.497 -6.25397 185.381 -6.53029ZM169.68 -25.2146C172.83 -25.0606 174.883 -21.8226 173.646 -19.0915L171.861 -15.1575L163.389 -18.6389L165.175 -22.5744C165.94 -24.2588 167.747 -25.3162 169.68 -25.2146ZM158.225 -15.8358L173.259 -9.65702L154.157 32.4535L139.12 26.2732L158.225 -15.8358ZM128.13 89.8307L113.096 83.651L137.238 30.4249L152.274 36.6051L128.13 89.8307ZM113.163 104.195C112.87 104.457 112.374 104.256 112.374 103.872L112.352 88.2707L125.106 93.5126L113.163 104.195Z" fill="#F5F5F5"/>
</g>
<defs>
<clipPath id="clip0_2813_2420">
<rect width="136" height="150" fill="white"/>
</clipPath>
</defs>
</svg>
