<svg width="52" height="52" viewBox="0 0 52 52" fill="none" xmlns="http://www.w3.org/2000/svg">
<rect width="51.3422" height="51.3422" rx="4.94537" fill="#FF0084"/>
<path d="M13.2634 8.22363C12.0312 8.22362 10.8492 8.69822 9.97615 9.54355C9.10306 10.3889 8.61 11.5361 8.6049 12.734C8.6029 13.3802 8.74496 14.0191 9.02132 14.6067C9.29767 15.1944 9.70174 15.7168 10.2057 16.1381C8.23408 18.9636 7.18119 22.2998 7.1836 25.7142C7.1836 35.1677 15.0942 42.8412 24.8 42.8412C34.5058 42.8412 42.4164 35.1677 42.4164 25.7142C42.4277 22.3123 41.3804 18.9867 39.4121 16.1741C39.9187 15.7501 40.3255 15.2248 40.6045 14.6342C40.8836 14.0435 41.0284 13.4013 41.0292 12.7513C41.0282 12.1578 40.907 11.5703 40.6724 11.0224C40.4378 10.4745 40.0944 9.97686 39.6619 9.55799C39.2295 9.13913 38.7163 8.80722 38.1518 8.58123C37.5874 8.35525 36.9826 8.23961 36.3722 8.24094C35.5934 8.23868 34.8267 8.4276 34.143 8.79019C33.4594 9.15277 32.881 9.67729 32.4614 10.3151C30.0795 9.1898 27.466 8.60487 24.8178 8.60443C22.1709 8.59887 19.5573 9.1779 17.1742 10.2978C16.7531 9.66137 16.1744 9.13795 15.4911 8.77554C14.8078 8.41314 14.0418 8.22337 13.2634 8.22363ZM24.8 9.95163C27.3414 9.95163 29.7419 10.5228 31.8917 11.5412C34.459 12.7551 36.6536 14.6028 38.2563 16.8997C40.0801 19.5098 41.0531 22.5934 41.0485 25.7488C41.0648 34.4594 33.7773 41.5445 24.8178 41.5445C15.8568 41.5445 8.57077 34.4594 8.57077 25.7488C8.57077 22.4644 9.6004 19.4224 11.36 16.8997C12.9675 14.6064 15.1615 12.7597 17.7261 11.5412C19.9274 10.4908 22.3478 9.94688 24.8 9.95163ZM17.9264 17.3757C16.6609 17.393 15.3405 17.7968 14.5438 18.3175C13.0142 19.3013 11.1463 21.4274 11.4505 24.3482C11.7338 27.2691 14.0987 29.0836 15.3257 29.0836C16.5511 29.0836 17.1564 28.4778 17.5288 26.9921C17.9027 25.5238 19.183 23.8304 20.818 22.0159C22.4529 20.2013 20.7824 18.4546 20.7824 18.4546C20.1993 17.7146 19.2216 17.4059 18.1786 17.3771C18.0946 17.3749 18.0105 17.3744 17.9264 17.3757ZM31.6246 17.3858L31.3724 17.3872C30.3309 17.416 29.3576 17.7233 28.782 18.4719C28.782 18.4719 27.1115 20.2172 28.7464 22.0332C30.3991 23.8477 31.6617 25.5411 32.0356 27.0094C32.4079 28.4792 33.0133 29.0836 34.2387 29.1009C35.4657 29.1009 37.8127 27.2864 38.1139 24.3655C38.4166 21.4447 36.5502 19.3027 35.0221 18.3334C34.215 17.8141 32.8901 17.4059 31.6246 17.3858ZM18.3285 20.2706C18.8448 20.2706 19.2543 20.6672 19.2543 21.1692C19.2365 21.6524 18.827 22.0678 18.3285 22.0678C18.2069 22.0685 18.0863 22.0458 17.9738 22.0009C17.8613 21.9561 17.7591 21.8899 17.6732 21.8063C17.5872 21.7227 17.5191 21.6233 17.4729 21.514C17.4268 21.4046 17.4034 21.2874 17.4042 21.1692C17.4034 21.0509 17.4268 20.9336 17.4729 20.8242C17.5191 20.7147 17.5871 20.6152 17.6731 20.5315C17.759 20.4478 17.8612 20.3815 17.9737 20.3365C18.0862 20.2914 18.2068 20.2685 18.3285 20.2691V20.2706ZM31.5193 20.2706C32.0356 20.2706 32.4436 20.6672 32.4436 21.1692C32.4258 21.6524 32.0178 22.0678 31.5193 22.0678C31.3977 22.0685 31.2771 22.0458 31.1646 22.0009C31.0521 21.9561 30.9499 21.8899 30.8639 21.8063C30.778 21.7227 30.7099 21.6233 30.6637 21.514C30.6176 21.4046 30.5942 21.2874 30.595 21.1692C30.595 20.6672 31.0223 20.2691 31.5193 20.2691V20.2706ZM24.7822 26.0762C24.0003 26.0762 21.726 26.2147 21.726 26.9229C21.726 28.2023 24.5151 29.1182 24.7822 29.049C25.0492 29.1182 27.8384 28.2023 27.8384 26.9229C27.8384 26.2161 25.5833 26.0762 24.7822 26.0762ZM20.4619 30.1048C20.4619 32.1444 22.3817 33.8031 24.7822 33.8031C27.1827 33.8031 29.1203 32.1444 29.1203 30.1048H20.4619Z" fill="white"/>
</svg>
