<svg width="21" height="21" viewBox="0 0 21 21" fill="none" xmlns="http://www.w3.org/2000/svg">
<path d="M10.5 0C4.725 0 0 4.725 0 10.5C0 16.275 4.725 21 10.5 21C16.275 21 21 16.275 21 10.5C21 4.725 16.275 0 10.5 0ZM14.385 12.915C14.805 13.335 14.805 13.965 14.385 14.385C13.965 14.805 13.335 14.805 12.915 14.385L10.5 11.97L8.085 14.385C7.665 14.805 7.035 14.805 6.615 14.385C6.195 13.965 6.195 13.335 6.615 12.915L9.03 10.5L6.615 8.085C6.195 7.665 6.195 7.035 6.615 6.615C7.035 6.195 7.665 6.195 8.085 6.615L10.5 9.03L12.915 6.615C13.335 6.195 13.965 6.195 14.385 6.615C14.805 7.035 14.805 7.665 14.385 8.085L11.97 10.5L14.385 12.915Z" fill="#FF6E6E"/>
</svg>
