<svg width="137" height="137" viewBox="0 0 137 137" fill="none" xmlns="http://www.w3.org/2000/svg">
<g clip-path="url(#clip0_2813_397)">
<path d="M20.997 91.3116C23.0631 87.5764 27.6488 86.0008 31.5457 87.5941L57.8813 96.9941C57.8813 96.9056 57.8632 96.8171 57.8632 96.7109C57.8632 91.2585 62.4126 86.8152 68.0132 86.8152H83.7457L87.0445 84.5669C92.7176 80.6901 99.3695 78.6366 106.275 78.6366H109.773V77.7515C109.773 74.9899 112.075 72.7417 114.921 72.7417H130.853C133.68 72.7417 136 74.9899 136 77.7515V114.944C136 117.706 133.68 119.954 130.853 119.954H114.921C112.256 119.954 110.099 117.971 109.827 115.458L98.3544 122.291C93.1163 125.407 87.1169 127 81.1175 127C75.8975 127 70.6775 125.796 65.9469 123.406L24.5312 102.482C21.74 101.066 20 98.2686 20 95.1884C20 93.8607 20.3444 92.5153 20.997 91.3116ZM113.398 114.944C113.398 115.759 114.087 116.414 114.921 116.414H130.853C131.686 116.414 132.375 115.759 132.375 114.944V77.7515C132.375 76.9372 131.686 76.2822 130.853 76.2822H114.921C114.087 76.2822 113.398 76.9372 113.398 77.7515L113.398 114.944ZM26.1988 99.3308L67.6144 120.255C76.6769 124.858 87.7332 124.468 96.4694 119.264L109.773 111.333V82.1772H106.275C100.113 82.1772 94.1676 84.0182 89.1106 87.4702L85.3587 90.037C85.0688 90.2495 84.7063 90.3557 84.3257 90.3557H68.0132C64.4244 90.3557 61.4881 93.2058 61.4881 96.7109C61.4881 97.5252 61.6332 98.2863 61.9413 99.0475C62.2675 99.8442 62.7569 100.588 63.4094 101.225C64.6419 102.429 66.2732 103.084 68.0132 103.084H85.5401C86.5369 103.084 87.3526 103.88 87.3526 104.854C87.3526 105.828 86.5369 106.624 85.5401 106.624H68.0132C65.3125 106.624 62.7569 105.597 60.8357 103.721C60.0563 102.96 59.4219 102.075 58.9507 101.137L30.2225 90.8867C27.9569 89.9662 25.365 90.869 24.1869 92.9756C23.8244 93.666 23.625 94.4272 23.625 95.1884C23.625 96.9409 24.622 98.5342 26.1988 99.3308Z" fill="#F5F5F5"/>
<g clip-path="url(#clip1_2813_397)">
<path d="M50.6191 19.0264H88.5415C89.4163 19.0504 90.2731 19.2799 91.0427 19.6964C91.8123 20.1129 92.4731 20.7047 92.9717 21.4239L102.457 34.5581C103.162 35.5534 103.514 36.7555 103.457 37.9736C103.4 39.1916 102.938 40.3559 102.145 41.2815L73.6978 74.0649C73.2106 74.6926 72.5863 75.2007 71.8727 75.5502C71.159 75.8997 70.3749 76.0814 69.5803 76.0814C68.7857 76.0814 68.0016 75.8997 67.288 75.5502C66.5743 75.2007 65.95 74.6926 65.4629 74.0649L37.0211 41.2815C36.2274 40.3559 35.7655 39.1916 35.7089 37.9736C35.6522 36.7555 36.004 35.5534 36.7083 34.5581L46.1889 21.4239C46.6875 20.7047 47.3483 20.1129 48.1179 19.6964C48.8875 19.2799 49.7444 19.0504 50.6191 19.0264Z" stroke="#F5F5F5" stroke-width="4" stroke-linecap="round" stroke-linejoin="round"/>
<path d="M72.2901 18.9741L85.0073 38.6754L69.5799 75.9411L54.0482 38.6754L66.7133 18.9741M103.354 38.6754H35.8062" stroke="#F5F5F5" stroke-width="4" stroke-linecap="round" stroke-linejoin="round"/>
</g>
</g>
<defs>
<clipPath id="clip0_2813_397">
<rect width="137" height="137" fill="white"/>
</clipPath>
<clipPath id="clip1_2813_397">
<rect width="72.9677" height="72.9677" fill="white" transform="matrix(-1 0 0 1 106.064 11)"/>
</clipPath>
</defs>
</svg>
