<svg width="14" height="20" viewBox="0 0 14 20" fill="none" xmlns="http://www.w3.org/2000/svg">
<path d="M5 7V12C5 12.5304 5.21071 13.0391 5.58579 13.4142C5.96086 13.7893 6.46957 14 7 14C7.53043 14 8.03914 13.7893 8.41421 13.4142C8.78929 13.0391 9 12.5304 9 12V5C9 3.93913 8.57857 2.92172 7.82843 2.17157C7.07828 1.42143 6.06087 1 5 1C3.93913 1 2.92172 1.42143 2.17157 2.17157C1.42143 2.92172 1 3.93913 1 5V13C1 14.5913 1.63214 16.1174 2.75736 17.2426C3.88258 18.3679 5.4087 19 7 19C8.5913 19 10.1174 18.3679 11.2426 17.2426C12.3679 16.1174 13 14.5913 13 13V3" stroke="#29ABE2" stroke-width="1.5" stroke-linecap="round" stroke-linejoin="round"/>
</svg>
