<svg width="18" height="18" viewBox="0 0 18 18" fill="none" xmlns="http://www.w3.org/2000/svg">
<path d="M9.07031 8.15625C8.56548 8.15625 8.15625 8.56548 8.15625 9.07031C8.15625 9.57513 8.56548 9.98438 9.07031 9.98438C9.57513 9.98438 9.98438 9.57514 9.98438 9.07031C9.98438 8.56548 9.57513 8.15625 9.07031 8.15625ZM9.07031 13.0781C8.56548 13.0781 8.15625 13.4874 8.15625 13.9922C8.15625 14.497 8.56548 14.9062 9.07031 14.9062C9.57513 14.9062 9.98438 14.497 9.98438 13.9922C9.98438 13.4874 9.57513 13.0781 9.07031 13.0781ZM9.07031 3.23438C8.56548 3.23438 8.15625 3.64361 8.15625 4.14844C8.15625 4.65325 8.56548 5.0625 9.07031 5.0625C9.57513 5.0625 9.98438 4.65327 9.98438 4.14844C9.98438 3.64361 9.57513 3.23438 9.07031 3.23438Z" fill="black" stroke="black"/>
</svg>
