<svg width="52" height="52" viewBox="0 0 52 52" fill="none" xmlns="http://www.w3.org/2000/svg">
<rect width="51.3422" height="51.3422" rx="4.94537" fill="#F8F8F8"/>
<g clip-path="url(#clip0_2851_3465)">
<path fill-rule="evenodd" clip-rule="evenodd" d="M9.28912 17.8961C8.90309 18.0777 8.57669 18.3654 8.34807 18.7255C8.11945 19.0857 7.99805 19.5035 7.99805 19.9301C7.99805 20.3567 8.11945 20.7745 8.34807 21.1347C8.57669 21.4949 8.90309 21.7825 9.28912 21.9641L12.5066 23.4829V32.3029C12.5066 33.9724 13.0489 35.8354 14.6306 36.9829C16.6241 38.4229 20.2556 40.1779 26.0156 40.1779C31.7756 40.1779 35.3981 38.4116 37.4006 36.9829C38.9824 35.8399 39.5246 33.9904 39.5246 32.3029V23.4829L41.7746 22.4186V32.2961C41.7746 32.5945 41.8932 32.8806 42.1041 33.0916C42.3151 33.3026 42.6013 33.4211 42.8996 33.4211C43.198 33.4211 43.4841 33.3026 43.6951 33.0916C43.9061 32.8806 44.0246 32.5945 44.0246 32.2961V19.9211C44.0247 19.495 43.9038 19.0776 43.676 18.7175C43.4481 18.3575 43.1227 18.0695 42.7376 17.8871L29.8676 11.8121C28.6647 11.2433 27.3507 10.9482 26.0201 10.9482C24.6895 10.9482 23.3755 11.2433 22.1726 11.8121L9.30262 17.8871L9.28912 17.8961ZM14.7566 32.2961V24.5336L22.1591 28.0436C23.362 28.6124 24.676 28.9075 26.0066 28.9075C27.3372 28.9075 28.6513 28.6124 29.8541 28.0436L37.2566 24.5336V32.2961C37.2566 33.5471 36.8516 34.5686 36.0641 35.1311C34.4351 36.3079 31.2716 37.9211 26.0066 37.9211C20.7416 37.9211 17.5691 36.3191 15.9491 35.1311C15.1639 34.5641 14.7566 33.5359 14.7566 32.2961ZM23.1266 13.8461C24.0268 13.4197 25.0105 13.1985 26.0066 13.1985C27.0027 13.1985 27.9864 13.4197 28.8866 13.8461L41.7566 19.9211L28.8866 25.9961C27.9864 26.4225 27.0027 26.6437 26.0066 26.6437C25.0105 26.6437 24.0268 26.4225 23.1266 25.9961L10.2566 19.9211L23.1266 13.8461Z" fill="#757575"/>
</g>
<defs>
<clipPath id="clip0_2851_3465">
<rect width="36" height="36" fill="white" transform="translate(8 8.6709)"/>
</clipPath>
</defs>
</svg>
