<svg width="20" height="21" viewBox="0 0 20 21" fill="none" xmlns="http://www.w3.org/2000/svg">
<g clip-path="url(#clip0_2051_1258)">
<path d="M18.3901 0.501953H1.60598C0.720331 0.501953 0 1.22228 0 2.10794V18.896C0 19.7777 0.720331 20.498 1.60598 20.498H18.394C19.2797 20.498 20 19.7777 20 18.892V2.10794C19.9961 1.22228 19.2757 0.501953 18.3901 0.501953ZM9.44302 19.388H1.60598C1.33438 19.388 1.11395 19.1676 1.11395 18.896V2.10794C1.11395 1.83634 1.33438 1.61591 1.60598 1.61591H9.44302V19.388ZM18.394 19.3841H10.553V1.61197H18.3901C18.6617 1.61197 18.8821 1.8324 18.8821 2.104V18.892H18.886C18.886 19.1636 18.6656 19.3841 18.394 19.3841Z" fill="black"/>
<path d="M7.42753 10.9285C7.21104 10.712 6.86072 10.712 6.64029 10.9285L5.83336 11.7354V7.92122C5.83336 7.61419 5.58538 7.36621 5.27835 7.36621C4.97132 7.36621 4.72334 7.61419 4.72334 7.92122V11.7354L3.91641 10.9324C3.69992 10.7159 3.3496 10.7159 3.12917 10.9324C2.91267 11.1489 2.91267 11.4993 3.12917 11.7197L4.88473 13.4713C4.99494 13.5815 5.13665 13.6327 5.27835 13.6327C5.42005 13.6327 5.56176 13.5776 5.67197 13.4713L7.42753 11.7157C7.64403 11.4993 7.64403 11.1489 7.42753 10.9285ZM16.8666 9.28316L15.1111 7.5276C15.0008 7.41738 14.8591 7.36621 14.7174 7.36621C14.5757 7.36621 14.434 7.42132 14.3238 7.5276L12.5683 9.28316C12.3518 9.49965 12.3518 9.84997 12.5683 10.0704C12.7847 10.2869 13.1351 10.2869 13.3555 10.0704L14.1624 9.26348V13.0777C14.1624 13.3847 14.4104 13.6327 14.7174 13.6327C15.0245 13.6327 15.2724 13.3847 15.2724 13.0777V9.26348L16.0794 10.0704C16.2959 10.2869 16.6462 10.2869 16.8666 10.0704C17.0831 9.85391 17.0831 9.50359 16.8666 9.28316Z" fill="black"/>
</g>
<defs>
<clipPath id="clip0_2051_1258">
<rect width="20" height="20" fill="white" transform="translate(0 0.5)"/>
</clipPath>
</defs>
</svg>
