<svg width="14" height="20" viewBox="0 0 14 20" fill="none" xmlns="http://www.w3.org/2000/svg">
<path d="M0.00217254 2.63687C-0.0304304 1.31137 1.08486 0.375 2.2803 0.375H11.2977C12.4932 0.375 13.6098 1.31137 13.5772 2.63687C13.5433 4.03525 13.2512 5.0995 12.807 5.9465C12.3655 6.79075 11.7922 7.3765 11.2583 7.844C11.0736 8.00625 10.8834 8.16025 10.7109 8.30187L10.5112 8.46688C10.3091 8.62674 10.1184 8.80088 9.94064 8.988C9.65265 9.29875 9.50729 9.5875 9.50729 10C9.50729 10.4125 9.65265 10.7013 9.942 11.012C10.0941 11.1784 10.2816 11.3434 10.5112 11.5345L10.7109 11.6995C10.8834 11.8398 11.0736 11.9938 11.257 12.156C11.7909 12.6235 12.3628 13.2093 12.8056 14.0535C13.2485 14.8991 13.5406 15.9634 13.5772 17.3604C13.6112 18.6873 12.4932 19.625 11.2964 19.625H2.2803C1.08486 19.625 -0.0345057 18.6873 0.00081418 17.3604C0.0361341 15.962 0.328202 14.8991 0.772417 14.0535C1.21663 13.2079 1.78854 12.6221 2.32242 12.156C2.50717 11.9938 2.69599 11.8398 2.86852 11.6981L3.06957 11.5331C3.29915 11.3434 3.48661 11.1784 3.64012 11.012C3.92675 10.7013 4.07347 10.4125 4.07347 10C4.07347 9.5875 3.92675 9.29875 3.63876 8.988C3.46101 8.80041 3.27035 8.6258 3.06821 8.4655L2.86716 8.30187C2.68268 8.15227 2.50062 7.99962 2.32106 7.844C1.78718 7.3765 1.21392 6.79075 0.771059 5.9465C0.326844 5.0995 0.036134 4.03525 0.00217254 2.63687ZM2.2803 1.75C1.73013 1.75 1.34704 2.1625 1.35791 2.6025C1.3878 3.818 1.63776 4.66775 1.96922 5.30163C2.30068 5.9355 2.73946 6.39475 3.20677 6.8045C3.37386 6.95025 3.53552 7.08225 3.69989 7.217L3.92675 7.40263C4.16448 7.59925 4.41037 7.81238 4.62908 8.04887C5.0828 8.53975 5.43057 9.14888 5.43057 10C5.43057 10.8497 5.08416 11.4602 4.62908 11.9525C4.41172 12.1863 4.16584 12.3994 3.92811 12.5974L3.69989 12.7844C3.53552 12.9191 3.37386 13.0497 3.20813 13.1969C2.74082 13.6052 2.3034 14.0631 1.96922 14.6984C1.63776 15.3309 1.38644 16.1806 1.3552 17.3961C1.34433 17.8361 1.72741 18.25 2.27759 18.25H11.295C11.8452 18.25 12.2283 17.8361 12.2174 17.3961C12.1862 16.1806 11.9362 15.3309 11.6048 14.6984C11.2706 14.0631 10.8345 13.6053 10.3672 13.1955C10.2001 13.0498 10.0412 12.9178 9.87544 12.783L9.64857 12.5974C9.40033 12.3987 9.16611 12.1828 8.94761 11.9511C8.49253 11.4602 8.14612 10.8511 8.14612 10C8.14612 9.15025 8.49389 8.53975 8.94761 8.0475C9.16632 7.81237 9.4122 7.59925 9.64993 7.40263L9.8768 7.217C10.0425 7.08225 10.2028 6.95025 10.3699 6.8045C10.8372 6.39475 11.2746 5.93688 11.6075 5.30163C11.9389 4.66913 12.1889 3.818 12.2188 2.6025C12.2296 2.1625 11.8466 1.75 11.2977 1.75H2.2803Z" fill="#757575"/>
</svg>
