<svg width="12" height="18" viewBox="0 0 12 18" fill="none" xmlns="http://www.w3.org/2000/svg">
<path d="M1.4434 18H10.4823C11.432 18 11.9996 17.4527 11.9996 16.3968V16.1423C12.0091 13.4437 9.27247 11.2535 8.07136 10.0609C7.73613 9.72838 7.55938 9.42551 7.55938 8.9854C7.55938 8.54529 7.73613 8.25202 8.07176 7.90994C9.26334 6.69723 12 4.64434 12 1.83805V1.6036C12 0.547326 11.432 0 10.4827 0H1.443C0.511982 0 0 0.547325 0 1.51557V1.83805C0 4.64434 2.73666 6.69723 3.93777 7.90994C4.273 8.25202 4.44975 8.54529 4.44975 8.9854C4.44975 9.42551 4.273 9.72838 3.93738 10.0609C2.73666 11.254 0 13.4441 0 16.1423V16.4844C0 17.4523 0.512379 18 1.4434 18Z" fill="#757575"/>
</svg>
