<svg width="13" height="17" viewBox="0 0 13 17" fill="none" xmlns="http://www.w3.org/2000/svg">
<path d="M6.16482 1.18848C3.08048 1.18848 0.571289 3.731 0.571289 6.85631C0.571289 7.88519 1.02667 8.99176 1.04575 9.03843C1.19283 9.39217 1.48303 9.94162 1.6923 10.2637L5.52749 16.1519C5.68443 16.3933 5.91673 16.5316 6.16482 16.5316C6.41291 16.5316 6.6452 16.3933 6.80215 16.1522L10.6377 10.2637C10.8473 9.94162 11.1371 9.39217 11.2842 9.03843C11.3033 8.99209 11.7583 7.88553 11.7583 6.85631C11.7583 3.731 9.24916 1.18848 6.16482 1.18848ZM10.6775 8.77971C10.5462 9.09678 10.2761 9.60788 10.0882 9.89661L6.25267 15.7852C6.17699 15.9015 6.15297 15.9015 6.0773 15.7852L2.24178 9.89661C2.0539 9.60788 1.78377 9.09644 1.65249 8.77938C1.64689 8.76571 1.22935 7.74717 1.22935 6.85631C1.22935 4.09874 3.4434 1.85528 6.16482 1.85528C8.88624 1.85528 11.1003 4.09874 11.1003 6.85631C11.1003 7.7485 10.6818 8.76971 10.6775 8.77971Z" fill="#757575" stroke="#757575" stroke-width="0.509723"/>
<path d="M6.16538 3.85645C4.5324 3.85645 3.2041 5.20272 3.2041 6.85707C3.2041 8.51141 4.5324 9.85769 6.16538 9.85769C7.79836 9.85769 9.12666 8.51141 9.12666 6.85707C9.12666 5.20272 7.79836 3.85645 6.16538 3.85645ZM6.16538 9.19088C4.89565 9.19088 3.86216 8.144 3.86216 6.85707C3.86216 5.57013 4.89565 4.52325 6.16538 4.52325C7.43511 4.52325 8.4686 5.57013 8.4686 6.85707C8.4686 8.144 7.43511 9.19088 6.16538 9.19088Z" fill="#757575" stroke="#757575" stroke-width="0.509723"/>
</svg>
