<svg width="21" height="16" viewBox="0 0 21 16" fill="none" xmlns="http://www.w3.org/2000/svg">
<path d="M20.25 8C20.25 10.25 15.885 14.75 10.5 14.75C5.115 14.75 0.75 10.25 0.75 8C0.75 5.75 5.115 1.25 10.5 1.25C15.885 1.25 20.25 5.75 20.25 8Z" stroke="black" stroke-width="1.2" stroke-linejoin="round"/>
<path d="M14.25 8C14.25 8.99456 13.8549 9.94839 13.1517 10.6517C12.4484 11.3549 11.4946 11.75 10.5 11.75C9.50544 11.75 8.55161 11.3549 7.84835 10.6517C7.14509 9.94839 6.75 8.99456 6.75 8C6.75 7.00544 7.14509 6.05161 7.84835 5.34835C8.55161 4.64509 9.50544 4.25 10.5 4.25C11.4946 4.25 12.4484 4.64509 13.1517 5.34835C13.8549 6.05161 14.25 7.00544 14.25 8Z" stroke="black" stroke-width="1.2" stroke-linejoin="round"/>
</svg>
