<svg width="20" height="19" viewBox="0 0 20 19" fill="none" xmlns="http://www.w3.org/2000/svg">
<path d="M1 3C1 1.89543 1.89543 1 3 1H17C18.1046 1 19 1.89543 19 3V15.8759C19 16.4395 18.7629 16.98 18.341 17.3785C17.919 17.7771 17.3467 18.001 16.75 18.001H3.25C2.65326 18.001 2.08097 17.7771 1.65901 17.3785C1.23705 16.98 1 16.4395 1 15.8759V3Z" stroke="#757575" stroke-width="1.2" stroke-linecap="round" stroke-linejoin="round"/>
<path d="M10 13.75H10.0113V13.76H10V13.75Z" stroke="#757575" stroke-width="2" stroke-linejoin="round"/>
<path d="M8.41016 5.80919C8.84891 5.39479 9.42266 5.18759 9.99641 5.18653C10.2926 5.18603 10.586 5.24077 10.8598 5.34763C11.1335 5.45448 11.3822 5.61133 11.5917 5.80919C12.0304 6.22359 12.2509 6.76762 12.2509 7.31165C12.2509 7.85568 12.0315 8.39971 11.5917 8.81411C11.3822 9.01197 11.1335 9.16882 10.8598 9.27567C10.586 9.38252 10.2926 9.43727 9.99641 9.43677L10.0009 10.4993" stroke="#757575" stroke-width="1.2" stroke-linecap="round" stroke-linejoin="round"/>
</svg>
