<svg width="24" height="24" viewBox="0 0 24 24" fill="none" xmlns="http://www.w3.org/2000/svg">
<path d="M2 4.99992H5.545C5.6668 5.69521 6.02988 6.32528 6.57036 6.77931C7.11085 7.23335 7.79412 7.48225 8.5 7.48225C9.20588 7.48225 9.88916 7.23335 10.4296 6.77931C10.9701 6.32528 11.3332 5.69521 11.455 4.99992H22C22.1326 4.99992 22.2598 4.94724 22.3536 4.85347C22.4473 4.7597 22.5 4.63252 22.5 4.49992C22.5 4.36731 22.4473 4.24013 22.3536 4.14636C22.2598 4.05259 22.1326 3.99992 22 3.99992H11.455C11.3332 3.30462 10.9701 2.67455 10.4296 2.22052C9.88916 1.76648 9.20588 1.51758 8.5 1.51758C7.79412 1.51758 7.11085 1.76648 6.57036 2.22052C6.02988 2.67455 5.6668 3.30462 5.545 3.99992H2C1.86739 3.99992 1.74021 4.05259 1.64645 4.14636C1.55268 4.24013 1.5 4.36731 1.5 4.49992C1.5 4.63252 1.55268 4.7597 1.64645 4.85347C1.74021 4.94724 1.86739 4.99992 2 4.99992ZM8.5 2.49992C8.89556 2.49992 9.28224 2.61721 9.61114 2.83698C9.94004 3.05674 10.1964 3.3691 10.3478 3.73455C10.4991 4.1 10.5387 4.50213 10.4616 4.8901C10.3844 5.27806 10.1939 5.63442 9.91421 5.91413C9.63451 6.19383 9.27814 6.38432 8.89018 6.46149C8.50222 6.53866 8.10009 6.49905 7.73463 6.34767C7.36918 6.1963 7.05682 5.93995 6.83706 5.61106C6.6173 5.28216 6.5 4.89548 6.5 4.49992C6.5 3.96948 6.71071 3.46077 7.08579 3.0857C7.46086 2.71063 7.96957 2.49992 8.5 2.49992ZM22 11.4999H18.455C18.3332 10.8046 17.9701 10.1745 17.4296 9.72052C16.8892 9.26648 16.2059 9.01758 15.5 9.01758C14.7941 9.01758 14.1108 9.26648 13.5704 9.72052C13.0299 10.1745 12.6668 10.8046 12.545 11.4999H2C1.86739 11.4999 1.74021 11.5526 1.64645 11.6464C1.55268 11.7401 1.5 11.8673 1.5 11.9999C1.5 12.1325 1.55268 12.2597 1.64645 12.3535C1.74021 12.4472 1.86739 12.4999 2 12.4999H12.545C12.6668 13.1952 13.0299 13.8253 13.5704 14.2793C14.1108 14.7333 14.7941 14.9823 15.5 14.9823C16.2059 14.9823 16.8892 14.7333 17.4296 14.2793C17.9701 13.8253 18.3332 13.1952 18.455 12.4999H22C22.1326 12.4999 22.2598 12.4472 22.3536 12.3535C22.4473 12.2597 22.5 12.1325 22.5 11.9999C22.5 11.8673 22.4473 11.7401 22.3536 11.6464C22.2598 11.5526 22.1326 11.4999 22 11.4999ZM15.5 13.9999C15.1044 13.9999 14.7178 13.8826 14.3889 13.6629C14.06 13.4431 13.8036 13.1307 13.6522 12.7653C13.5009 12.3998 13.4613 11.9977 13.5384 11.6097C13.6156 11.2218 13.8061 10.8654 14.0858 10.5857C14.3655 10.306 14.7219 10.1155 15.1098 10.0383C15.4978 9.96117 15.8999 10.0008 16.2654 10.1522C16.6308 10.3035 16.9432 10.5599 17.1629 10.8888C17.3827 11.2177 17.5 11.6044 17.5 11.9999C17.5 12.5303 17.2893 13.0391 16.9142 13.4141C16.5391 13.7892 16.0304 13.9999 15.5 13.9999ZM22 18.9999H11.455C11.3332 18.3046 10.9701 17.6745 10.4296 17.2205C9.88916 16.7665 9.20588 16.5176 8.5 16.5176C7.79412 16.5176 7.11085 16.7665 6.57036 17.2205C6.02988 17.6745 5.6668 18.3046 5.545 18.9999H2C1.86739 18.9999 1.74021 19.0526 1.64645 19.1464C1.55268 19.2401 1.5 19.3673 1.5 19.4999C1.5 19.6325 1.55268 19.7597 1.64645 19.8535C1.74021 19.9472 1.86739 19.9999 2 19.9999H5.545C5.6668 20.6952 6.02988 21.3253 6.57036 21.7793C7.11085 22.2333 7.79412 22.4823 8.5 22.4823C9.20588 22.4823 9.88916 22.2333 10.4296 21.7793C10.9701 21.3253 11.3332 20.6952 11.455 19.9999H22C22.1326 19.9999 22.2598 19.9472 22.3536 19.8535C22.4473 19.7597 22.5 19.6325 22.5 19.4999C22.5 19.3673 22.4473 19.2401 22.3536 19.1464C22.2598 19.0526 22.1326 18.9999 22 18.9999ZM8.5 21.4999C8.10444 21.4999 7.71776 21.3826 7.38886 21.1629C7.05996 20.9431 6.80362 20.6307 6.65224 20.2653C6.50087 19.8998 6.46126 19.4977 6.53843 19.1097C6.6156 18.7218 6.80608 18.3654 7.08579 18.0857C7.36549 17.806 7.72186 17.6155 8.10982 17.5383C8.49778 17.4612 8.89991 17.5008 9.26537 17.6522C9.63082 17.8035 9.94318 18.0599 10.1629 18.3888C10.3827 18.7177 10.5 19.1044 10.5 19.4999C10.5 20.0303 10.2893 20.5391 9.91421 20.9141C9.53914 21.2892 9.03043 21.4999 8.5 21.4999Z" fill="#29ABE2" stroke="#29ABE2" stroke-width="0.5"/>
</svg>
