<svg width="16" height="14" viewBox="0 0 16 14" fill="none" xmlns="http://www.w3.org/2000/svg">
<path d="M5.95483 8.36389C4.45066 8.36389 3.22741 7.14064 3.22741 5.63647C3.22741 4.1323 4.45066 2.90906 5.95483 2.90906C7.459 2.90906 8.68224 4.1323 8.68224 5.63647C8.68224 7.14064 7.459 8.36389 5.95483 8.36389ZM5.95483 4.27276C5.20274 4.27276 4.59112 4.8837 4.59112 5.63647C4.59112 6.38856 5.20274 7.00018 5.95483 7.00018C6.70691 7.00018 7.31854 6.38856 7.31854 5.63647C7.31854 4.8837 6.70691 4.27276 5.95483 4.27276ZM11.4097 13.8187H0.5V13.1369C0.5 10.7279 2.7433 9.04574 5.95483 9.04574C9.16636 9.04574 11.4097 10.7279 11.4097 13.1369V13.8187ZM1.97212 12.455H9.93822C9.53047 11.2222 8.00653 10.4094 5.95551 10.4094C3.9045 10.4094 2.37987 11.2222 1.97212 12.455ZM15.5008 2.2272H13.4552V0.181641H12.0915V2.2272H10.046V3.59091H12.0915V5.63647H13.4552V3.59091H15.5008V2.2272Z" fill="#29ABE2"/>
</svg>
