<svg width="150" height="46" viewBox="0 0 150 46" fill="none" xmlns="http://www.w3.org/2000/svg">
<g filter="url(#filter0_d_2535_2887)">
<rect x="5" y="1" width="140" height="36" rx="18" stroke="#CECECE" stroke-width="2" shape-rendering="crispEdges"/>
<path d="M61.006 23.5L58.85 19.692H57.926V23.5H55.966V13.728H59.634C60.39 13.728 61.034 13.8633 61.566 14.134C62.098 14.3953 62.4947 14.7547 62.756 15.212C63.0267 15.66 63.162 16.164 63.162 16.724C63.162 17.368 62.9753 17.9513 62.602 18.474C62.2287 18.9873 61.6733 19.342 60.936 19.538L63.274 23.5H61.006ZM57.926 18.222H59.564C60.096 18.222 60.4927 18.096 60.754 17.844C61.0153 17.5827 61.146 17.2233 61.146 16.766C61.146 16.318 61.0153 15.9727 60.754 15.73C60.4927 15.478 60.096 15.352 59.564 15.352H57.926V18.222ZM72.1448 19.454C72.1448 19.734 72.1261 19.986 72.0888 20.21H66.4188C66.4654 20.77 66.6614 21.2087 67.0068 21.526C67.3521 21.8433 67.7768 22.002 68.2808 22.002C69.0088 22.002 69.5268 21.6893 69.8348 21.064H71.9488C71.7248 21.8107 71.2954 22.4267 70.6608 22.912C70.0261 23.388 69.2468 23.626 68.3228 23.626C67.5761 23.626 66.9041 23.4627 66.3068 23.136C65.7188 22.8 65.2568 22.3287 64.9208 21.722C64.5941 21.1153 64.4307 20.4153 64.4307 19.622C64.4307 18.8193 64.5941 18.1147 64.9208 17.508C65.2474 16.9013 65.7048 16.4347 66.2928 16.108C66.8808 15.7813 67.5574 15.618 68.3228 15.618C69.0601 15.618 69.7181 15.7767 70.2968 16.094C70.8848 16.4113 71.3374 16.864 71.6548 17.452C71.9814 18.0307 72.1448 18.698 72.1448 19.454ZM70.1148 18.894C70.1054 18.39 69.9234 17.9887 69.5688 17.69C69.2141 17.382 68.7801 17.228 68.2668 17.228C67.7814 17.228 67.3708 17.3773 67.0348 17.676C66.7081 17.9653 66.5074 18.3713 66.4328 18.894H70.1148ZM75.5354 16.864C75.7874 16.5093 76.1327 16.2153 76.5714 15.982C77.0194 15.7393 77.528 15.618 78.0974 15.618C78.76 15.618 79.3574 15.7813 79.8894 16.108C80.4307 16.4347 80.8554 16.9013 81.1634 17.508C81.4807 18.1053 81.6394 18.8007 81.6394 19.594C81.6394 20.3873 81.4807 21.092 81.1634 21.708C80.8554 22.3147 80.4307 22.786 79.8894 23.122C79.3574 23.458 78.76 23.626 78.0974 23.626C77.528 23.626 77.024 23.5093 76.5854 23.276C76.156 23.0427 75.806 22.7487 75.5354 22.394V27.196H73.5754V15.744H75.5354V16.864ZM79.6374 19.594C79.6374 19.1273 79.5394 18.726 79.3434 18.39C79.1567 18.0447 78.9047 17.7833 78.5874 17.606C78.2794 17.4287 77.9434 17.34 77.5794 17.34C77.2247 17.34 76.8887 17.4333 76.5714 17.62C76.2634 17.7973 76.0114 18.0587 75.8154 18.404C75.6287 18.7493 75.5354 19.1553 75.5354 19.622C75.5354 20.0887 75.6287 20.4947 75.8154 20.84C76.0114 21.1853 76.2634 21.4513 76.5714 21.638C76.8887 21.8153 77.2247 21.904 77.5794 21.904C77.9434 21.904 78.2794 21.8107 78.5874 21.624C78.9047 21.4373 79.1567 21.1713 79.3434 20.826C79.5394 20.4807 79.6374 20.07 79.6374 19.594ZM85.0237 13.14V23.5H83.0637V13.14H85.0237ZM94.3801 15.744L89.5781 27.168H87.4921L89.1721 23.304L86.0641 15.744H88.2621L90.2641 21.162L92.2941 15.744H94.3801Z" fill="#CECECE"/>
</g>
<defs>
<filter id="filter0_d_2535_2887" x="0" y="0" width="150" height="46" filterUnits="userSpaceOnUse" color-interpolation-filters="sRGB">
<feFlood flood-opacity="0" result="BackgroundImageFix"/>
<feColorMatrix in="SourceAlpha" type="matrix" values="0 0 0 0 0 0 0 0 0 0 0 0 0 0 0 0 0 0 127 0" result="hardAlpha"/>
<feOffset dy="4"/>
<feGaussianBlur stdDeviation="2"/>
<feComposite in2="hardAlpha" operator="out"/>
<feColorMatrix type="matrix" values="0 0 0 0 0 0 0 0 0 0 0 0 0 0 0 0 0 0 0.18 0"/>
<feBlend mode="normal" in2="BackgroundImageFix" result="effect1_dropShadow_2535_2887"/>
<feBlend mode="normal" in="SourceGraphic" in2="effect1_dropShadow_2535_2887" result="shape"/>
</filter>
</defs>
</svg>
