<svg width="35" height="34" viewBox="0 0 35 34" fill="none" xmlns="http://www.w3.org/2000/svg">
<ellipse cx="17.6532" cy="17" rx="17.3094" ry="17" fill="#13F91B" fill-opacity="0.32"/>
<mask id="mask0_5795_2189" style="mask-type:alpha" maskUnits="userSpaceOnUse" x="0" y="0" width="35" height="34">
<path d="M34.9626 17C34.9626 26.3888 27.2129 34 17.6532 34C8.09344 34 0.34375 26.3888 0.34375 17C0.34375 7.61116 8.09344 0 17.6532 0C27.2129 0 34.9626 7.61116 34.9626 17Z" fill="#D4F2FF"/>
<path d="M34.9626 17C34.9626 26.3888 27.2129 34 17.6532 34C8.09344 34 0.34375 26.3888 0.34375 17C0.34375 7.61116 8.09344 0 17.6532 0C27.2129 0 34.9626 7.61116 34.9626 17Z" fill="#42C1F8"/>
<path d="M34.9626 17C34.9626 26.3888 27.2129 34 17.6532 34C8.09344 34 0.34375 26.3888 0.34375 17C0.34375 7.61116 8.09344 0 17.6532 0C27.2129 0 34.9626 7.61116 34.9626 17Z" fill="#BF3737" fill-opacity="0.2"/>
</mask>
<g mask="url(#mask0_5795_2189)">
<path d="M24.8899 13.6392C24.8899 13.6392 26.078 8.78482 24.8899 7.13903C23.7017 5.496 23.2292 4.40065 20.6167 3.61648C18.0041 2.83231 18.956 2.98859 17.0564 3.06881C15.1567 3.14902 13.5729 4.16554 13.5729 4.7146C13.5729 4.7146 12.3848 4.79205 11.9123 5.26227C11.437 5.7325 10.6459 7.9232 10.6459 8.47087C10.6459 9.01855 11.0415 12.7029 11.437 13.4843L10.966 13.642C10.569 18.1824 12.5455 18.7315 12.5455 18.7315C13.2584 22.9608 13.9713 21.1601 13.9713 22.2554C13.9713 23.3508 13.2584 22.9608 13.2584 22.9608C13.2584 22.9608 12.6266 24.6826 11.0443 25.3091C9.46189 25.9356 0.677855 29.3005 -0.0364417 30.0058C-0.752137 30.7112 -0.671062 34 -0.671062 34H36.9966C36.9966 34 37.0805 30.7126 36.3648 30.0058C35.6519 29.3005 26.8664 25.9342 25.2841 25.3091C23.7017 24.6826 23.0699 22.9608 23.0699 22.9608C23.0699 22.9608 22.357 23.3508 22.357 22.2554C22.357 21.1601 23.0699 22.9608 23.7828 18.7315C23.7828 18.7315 25.7579 18.1824 25.3623 13.642H24.8871L24.8899 13.6392Z" fill="#13F91B"/>
</g>
</svg>
