<svg width="22" height="15" viewBox="0 0 22 15" fill="none" xmlns="http://www.w3.org/2000/svg">
<path d="M20.75 7.5C20.75 9.75 16.385 14.25 11 14.25C5.615 14.25 1.25 9.75 1.25 7.5C1.25 5.25 5.615 0.75 11 0.75C16.385 0.75 20.75 5.25 20.75 7.5Z" stroke="#757575" stroke-width="1.2" stroke-linejoin="round"/>
<path d="M14.75 7.5C14.75 8.49456 14.3549 9.44839 13.6517 10.1517C12.9484 10.8549 11.9946 11.25 11 11.25C10.0054 11.25 9.05161 10.8549 8.34835 10.1517C7.64509 9.44839 7.25 8.49456 7.25 7.5C7.25 6.50544 7.64509 5.55161 8.34835 4.84835C9.05161 4.14509 10.0054 3.75 11 3.75C11.9946 3.75 12.9484 4.14509 13.6517 4.84835C14.3549 5.55161 14.75 6.50544 14.75 7.5Z" stroke="#757575" stroke-width="1.2" stroke-linejoin="round"/>
</svg>
