<svg width="110" height="76" viewBox="0 0 110 76" fill="none" xmlns="http://www.w3.org/2000/svg">
<path d="M149.331 38.5529C149.331 54.7953 139.519 68.5227 124.222 73.8669C109.557 79.0016 93.4158 74.0765 82.7603 61.6066C72.4213 49.451 62.0823 37.2955 51.3213 25.4543C44.2529 17.6999 33.0699 17.4903 25.5794 24.1968C17.3504 31.6369 16.9284 43.5828 24.6299 51.3372C32.3314 58.9868 44.3584 58.7773 52.0598 50.7085C54.6973 47.984 56.4908 42.7445 59.9723 43.0589C62.7153 43.3732 65.0363 48.0888 67.4628 50.9181C72.1048 56.1575 71.8938 56.0527 67.3573 61.5018C47.8399 84.8698 11.9699 77.5345 2.58044 50.2893C-3.11655 33.5231 3.63543 15.2897 18.8274 6.17308C33.9139 -2.73401 53.1148 -0.323857 65.1418 12.7748C75.6918 24.3016 85.7143 36.3524 95.8423 48.1936C101.539 54.9001 108.291 58.6725 117.364 56.0527C124.855 53.8522 130.13 47.5648 130.657 40.3344C131.29 31.8464 127.492 24.8256 120.424 21.4723C113.25 18.0143 104.915 19.1669 99.1128 24.8256C96.6863 27.2357 94.4708 29.8554 92.3608 32.4752C90.9893 34.1518 89.9343 34.571 88.4573 32.4752C87.5078 31.1129 86.2418 29.9602 85.0813 28.598C77.4853 19.9005 77.4853 19.9005 85.6088 11.7269C95.8423 1.45756 112.617 -2.00048 125.804 3.55334C140.574 9.63112 149.331 22.8346 149.331 38.5529Z" fill="#42C1F8"/>
</svg>
