<svg width="135" height="95" viewBox="0 0 135 95" fill="none" xmlns="http://www.w3.org/2000/svg">
<path d="M-60 47.2765C-60 26.7028 -47.1384 9.31483 -27.0855 2.54544C-7.8623 -3.95848 13.297 2.27997 27.2649 18.0752C40.818 33.4722 54.371 48.8693 68.4772 63.8681C77.7431 73.6903 92.4025 73.9558 102.222 65.4609C113.009 56.0368 113.562 40.9053 103.466 31.083C93.3706 21.3935 77.6048 21.659 67.5092 31.8794C64.0518 35.3305 61.7007 41.9671 57.1369 41.5689C53.5412 41.1707 50.4987 35.1978 47.3179 31.614C41.2329 24.9773 41.5095 25.11 47.4562 18.2079C73.041 -11.3915 120.062 -2.10022 132.37 32.4104C139.838 53.6476 130.987 76.7432 111.072 88.291C91.2961 99.5733 66.1262 96.5204 50.3604 79.9288C36.5308 65.3281 23.3926 50.0639 10.1162 35.065C2.64821 26.5701 -6.20274 21.7917 -18.0962 25.11C-27.9153 27.8974 -34.8301 35.8614 -35.5216 45.02C-36.3513 55.7714 -31.3727 64.6645 -22.1068 68.9119C-12.7027 73.2921 -1.77727 71.8321 5.82903 64.6645C9.00983 61.6116 11.9141 58.2933 14.68 54.975C16.4778 52.8512 17.8608 52.3203 19.7969 54.975C21.0416 56.7005 22.7012 58.1606 24.2224 59.8861C34.1798 70.9029 34.1798 70.9029 23.531 81.2561C10.1162 94.2639 -11.8729 98.6441 -29.1599 91.6093C-48.5214 83.9108 -60 67.1864 -60 47.2765Z" fill="#42C1F8"/>
</svg>
