<svg width="139" height="78" viewBox="0 0 139 78" fill="none" xmlns="http://www.w3.org/2000/svg">
<path d="M166 39.3694C166 56.1441 155.051 70.3214 137.98 75.8408C121.616 81.1438 103.604 76.0573 91.7129 63.1786C80.1755 50.6247 68.638 38.0707 56.6296 25.8414C48.7418 17.8328 36.2625 17.6164 27.9037 24.5427C18.7209 32.2266 18.2499 44.5641 26.8442 52.5727C35.4384 60.473 48.8595 60.2566 57.4537 51.9233C60.397 49.1095 62.3984 43.6983 66.2834 44.023C69.3444 44.3477 71.9344 49.2177 74.6422 52.1398C79.8223 57.551 79.5868 57.4428 74.5245 63.0704C52.7446 87.2043 12.7167 79.6286 2.23877 51.4904C-4.1186 34.1746 3.41606 15.3437 20.3691 5.92822C37.2043 -3.2708 58.631 -0.781656 72.0521 12.7463C83.8251 24.6509 95.0093 37.0967 106.311 49.326C112.669 56.2523 120.203 60.1484 130.328 57.4428C138.687 55.1701 144.573 48.6766 145.162 41.2092C145.868 32.4431 141.63 25.1921 133.742 21.7289C125.737 18.1575 116.436 19.348 109.961 25.1921C107.253 27.6812 104.781 30.3868 102.426 33.0924C100.896 34.824 99.7185 35.2569 98.0703 33.0924C97.0107 31.6855 95.598 30.495 94.3029 29.0881C85.8265 20.1055 85.8265 20.1055 94.8916 11.6641C106.311 1.05815 125.03 -2.51324 139.746 3.22263C156.228 9.49961 166 23.1358 166 39.3694Z" fill="#42C1F8" fill-opacity="0.2"/>
</svg>
