<svg width="16" height="24" viewBox="0 0 16 24" fill="none" xmlns="http://www.w3.org/2000/svg">
<path d="M7.28165 9.85184C7.1197 9.50562 6.86255 9.21263 6.54025 9.00714C6.21795 8.80165 5.84382 8.69214 5.46159 8.69141C4.6868 8.69141 4.01322 9.13464 3.67992 9.7803C3.34837 9.536 2.93829 9.38941 2.49505 9.38941C1.38871 9.38941 0.488281 10.2898 0.488281 11.3962V14.7117C0.488281 15.8181 1.38871 16.7185 2.49505 16.7185C3.17212 16.7185 3.77066 16.38 4.13537 15.8652C4.35699 16.0624 4.62223 16.2124 4.92063 16.2962C5.05437 16.3333 5.19735 16.3159 5.31833 16.2479C5.43931 16.1799 5.52845 16.0668 5.56629 15.9332C5.64482 15.654 5.48078 15.3661 5.20333 15.2876C5.00165 15.2308 4.82402 15.1098 4.6974 14.9429C4.57079 14.7759 4.50212 14.5722 4.50183 14.3627V10.6982C4.50183 10.1694 4.93285 9.73842 5.46159 9.73842C5.83328 9.73842 6.1753 9.95655 6.33235 10.2933C6.45451 10.5551 6.76512 10.6685 7.02862 10.5464C7.29037 10.426 7.4038 10.1153 7.28165 9.85184ZM3.45482 14.7117C3.45482 15.2405 3.0238 15.6715 2.49505 15.6715C1.96631 15.6715 1.53529 15.2405 1.53529 14.7117V11.3962C1.53529 10.8674 1.96631 10.4364 2.49505 10.4364C3.0238 10.4364 3.45482 10.8674 3.45482 11.3962V14.7117Z" fill="url(#paint0_linear_3086_680)" stroke="url(#paint1_linear_3086_680)" stroke-width="0.2"/>
<path d="M7.12004 23.0003C4.18143 23.0003 1.56215 21.0302 0.748971 18.212C0.710558 18.0787 0.726667 17.9356 0.793754 17.8142C0.860841 17.6928 0.973412 17.603 1.1067 17.5646C1.23999 17.5262 1.38308 17.5423 1.50449 17.6094C1.6259 17.6765 1.71569 17.789 1.7541 17.9223C2.4399 20.2956 4.6456 21.9533 7.12004 21.9533C10.2 21.9533 12.7041 19.4492 12.7041 16.3693V16.036C12.7061 15.865 12.6628 15.6967 12.5785 15.548C12.4942 15.3993 12.3719 15.2756 12.2242 15.1896L7.99255 12.7466C7.88356 12.6835 7.76316 12.6425 7.63829 12.626C7.51341 12.6095 7.38651 12.6179 7.26488 12.6506C7.14298 12.6828 7.02868 12.7388 6.92863 12.8155C6.82857 12.8922 6.74475 12.988 6.68204 13.0973C6.4168 13.5563 6.57559 14.1444 7.03279 14.4079L9.88939 16.0569C10.1407 16.2017 10.2262 16.5211 10.0813 16.7724C10.0118 16.8926 9.89743 16.9803 9.7633 17.0163C9.62917 17.0523 9.48625 17.0336 9.36588 16.9643L6.50928 15.317C5.55127 14.7638 5.22146 13.5336 5.77463 12.5756C6.04336 12.1114 6.47613 11.7799 6.99265 11.6403C7.51092 11.5024 8.05188 11.5722 8.51606 11.8409L12.7477 14.284C13.0553 14.4621 13.3102 14.7186 13.4864 15.0273C13.6627 15.3359 13.754 15.6858 13.7511 16.0412V16.3693C13.7511 20.0251 10.7759 23.0003 7.12004 23.0003Z" fill="url(#paint2_linear_3086_680)" stroke="url(#paint3_linear_3086_680)" stroke-width="0.2"/>
<path d="M2.49505 16.7182C1.38871 16.7182 0.488281 15.8178 0.488281 14.7114C0.488281 14.4218 0.722114 14.1879 1.01179 14.1879C1.30146 14.1879 1.53529 14.4218 1.53529 14.7114C1.53529 15.2402 1.96631 15.6712 2.49505 15.6712C2.78473 15.6712 3.01856 15.905 3.01856 16.1947C3.01856 16.4844 2.78473 16.7182 2.49505 16.7182ZM15.1918 2.14206C15.0492 1.92027 14.8642 1.72885 14.6474 1.57881C14.4306 1.42877 14.1862 1.32308 13.9284 1.26781C13.4049 1.15438 12.8675 1.2521 12.4172 1.54352C12.1954 1.6861 12.004 1.87112 11.854 2.08794C11.704 2.30476 11.5983 2.5491 11.543 2.80691L10.4436 7.90586L9.74387 2.73711C9.59554 1.64124 8.58168 0.869941 7.48581 1.01827C6.38994 1.16659 5.61864 2.18045 5.76697 3.27632L6.35853 7.64411C6.36781 7.71228 6.39043 7.77796 6.42509 7.8374C6.45976 7.89683 6.50579 7.94885 6.56056 7.9905C6.61533 8.03214 6.67776 8.06259 6.7443 8.08011C6.81084 8.09762 6.88017 8.10186 6.94835 8.09258C7.01652 8.0833 7.0822 8.06068 7.14163 8.02602C7.20107 7.99135 7.25309 7.94532 7.29474 7.89055C7.33638 7.83578 7.36683 7.77335 7.38434 7.70681C7.40186 7.64027 7.4061 7.57094 7.39682 7.50276L6.80525 3.13498C6.73371 2.60973 7.10365 2.12636 7.62716 2.05481C8.15066 1.98326 8.63578 2.35321 8.70733 2.87671L9.80843 11.0033C9.81755 11.0715 9.84006 11.1373 9.87468 11.1968C9.90929 11.2563 9.95533 11.3084 10.0101 11.3501C10.0649 11.3918 10.1274 11.4222 10.194 11.4396C10.2607 11.4571 10.3301 11.4612 10.3983 11.4517C10.5048 11.4375 10.6042 11.3905 10.683 11.3174C10.7617 11.2443 10.8159 11.1486 10.838 11.0434H10.8397L12.5691 3.02679C12.5951 2.90352 12.6453 2.78666 12.7169 2.683C12.7885 2.57935 12.88 2.49097 12.9861 2.42301C13.2008 2.28341 13.4573 2.23629 13.7086 2.29213C14.2251 2.40381 14.5566 2.9151 14.445 3.43338L12.7174 11.45C12.7069 11.4866 12.7034 11.5233 12.7034 11.5599V12.9071C12.7034 13.1968 12.9373 13.4306 13.2269 13.4306C13.5166 13.4306 13.7504 13.1968 13.7504 12.9071V11.6158L15.4658 3.65325C15.5792 3.12974 15.4815 2.59228 15.1918 2.14206Z" fill="url(#paint4_linear_3086_680)" stroke="url(#paint5_linear_3086_680)" stroke-width="0.2"/>
<defs>
<linearGradient id="paint0_linear_3086_680" x1="3.90954" y1="8.69141" x2="3.90954" y2="16.7185" gradientUnits="userSpaceOnUse">
<stop stop-color="#29ABE2"/>
<stop offset="0.480769" stop-color="#32D3D5"/>
<stop offset="1" stop-color="#29FFC6"/>
</linearGradient>
<linearGradient id="paint1_linear_3086_680" x1="3.90954" y1="8.69141" x2="3.90954" y2="16.7185" gradientUnits="userSpaceOnUse">
<stop stop-color="#29ABE2"/>
<stop offset="0.480769" stop-color="#32D3D5"/>
<stop offset="1" stop-color="#29FFC6"/>
</linearGradient>
<linearGradient id="paint2_linear_3086_680" x1="7.23985" y1="11.5713" x2="7.23985" y2="23.0003" gradientUnits="userSpaceOnUse">
<stop stop-color="#29ABE2"/>
<stop offset="0.480769" stop-color="#32D3D5"/>
<stop offset="1" stop-color="#29FFC6"/>
</linearGradient>
<linearGradient id="paint3_linear_3086_680" x1="7.23985" y1="11.5713" x2="7.23985" y2="23.0003" gradientUnits="userSpaceOnUse">
<stop stop-color="#29ABE2"/>
<stop offset="0.480769" stop-color="#32D3D5"/>
<stop offset="1" stop-color="#29FFC6"/>
</linearGradient>
<linearGradient id="paint4_linear_3086_680" x1="8.00007" y1="1" x2="8.00007" y2="16.7182" gradientUnits="userSpaceOnUse">
<stop stop-color="#29ABE2"/>
<stop offset="0.480769" stop-color="#32D3D5"/>
<stop offset="1" stop-color="#29FFC6"/>
</linearGradient>
<linearGradient id="paint5_linear_3086_680" x1="8.00007" y1="1" x2="8.00007" y2="16.7182" gradientUnits="userSpaceOnUse">
<stop stop-color="#29ABE2"/>
<stop offset="0.480769" stop-color="#32D3D5"/>
<stop offset="1" stop-color="#29FFC6"/>
</linearGradient>
</defs>
</svg>
