<svg width="211" height="167" viewBox="0 0 211 167" fill="none" xmlns="http://www.w3.org/2000/svg">
<g clip-path="url(#clip0_2813_2436)">
<path d="M135.522 61.7363C132.224 61.7364 129.061 63.0605 126.73 65.415C124.4 67.7694 123.091 70.9616 123.091 74.2891V122.499C123.091 125.826 124.4 129.019 126.73 131.373C129.061 133.727 132.224 135.051 135.522 135.051H181.262C182.125 135.051 182.955 135.376 183.593 135.96L183.718 136.08L198.804 151.318L199.659 152.183V138.568C199.659 137.634 200.027 136.739 200.68 136.08C201.332 135.421 202.216 135.051 203.137 135.051H207.113C210.412 135.051 213.575 133.728 215.906 131.373C218.237 129.019 219.546 125.826 219.546 122.499V74.2891C219.546 70.9617 218.237 67.7694 215.906 65.415C213.575 63.0604 210.412 61.7363 207.113 61.7363H135.522ZM71.8867 15.5352C68.588 15.5352 65.4248 16.8584 63.0938 19.2129C60.7629 21.5673 59.4541 24.7604 59.4541 28.0879V76.2979C59.4542 79.6252 60.763 82.8175 63.0938 85.1719C65.4248 87.5265 68.588 88.8496 71.8867 88.8496H75.8633C76.7839 88.8496 77.6678 89.2198 78.3203 89.8789C78.9729 90.5381 79.3407 91.4328 79.3408 92.3672V106.222L80.2451 104.984L90.9834 90.2803V90.2793C91.3051 89.838 91.7244 89.4795 92.207 89.2314C92.6896 88.9834 93.2227 88.8525 93.7637 88.8496H116.137V74.292C116.159 71.0787 116.973 67.9217 118.506 65.1064L118.625 64.8877L118.521 64.6611L118.239 64.0381L118.106 63.7451H97.2646L97.1318 64.04L90.959 77.7559C90.6821 78.3707 90.2357 78.891 89.6748 79.2559C89.1139 79.6207 88.4612 79.8143 87.7949 79.8145C87.3052 79.8127 86.8217 79.7042 86.377 79.4961L86.3721 79.4941L86.2178 79.4199C85.8626 79.2364 85.5407 78.992 85.2666 78.6973C84.9534 78.3605 84.7087 77.9642 84.5469 77.5312C84.385 77.0983 84.3096 76.6366 84.3242 76.1738C84.3389 75.7112 84.443 75.2554 84.6318 74.834L104.519 30.6436C104.796 30.029 105.242 29.5081 105.803 29.1436C106.364 28.7793 107.016 28.586 107.682 28.5859C108.348 28.5859 109.001 28.7791 109.562 29.1436C110.052 29.4624 110.455 29.9009 110.733 30.417L110.846 30.6436L123.33 58.3643L123.587 58.9346L124.087 58.5576C127.288 56.1433 131.151 54.799 135.138 54.7061L135.524 54.7012H155.909V28.0879C155.909 24.7604 154.6 21.5673 152.27 19.2129C149.939 16.8585 146.776 15.5352 143.478 15.5352H71.8867ZM107.226 41.6064L100.747 56.0049L100.43 56.71H114.942L114.625 56.0049L108.138 41.6055L107.682 40.5938L107.226 41.6064ZM72.3867 95.8857L71.8867 95.8848C66.7486 95.8785 61.8213 93.8141 58.1865 90.1426C54.6653 86.5856 52.6359 81.8015 52.5068 76.7832L52.5 76.2969V28.0879L52.5068 27.6016C52.6359 22.5833 54.6652 17.7991 58.1865 14.2422C61.7078 10.6853 66.4423 8.63697 71.4062 8.50684L71.8867 8.5H143.477L143.958 8.50684C148.922 8.63713 153.656 10.6854 157.177 14.2422C160.812 17.9139 162.857 22.8932 162.863 28.0879V54.7012H207.113C212.251 54.7075 217.179 56.7718 220.813 60.4434C224.448 64.115 226.494 69.0944 226.5 74.2891V122.499C226.494 127.693 224.448 132.672 220.813 136.344C217.179 140.015 212.251 142.08 207.113 142.086L206.613 142.087V150.967C206.613 152.458 206.175 153.915 205.355 155.154C204.536 156.393 203.371 157.357 202.01 157.927C200.648 158.496 199.151 158.646 197.706 158.355C196.261 158.065 194.933 157.349 193.891 156.296L179.97 142.234L179.823 142.086H135.523C130.385 142.08 125.458 140.015 121.823 136.344C118.302 132.787 116.272 128.003 116.143 122.984L116.137 122.498V95.8848H95.5156L95.3652 96.0908L85.4707 109.682C85.3679 109.823 85.2528 109.954 85.1279 110.075L85.1211 110.083C84.0768 111.142 82.7439 111.863 81.2939 112.154C79.8442 112.446 78.3415 112.295 76.9766 111.721L76.9746 111.72L76.7217 111.609C75.4719 111.034 74.4029 110.117 73.6367 108.959C72.8193 107.724 72.3839 106.269 72.3867 104.782V95.8857Z" fill="#F5F5F5" stroke="white"/>
<path d="M171.32 72.7803C172.241 72.7803 173.125 73.1496 173.777 73.8086C174.43 74.4679 174.798 75.3633 174.798 76.2979V84.833H191.207C192.128 84.833 193.012 85.2022 193.664 85.8613C194.317 86.5206 194.685 87.4161 194.685 88.3506C194.684 89.2849 194.317 90.1797 193.664 90.8389C193.012 91.498 192.128 91.8682 191.207 91.8682H188.536L188.486 92.3125C187.581 100.494 183.892 108.104 178.05 113.842L177.521 114.361L178.201 114.657C181.681 116.17 185.428 116.958 189.217 116.973H189.221C190.159 116.968 191.063 117.333 191.739 117.992C192.416 118.652 192.81 119.554 192.839 120.505V120.506C192.853 120.96 192.777 121.412 192.615 121.836C192.453 122.259 192.209 122.646 191.897 122.972C191.586 123.298 191.213 123.557 190.801 123.735C190.389 123.913 189.946 124.005 189.499 124.007C183.231 123.989 177.076 122.31 171.652 119.135L171.398 118.986L171.146 119.136C165.772 122.323 159.654 124.006 153.423 124.008H153.42C152.482 124.013 151.579 123.648 150.902 122.988C150.226 122.329 149.831 121.427 149.803 120.476V120.475L149.801 120.305C149.808 119.908 149.885 119.516 150.026 119.146C150.188 118.722 150.433 118.335 150.744 118.009C151.056 117.683 151.429 117.423 151.841 117.245C152.253 117.067 152.695 116.975 153.143 116.973L153.142 116.972C157.051 116.981 160.922 116.189 164.519 114.642L165.211 114.345L164.667 113.822C161.628 110.903 159.137 107.451 157.314 103.635L157.311 103.627L157.236 103.468C157.072 103.093 156.973 102.692 156.945 102.282C156.914 101.814 156.975 101.343 157.126 100.899C157.277 100.455 157.513 100.047 157.822 99.6973C158.131 99.3476 158.506 99.0641 158.925 98.8633C159.343 98.6626 159.797 98.5483 160.259 98.5273C160.721 98.5063 161.183 98.5793 161.617 98.7412C162.052 98.9032 162.45 99.1507 162.789 99.4707C163.128 99.7907 163.399 100.176 163.589 100.604L164.046 100.402L163.589 100.605L163.594 100.616C165.342 104.315 167.86 107.59 170.975 110.218L171.297 110.49L171.619 110.218C176.952 105.716 180.449 99.3844 181.44 92.4385L181.522 91.8682H151.435C150.514 91.8682 149.63 91.498 148.978 90.8389C148.325 90.1797 147.957 89.2849 147.957 88.3506C147.957 87.4161 148.325 86.5206 148.978 85.8613C149.63 85.2023 150.514 84.833 151.435 84.833H167.844V76.2979C167.844 75.3634 168.211 74.4679 168.863 73.8086C169.516 73.1496 170.4 72.7804 171.32 72.7803Z" fill="#F5F5F5" stroke="white"/>
</g>
<defs>
<clipPath id="clip0_2813_2436">
<rect width="211" height="167" fill="white"/>
</clipPath>
</defs>
</svg>
