<svg width="23" height="20" viewBox="0 0 23 20" fill="none" xmlns="http://www.w3.org/2000/svg">
<path d="M20.0341 6.25369H14.3835V2.91467C14.3827 2.23372 14.1118 1.58089 13.6303 1.09938C13.1488 0.617876 12.4959 0.347007 11.815 0.346191H2.56848C1.88752 0.347007 1.2347 0.617876 0.75319 1.09938C0.271684 1.58089 0.000815675 2.23372 0 2.91467V9.07901C0.000815675 9.75996 0.271684 10.4128 0.75319 10.8943C1.2347 11.3758 1.88752 11.6467 2.56848 11.6475V12.7211C2.56809 12.9238 2.62802 13.122 2.74063 13.2905C2.85324 13.459 3.01344 13.5902 3.20084 13.6673C3.38906 13.7457 3.59635 13.7663 3.79632 13.7265C3.99629 13.6867 4.1799 13.5884 4.32377 13.4439C4.34253 13.4259 4.35971 13.4063 4.37514 13.3853L5.65322 11.6475H8.21913V14.9865C8.21994 15.6675 8.49081 16.3203 8.97232 16.8018C9.45382 17.2833 10.1067 17.5542 10.7876 17.555H16.4824L18.2804 19.3529C18.424 19.4966 18.6071 19.5944 18.8064 19.634C19.0056 19.6736 19.2122 19.6533 19.3999 19.5755C19.5876 19.4978 19.748 19.3661 19.8609 19.1972C19.9738 19.0283 20.0341 18.8297 20.0341 18.6266V17.555C20.7151 17.5542 21.3679 17.2833 21.8494 16.8018C22.3309 16.3203 22.6018 15.6675 22.6026 14.9865V8.82216C22.6018 8.14121 22.3309 7.48838 21.8494 7.00688C21.3679 6.52537 20.7151 6.2545 20.0341 6.25369ZM5.3938 10.6201C5.31375 10.6205 5.2349 10.6396 5.16355 10.6759C5.0922 10.7122 5.03032 10.7647 4.98284 10.8292L3.59587 12.7093V11.1338C3.59587 10.9976 3.54175 10.8669 3.44541 10.7706C3.34907 10.6742 3.21841 10.6201 3.08217 10.6201H2.56848C2.15976 10.6201 1.76777 10.4577 1.47876 10.1687C1.18975 9.87971 1.02739 9.48773 1.02739 9.07901V2.91467C1.02739 2.50595 1.18975 2.11397 1.47876 1.82496C1.76777 1.53595 2.15976 1.37358 2.56848 1.37358H11.815C12.2237 1.37358 12.6157 1.53595 12.9047 1.82496C13.1937 2.11397 13.3561 2.50595 13.3561 2.91467V6.25369H10.7876C10.2411 6.25531 9.7096 6.43271 9.27169 6.75968L7.6592 3.21518C7.61834 3.12549 7.55254 3.04946 7.46965 2.99614C7.38677 2.94282 7.29029 2.91447 7.19174 2.91447C7.09318 2.91447 6.99671 2.94282 6.91382 2.99614C6.83093 3.04946 6.76513 3.12549 6.72427 3.21518L4.1558 8.86583C4.12795 8.92734 4.11251 8.99375 4.11035 9.06124C4.10819 9.12872 4.11936 9.19598 4.14321 9.25915C4.16707 9.32232 4.20314 9.38016 4.24937 9.42938C4.29561 9.47859 4.35109 9.51821 4.41264 9.54596C4.47866 9.57655 4.5505 9.5925 4.62326 9.59271C4.72185 9.59268 4.81835 9.56428 4.90124 9.51091C4.98413 9.45753 5.0499 9.38143 5.09072 9.29168L5.88798 7.53793H8.49652L8.53299 7.61755C8.32996 7.98679 8.22209 8.40079 8.21913 8.82216V10.6201H5.3938ZM8.02957 6.51054H6.35493L7.19174 4.66945L8.02957 6.51054ZM21.5752 14.9865C21.5752 15.3952 21.4128 15.7872 21.1238 16.0762C20.8348 16.3652 20.4428 16.5276 20.0341 16.5276H19.5204C19.3842 16.5276 19.2535 16.5817 19.1572 16.6781C19.0609 16.7744 19.0067 16.9051 19.0067 17.0413V18.6266L17.0583 16.6781C16.962 16.5818 16.8313 16.5276 16.6951 16.5276H10.7876C10.3789 16.5276 9.9869 16.3652 9.69789 16.0762C9.40888 15.7872 9.24652 15.3952 9.24652 14.9865V8.82216C9.24652 8.41344 9.40888 8.02146 9.69789 7.73245C9.9869 7.44344 10.3789 7.28108 10.7876 7.28108H20.0341C20.4428 7.28108 20.8348 7.44344 21.1238 7.73245C21.4128 8.02146 21.5752 8.41344 21.5752 8.82216V14.9865Z" fill="#757575"/>
<path d="M17.9797 10.1065H15.925V9.07913C15.925 8.94288 15.8708 8.81222 15.7745 8.71589C15.6782 8.61955 15.5475 8.56543 15.4113 8.56543C15.275 8.56543 15.1444 8.61955 15.048 8.71589C14.9517 8.81222 14.8976 8.94288 14.8976 9.07913V10.1065H12.8428C12.7066 10.1065 12.5759 10.1606 12.4796 10.257C12.3832 10.3533 12.3291 10.484 12.3291 10.6202C12.3291 10.7565 12.3832 10.8871 12.4796 10.9834C12.5759 11.0798 12.7066 11.1339 12.8428 11.1339H16.6544C16.5286 12.0066 16.0848 12.8021 15.4082 13.3675C15.013 13.0374 14.6936 12.626 14.4717 12.1613C14.4438 12.0988 14.4037 12.0425 14.3537 11.9957C14.3037 11.9489 14.2448 11.9126 14.1806 11.8889C14.1163 11.8652 14.048 11.8545 13.9796 11.8576C13.9112 11.8607 13.8441 11.8774 13.7823 11.9068C13.7204 11.9362 13.6651 11.9776 13.6195 12.0287C13.5739 12.0798 13.5389 12.1395 13.5167 12.2043C13.4945 12.269 13.4855 12.3376 13.4902 12.4059C13.4949 12.4742 13.5132 12.5409 13.544 12.602C13.7827 13.097 14.109 13.5446 14.5072 13.9233C14.0506 14.1177 13.5594 14.2173 13.0632 14.2161C12.9966 14.2164 12.9308 14.23 12.8697 14.2562C12.8085 14.2823 12.7531 14.3205 12.7069 14.3683C12.6607 14.4162 12.6246 14.4729 12.6006 14.535C12.5767 14.597 12.5654 14.6633 12.5675 14.7298C12.5716 14.8679 12.6296 14.9989 12.729 15.0949C12.8284 15.1909 12.9615 15.2442 13.0996 15.2435C13.916 15.2432 14.7176 15.0251 15.4215 14.6116C16.132 15.0233 16.9382 15.2412 17.7594 15.2435C17.8259 15.2432 17.8917 15.2295 17.9529 15.2034C18.0141 15.1772 18.0694 15.1391 18.1156 15.0912C18.1618 15.0433 18.198 14.9867 18.2219 14.9246C18.2459 14.8625 18.2571 14.7963 18.2551 14.7298C18.2509 14.5916 18.193 14.4606 18.0935 14.3646C17.9941 14.2687 17.8611 14.2153 17.7229 14.2161C17.2423 14.2142 16.7671 14.1153 16.3257 13.9253C17.0908 13.1812 17.574 12.1946 17.6926 11.1339H17.9797C18.116 11.1339 18.2467 11.0798 18.343 10.9834C18.4393 10.8871 18.4934 10.7565 18.4934 10.6202C18.4934 10.484 18.4393 10.3533 18.343 10.257C18.2467 10.1606 18.116 10.1065 17.9797 10.1065Z" fill="#757575"/>
</svg>
