<svg width="18" height="23" viewBox="0 0 18 23" fill="none" xmlns="http://www.w3.org/2000/svg">
<path d="M9.00039 1C4.53396 1 0.900391 4.47992 0.900391 8.7575C0.900391 10.1657 1.55983 11.6802 1.58746 11.7441C1.80044 12.2283 2.22069 12.9803 2.52373 13.4211L8.07747 21.4802C8.30474 21.8106 8.64113 22 9.00039 22C9.35965 22 9.69604 21.8106 9.92331 21.4807L15.4775 13.4211C15.781 12.9803 16.2008 12.2283 16.4138 11.7441C16.4414 11.6807 17.1004 10.1662 17.1004 8.7575C17.1004 4.47992 13.4668 1 9.00039 1ZM15.5352 11.39C15.3451 11.824 14.9539 12.5235 14.6818 12.9187L9.12761 20.9783C9.01802 21.1375 8.98324 21.1375 8.87365 20.9783L3.31943 12.9187C3.04737 12.5235 2.65618 11.8235 2.46607 11.3896C2.45797 11.3709 1.85333 9.97679 1.85333 8.7575C1.85333 4.98325 5.0595 1.91265 9.00039 1.91265C12.9413 1.91265 16.1474 4.98325 16.1474 8.7575C16.1474 9.97862 15.5414 11.3763 15.5352 11.39Z" fill="white" stroke="white" stroke-width="0.4"/>
<path d="M9.00113 4.65137C6.6364 4.65137 4.71289 6.494 4.71289 8.75828C4.71289 11.0226 6.6364 12.8652 9.00113 12.8652C11.3658 12.8652 13.2894 11.0226 13.2894 8.75828C13.2894 6.494 11.3658 4.65137 9.00113 4.65137ZM9.00113 11.9525C7.16243 11.9525 5.66583 10.5197 5.66583 8.75828C5.66583 6.99687 7.16243 5.56401 9.00113 5.56401C10.8398 5.56401 12.3364 6.99687 12.3364 8.75828C12.3364 10.5197 10.8398 11.9525 9.00113 11.9525Z" fill="white" stroke="white" stroke-width="0.4"/>
</svg>
