<svg width="16" height="20" viewBox="0 0 16 20" fill="none" xmlns="http://www.w3.org/2000/svg">
<path d="M8.24123 0.620117C4.24833 0.620117 1 3.72874 1 7.54991C1 8.80787 1.58952 10.1608 1.61423 10.2179C1.80463 10.6504 2.18032 11.3222 2.45123 11.7159L7.41615 18.9152C7.61933 19.2103 7.92006 19.3795 8.24123 19.3795C8.5624 19.3795 8.86312 19.2103 9.0663 18.9156L14.0317 11.7159C14.303 11.3222 14.6782 10.6504 14.8687 10.2179C14.8934 10.1612 15.4825 8.80827 15.4825 7.54991C15.4825 3.72874 12.2341 0.620117 8.24123 0.620117ZM14.0832 9.90155C13.9132 10.2892 13.5635 10.9141 13.3203 11.2671L8.35496 18.4668C8.25699 18.609 8.22589 18.609 8.12792 18.4668L3.16257 11.2671C2.91935 10.9141 2.56964 10.2888 2.39969 9.90114C2.39244 9.88443 1.85191 8.63911 1.85191 7.54991C1.85191 4.17836 4.71816 1.43539 8.24123 1.43539C11.7643 1.43539 14.6305 4.17836 14.6305 7.54991C14.6305 8.64074 14.0887 9.88932 14.0832 9.90155Z" fill="#29ABE2" stroke="#29ABE2" stroke-width="0.4"/>
<path d="M8.24179 3.88184C6.12778 3.88184 4.4082 5.52786 4.4082 7.55055C4.4082 9.57323 6.12778 11.2193 8.24179 11.2193C10.3558 11.2193 12.0754 9.57323 12.0754 7.55055C12.0754 5.52786 10.3558 3.88184 8.24179 3.88184ZM8.24179 10.404C6.59804 10.404 5.26011 9.12402 5.26011 7.55055C5.26011 5.97708 6.59804 4.69711 8.24179 4.69711C9.88555 4.69711 11.2235 5.97708 11.2235 7.55055C11.2235 9.12402 9.88555 10.404 8.24179 10.404Z" fill="#29ABE2" stroke="#29ABE2" stroke-width="0.4"/>
</svg>
