<svg width="24" height="24" viewBox="0 0 24 24" fill="none" xmlns="http://www.w3.org/2000/svg">
<mask id="path-1-inside-1_2911_712" fill="white">
<path d="M12.5932 23.2584L12.5822 23.2604L12.5112 23.2954L12.4912 23.2994L12.4772 23.2954L12.4062 23.2604C12.3955 23.2571 12.3875 23.2588 12.3822 23.2654L12.3782 23.2754L12.3612 23.7034L12.3662 23.7234L12.3762 23.7364L12.4802 23.8104L12.4952 23.8144L12.5072 23.8104L12.6112 23.7364L12.6232 23.7204L12.6272 23.7034L12.6102 23.2764C12.6075 23.2658 12.6018 23.2598 12.5932 23.2584ZM12.8582 23.1454L12.8452 23.1474L12.6602 23.2404L12.6502 23.2504L12.6472 23.2614L12.6652 23.6914L12.6702 23.7034L12.6782 23.7104L12.8792 23.8034C12.8918 23.8068 12.9015 23.8041 12.9082 23.7954L12.9122 23.7814L12.8782 23.1674C12.8748 23.1554 12.8682 23.1481 12.8582 23.1454ZM12.1432 23.1474C12.1388 23.1448 12.1335 23.1439 12.1285 23.145C12.1234 23.1461 12.119 23.1491 12.1162 23.1534L12.1102 23.1674L12.0762 23.7814C12.0768 23.7934 12.0825 23.8014 12.0932 23.8054L12.1082 23.8034L12.3092 23.7104L12.3192 23.7024L12.3232 23.6914L12.3402 23.2614L12.3372 23.2494L12.3272 23.2394L12.1432 23.1474Z"/>
</mask>
<path d="M12.5932 23.2584L12.7452 22.2701L12.5793 22.2445L12.4142 22.2746L12.5932 23.2584ZM12.5822 23.2604L12.4032 22.2766L12.2655 22.3016L12.14 22.3635L12.5822 23.2604ZM12.5112 23.2954L12.7073 24.276L12.8358 24.2503L12.9533 24.1924L12.5112 23.2954ZM12.4912 23.2994L12.2165 24.261L12.4496 24.3275L12.6873 24.28L12.4912 23.2994ZM12.4772 23.2954L12.035 24.1924L12.1158 24.2322L12.2025 24.257L12.4772 23.2954ZM12.4062 23.2604L12.8483 22.3635L12.7786 22.3291L12.7044 22.3059L12.4062 23.2604ZM12.3822 23.2654L11.6013 22.6407L11.5087 22.7565L11.4537 22.8941L12.3822 23.2654ZM12.3782 23.2754L11.4497 22.9041L11.3858 23.0638L11.379 23.2357L12.3782 23.2754ZM12.3612 23.7034L11.362 23.6637L11.3563 23.8069L11.391 23.946L12.3612 23.7034ZM12.3662 23.7234L11.396 23.966L11.4465 24.168L11.5735 24.3331L12.3662 23.7234ZM12.3762 23.7364L11.5835 24.3461L11.6747 24.4646L11.7964 24.5512L12.3762 23.7364ZM12.4802 23.8104L11.9004 24.6252L12.0478 24.7301L12.2225 24.7767L12.4802 23.8104ZM12.4952 23.8144L12.2375 24.7807L12.5271 24.8579L12.8114 24.7631L12.4952 23.8144ZM12.5072 23.8104L12.8234 24.7591L12.9652 24.7119L13.0869 24.6252L12.5072 23.8104ZM12.6112 23.7364L13.1909 24.5512L13.3178 24.461L13.4112 24.3364L12.6112 23.7364ZM12.6232 23.7204L13.4232 24.3204L13.5487 24.1531L13.5966 23.9494L12.6232 23.7204ZM12.6272 23.7034L13.6006 23.9324L13.6318 23.7998L13.6264 23.6636L12.6272 23.7034ZM12.6102 23.2764L13.6094 23.2366L13.6053 23.1338L13.5803 23.0339L12.6102 23.2764ZM12.8582 23.1454L13.1158 22.1792L12.9133 22.1252L12.7062 22.157L12.8582 23.1454ZM12.8452 23.1474L12.6932 22.159L12.5371 22.183L12.396 22.254L12.8452 23.1474ZM12.6602 23.2404L12.211 22.347L12.067 22.4194L11.9531 22.5333L12.6602 23.2404ZM12.6502 23.2504L11.9431 22.5433L11.7553 22.7311L11.6854 22.9874L12.6502 23.2504ZM12.6472 23.2614L11.6824 22.9984L11.6416 23.1481L11.648 23.3032L12.6472 23.2614ZM12.6652 23.6914L11.666 23.7332L11.6735 23.9114L11.7421 24.0761L12.6652 23.6914ZM12.6702 23.7034L11.7471 24.0881L11.8366 24.3028L12.0117 24.456L12.6702 23.7034ZM12.6782 23.7104L12.0197 24.463L12.1278 24.5576L12.2583 24.618L12.6782 23.7104ZM12.8792 23.8034L12.4593 24.711L12.5393 24.748L12.6247 24.7705L12.8792 23.8034ZM12.9082 23.7954L13.7008 24.4051L13.8172 24.2538L13.8697 24.0701L12.9082 23.7954ZM12.9122 23.7814L13.8737 24.0561L13.92 23.8942L13.9106 23.7261L12.9122 23.7814ZM12.8782 23.1674L13.8766 23.1121L13.8707 23.0041L13.8417 22.8998L12.8782 23.1674ZM12.1432 23.1474L11.6249 24.0026L11.6596 24.0237L11.696 24.0419L12.1432 23.1474ZM12.1162 23.1534L11.2845 22.5982L11.2333 22.6748L11.197 22.7595L12.1162 23.1534ZM12.1102 23.1674L11.191 22.7735L11.1215 22.9358L11.1117 23.1121L12.1102 23.1674ZM12.0762 23.7814L11.0777 23.7261L11.0746 23.7815L11.0777 23.8369L12.0762 23.7814ZM12.0932 23.8054L11.742 24.7418L11.9768 24.8298L12.2254 24.7966L12.0932 23.8054ZM12.1082 23.8034L12.2404 24.7946L12.3906 24.7746L12.5281 24.711L12.1082 23.8034ZM12.3092 23.7104L12.7291 24.618L12.8391 24.5671L12.9338 24.4913L12.3092 23.7104ZM12.3192 23.7024L12.9438 24.4833L13.163 24.308L13.259 24.0442L12.3192 23.7024ZM12.3232 23.6914L13.263 24.0332L13.3162 23.8867L13.3224 23.7309L12.3232 23.6914ZM12.3402 23.2614L13.3394 23.3009L13.345 23.1578L13.3103 23.0189L12.3402 23.2614ZM12.3372 23.2494L13.3073 23.0069L13.2401 22.7382L13.0443 22.5423L12.3372 23.2494ZM12.3272 23.2394L13.0343 22.5323L12.9195 22.4176L12.7744 22.345L12.3272 23.2394ZM12.5932 23.2584L12.4142 22.2746L12.4032 22.2766L12.5822 23.2604L12.7611 24.2443L12.7721 24.2423L12.5932 23.2584ZM12.5822 23.2604L12.14 22.3635L12.069 22.3985L12.5112 23.2954L12.9533 24.1924L13.0243 24.1574L12.5822 23.2604ZM12.5112 23.2954L12.3151 22.3148L12.2951 22.3188L12.4912 23.2994L12.6873 24.28L12.7073 24.276L12.5112 23.2954ZM12.4912 23.2994L12.7659 22.3379L12.7519 22.3339L12.4772 23.2954L12.2025 24.257L12.2165 24.261L12.4912 23.2994ZM12.4772 23.2954L12.9193 22.3985L12.8483 22.3635L12.4062 23.2604L11.964 24.1574L12.035 24.1924L12.4772 23.2954ZM12.4062 23.2604L12.7044 22.3059C12.5936 22.2713 12.4091 22.2342 12.1883 22.2802C11.9458 22.3307 11.7422 22.4646 11.6013 22.6407L12.3822 23.2654L13.163 23.8901C13.0275 24.0596 12.8305 24.1893 12.5961 24.2382C12.3832 24.2825 12.208 24.2462 12.1079 24.2149L12.4062 23.2604ZM12.3822 23.2654L11.4537 22.8941L11.4497 22.9041L12.3782 23.2754L13.3067 23.6468L13.3107 23.6368L12.3822 23.2654ZM12.3782 23.2754L11.379 23.2357L11.362 23.6637L12.3612 23.7034L13.3604 23.7431L13.3774 23.3151L12.3782 23.2754ZM12.3612 23.7034L11.391 23.946L11.396 23.966L12.3662 23.7234L13.3363 23.4809L13.3313 23.4609L12.3612 23.7034ZM12.3662 23.7234L11.5735 24.3331L11.5835 24.3461L12.3762 23.7364L13.1688 23.1267L13.1588 23.1137L12.3662 23.7234ZM12.3762 23.7364L11.7964 24.5512L11.9004 24.6252L12.4802 23.8104L13.0599 22.9956L12.9559 22.9216L12.3762 23.7364ZM12.4802 23.8104L12.2225 24.7767L12.2375 24.7807L12.4952 23.8144L12.7528 22.8482L12.7378 22.8442L12.4802 23.8104ZM12.4952 23.8144L12.8114 24.7631L12.8234 24.7591L12.5072 23.8104L12.191 22.8617L12.179 22.8657L12.4952 23.8144ZM12.5072 23.8104L13.0869 24.6252L13.1909 24.5512L12.6112 23.7364L12.0314 22.9216L11.9274 22.9956L12.5072 23.8104ZM12.6112 23.7364L13.4112 24.3364L13.4232 24.3204L12.6232 23.7204L11.8232 23.1204L11.8112 23.1364L12.6112 23.7364ZM12.6232 23.7204L13.5966 23.9494L13.6006 23.9324L12.6272 23.7034L11.6538 23.4744L11.6498 23.4914L12.6232 23.7204ZM12.6272 23.7034L13.6264 23.6636L13.6094 23.2366L12.6102 23.2764L11.611 23.3162L11.628 23.7432L12.6272 23.7034ZM12.6102 23.2764L13.5803 23.0339C13.5507 22.9155 13.4843 22.7397 13.3309 22.5773C13.1654 22.4021 12.9547 22.3023 12.7452 22.2701L12.5932 23.2584L12.4411 24.2468C12.2403 24.2159 12.0367 24.1198 11.8769 23.9505C11.7292 23.7941 11.667 23.6267 11.64 23.519L12.6102 23.2764ZM12.8582 23.1454L12.7062 22.157L12.6932 22.159L12.8452 23.1474L12.9972 24.1358L13.0102 24.1338L12.8582 23.1454ZM12.8452 23.1474L12.396 22.254L12.211 22.347L12.6602 23.2404L13.1093 24.1339L13.2943 24.0409L12.8452 23.1474ZM12.6602 23.2404L11.9531 22.5333L11.9431 22.5433L12.6502 23.2504L13.3573 23.9575L13.3673 23.9475L12.6602 23.2404ZM12.6502 23.2504L11.6854 22.9874L11.6824 22.9984L12.6472 23.2614L13.6119 23.5245L13.6149 23.5135L12.6502 23.2504ZM12.6472 23.2614L11.648 23.3032L11.666 23.7332L12.6652 23.6914L13.6643 23.6496L13.6463 23.2196L12.6472 23.2614ZM12.6652 23.6914L11.7421 24.0761L11.7471 24.0881L12.6702 23.7034L13.5932 23.3188L13.5882 23.3068L12.6652 23.6914ZM12.6702 23.7034L12.0117 24.456L12.0197 24.463L12.6782 23.7104L13.3367 22.9578L13.3287 22.9508L12.6702 23.7034ZM12.6782 23.7104L12.2583 24.618L12.4593 24.711L12.8792 23.8034L13.2991 22.8959L13.0981 22.8029L12.6782 23.7104ZM12.8792 23.8034L12.6247 24.7705C12.7508 24.8037 12.9424 24.8285 13.1618 24.7679C13.3952 24.7035 13.5777 24.5652 13.7008 24.4051L12.9082 23.7954L12.1155 23.1857C12.232 23.0343 12.4063 22.9016 12.63 22.8399C12.8398 22.7821 13.0202 22.8065 13.1337 22.8364L12.8792 23.8034ZM12.9082 23.7954L13.8697 24.0701L13.8737 24.0561L12.9122 23.7814L11.9506 23.5067L11.9466 23.5207L12.9082 23.7954ZM12.9122 23.7814L13.9106 23.7261L13.8766 23.1121L12.8782 23.1674L11.8797 23.2227L11.9137 23.8367L12.9122 23.7814ZM12.8782 23.1674L13.8417 22.8998C13.7662 22.6279 13.5429 22.2931 13.1158 22.1792L12.8582 23.1454L12.6005 24.1117C12.4286 24.0658 12.2625 23.9706 12.1308 23.8256C12.0054 23.6878 11.9444 23.542 11.9147 23.4351L12.8782 23.1674ZM12.1432 23.1474L12.6615 22.2922C12.4366 22.1559 12.1679 22.1118 11.9115 22.1688L12.1285 23.145L12.3454 24.1212C12.0991 24.1759 11.8409 24.1336 11.6249 24.0026L12.1432 23.1474ZM12.1285 23.145L11.9115 22.1688C11.6551 22.2258 11.4304 22.3796 11.2845 22.5982L12.1162 23.1534L12.9479 23.7086C12.8077 23.9187 12.5918 24.0664 12.3454 24.1212L12.1285 23.145ZM12.1162 23.1534L11.197 22.7595L11.191 22.7735L12.1102 23.1674L13.0293 23.5614L13.0353 23.5474L12.1162 23.1534ZM12.1102 23.1674L11.1117 23.1121L11.0777 23.7261L12.0762 23.7814L13.0746 23.8367L13.1086 23.2227L12.1102 23.1674ZM12.0762 23.7814L11.0777 23.8369C11.0861 23.9882 11.1311 24.1855 11.2649 24.3744C11.4012 24.5669 11.5806 24.6812 11.742 24.7418L12.0932 23.8054L12.4443 22.8691C12.5951 22.9257 12.7663 23.034 12.8969 23.2184C13.0251 23.3994 13.0669 23.5866 13.0746 23.726L12.0762 23.7814ZM12.0932 23.8054L12.2254 24.7966L12.2404 24.7946L12.1082 23.8034L11.9759 22.8122L11.961 22.8142L12.0932 23.8054ZM12.1082 23.8034L12.5281 24.711L12.7291 24.618L12.3092 23.7104L11.8893 22.8029L11.6883 22.8959L12.1082 23.8034ZM12.3092 23.7104L12.9338 24.4913L12.9438 24.4833L12.3192 23.7024L11.6945 22.9215L11.6845 22.9295L12.3092 23.7104ZM12.3192 23.7024L13.259 24.0442L13.263 24.0332L12.3232 23.6914L11.3834 23.3497L11.3794 23.3607L12.3192 23.7024ZM12.3232 23.6914L13.3224 23.7309L13.3394 23.3009L12.3402 23.2614L11.341 23.2219L11.324 23.6519L12.3232 23.6914ZM12.3402 23.2614L13.3103 23.0189L13.3073 23.0069L12.3372 23.2494L11.367 23.492L11.37 23.504L12.3402 23.2614ZM12.3372 23.2494L13.0443 22.5423L13.0343 22.5323L12.3272 23.2394L11.6201 23.9465L11.6301 23.9565L12.3372 23.2494ZM12.3272 23.2394L12.7744 22.345L12.5904 22.253L12.1432 23.1474L11.696 24.0419L11.88 24.1339L12.3272 23.2394Z" fill="#FFAB24" mask="url(#path-1-inside-1_2911_712)"/>
<path d="M19 4C19.7956 4 20.5587 4.31607 21.1213 4.87868C21.6839 5.44129 22 6.20435 22 7V17C22 17.7956 21.6839 18.5587 21.1213 19.1213C20.5587 19.6839 19.7956 20 19 20H5C4.20435 20 3.44129 19.6839 2.87868 19.1213C2.31607 18.5587 2 17.7956 2 17V7C2 6.20435 2.31607 5.44129 2.87868 4.87868C3.44129 4.31607 4.20435 4 5 4H19ZM19 6H5C4.73478 6 4.48043 6.10536 4.29289 6.29289C4.10536 6.48043 4 6.73478 4 7V17C4 17.2652 4.10536 17.5196 4.29289 17.7071C4.48043 17.8946 4.73478 18 5 18H19C19.2652 18 19.5196 17.8946 19.7071 17.7071C19.8946 17.5196 20 17.2652 20 17V7C20 6.73478 19.8946 6.48043 19.7071 6.29289C19.5196 6.10536 19.2652 6 19 6ZM10.707 8.293C10.8945 8.48053 10.9998 8.73484 10.9998 9C10.9998 9.26516 10.8945 9.51947 10.707 9.707L7.707 12.707C7.5184 12.8892 7.2658 12.99 7.0036 12.9877C6.7414 12.9854 6.49059 12.8802 6.30518 12.6948C6.11977 12.5094 6.0146 12.2586 6.01233 11.9964C6.01005 11.7342 6.11084 11.4816 6.293 11.293L9.293 8.293C9.48053 8.10553 9.73484 8.00021 10 8.00021C10.2652 8.00021 10.5195 8.10553 10.707 8.293ZM6.293 7.293C6.47296 7.11365 6.71443 7.00953 6.96838 7.00177C7.22233 6.99402 7.46971 7.08322 7.66028 7.25125C7.85084 7.41928 7.97031 7.65355 7.9944 7.90647C8.01849 8.1594 7.94541 8.41201 7.79 8.613L7.707 8.707L6.707 9.707C6.52704 9.88635 6.28557 9.99047 6.03162 9.99823C5.77767 10.006 5.53029 9.91679 5.33972 9.74875C5.14916 9.58072 5.02969 9.34645 5.0056 9.09353C4.98151 8.8406 5.05459 8.58799 5.21 8.387L5.293 8.293L6.293 7.293Z" fill="white" stroke="#FFAB24" stroke-width="0.5"/>
</svg>
