<svg width="27" height="27" viewBox="0 0 27 27" fill="none" xmlns="http://www.w3.org/2000/svg">
<rect x="27" y="27" width="27" height="27" rx="6" transform="rotate(-180 27 27)" fill="white"/>
<path d="M5.00891 6.72754L6.00069 13.3181C6.05772 13.6971 6.40059 13.9788 6.80543 13.9794L20.2871 14C20.6969 14.0006 21.0433 13.7132 21.0959 13.3289L21.9926 6.77338C22.0926 6.04228 21.1534 5.60921 20.6057 6.1339L18.1883 8.44984C17.8292 8.79382 17.2355 8.77257 16.9049 8.40391L14.0971 5.27203C13.7686 4.9056 13.1693 4.91003 12.8468 5.28126L10.152 8.38401C9.82423 8.76143 9.22293 8.78744 8.86006 8.43988L6.39437 6.07829C5.84298 5.55018 4.89835 5.99285 5.00891 6.72754Z" fill="url(#paint0_linear_3272_314)"/>
<path d="M7 18.4835C7 16.9676 7.85744 15.6864 9.1943 15.1876C10.4758 14.7083 11.8865 15.168 12.8177 16.3319C13.7212 17.4664 14.6247 18.6009 15.5651 19.7061C16.1829 20.4298 17.1602 20.4494 17.8148 19.8234C18.5339 19.129 18.5708 18.0141 17.8977 17.2903C17.2247 16.5764 16.1737 16.5959 15.5006 17.349C15.2701 17.6033 15.1134 18.0923 14.8091 18.063C14.5694 18.0336 14.3666 17.5935 14.1545 17.3295C13.7489 16.8404 13.7673 16.8502 14.1637 16.3416C15.8694 14.1606 19.0041 14.8452 19.8247 17.3881C20.3225 18.953 19.7325 20.6548 18.4048 21.5056C17.0864 22.337 15.4084 22.112 14.3574 20.8895C13.4354 19.8137 12.5595 18.6889 11.6744 17.5837C11.1765 16.9578 10.5865 16.6057 9.79358 16.8502C9.13898 17.0556 8.67799 17.6424 8.6319 18.3173C8.57658 19.1095 8.90849 19.7648 9.52621 20.0777C10.1532 20.4005 10.8815 20.2929 11.3886 19.7648C11.6007 19.5398 11.7943 19.2953 11.9787 19.0508C12.0985 18.8943 12.1907 18.8552 12.3198 19.0508C12.4028 19.1779 12.5134 19.2855 12.6148 19.4127C13.2787 20.2244 13.2787 20.2244 12.5687 20.9873C11.6744 21.9458 10.2085 22.2685 9.056 21.7502C7.76524 21.1829 7 19.9506 7 18.4835Z" fill="url(#paint1_linear_3272_314)"/>
<defs>
<linearGradient id="paint0_linear_3272_314" x1="13.5" y1="5" x2="13.5" y2="14" gradientUnits="userSpaceOnUse">
<stop stop-color="#FFEAC7"/>
<stop offset="0.48948" stop-color="#FFAB24"/>
<stop offset="0.985577" stop-color="#FFC973"/>
</linearGradient>
<linearGradient id="paint1_linear_3272_314" x1="13.5" y1="15" x2="13.5" y2="22" gradientUnits="userSpaceOnUse">
<stop stop-color="#FFEAC7"/>
<stop offset="0.48948" stop-color="#FFAB24"/>
<stop offset="0.985577" stop-color="#FFC973"/>
</linearGradient>
</defs>
</svg>
