<svg width="52" height="52" viewBox="0 0 52 52" fill="none" xmlns="http://www.w3.org/2000/svg">
<rect width="51.3422" height="51.3422" rx="4.94537" fill="#D20000"/>
<g clip-path="url(#clip0_2897_1944)">
<path d="M32.9414 12.0802C35.9744 12.0802 38.4335 24.8673 38.4335 40.6411H42.8282C42.8282 23.6535 38.4011 9.88281 32.9415 9.88281C29.8351 9.88281 27.0636 14.0214 25.2514 20.4931C23.4396 14.0214 20.6672 9.88281 17.561 9.88281C12.1014 9.88281 7.67383 23.6535 7.67383 40.6411H12.069C12.069 24.8673 14.5284 12.0802 17.561 12.0802C20.5945 12.0802 23.0546 23.8837 23.0546 38.4449H27.4482C27.4484 23.8837 29.9076 12.0802 32.9414 12.0802ZM45.0279 38.4449C45.624 38.4449 46.1236 38.9169 46.1236 39.5378C46.1236 40.1686 45.624 40.6408 45.0279 40.6408C44.4297 40.6408 43.9259 40.1683 43.9259 39.5378C43.9259 38.9169 44.4297 38.4449 45.0279 38.4449ZM45.0279 40.4805C45.5327 40.4805 45.9248 40.0749 45.9248 39.5382C45.9248 39.0108 45.5325 38.6057 45.0279 38.6057C44.5168 38.6057 44.1252 39.0108 44.1252 39.5382C44.125 40.0747 44.5168 40.4805 45.0279 40.4805ZM44.6006 38.9001H45.0957C45.3987 38.9001 45.5416 39.0207 45.5416 39.2666C45.5416 39.4987 45.3968 39.5956 45.207 39.6158L45.5715 40.1834H45.3575L45.0102 39.6312H44.8002V40.1834H44.6009L44.6006 38.9001ZM44.8 39.4702H45.0076C45.1824 39.4702 45.3435 39.4615 45.3435 39.2581C45.3435 39.0874 45.1974 39.0606 45.0631 39.0606H44.8003L44.8 39.4702Z" fill="#FFC300"/>
</g>
<defs>
<clipPath id="clip0_2897_1944">
<rect width="38.4498" height="38.4498" fill="white" transform="translate(7.67383 6.03711)"/>
</clipPath>
</defs>
</svg>
