<svg width="18" height="14" viewBox="0 0 18 14" fill="none" xmlns="http://www.w3.org/2000/svg">
<path d="M14.8337 0.333008H3.16699C2.50395 0.333008 1.86807 0.5964 1.39923 1.06524C0.930384 1.53408 0.666992 2.16997 0.666992 2.83301V11.1663C0.666992 11.8294 0.930384 12.4653 1.39923 12.9341C1.86807 13.4029 2.50395 13.6663 3.16699 13.6663H14.8337C15.4967 13.6663 16.1326 13.4029 16.6014 12.9341C17.0703 12.4653 17.3337 11.8294 17.3337 11.1663V2.83301C17.3337 2.16997 17.0703 1.53408 16.6014 1.06524C16.1326 0.5964 15.4967 0.333008 14.8337 0.333008ZM3.16699 1.99967H14.8337C15.0547 1.99967 15.2666 2.08747 15.4229 2.24375C15.5792 2.40003 15.667 2.61199 15.667 2.83301L9.00033 6.89967L2.33366 2.83301C2.33366 2.61199 2.42146 2.40003 2.57774 2.24375C2.73402 2.08747 2.94598 1.99967 3.16699 1.99967ZM15.667 11.1663C15.667 11.3874 15.5792 11.5993 15.4229 11.7556C15.2666 11.9119 15.0547 11.9997 14.8337 11.9997H3.16699C2.94598 11.9997 2.73402 11.9119 2.57774 11.7556C2.42146 11.5993 2.33366 11.3874 2.33366 11.1663V4.73301L8.56699 8.54134C8.69367 8.61448 8.83738 8.65299 8.98366 8.65299C9.12994 8.65299 9.27364 8.61448 9.40032 8.54134L15.667 4.73301V11.1663Z" fill="white"/>
</svg>
