<svg width="18" height="17" viewBox="0 0 18 17" fill="none" xmlns="http://www.w3.org/2000/svg">
<path d="M17.75 3.625C17.75 1.89911 16.3509 0.5 14.625 0.5H3.375C1.64912 0.5 0.25 1.89911 0.25 3.625V9.875C0.25 11.6009 1.64912 13 3.375 13H8.14016L11.9683 16.3496C12.7604 17.0427 14 16.4802 14 15.4277V13H14.625C16.3509 13 17.75 11.6009 17.75 9.875V3.625ZM14.625 1.75C15.6605 1.75 16.5 2.58946 16.5 3.625V9.875C16.5 10.9105 15.6605 11.75 14.625 11.75H12.75V15.3726L8.60984 11.75H3.375C2.3395 11.75 1.5 10.9105 1.5 9.875V3.625C1.5 2.58946 2.3395 1.75 3.375 1.75H14.625Z" fill="#757575"/>
</svg>
