<svg width="24" height="18" viewBox="0 0 24 18" fill="none" xmlns="http://www.w3.org/2000/svg">
<path d="M17.918 0.200195L23.7998 6.1123V15C23.7998 16.547 22.547 17.7998 21 17.7998H3.04688C1.49607 17.7997 0.200195 16.543 0.200195 15V6.08301L6.08301 0.200195H17.918ZM2.34473 6.2002H7.80566C7.91943 8.23465 9.74749 10.2002 12 10.2002C14.2522 10.2002 16.0796 8.23463 16.1934 6.2002L21.1738 6.2207L21.6543 6.22168L21.3164 5.87988L17.3516 1.85938L17.292 1.7998H6.74512L2.34473 6.2002ZM22.2002 7.82422L22.001 7.82324L17.6123 7.80664L17.4736 7.80566L17.4238 7.93555C16.5852 10.1419 14.3803 11.7998 11.9697 11.7998C9.55598 11.7998 7.3336 10.1376 6.49707 7.92871L6.44824 7.7998H1.7998V15C1.7998 15.6609 2.37744 16.2001 3.04688 16.2002H21C21.662 16.2002 22.2002 15.662 22.2002 15V7.82422Z" fill="#757575" stroke="white" stroke-width="0.4"/>
</svg>
