<svg width="22" height="18" viewBox="0 0 22 18" fill="none" xmlns="http://www.w3.org/2000/svg">
<path d="M3 17C2.45 17 1.97917 16.8042 1.5875 16.4125C1.19583 16.0208 1 15.55 1 15V3C1 2.45 1.19583 1.97917 1.5875 1.5875C1.97917 1.19583 2.45 1 3 1H19C19.55 1 20.0208 1.19583 20.4125 1.5875C20.8042 1.97917 21 2.45 21 3V15C21 15.55 20.8042 16.0208 20.4125 16.4125C20.0208 16.8042 19.55 17 19 17H3ZM11 10L3 5V15H19V5L11 10ZM11 8L19 3H3L11 8ZM3 5V3V15V5Z" fill="#757575"/>
<path d="M3 5L11 10L19 5V15H3M3 5V15M3 5V3M3 15V3M3 3H19L11 8L3 3ZM3 17C2.45 17 1.97917 16.8042 1.5875 16.4125C1.19583 16.0208 1 15.55 1 15V3C1 2.45 1.19583 1.97917 1.5875 1.5875C1.97917 1.19583 2.45 1 3 1H19C19.55 1 20.0208 1.19583 20.4125 1.5875C20.8042 1.97917 21 2.45 21 3V15C21 15.55 20.8042 16.0208 20.4125 16.4125C20.0208 16.8042 19.55 17 19 17H3Z" stroke="white" stroke-width="0.5"/>
</svg>
