<svg width="14" height="14" viewBox="0 0 14 14" fill="none" xmlns="http://www.w3.org/2000/svg">
<path d="M8.31816 14C4.34748 14 4.31667 13.8349 3.82496 13.4639C3.56414 13.2674 3.07199 13.1311 1.27419 13.0138C1.14356 13.0052 1.0197 12.9551 0.936474 12.854C0.898246 12.8074 0 11.4949 0 9.39297C0 7.32147 0.642884 6.37709 0.670395 6.3331C0.709664 6.27021 0.764248 6.21835 0.829017 6.18241C0.893786 6.14646 0.966615 6.12759 1.04066 6.12759C2.51669 6.12759 4.56287 4.23994 5.93864 0.94458C6.17652 0.374672 6.22546 0 7.09946 0C7.59642 0 8.15345 0.356521 8.42891 0.813935C8.99293 1.74846 8.70656 3.75563 8.44137 4.82827C9.34245 4.82104 10.9736 4.80857 11.7497 4.80857C12.8293 4.80857 13.5436 5.45354 13.5657 6.39661C13.5726 6.70783 13.532 7.1055 13.442 7.31079C13.6795 7.54825 13.9862 7.90653 13.9995 8.36767C14.0163 8.96275 13.627 9.416 13.3789 9.67623C13.4357 9.84934 13.5497 10.0789 13.5388 10.3534C13.5113 11.0283 12.9914 11.4634 12.6672 11.6904C12.6939 11.8744 12.7148 12.2231 12.6558 12.4923C12.4221 13.5678 10.8482 14 8.31816 14ZM1.50614 12.1259C3.07195 12.2556 3.90898 12.4314 4.35046 12.7645C4.69211 13.0221 4.63924 13.1243 8.31808 13.1243C9.44001 13.1243 11.6343 13.0775 11.8025 12.306C11.8696 11.9974 11.5447 11.6938 11.5434 11.6917C11.4547 11.4721 11.5537 11.215 11.77 11.1202C11.7734 11.1185 12.6455 10.8053 12.6656 10.3168C12.6785 10.0045 12.4646 9.81691 12.4596 9.80926C12.3324 9.61142 12.379 9.33981 12.5719 9.20521C12.5741 9.20346 13.1394 8.86029 13.1254 8.39215C13.1147 8.02075 12.626 7.759 12.6112 7.75024C12.502 7.68765 12.4224 7.57931 12.3978 7.45522C12.3731 7.33177 12.4008 7.20178 12.4773 7.10176C12.4773 7.10176 12.6994 6.74787 12.6916 6.4163C12.6754 5.70588 11.9131 5.68356 11.7494 5.68356C10.6474 5.68356 7.81701 5.69516 7.81701 5.69516C7.66431 5.69559 7.53216 5.62337 7.45024 5.50103C7.36832 5.37869 7.36199 5.22657 7.41026 5.08759C7.83689 3.85607 8.07521 1.92399 7.67939 1.26391C7.56296 1.06934 7.53609 0.874997 7.0992 0.874997C7.03869 0.874997 6.89453 0.922927 6.74424 1.28187C5.28349 4.78098 3.10297 6.80543 1.31695 6.98793C1.16295 7.33985 0.873289 8.06909 0.873289 9.39253C0.873726 10.7431 1.30079 11.7877 1.50614 12.1259Z" fill="#757575"/>
</svg>
