<svg width="36" height="34" viewBox="0 0 36 34" fill="none" xmlns="http://www.w3.org/2000/svg">
<ellipse cx="17.8094" cy="17" rx="17.3094" ry="17" fill="#FFAD2A" fill-opacity="0.32"/>
<mask id="mask0_5795_2199" style="mask-type:alpha" maskUnits="userSpaceOnUse" x="0" y="0" width="36" height="34">
<path d="M35.1188 17C35.1188 26.3888 27.3691 34 17.8094 34C8.24969 34 0.5 26.3888 0.5 17C0.5 7.61116 8.24969 0 17.8094 0C27.3691 0 35.1188 7.61116 35.1188 17Z" fill="#D4F2FF"/>
<path d="M35.1188 17C35.1188 26.3888 27.3691 34 17.8094 34C8.24969 34 0.5 26.3888 0.5 17C0.5 7.61116 8.24969 0 17.8094 0C27.3691 0 35.1188 7.61116 35.1188 17Z" fill="#42C1F8"/>
<path d="M35.1188 17C35.1188 26.3888 27.3691 34 17.8094 34C8.24969 34 0.5 26.3888 0.5 17C0.5 7.61116 8.24969 0 17.8094 0C27.3691 0 35.1188 7.61116 35.1188 17Z" fill="#BF3737" fill-opacity="0.2"/>
</mask>
<g mask="url(#mask0_5795_2199)">
<path d="M25.0461 13.6392C25.0461 13.6392 26.2343 8.78482 25.0461 7.13903C23.858 5.496 23.3855 4.40065 20.7729 3.61648C18.1604 2.83231 19.1123 2.98859 17.2126 3.06881C15.313 3.14902 13.7292 4.16554 13.7292 4.7146C13.7292 4.7146 12.541 4.79205 12.0686 5.26227C11.5933 5.7325 10.8021 7.9232 10.8021 8.47087C10.8021 9.01855 11.1977 12.7029 11.5933 13.4843L11.1222 13.642C10.7252 18.1824 12.7018 18.7315 12.7018 18.7315C13.4147 22.9608 14.1276 21.1601 14.1276 22.2554C14.1276 23.3508 13.4147 22.9608 13.4147 22.9608C13.4147 22.9608 12.7829 24.6826 11.2005 25.3091C9.61814 25.9356 0.834105 29.3005 0.119808 30.0058C-0.595887 30.7112 -0.514812 34 -0.514812 34H37.1528C37.1528 34 37.2367 30.7126 36.521 30.0058C35.8081 29.3005 27.0227 25.9342 25.4403 25.3091C23.858 24.6826 23.2261 22.9608 23.2261 22.9608C23.2261 22.9608 22.5132 23.3508 22.5132 22.2554C22.5132 21.1601 23.2261 22.9608 23.939 18.7315C23.939 18.7315 25.9142 18.1824 25.5186 13.642H25.0433L25.0461 13.6392Z" fill="#FFAD2A"/>
</g>
</svg>
