<svg width="19" height="17" viewBox="0 0 19 17" fill="none" xmlns="http://www.w3.org/2000/svg">
<path d="M12.8926 5.83441C12.8926 5.83441 13.4919 3.17232 12.8926 2.26979C12.2934 1.36878 12.0551 0.7681 10.7375 0.338071C9.41992 -0.0919585 9.90001 -0.00625598 8.94194 0.0377329C7.98388 0.0817218 7.18513 0.639167 7.18513 0.940263C7.18513 0.940263 6.5859 0.982736 6.34762 1.2406C6.10793 1.49847 5.70891 2.69982 5.70891 3.00016C5.70891 3.30049 5.90842 5.32095 6.10793 5.74946L5.87035 5.83592C5.67013 8.32585 6.66698 8.62694 6.66698 8.62694C7.02652 10.9462 7.38605 9.95874 7.38605 10.5594C7.38605 11.1601 7.02652 10.9462 7.02652 10.9462C7.02652 10.9462 6.70786 11.8905 5.90983 12.234C5.11179 12.5776 0.6817 14.4229 0.321456 14.8097C-0.0394937 15.1965 0.00139509 17 0.00139509 17H18.9985C18.9985 17 19.0408 15.1972 18.6798 14.8097C18.3203 14.4229 13.8895 12.5768 13.0915 12.234C12.2934 11.8905 11.9748 10.9462 11.9748 10.9462C11.9748 10.9462 11.6152 11.1601 11.6152 10.5594C11.6152 9.95874 11.9748 10.9462 12.3343 8.62694C12.3343 8.62694 13.3304 8.32585 13.1309 5.83592H12.8912L12.8926 5.83441Z" fill="#757575"/>
</svg>
