<svg width="30" height="27" viewBox="0 0 30 27" fill="none" xmlns="http://www.w3.org/2000/svg">
<path d="M12.8546 9.00391H21.9596C22.3858 9.00391 22.7945 9.17321 23.0958 9.47457C23.3971 9.77594 23.5664 10.1847 23.5664 10.6109C23.5664 11.0371 23.3971 11.4458 23.0958 11.7472C22.7945 12.0485 22.3858 12.2178 21.9596 12.2178H11.5465M13.1533 12.2178H16.6037C16.8147 12.2178 17.0237 12.2594 17.2186 12.3401C17.4135 12.4209 17.5907 12.5393 17.7399 12.6885C17.8891 12.8377 18.0074 13.0149 18.0882 13.2098C18.1689 13.4048 18.2105 13.6138 18.2105 13.8248C18.2105 14.0358 18.1689 14.2448 18.0882 14.4397C18.0074 14.6347 17.8891 14.8119 17.7399 14.9611C17.5907 15.1103 17.4135 15.2287 17.2186 15.3094C17.0237 15.3902 16.8147 15.4317 16.6037 15.4317H13.5707H13.7512H13.9258M13.7512 15.4317C14.1773 15.4317 16.3674 15.601 16.6687 15.9024C16.97 16.2038 17.1393 16.6125 17.1393 17.0387C17.1393 17.4649 16.97 17.8736 16.6687 18.175C16.3674 18.4764 15.9587 18.6457 15.5325 18.6457H13.9258" fill="#29ABE2"/>
<path d="M12.8546 9.00391H21.9596C22.3858 9.00391 22.7945 9.17321 23.0958 9.47457C23.3971 9.77594 23.5664 10.1847 23.5664 10.6109C23.5664 11.0371 23.3971 11.4458 23.0958 11.7472C22.7945 12.0485 22.3858 12.2178 21.9596 12.2178H11.5465M13.1533 12.2178H16.6037C16.8147 12.2178 17.0237 12.2594 17.2186 12.3401C17.4135 12.4209 17.5907 12.5393 17.7399 12.6885C17.8891 12.8377 18.0074 13.0149 18.0882 13.2098C18.1689 13.4048 18.2105 13.6138 18.2105 13.8248C18.2105 14.0358 18.1689 14.2448 18.0882 14.4397C18.0074 14.6347 17.8891 14.8119 17.7399 14.9611C17.5907 15.1103 17.4135 15.2287 17.2186 15.3094C17.0237 15.3902 16.8147 15.4317 16.6037 15.4317H13.5707H13.7512M13.9258 15.4317H13.7512M13.7512 15.4317C14.1773 15.4317 16.3674 15.601 16.6687 15.9024C16.97 16.2038 17.1393 16.6125 17.1393 17.0387C17.1393 17.4649 16.97 17.8736 16.6687 18.175C16.3674 18.4764 15.9587 18.6457 15.5325 18.6457H13.9258" stroke="#29ABE2" stroke-linecap="round" stroke-linejoin="round"/>
<path d="M14.4616 18.6459C14.8877 18.6459 15.2964 18.8152 15.5977 19.1165C15.8991 19.4179 16.0684 19.8266 16.0684 20.2528C16.0684 20.679 15.8991 21.0877 15.5977 21.3891C15.2964 21.6905 14.8877 21.8598 14.4616 21.8598H9.64126C7.93668 21.8598 6.30192 21.1826 5.09661 19.9771C3.89129 18.7717 3.21415 17.1367 3.21415 15.4319V13.2893V13.5122C3.21397 12.4476 3.47815 11.3997 3.98295 10.4626C4.48776 9.52539 5.2174 8.72826 6.10635 8.14278L6.4277 7.9328C6.94044 7.59856 8.98569 6.42512 12.5634 4.41249C12.9282 4.20729 13.3585 4.15247 13.763 4.25971C14.1675 4.36694 14.5142 4.62777 14.7294 4.98671C14.9582 5.3692 15.053 5.81709 14.9986 6.25949C14.9443 6.70189 14.744 7.11354 14.4294 7.42929L12.8548 9.00411" fill="#29ABE2"/>
<path d="M14.4616 18.6459C14.8877 18.6459 15.2964 18.8152 15.5977 19.1165C15.8991 19.4179 16.0684 19.8266 16.0684 20.2528C16.0684 20.679 15.8991 21.0877 15.5977 21.3891C15.2964 21.6905 14.8877 21.8598 14.4616 21.8598H9.64126C7.93668 21.8598 6.30192 21.1826 5.09661 19.9771C3.89129 18.7717 3.21415 17.1367 3.21415 15.4319V13.2893V13.5122C3.21397 12.4476 3.47815 11.3997 3.98296 10.4626C4.48776 9.52539 5.2174 8.72827 6.10635 8.14278L6.4277 7.9328C6.94044 7.59856 8.98569 6.42512 12.5634 4.41249C12.9282 4.20729 13.3585 4.15247 13.763 4.25971C14.1675 4.36694 14.5142 4.62777 14.7294 4.98671C14.9582 5.3692 15.053 5.81709 14.9986 6.25949C14.9443 6.70189 14.744 7.11354 14.4294 7.42929L12.8548 9.00411" stroke="#29ABE2" stroke-linecap="round" stroke-linejoin="round"/>
<path d="M26.7969 4.21484L24.2603 6.75168" stroke="#29ABE2" stroke-width="2" stroke-linecap="round"/>
<path d="M28.9961 11.0469H25.4089" stroke="#29ABE2" stroke-width="2" stroke-linecap="round"/>
<path d="M26.7109 17.3701L24.2044 14.8036" stroke="#29ABE2" stroke-width="2" stroke-linecap="round"/>
</svg>
