<svg width="110" height="82" viewBox="0 0 110 82" fill="none" xmlns="http://www.w3.org/2000/svg">
<path d="M-33.1303 42.9267C-33.0367 27.3001 -23.5602 14.1493 -8.87758 9.09537C5.19756 4.23944 20.6294 9.07043 30.7633 21.1288C40.5959 32.8829 50.4285 44.637 60.6671 56.091C67.3926 63.5921 78.1024 63.8578 85.3154 57.4485C93.2399 50.3377 93.7129 38.8469 86.3812 31.3423C79.0488 23.9385 67.5282 24.0711 60.1053 31.7899C57.5634 34.396 55.8154 39.4266 52.4827 39.1041C49.8572 38.786 47.6614 34.2359 45.3536 31.4999C40.9377 26.4324 41.1392 26.5344 45.5156 21.318C64.344 -1.05233 98.6578 6.21061 107.494 32.4769C112.854 48.6404 106.282 66.1438 91.6786 74.8278C77.1775 83.3107 58.8008 80.8818 47.3569 68.2107C37.3186 57.0603 27.7885 45.4088 18.1562 33.9584C12.7383 27.4734 6.29299 23.8052 -2.41216 26.2736C-9.59919 28.3478 -14.6878 34.3666 -15.2347 41.32C-15.8899 49.4825 -12.2926 56.2591 -5.54176 59.5257C1.30952 62.8939 9.29889 61.8327 14.8891 56.4218C17.2271 54.117 19.3641 51.6092 21.4002 49.1009C22.7235 47.4957 23.7363 47.0985 25.1389 49.1233C26.0405 50.4394 27.2464 51.5556 28.3501 52.8729C35.5754 61.2843 35.5754 61.2843 27.7477 69.1014C17.8869 78.9228 1.8005 82.1536 -10.7984 76.7346C-24.91 70.8025 -33.2209 58.0493 -33.1303 42.9267Z" fill="url(#paint0_linear_2532_993)"/>
<defs>
<linearGradient id="paint0_linear_2532_993" x1="99.4479" y1="21.9999" x2="12.0181" y2="104.201" gradientUnits="userSpaceOnUse">
<stop stop-color="#FFAF2D" stop-opacity="0.9"/>
<stop offset="0.615385" stop-color="#FFE1A1"/>
<stop offset="1" stop-color="#FFCE80"/>
</linearGradient>
</defs>
</svg>
