<svg width="72" height="49" viewBox="0 0 72 49" fill="none" xmlns="http://www.w3.org/2000/svg">
<g opacity="0.7" clip-path="url(#clip0_2532_989)">
<path d="M3.72557 24.394C3.78959 13.7029 10.273 4.70569 20.3183 1.248C29.9479 -2.07422 40.5057 1.23094 47.4389 9.48076C54.166 17.5224 60.893 25.5641 67.8978 33.4005C72.4991 38.5323 79.8263 38.7142 84.7611 34.3292C90.1828 29.4643 90.5064 21.6028 85.4903 16.4684C80.4738 11.403 72.5919 11.4938 67.5134 16.7746C65.7744 18.5576 64.5785 21.9993 62.2984 21.7787C60.5022 21.5611 58.9998 18.4481 57.421 16.5762C54.3998 13.1093 54.5376 13.1791 57.5318 9.61018C70.4134 -5.69463 93.8894 -0.725633 99.9348 17.2447C103.602 28.303 99.1055 40.2782 89.1146 46.2194C79.1935 52.023 66.621 50.3612 58.7915 41.6922C51.9237 34.0636 45.4037 26.0921 38.8136 18.2582C35.1069 13.8215 30.6973 11.3119 24.7416 13.0006C19.8246 14.4197 16.3432 18.5375 15.969 23.2947C15.5208 28.8792 17.9818 33.5154 22.6005 35.7503C27.2878 38.0547 32.7538 37.3286 36.5784 33.6268C38.178 32.0499 39.6401 30.3342 41.033 28.6181C41.9384 27.5199 42.6313 27.2481 43.5909 28.6334C44.2078 29.5338 45.0328 30.2975 45.7879 31.1987C50.7311 36.9535 50.7311 36.9535 45.3757 42.3016C38.6294 49.021 27.6238 51.2314 19.0041 47.5239C9.34955 43.4654 3.66361 34.7402 3.72557 24.394Z" fill="url(#paint0_linear_2532_989)"/>
</g>
<defs>
<linearGradient id="paint0_linear_2532_989" x1="8.70266" y1="12.4063" x2="90.716" y2="10.1254" gradientUnits="userSpaceOnUse">
<stop stop-color="#FFAB24" stop-opacity="0.9"/>
<stop offset="0.673077" stop-color="#FFE1A1"/>
<stop offset="1" stop-color="#FFCE80"/>
</linearGradient>
<clipPath id="clip0_2532_989">
<rect width="72" height="49" fill="white"/>
</clipPath>
</defs>
</svg>
