<svg width="110" height="73" viewBox="0 0 110 73" fill="none" xmlns="http://www.w3.org/2000/svg">
<path d="M-33.1303 35.9267C-33.0367 20.3001 -23.5602 7.14931 -8.87758 2.09537C5.19756 -2.76056 20.6294 2.07043 30.7633 14.1288C40.5959 25.8829 50.4285 37.637 60.6671 49.091C67.3926 56.5921 78.1024 56.8578 85.3154 50.4485C93.2399 43.3377 93.7129 31.8469 86.3812 24.3423C79.0488 16.9385 67.5282 17.0711 60.1053 24.7899C57.5634 27.396 55.8154 32.4266 52.4827 32.1041C49.8572 31.786 47.6614 27.2359 45.3536 24.4999C40.9377 19.4324 41.1392 19.5344 45.5156 14.318C64.344 -8.05233 98.6578 -0.789389 107.494 25.4769C112.854 41.6404 106.282 59.1438 91.6786 67.8278C77.1775 76.3107 58.8008 73.8818 47.3569 61.2107C37.3186 50.0603 27.7885 38.4088 18.1562 26.9584C12.7383 20.4734 6.29299 16.8052 -2.41216 19.2736C-9.59919 21.3478 -14.6878 27.3666 -15.2347 34.32C-15.8899 42.4825 -12.2926 49.2591 -5.54176 52.5257C1.30952 55.8939 9.29889 54.8327 14.8891 49.4218C17.2271 47.117 19.3641 44.6092 21.4002 42.1009C22.7235 40.4957 23.7363 40.0985 25.1389 42.1233C26.0405 43.4394 27.2464 44.5556 28.3501 45.8729C35.5754 54.2843 35.5754 54.2843 27.7477 62.1014C17.8869 71.9228 1.8005 75.1536 -10.7984 69.7346C-24.91 63.8025 -33.2209 51.0493 -33.1303 35.9267Z" fill="url(#paint0_linear_2532_632)"/>
<defs>
<linearGradient id="paint0_linear_2532_632" x1="99.4479" y1="14.9999" x2="12.0181" y2="97.2012" gradientUnits="userSpaceOnUse">
<stop stop-color="#29FFC6"/>
<stop offset="0.5" stop-color="#32D3D5"/>
<stop offset="1" stop-color="#43C2F9"/>
</linearGradient>
</defs>
</svg>
