<svg width="66" height="65" viewBox="0 0 66 65" fill="none" xmlns="http://www.w3.org/2000/svg">
<path d="M0 32.211C0 14.4214 14.4214 0 32.211 0H33.147C50.9367 0 65.358 14.4214 65.358 32.211C65.358 50.0006 50.9366 64.422 33.147 64.422H32.211C14.4213 64.422 0 50.0006 0 32.211Z" fill="url(#paint0_linear_2579_341)"/>
<path d="M3.70703 32.2114C3.70703 16.4403 16.4921 3.65527 32.2632 3.65527H33.093C48.8641 3.65527 61.6492 16.4403 61.6492 32.2114C61.6492 47.9826 48.8641 60.7676 33.093 60.7676H32.2632C16.492 60.7676 3.70703 47.9826 3.70703 32.2114Z" stroke="white" stroke-width="0.726986"/>
<path d="M14.7981 17.9844L16.8866 32.663C17.0067 33.5071 17.7287 34.1347 18.5813 34.136L46.9718 34.1818C47.8348 34.1832 48.5643 33.543 48.675 32.6872L50.5634 18.0864C50.774 16.4581 48.796 15.4936 47.6427 16.6622L42.552 21.8203C41.7959 22.5864 40.5455 22.5391 39.8495 21.718L33.9365 14.7426C33.2447 13.9265 31.9826 13.9363 31.3036 14.7632L25.6287 21.6737C24.9385 22.5143 23.6722 22.5722 22.908 21.7981L17.7157 16.5383C16.5545 15.3621 14.5652 16.348 14.7981 17.9844Z" fill="white"/>
<path d="M18.5345 43.0869C18.5345 39.9837 20.4007 37.361 23.3103 36.34C26.0995 35.359 29.1696 36.3 31.1963 38.6824C33.1628 41.0048 35.1292 43.3271 37.176 45.5895C38.5204 47.071 40.6474 47.111 42.0721 45.8297C43.6373 44.4082 43.7175 42.1259 42.2527 40.6444C40.7879 39.1829 38.5003 39.2229 37.0355 40.7645C36.5339 41.2851 36.1927 42.2861 35.5306 42.226C35.0088 42.166 34.5674 41.265 34.1059 40.7245C33.223 39.7235 33.2631 39.7435 34.1259 38.7024C37.8382 34.2379 44.6607 35.6393 46.4465 40.8446C47.5301 44.0479 46.2459 47.5314 43.3564 49.2732C40.4869 50.975 36.8349 50.5145 34.5473 48.0119C32.5407 45.8097 30.6344 43.5073 28.7081 41.245C27.6245 39.9637 26.3403 39.243 24.6146 39.7435C23.1899 40.1639 22.1866 41.3651 22.0862 42.7465C21.9659 44.3682 22.6882 45.7096 24.0327 46.3502C25.3972 47.0109 26.9824 46.7907 28.086 45.7096C28.5475 45.2491 28.9689 44.7486 29.3703 44.2481C29.6311 43.9278 29.8318 43.8477 30.1127 44.2481C30.2933 44.5083 30.5341 44.7286 30.7548 44.9888C32.1996 46.6505 32.1996 46.6505 30.6545 48.2121C28.7081 50.1741 25.5176 50.8348 23.0093 49.7737C20.2 48.6125 18.5345 46.09 18.5345 43.0869Z" fill="white"/>
<defs>
<linearGradient id="paint0_linear_2579_341" x1="32.679" y1="0" x2="32.679" y2="64.422" gradientUnits="userSpaceOnUse">
<stop stop-color="#FFCE80"/>
<stop offset="0.5" stop-color="#FFE1A1"/>
<stop offset="1" stop-color="#FFAB24"/>
</linearGradient>
</defs>
</svg>
