<svg width="72" height="49" viewBox="0 0 72 49" fill="none" xmlns="http://www.w3.org/2000/svg">
<path d="M3.72557 24.3945C3.78959 13.7034 10.273 4.70618 20.3183 1.24849C29.9479 -2.07373 40.5057 1.23142 47.4389 9.48125C54.166 17.5229 60.893 25.5646 67.8978 33.401C72.4991 38.5328 79.8263 38.7147 84.7611 34.3297C90.1828 29.4647 90.5064 21.6033 85.4903 16.4689C80.4738 11.4035 72.5919 11.4943 67.5134 16.7751C65.7744 18.5581 64.5785 21.9998 62.2984 21.7792C60.5022 21.5615 58.9998 18.4486 57.421 16.5767C54.3998 13.1098 54.5376 13.1796 57.5318 9.61067C70.4134 -5.69414 93.8894 -0.725145 99.9348 17.2452C103.602 28.3035 99.1055 40.2786 89.1146 46.2198C79.1935 52.0235 66.621 50.3617 58.7915 41.6927C51.9237 34.064 45.4037 26.0926 38.8136 18.2587C35.1069 13.8219 30.6973 11.3124 24.7416 13.0011C19.8246 14.4202 16.3432 18.538 15.969 23.2952C15.5208 28.8797 17.9818 33.5159 22.6005 35.7508C27.2878 38.0552 32.7538 37.3291 36.5784 33.6273C38.178 32.0504 39.6401 30.3347 41.033 28.6186C41.9384 27.5204 42.6313 27.2486 43.5909 28.6339C44.2078 29.5343 45.0328 30.298 45.7879 31.1992C50.7311 36.954 50.7311 36.954 45.3757 42.3021C38.6294 49.0215 27.6238 51.2318 19.0041 47.5244C9.34955 43.4659 3.66361 34.7407 3.72557 24.3945Z" fill="url(#paint0_linear_2532_628)"/>
<defs>
<linearGradient id="paint0_linear_2532_628" x1="8.70266" y1="12.4068" x2="90.716" y2="10.1259" gradientUnits="userSpaceOnUse">
<stop stop-color="#29FFC6"/>
<stop offset="0.5" stop-color="#32D3D5"/>
<stop offset="1" stop-color="#43C2F9"/>
</linearGradient>
</defs>
</svg>
