<svg width="66" height="65" viewBox="0 0 66 65" fill="none" xmlns="http://www.w3.org/2000/svg">
<path d="M0.00390625 32.211C0.00390625 14.4214 14.4253 0 32.2149 0H33.1509C50.9406 0 65.3619 14.4214 65.3619 32.211C65.3619 50.0006 50.9405 64.422 33.1509 64.422H32.2149C14.4252 64.422 0.00390625 50.0006 0.00390625 32.211Z" fill="url(#paint0_linear_2579_333)"/>
<path d="M3.71094 32.211C3.71094 16.4398 16.496 3.65479 32.2671 3.65479H33.0969C48.868 3.65479 61.6531 16.4398 61.6531 32.211C61.6531 47.9821 48.868 60.7671 33.0969 60.7671H32.2671C16.4959 60.7671 3.71094 47.9821 3.71094 32.211Z" stroke="white" stroke-width="0.726986"/>
<path d="M14.802 17.9844L16.8905 32.663C17.0106 33.5071 17.7326 34.1347 18.5852 34.136L46.9757 34.1818C47.8387 34.1832 48.5682 33.543 48.6789 32.6872L50.5673 18.0864C50.7779 16.4581 48.7999 15.4936 47.6466 16.6622L42.5559 21.8203C41.7998 22.5864 40.5494 22.5391 39.8534 21.718L33.9404 14.7426C33.2486 13.9265 31.9865 13.9363 31.3075 14.7632L25.6327 21.6737C24.9424 22.5143 23.6761 22.5722 22.912 21.7981L17.7196 16.5383C16.5584 15.3621 14.5691 16.348 14.802 17.9844Z" fill="white"/>
<path d="M18.5385 43.0869C18.5385 39.9837 20.4046 37.361 23.3142 36.34C26.1034 35.359 29.1735 36.3 31.2002 38.6824C33.1667 41.0048 35.1331 43.3271 37.1799 45.5895C38.5243 47.071 40.6513 47.111 42.076 45.8297C43.6412 44.4082 43.7215 42.1259 42.2566 40.6444C40.7918 39.1829 38.5043 39.2229 37.0394 40.7645C36.5378 41.2851 36.1967 42.2861 35.5345 42.226C35.0127 42.166 34.5713 41.265 34.1098 40.7245C33.2269 39.7235 33.267 39.7435 34.1298 38.7024C37.8421 34.2379 44.6646 35.6393 46.4504 40.8446C47.534 44.0479 46.2498 47.5314 43.3603 49.2732C40.4908 50.975 36.8388 50.5145 34.5512 48.0119C32.5446 45.8097 30.6383 43.5073 28.712 41.245C27.6284 39.9637 26.3442 39.243 24.6185 39.7435C23.1938 40.1639 22.1905 41.3651 22.0902 42.7465C21.9698 44.3682 22.6921 45.7096 24.0366 46.3502C25.4011 47.0109 26.9863 46.7907 28.0899 45.7096C28.5515 45.2491 28.9728 44.7486 29.3742 44.2481C29.635 43.9278 29.8357 43.8477 30.1166 44.2481C30.2972 44.5083 30.538 44.7286 30.7587 44.9888C32.2035 46.6505 32.2035 46.6505 30.6584 48.2121C28.712 50.1741 25.5215 50.8348 23.0132 49.7737C20.2039 48.6125 18.5385 46.09 18.5385 43.0869Z" fill="white"/>
<defs>
<linearGradient id="paint0_linear_2579_333" x1="32.6829" y1="0" x2="32.6829" y2="64.422" gradientUnits="userSpaceOnUse">
<stop stop-color="#43C2F9"/>
<stop offset="0.5" stop-color="#32D3D6"/>
<stop offset="1" stop-color="#29FFC6"/>
</linearGradient>
</defs>
</svg>
