<svg width="783" height="165" viewBox="0 0 783 165" fill="none" xmlns="http://www.w3.org/2000/svg">
<g opacity="0.2" filter="url(#filter0_d_3272_311)">
<rect x="11" y="30" width="761" height="119" fill="url(#paint0_linear_3272_311)"/>
<rect x="11.5" y="30.5" width="760" height="118" stroke="#CECECE"/>
</g>
<path d="M254.346 78.436V86.212C254.346 87.064 254.568 87.718 255.012 88.174C255.456 88.618 256.08 88.84 256.884 88.84C257.7 88.84 258.33 88.618 258.774 88.174C259.218 87.718 259.44 87.064 259.44 86.212V78.436H261.978V86.194C261.978 87.262 261.744 88.168 261.276 88.912C260.82 89.644 260.202 90.196 259.422 90.568C258.654 90.94 257.796 91.126 256.848 91.126C255.912 91.126 255.06 90.94 254.292 90.568C253.536 90.196 252.936 89.644 252.492 88.912C252.048 88.168 251.826 87.262 251.826 86.194V78.436H254.346ZM269.939 80.884C271.127 80.884 272.087 81.262 272.819 82.018C273.551 82.762 273.917 83.806 273.917 85.15V91H271.397V85.492C271.397 84.7 271.199 84.094 270.803 83.674C270.407 83.242 269.867 83.026 269.183 83.026C268.487 83.026 267.935 83.242 267.527 83.674C267.131 84.094 266.933 84.7 266.933 85.492V91H264.413V81.028H266.933V82.27C267.269 81.838 267.695 81.502 268.211 81.262C268.739 81.01 269.315 80.884 269.939 80.884ZM278.833 77.68V91H276.313V77.68H278.833ZM285.751 91.162C284.791 91.162 283.927 90.952 283.159 90.532C282.391 90.1 281.785 89.494 281.341 88.714C280.909 87.934 280.693 87.034 280.693 86.014C280.693 84.994 280.915 84.094 281.359 83.314C281.815 82.534 282.433 81.934 283.213 81.514C283.993 81.082 284.863 80.866 285.823 80.866C286.783 80.866 287.653 81.082 288.433 81.514C289.213 81.934 289.825 82.534 290.269 83.314C290.725 84.094 290.953 84.994 290.953 86.014C290.953 87.034 290.719 87.934 290.251 88.714C289.795 89.494 289.171 90.1 288.379 90.532C287.599 90.952 286.723 91.162 285.751 91.162ZM285.751 88.966C286.207 88.966 286.633 88.858 287.029 88.642C287.437 88.414 287.761 88.078 288.001 87.634C288.241 87.19 288.361 86.65 288.361 86.014C288.361 85.066 288.109 84.34 287.605 83.836C287.113 83.32 286.507 83.062 285.787 83.062C285.067 83.062 284.461 83.32 283.969 83.836C283.489 84.34 283.249 85.066 283.249 86.014C283.249 86.962 283.483 87.694 283.951 88.21C284.431 88.714 285.031 88.966 285.751 88.966ZM292.154 86.014C292.154 84.982 292.364 84.082 292.784 83.314C293.204 82.534 293.786 81.934 294.53 81.514C295.274 81.082 296.126 80.866 297.086 80.866C298.322 80.866 299.342 81.178 300.146 81.802C300.962 82.414 301.508 83.278 301.784 84.394H299.066C298.922 83.962 298.676 83.626 298.328 83.386C297.992 83.134 297.572 83.008 297.068 83.008C296.348 83.008 295.778 83.272 295.358 83.8C294.938 84.316 294.728 85.054 294.728 86.014C294.728 86.962 294.938 87.7 295.358 88.228C295.778 88.744 296.348 89.002 297.068 89.002C298.088 89.002 298.754 88.546 299.066 87.634H301.784C301.508 88.714 300.962 89.572 300.146 90.208C299.33 90.844 298.31 91.162 297.086 91.162C296.126 91.162 295.274 90.952 294.53 90.532C293.786 90.1 293.204 89.5 292.784 88.732C292.364 87.952 292.154 87.046 292.154 86.014ZM309.534 91L306.15 86.752V91H303.63V77.68H306.15V85.258L309.498 81.028H312.774L308.382 86.032L312.81 91H309.534ZM327.97 81.028L321.796 95.716H319.114L321.274 90.748L317.278 81.028H320.104L322.678 87.994L325.288 81.028H327.97ZM333.757 91.162C332.797 91.162 331.933 90.952 331.165 90.532C330.397 90.1 329.791 89.494 329.347 88.714C328.915 87.934 328.699 87.034 328.699 86.014C328.699 84.994 328.921 84.094 329.365 83.314C329.821 82.534 330.439 81.934 331.219 81.514C331.999 81.082 332.869 80.866 333.829 80.866C334.789 80.866 335.659 81.082 336.439 81.514C337.219 81.934 337.831 82.534 338.275 83.314C338.731 84.094 338.959 84.994 338.959 86.014C338.959 87.034 338.725 87.934 338.257 88.714C337.801 89.494 337.177 90.1 336.385 90.532C335.605 90.952 334.729 91.162 333.757 91.162ZM333.757 88.966C334.213 88.966 334.639 88.858 335.035 88.642C335.443 88.414 335.767 88.078 336.007 87.634C336.247 87.19 336.367 86.65 336.367 86.014C336.367 85.066 336.115 84.34 335.611 83.836C335.119 83.32 334.513 83.062 333.793 83.062C333.073 83.062 332.467 83.32 331.975 83.836C331.495 84.34 331.255 85.066 331.255 86.014C331.255 86.962 331.489 87.694 331.957 88.21C332.437 88.714 333.037 88.966 333.757 88.966ZM350.221 81.028V91H347.683V89.74C347.359 90.172 346.933 90.514 346.405 90.766C345.889 91.006 345.325 91.126 344.713 91.126C343.933 91.126 343.243 90.964 342.643 90.64C342.043 90.304 341.569 89.818 341.221 89.182C340.885 88.534 340.717 87.766 340.717 86.878V81.028H343.237V86.518C343.237 87.31 343.435 87.922 343.831 88.354C344.227 88.774 344.767 88.984 345.451 88.984C346.147 88.984 346.693 88.774 347.089 88.354C347.485 87.922 347.683 87.31 347.683 86.518V81.028H350.221ZM355.228 82.576C355.552 82.048 355.972 81.634 356.488 81.334C357.016 81.034 357.616 80.884 358.288 80.884V83.53H357.622C356.83 83.53 356.23 83.716 355.822 84.088C355.426 84.46 355.228 85.108 355.228 86.032V91H352.708V81.028H355.228V82.576ZM373.436 82.324C373.436 82.996 373.274 83.626 372.95 84.214C372.638 84.802 372.14 85.276 371.456 85.636C370.784 85.996 369.932 86.176 368.9 86.176H366.794V91H364.274V78.436H368.9C369.872 78.436 370.7 78.604 371.384 78.94C372.068 79.276 372.578 79.738 372.914 80.326C373.262 80.914 373.436 81.58 373.436 82.324ZM368.792 84.142C369.488 84.142 370.004 83.986 370.34 83.674C370.676 83.35 370.844 82.9 370.844 82.324C370.844 81.1 370.16 80.488 368.792 80.488H366.794V84.142H368.792ZM377.745 82.576C378.069 82.048 378.489 81.634 379.005 81.334C379.533 81.034 380.133 80.884 380.805 80.884V83.53H380.139C379.347 83.53 378.747 83.716 378.339 84.088C377.943 84.46 377.745 85.108 377.745 86.032V91H375.225V81.028H377.745V82.576ZM391.773 85.798C391.773 86.158 391.749 86.482 391.701 86.77H384.411C384.471 87.49 384.723 88.054 385.167 88.462C385.611 88.87 386.157 89.074 386.805 89.074C387.741 89.074 388.407 88.672 388.803 87.868H391.521C391.233 88.828 390.681 89.62 389.865 90.244C389.049 90.856 388.047 91.162 386.859 91.162C385.899 91.162 385.035 90.952 384.267 90.532C383.511 90.1 382.917 89.494 382.485 88.714C382.065 87.934 381.855 87.034 381.855 86.014C381.855 84.982 382.065 84.076 382.485 83.296C382.905 82.516 383.493 81.916 384.249 81.496C385.005 81.076 385.875 80.866 386.859 80.866C387.807 80.866 388.653 81.07 389.397 81.478C390.153 81.886 390.735 82.468 391.143 83.224C391.563 83.968 391.773 84.826 391.773 85.798ZM389.163 85.078C389.151 84.43 388.917 83.914 388.461 83.53C388.005 83.134 387.447 82.936 386.787 82.936C386.163 82.936 385.635 83.128 385.203 83.512C384.783 83.884 384.525 84.406 384.429 85.078H389.163ZM405.996 80.884C407.22 80.884 408.204 81.262 408.948 82.018C409.704 82.762 410.082 83.806 410.082 85.15V91H407.562V85.492C407.562 84.712 407.364 84.118 406.968 83.71C406.572 83.29 406.032 83.08 405.348 83.08C404.664 83.08 404.118 83.29 403.71 83.71C403.314 84.118 403.116 84.712 403.116 85.492V91H400.596V85.492C400.596 84.712 400.398 84.118 400.002 83.71C399.606 83.29 399.066 83.08 398.382 83.08C397.686 83.08 397.134 83.29 396.726 83.71C396.33 84.118 396.132 84.712 396.132 85.492V91H393.612V81.028H396.132V82.234C396.456 81.814 396.87 81.484 397.374 81.244C397.89 81.004 398.454 80.884 399.066 80.884C399.846 80.884 400.542 81.052 401.154 81.388C401.766 81.712 402.24 82.18 402.576 82.792C402.9 82.216 403.368 81.754 403.98 81.406C404.604 81.058 405.276 80.884 405.996 80.884ZM413.751 79.84C413.307 79.84 412.935 79.702 412.635 79.426C412.347 79.138 412.203 78.784 412.203 78.364C412.203 77.944 412.347 77.596 412.635 77.32C412.935 77.032 413.307 76.888 413.751 76.888C414.195 76.888 414.561 77.032 414.849 77.32C415.149 77.596 415.299 77.944 415.299 78.364C415.299 78.784 415.149 79.138 414.849 79.426C414.561 79.702 414.195 79.84 413.751 79.84ZM414.993 81.028V91H412.473V81.028H414.993ZM426.897 81.028V91H424.359V89.74C424.035 90.172 423.609 90.514 423.081 90.766C422.565 91.006 422.001 91.126 421.389 91.126C420.609 91.126 419.919 90.964 419.319 90.64C418.719 90.304 418.245 89.818 417.897 89.182C417.561 88.534 417.393 87.766 417.393 86.878V81.028H419.913V86.518C419.913 87.31 420.111 87.922 420.507 88.354C420.903 88.774 421.443 88.984 422.127 88.984C422.823 88.984 423.369 88.774 423.765 88.354C424.161 87.922 424.359 87.31 424.359 86.518V81.028H426.897ZM441.768 80.884C442.992 80.884 443.976 81.262 444.72 82.018C445.476 82.762 445.854 83.806 445.854 85.15V91H443.334V85.492C443.334 84.712 443.136 84.118 442.74 83.71C442.344 83.29 441.804 83.08 441.12 83.08C440.436 83.08 439.89 83.29 439.482 83.71C439.086 84.118 438.888 84.712 438.888 85.492V91H436.368V85.492C436.368 84.712 436.17 84.118 435.774 83.71C435.378 83.29 434.838 83.08 434.154 83.08C433.458 83.08 432.906 83.29 432.498 83.71C432.102 84.118 431.904 84.712 431.904 85.492V91H429.384V81.028H431.904V82.234C432.228 81.814 432.642 81.484 433.146 81.244C433.662 81.004 434.226 80.884 434.838 80.884C435.618 80.884 436.314 81.052 436.926 81.388C437.538 81.712 438.012 82.18 438.348 82.792C438.672 82.216 439.14 81.754 439.752 81.406C440.376 81.058 441.048 80.884 441.768 80.884ZM460.238 88.606H455.234L454.406 91H451.76L456.278 78.418H459.212L463.73 91H461.066L460.238 88.606ZM459.554 86.59L457.736 81.334L455.918 86.59H459.554ZM464.771 86.014C464.771 84.982 464.981 84.082 465.401 83.314C465.821 82.534 466.403 81.934 467.147 81.514C467.891 81.082 468.743 80.866 469.703 80.866C470.939 80.866 471.959 81.178 472.763 81.802C473.579 82.414 474.125 83.278 474.401 84.394H471.683C471.539 83.962 471.293 83.626 470.945 83.386C470.609 83.134 470.189 83.008 469.685 83.008C468.965 83.008 468.395 83.272 467.975 83.8C467.555 84.316 467.345 85.054 467.345 86.014C467.345 86.962 467.555 87.7 467.975 88.228C468.395 88.744 468.965 89.002 469.685 89.002C470.705 89.002 471.371 88.546 471.683 87.634H474.401C474.125 88.714 473.579 89.572 472.763 90.208C471.947 90.844 470.927 91.162 469.703 91.162C468.743 91.162 467.891 90.952 467.147 90.532C466.403 90.1 465.821 89.5 465.401 88.732C464.981 87.952 464.771 87.046 464.771 86.014ZM475.599 86.014C475.599 84.982 475.809 84.082 476.229 83.314C476.649 82.534 477.231 81.934 477.975 81.514C478.719 81.082 479.571 80.866 480.531 80.866C481.767 80.866 482.787 81.178 483.591 81.802C484.407 82.414 484.953 83.278 485.229 84.394H482.511C482.367 83.962 482.121 83.626 481.773 83.386C481.437 83.134 481.017 83.008 480.513 83.008C479.793 83.008 479.223 83.272 478.803 83.8C478.383 84.316 478.173 85.054 478.173 86.014C478.173 86.962 478.383 87.7 478.803 88.228C479.223 88.744 479.793 89.002 480.513 89.002C481.533 89.002 482.199 88.546 482.511 87.634H485.229C484.953 88.714 484.407 89.572 483.591 90.208C482.775 90.844 481.755 91.162 480.531 91.162C479.571 91.162 478.719 90.952 477.975 90.532C477.231 90.1 476.649 89.5 476.229 88.732C475.809 87.952 475.599 87.046 475.599 86.014ZM491.503 91.162C490.543 91.162 489.679 90.952 488.911 90.532C488.143 90.1 487.537 89.494 487.093 88.714C486.661 87.934 486.445 87.034 486.445 86.014C486.445 84.994 486.667 84.094 487.111 83.314C487.567 82.534 488.185 81.934 488.965 81.514C489.745 81.082 490.615 80.866 491.575 80.866C492.535 80.866 493.405 81.082 494.185 81.514C494.965 81.934 495.577 82.534 496.021 83.314C496.477 84.094 496.705 84.994 496.705 86.014C496.705 87.034 496.471 87.934 496.003 88.714C495.547 89.494 494.923 90.1 494.131 90.532C493.351 90.952 492.475 91.162 491.503 91.162ZM491.503 88.966C491.959 88.966 492.385 88.858 492.781 88.642C493.189 88.414 493.513 88.078 493.753 87.634C493.993 87.19 494.113 86.65 494.113 86.014C494.113 85.066 493.861 84.34 493.357 83.836C492.865 83.32 492.259 83.062 491.539 83.062C490.819 83.062 490.213 83.32 489.721 83.836C489.241 84.34 489.001 85.066 489.001 86.014C489.001 86.962 489.235 87.694 489.703 88.21C490.183 88.714 490.783 88.966 491.503 88.966ZM507.968 81.028V91H505.43V89.74C505.106 90.172 504.68 90.514 504.152 90.766C503.636 91.006 503.072 91.126 502.46 91.126C501.68 91.126 500.99 90.964 500.39 90.64C499.79 90.304 499.316 89.818 498.968 89.182C498.632 88.534 498.464 87.766 498.464 86.878V81.028H500.984V86.518C500.984 87.31 501.182 87.922 501.578 88.354C501.974 88.774 502.514 88.984 503.198 88.984C503.894 88.984 504.44 88.774 504.836 88.354C505.232 87.922 505.43 87.31 505.43 86.518V81.028H507.968ZM515.98 80.884C517.168 80.884 518.128 81.262 518.86 82.018C519.592 82.762 519.958 83.806 519.958 85.15V91H517.438V85.492C517.438 84.7 517.24 84.094 516.844 83.674C516.448 83.242 515.908 83.026 515.224 83.026C514.528 83.026 513.976 83.242 513.568 83.674C513.172 84.094 512.974 84.7 512.974 85.492V91H510.454V81.028H512.974V82.27C513.31 81.838 513.736 81.502 514.252 81.262C514.78 81.01 515.356 80.884 515.98 80.884ZM525.288 83.098V87.922C525.288 88.258 525.366 88.504 525.522 88.66C525.69 88.804 525.966 88.876 526.35 88.876H527.52V91H525.936C523.812 91 522.75 89.968 522.75 87.904V83.098H521.562V81.028H522.75V78.562H525.288V81.028H527.52V83.098H525.288ZM180.254 110.07C180.002 109.585 179.652 109.221 179.204 108.978C178.756 108.726 178.238 108.6 177.65 108.6C177.006 108.6 176.432 108.745 175.928 109.034C175.424 109.323 175.027 109.734 174.738 110.266C174.458 110.798 174.318 111.414 174.318 112.114C174.318 112.814 174.458 113.435 174.738 113.976C175.027 114.508 175.424 114.919 175.928 115.208C176.432 115.497 177.006 115.642 177.65 115.642C178.518 115.642 179.223 115.399 179.764 114.914C180.305 114.429 180.637 113.771 180.758 112.94H177.104V111.666H182.466V112.912C182.363 113.668 182.093 114.363 181.654 114.998C181.225 115.633 180.66 116.141 179.96 116.524C179.269 116.897 178.499 117.084 177.65 117.084C176.735 117.084 175.9 116.874 175.144 116.454C174.388 116.025 173.786 115.432 173.338 114.676C172.899 113.92 172.68 113.066 172.68 112.114C172.68 111.162 172.899 110.308 173.338 109.552C173.786 108.796 174.388 108.208 175.144 107.788C175.909 107.359 176.745 107.144 177.65 107.144C178.686 107.144 179.605 107.401 180.408 107.914C181.22 108.418 181.808 109.137 182.172 110.07H180.254ZM191.11 112.954C191.11 113.243 191.092 113.505 191.054 113.738H185.16C185.207 114.354 185.436 114.849 185.846 115.222C186.257 115.595 186.761 115.782 187.358 115.782C188.217 115.782 188.824 115.423 189.178 114.704H190.9C190.667 115.413 190.242 115.997 189.626 116.454C189.02 116.902 188.264 117.126 187.358 117.126C186.621 117.126 185.958 116.963 185.37 116.636C184.792 116.3 184.334 115.833 183.998 115.236C183.672 114.629 183.508 113.929 183.508 113.136C183.508 112.343 183.667 111.647 183.984 111.05C184.311 110.443 184.764 109.977 185.342 109.65C185.93 109.323 186.602 109.16 187.358 109.16C188.086 109.16 188.735 109.319 189.304 109.636C189.874 109.953 190.317 110.401 190.634 110.98C190.952 111.549 191.11 112.207 191.11 112.954ZM189.444 112.45C189.435 111.862 189.225 111.391 188.814 111.036C188.404 110.681 187.895 110.504 187.288 110.504C186.738 110.504 186.266 110.681 185.874 111.036C185.482 111.381 185.249 111.853 185.174 112.45H189.444ZM194.543 110.588V114.858C194.543 115.147 194.608 115.357 194.739 115.488C194.879 115.609 195.112 115.67 195.439 115.67H196.419V117H195.159C194.44 117 193.89 116.832 193.507 116.496C193.124 116.16 192.933 115.614 192.933 114.858V110.588H192.023V109.286H192.933V107.368H194.543V109.286H196.419V110.588H194.543ZM200.995 113.108C200.995 112.333 201.153 111.647 201.471 111.05C201.797 110.453 202.236 109.991 202.787 109.664C203.347 109.328 203.967 109.16 204.649 109.16C205.153 109.16 205.647 109.272 206.133 109.496C206.627 109.711 207.019 110 207.309 110.364V106.64H208.919V117H207.309V115.838C207.047 116.211 206.683 116.519 206.217 116.762C205.759 117.005 205.232 117.126 204.635 117.126C203.963 117.126 203.347 116.958 202.787 116.622C202.236 116.277 201.797 115.801 201.471 115.194C201.153 114.578 200.995 113.883 200.995 113.108ZM207.309 113.136C207.309 112.604 207.197 112.142 206.973 111.75C206.758 111.358 206.473 111.059 206.119 110.854C205.764 110.649 205.381 110.546 204.971 110.546C204.56 110.546 204.177 110.649 203.823 110.854C203.468 111.05 203.179 111.344 202.955 111.736C202.74 112.119 202.633 112.576 202.633 113.108C202.633 113.64 202.74 114.107 202.955 114.508C203.179 114.909 203.468 115.217 203.823 115.432C204.187 115.637 204.569 115.74 204.971 115.74C205.381 115.74 205.764 115.637 206.119 115.432C206.473 115.227 206.758 114.928 206.973 114.536C207.197 114.135 207.309 113.668 207.309 113.136ZM218.085 112.954C218.085 113.243 218.066 113.505 218.029 113.738H212.135C212.182 114.354 212.41 114.849 212.821 115.222C213.232 115.595 213.736 115.782 214.333 115.782C215.192 115.782 215.798 115.423 216.153 114.704H217.875C217.642 115.413 217.217 115.997 216.601 116.454C215.994 116.902 215.238 117.126 214.333 117.126C213.596 117.126 212.933 116.963 212.345 116.636C211.766 116.3 211.309 115.833 210.973 115.236C210.646 114.629 210.483 113.929 210.483 113.136C210.483 112.343 210.642 111.647 210.959 111.05C211.286 110.443 211.738 109.977 212.317 109.65C212.905 109.323 213.577 109.16 214.333 109.16C215.061 109.16 215.71 109.319 216.279 109.636C216.848 109.953 217.292 110.401 217.609 110.98C217.926 111.549 218.085 112.207 218.085 112.954ZM216.419 112.45C216.41 111.862 216.2 111.391 215.789 111.036C215.378 110.681 214.87 110.504 214.263 110.504C213.712 110.504 213.241 110.681 212.849 111.036C212.457 111.381 212.224 111.853 212.149 112.45H216.419ZM221.517 110.588V114.858C221.517 115.147 221.583 115.357 221.713 115.488C221.853 115.609 222.087 115.67 222.413 115.67H223.393V117H222.133C221.415 117 220.864 116.832 220.481 116.496C220.099 116.16 219.907 115.614 219.907 114.858V110.588H218.997V109.286H219.907V107.368H221.517V109.286H223.393V110.588H221.517ZM224.332 113.108C224.332 112.333 224.491 111.647 224.808 111.05C225.135 110.453 225.574 109.991 226.124 109.664C226.684 109.328 227.3 109.16 227.972 109.16C228.579 109.16 229.106 109.281 229.554 109.524C230.012 109.757 230.376 110.051 230.646 110.406V109.286H232.256V117H230.646V115.852C230.376 116.216 230.007 116.519 229.54 116.762C229.074 117.005 228.542 117.126 227.944 117.126C227.282 117.126 226.675 116.958 226.124 116.622C225.574 116.277 225.135 115.801 224.808 115.194C224.491 114.578 224.332 113.883 224.332 113.108ZM230.646 113.136C230.646 112.604 230.534 112.142 230.31 111.75C230.096 111.358 229.811 111.059 229.456 110.854C229.102 110.649 228.719 110.546 228.308 110.546C227.898 110.546 227.515 110.649 227.16 110.854C226.806 111.05 226.516 111.344 226.292 111.736C226.078 112.119 225.97 112.576 225.97 113.108C225.97 113.64 226.078 114.107 226.292 114.508C226.516 114.909 226.806 115.217 227.16 115.432C227.524 115.637 227.907 115.74 228.308 115.74C228.719 115.74 229.102 115.637 229.456 115.432C229.811 115.227 230.096 114.928 230.31 114.536C230.534 114.135 230.646 113.668 230.646 113.136ZM235.165 108.264C234.875 108.264 234.633 108.166 234.437 107.97C234.241 107.774 234.143 107.531 234.143 107.242C234.143 106.953 234.241 106.71 234.437 106.514C234.633 106.318 234.875 106.22 235.165 106.22C235.445 106.22 235.683 106.318 235.879 106.514C236.075 106.71 236.173 106.953 236.173 107.242C236.173 107.531 236.075 107.774 235.879 107.97C235.683 108.166 235.445 108.264 235.165 108.264ZM235.949 109.286V117H234.353V109.286H235.949ZM239.64 106.64V117H238.044V106.64H239.64ZM248.806 112.954C248.806 113.243 248.787 113.505 248.75 113.738H242.856C242.902 114.354 243.131 114.849 243.542 115.222C243.952 115.595 244.456 115.782 245.054 115.782C245.912 115.782 246.519 115.423 246.874 114.704H248.596C248.362 115.413 247.938 115.997 247.322 116.454C246.715 116.902 245.959 117.126 245.054 117.126C244.316 117.126 243.654 116.963 243.066 116.636C242.487 116.3 242.03 115.833 241.694 115.236C241.367 114.629 241.204 113.929 241.204 113.136C241.204 112.343 241.362 111.647 241.68 111.05C242.006 110.443 242.459 109.977 243.038 109.65C243.626 109.323 244.298 109.16 245.054 109.16C245.782 109.16 246.43 109.319 247 109.636C247.569 109.953 248.012 110.401 248.33 110.98C248.647 111.549 248.806 112.207 248.806 112.954ZM247.14 112.45C247.13 111.862 246.92 111.391 246.51 111.036C246.099 110.681 245.59 110.504 244.984 110.504C244.433 110.504 243.962 110.681 243.57 111.036C243.178 111.381 242.944 111.853 242.87 112.45H247.14ZM249.844 113.108C249.844 112.333 250.003 111.647 250.32 111.05C250.647 110.453 251.086 109.991 251.636 109.664C252.196 109.328 252.817 109.16 253.498 109.16C254.002 109.16 254.497 109.272 254.982 109.496C255.477 109.711 255.869 110 256.158 110.364V106.64H257.768V117H256.158V115.838C255.897 116.211 255.533 116.519 255.066 116.762C254.609 117.005 254.082 117.126 253.484 117.126C252.812 117.126 252.196 116.958 251.636 116.622C251.086 116.277 250.647 115.801 250.32 115.194C250.003 114.578 249.844 113.883 249.844 113.108ZM256.158 113.136C256.158 112.604 256.046 112.142 255.822 111.75C255.608 111.358 255.323 111.059 254.968 110.854C254.614 110.649 254.231 110.546 253.82 110.546C253.41 110.546 253.027 110.649 252.672 110.854C252.318 111.05 252.028 111.344 251.804 111.736C251.59 112.119 251.482 112.576 251.482 113.108C251.482 113.64 251.59 114.107 251.804 114.508C252.028 114.909 252.318 115.217 252.672 115.432C253.036 115.637 253.419 115.74 253.82 115.74C254.231 115.74 254.614 115.637 254.968 115.432C255.323 115.227 255.608 114.928 255.822 114.536C256.046 114.135 256.158 113.668 256.158 113.136ZM262.969 113.108C262.969 112.333 263.128 111.647 263.445 111.05C263.772 110.453 264.211 109.991 264.761 109.664C265.321 109.328 265.937 109.16 266.609 109.16C267.216 109.16 267.743 109.281 268.191 109.524C268.649 109.757 269.013 110.051 269.283 110.406V109.286H270.893V117H269.283V115.852C269.013 116.216 268.644 116.519 268.177 116.762C267.711 117.005 267.179 117.126 266.581 117.126C265.919 117.126 265.312 116.958 264.761 116.622C264.211 116.277 263.772 115.801 263.445 115.194C263.128 114.578 262.969 113.883 262.969 113.108ZM269.283 113.136C269.283 112.604 269.171 112.142 268.947 111.75C268.733 111.358 268.448 111.059 268.093 110.854C267.739 110.649 267.356 110.546 266.945 110.546C266.535 110.546 266.152 110.649 265.797 110.854C265.443 111.05 265.153 111.344 264.929 111.736C264.715 112.119 264.607 112.576 264.607 113.108C264.607 113.64 264.715 114.107 264.929 114.508C265.153 114.909 265.443 115.217 265.797 115.432C266.161 115.637 266.544 115.74 266.945 115.74C267.356 115.74 267.739 115.637 268.093 115.432C268.448 115.227 268.733 114.928 268.947 114.536C269.171 114.135 269.283 113.668 269.283 113.136ZM276.881 109.16C277.488 109.16 278.029 109.286 278.505 109.538C278.991 109.79 279.369 110.163 279.639 110.658C279.91 111.153 280.045 111.75 280.045 112.45V117H278.463V112.688C278.463 111.997 278.291 111.47 277.945 111.106C277.6 110.733 277.129 110.546 276.531 110.546C275.934 110.546 275.458 110.733 275.103 111.106C274.758 111.47 274.585 111.997 274.585 112.688V117H272.989V109.286H274.585V110.168C274.847 109.851 275.178 109.603 275.579 109.426C275.99 109.249 276.424 109.16 276.881 109.16ZM281.549 113.108C281.549 112.333 281.708 111.647 282.025 111.05C282.352 110.453 282.791 109.991 283.341 109.664C283.901 109.328 284.517 109.16 285.189 109.16C285.796 109.16 286.323 109.281 286.771 109.524C287.229 109.757 287.593 110.051 287.863 110.406V109.286H289.473V117H287.863V115.852C287.593 116.216 287.224 116.519 286.757 116.762C286.291 117.005 285.759 117.126 285.161 117.126C284.499 117.126 283.892 116.958 283.341 116.622C282.791 116.277 282.352 115.801 282.025 115.194C281.708 114.578 281.549 113.883 281.549 113.108ZM287.863 113.136C287.863 112.604 287.751 112.142 287.527 111.75C287.313 111.358 287.028 111.059 286.673 110.854C286.319 110.649 285.936 110.546 285.525 110.546C285.115 110.546 284.732 110.649 284.377 110.854C284.023 111.05 283.733 111.344 283.509 111.736C283.295 112.119 283.187 112.576 283.187 113.108C283.187 113.64 283.295 114.107 283.509 114.508C283.733 114.909 284.023 115.217 284.377 115.432C284.741 115.637 285.124 115.74 285.525 115.74C285.936 115.74 286.319 115.637 286.673 115.432C287.028 115.227 287.313 114.928 287.527 114.536C287.751 114.135 287.863 113.668 287.863 113.136ZM293.166 106.64V117H291.57V106.64H293.166ZM302.205 109.286L297.473 120.626H295.821L297.389 116.874L294.351 109.286H296.129L298.299 115.166L300.553 109.286H302.205ZM305.271 110.588V114.858C305.271 115.147 305.337 115.357 305.467 115.488C305.607 115.609 305.841 115.67 306.167 115.67H307.147V117H305.887C305.169 117 304.618 116.832 304.235 116.496C303.853 116.16 303.661 115.614 303.661 114.858V110.588H302.751V109.286H303.661V107.368H305.271V109.286H307.147V110.588H305.271ZM309.43 108.264C309.141 108.264 308.898 108.166 308.702 107.97C308.506 107.774 308.408 107.531 308.408 107.242C308.408 106.953 308.506 106.71 308.702 106.514C308.898 106.318 309.141 106.22 309.43 106.22C309.71 106.22 309.948 106.318 310.144 106.514C310.34 106.71 310.438 106.953 310.438 107.242C310.438 107.531 310.34 107.774 310.144 107.97C309.948 108.166 309.71 108.264 309.43 108.264ZM310.214 109.286V117H308.618V109.286H310.214ZM311.778 113.136C311.778 112.343 311.936 111.647 312.254 111.05C312.58 110.443 313.028 109.977 313.598 109.65C314.167 109.323 314.82 109.16 315.558 109.16C316.491 109.16 317.261 109.384 317.868 109.832C318.484 110.271 318.899 110.901 319.114 111.722H317.392C317.252 111.339 317.028 111.041 316.72 110.826C316.412 110.611 316.024 110.504 315.558 110.504C314.904 110.504 314.382 110.737 313.99 111.204C313.607 111.661 313.416 112.305 313.416 113.136C313.416 113.967 313.607 114.615 313.99 115.082C314.382 115.549 314.904 115.782 315.558 115.782C316.482 115.782 317.093 115.376 317.392 114.564H319.114C318.89 115.348 318.47 115.973 317.854 116.44C317.238 116.897 316.472 117.126 315.558 117.126C314.82 117.126 314.167 116.963 313.598 116.636C313.028 116.3 312.58 115.833 312.254 115.236C311.936 114.629 311.778 113.929 311.778 113.136ZM323.504 117.126C322.898 117.126 322.352 117.019 321.866 116.804C321.39 116.58 321.012 116.281 320.732 115.908C320.452 115.525 320.303 115.101 320.284 114.634H321.936C321.964 114.961 322.118 115.236 322.398 115.46C322.688 115.675 323.047 115.782 323.476 115.782C323.924 115.782 324.27 115.698 324.512 115.53C324.764 115.353 324.89 115.129 324.89 114.858C324.89 114.569 324.75 114.354 324.47 114.214C324.2 114.074 323.766 113.92 323.168 113.752C322.59 113.593 322.118 113.439 321.754 113.29C321.39 113.141 321.073 112.912 320.802 112.604C320.541 112.296 320.41 111.89 320.41 111.386C320.41 110.975 320.532 110.602 320.774 110.266C321.017 109.921 321.362 109.65 321.81 109.454C322.268 109.258 322.79 109.16 323.378 109.16C324.256 109.16 324.96 109.384 325.492 109.832C326.034 110.271 326.323 110.873 326.36 111.638H324.764C324.736 111.293 324.596 111.017 324.344 110.812C324.092 110.607 323.752 110.504 323.322 110.504C322.902 110.504 322.58 110.583 322.356 110.742C322.132 110.901 322.02 111.111 322.02 111.372C322.02 111.577 322.095 111.75 322.244 111.89C322.394 112.03 322.576 112.142 322.79 112.226C323.005 112.301 323.322 112.399 323.742 112.52C324.302 112.669 324.76 112.823 325.114 112.982C325.478 113.131 325.791 113.355 326.052 113.654C326.314 113.953 326.449 114.349 326.458 114.844C326.458 115.283 326.337 115.675 326.094 116.02C325.852 116.365 325.506 116.636 325.058 116.832C324.62 117.028 324.102 117.126 323.504 117.126ZM339.338 117L338.134 115.796C337.667 116.263 337.158 116.613 336.608 116.846C336.057 117.07 335.441 117.182 334.76 117.182C334.069 117.182 333.458 117.061 332.926 116.818C332.394 116.575 331.983 116.23 331.694 115.782C331.404 115.325 331.26 114.797 331.26 114.2C331.26 113.528 331.451 112.931 331.834 112.408C332.216 111.876 332.786 111.456 333.542 111.148C333.271 110.821 333.08 110.518 332.968 110.238C332.856 109.949 332.8 109.631 332.8 109.286C332.8 108.857 332.907 108.474 333.122 108.138C333.346 107.802 333.663 107.536 334.074 107.34C334.484 107.144 334.96 107.046 335.502 107.046C336.052 107.046 336.519 107.153 336.902 107.368C337.294 107.573 337.583 107.858 337.77 108.222C337.966 108.586 338.045 108.992 338.008 109.44H336.412C336.421 109.095 336.337 108.829 336.16 108.642C335.982 108.446 335.74 108.348 335.432 108.348C335.124 108.348 334.872 108.441 334.676 108.628C334.489 108.805 334.396 109.025 334.396 109.286C334.396 109.538 334.466 109.79 334.606 110.042C334.755 110.285 335.012 110.602 335.376 110.994L337.952 113.556L338.946 111.918H340.668L339.408 114.074L339.058 114.648L341.424 117H339.338ZM334.76 115.824C335.637 115.824 336.412 115.465 337.084 114.746L334.508 112.156C333.406 112.595 332.856 113.257 332.856 114.144C332.856 114.62 333.033 115.021 333.388 115.348C333.742 115.665 334.2 115.824 334.76 115.824ZM347.703 110.42C347.973 110.065 348.342 109.767 348.809 109.524C349.275 109.281 349.803 109.16 350.391 109.16C351.063 109.16 351.674 109.328 352.225 109.664C352.785 109.991 353.223 110.453 353.541 111.05C353.858 111.647 354.017 112.333 354.017 113.108C354.017 113.883 353.858 114.578 353.541 115.194C353.223 115.801 352.785 116.277 352.225 116.622C351.674 116.958 351.063 117.126 350.391 117.126C349.803 117.126 349.28 117.009 348.823 116.776C348.365 116.533 347.992 116.235 347.703 115.88V120.668H346.107V109.286H347.703V110.42ZM352.393 113.108C352.393 112.576 352.281 112.119 352.057 111.736C351.842 111.344 351.553 111.05 351.189 110.854C350.834 110.649 350.451 110.546 350.041 110.546C349.639 110.546 349.257 110.649 348.893 110.854C348.538 111.059 348.249 111.358 348.025 111.75C347.81 112.142 347.703 112.604 347.703 113.136C347.703 113.668 347.81 114.135 348.025 114.536C348.249 114.928 348.538 115.227 348.893 115.432C349.257 115.637 349.639 115.74 350.041 115.74C350.451 115.74 350.834 115.637 351.189 115.432C351.553 115.217 351.842 114.909 352.057 114.508C352.281 114.107 352.393 113.64 352.393 113.108ZM358.941 117.126C358.213 117.126 357.555 116.963 356.967 116.636C356.379 116.3 355.917 115.833 355.581 115.236C355.245 114.629 355.077 113.929 355.077 113.136C355.077 112.352 355.25 111.657 355.595 111.05C355.94 110.443 356.412 109.977 357.009 109.65C357.606 109.323 358.274 109.16 359.011 109.16C359.748 109.16 360.416 109.323 361.013 109.65C361.61 109.977 362.082 110.443 362.427 111.05C362.772 111.657 362.945 112.352 362.945 113.136C362.945 113.92 362.768 114.615 362.413 115.222C362.058 115.829 361.573 116.3 360.957 116.636C360.35 116.963 359.678 117.126 358.941 117.126ZM358.941 115.74C359.352 115.74 359.734 115.642 360.089 115.446C360.453 115.25 360.747 114.956 360.971 114.564C361.195 114.172 361.307 113.696 361.307 113.136C361.307 112.576 361.2 112.105 360.985 111.722C360.77 111.33 360.486 111.036 360.131 110.84C359.776 110.644 359.394 110.546 358.983 110.546C358.572 110.546 358.19 110.644 357.835 110.84C357.49 111.036 357.214 111.33 357.009 111.722C356.804 112.105 356.701 112.576 356.701 113.136C356.701 113.967 356.911 114.611 357.331 115.068C357.76 115.516 358.297 115.74 358.941 115.74ZM367.323 117.126C366.716 117.126 366.17 117.019 365.685 116.804C365.209 116.58 364.831 116.281 364.551 115.908C364.271 115.525 364.121 115.101 364.103 114.634H365.755C365.783 114.961 365.937 115.236 366.217 115.46C366.506 115.675 366.865 115.782 367.295 115.782C367.743 115.782 368.088 115.698 368.331 115.53C368.583 115.353 368.709 115.129 368.709 114.858C368.709 114.569 368.569 114.354 368.289 114.214C368.018 114.074 367.584 113.92 366.987 113.752C366.408 113.593 365.937 113.439 365.573 113.29C365.209 113.141 364.891 112.912 364.621 112.604C364.359 112.296 364.229 111.89 364.229 111.386C364.229 110.975 364.35 110.602 364.593 110.266C364.835 109.921 365.181 109.65 365.629 109.454C366.086 109.258 366.609 109.16 367.197 109.16C368.074 109.16 368.779 109.384 369.311 109.832C369.852 110.271 370.141 110.873 370.179 111.638H368.583C368.555 111.293 368.415 111.017 368.163 110.812C367.911 110.607 367.57 110.504 367.141 110.504C366.721 110.504 366.399 110.583 366.175 110.742C365.951 110.901 365.839 111.111 365.839 111.372C365.839 111.577 365.913 111.75 366.063 111.89C366.212 112.03 366.394 112.142 366.609 112.226C366.823 112.301 367.141 112.399 367.561 112.52C368.121 112.669 368.578 112.823 368.933 112.982C369.297 113.131 369.609 113.355 369.871 113.654C370.132 113.953 370.267 114.349 370.277 114.844C370.277 115.283 370.155 115.675 369.913 116.02C369.67 116.365 369.325 116.636 368.877 116.832C368.438 117.028 367.92 117.126 367.323 117.126ZM373.863 110.588V114.858C373.863 115.147 373.929 115.357 374.059 115.488C374.199 115.609 374.433 115.67 374.759 115.67H375.739V117H374.479C373.761 117 373.21 116.832 372.827 116.496C372.445 116.16 372.253 115.614 372.253 114.858V110.588H371.343V109.286H372.253V107.368H373.863V109.286H375.739V110.588H373.863ZM380.315 113.108C380.315 112.333 380.474 111.647 380.791 111.05C381.118 110.453 381.556 109.991 382.107 109.664C382.667 109.328 383.283 109.16 383.955 109.16C384.562 109.16 385.089 109.281 385.537 109.524C385.994 109.757 386.358 110.051 386.629 110.406V109.286H388.239V117H386.629V115.852C386.358 116.216 385.99 116.519 385.523 116.762C385.056 117.005 384.524 117.126 383.927 117.126C383.264 117.126 382.658 116.958 382.107 116.622C381.556 116.277 381.118 115.801 380.791 115.194C380.474 114.578 380.315 113.883 380.315 113.108ZM386.629 113.136C386.629 112.604 386.517 112.142 386.293 111.75C386.078 111.358 385.794 111.059 385.439 110.854C385.084 110.649 384.702 110.546 384.291 110.546C383.88 110.546 383.498 110.649 383.143 110.854C382.788 111.05 382.499 111.344 382.275 111.736C382.06 112.119 381.953 112.576 381.953 113.108C381.953 113.64 382.06 114.107 382.275 114.508C382.499 114.909 382.788 115.217 383.143 115.432C383.507 115.637 383.89 115.74 384.291 115.74C384.702 115.74 385.084 115.637 385.439 115.432C385.794 115.227 386.078 114.928 386.293 114.536C386.517 114.135 386.629 113.668 386.629 113.136ZM394.227 109.16C394.834 109.16 395.375 109.286 395.851 109.538C396.336 109.79 396.714 110.163 396.985 110.658C397.256 111.153 397.391 111.75 397.391 112.45V117H395.809V112.688C395.809 111.997 395.636 111.47 395.291 111.106C394.946 110.733 394.474 110.546 393.877 110.546C393.28 110.546 392.804 110.733 392.449 111.106C392.104 111.47 391.931 111.997 391.931 112.688V117H390.335V109.286H391.931V110.168C392.192 109.851 392.524 109.603 392.925 109.426C393.336 109.249 393.77 109.16 394.227 109.16ZM410.134 112.954C410.134 113.243 410.115 113.505 410.078 113.738H404.184C404.23 114.354 404.459 114.849 404.87 115.222C405.28 115.595 405.784 115.782 406.382 115.782C407.24 115.782 407.847 115.423 408.202 114.704H409.924C409.69 115.413 409.266 115.997 408.65 116.454C408.043 116.902 407.287 117.126 406.382 117.126C405.644 117.126 404.982 116.963 404.394 116.636C403.815 116.3 403.358 115.833 403.022 115.236C402.695 114.629 402.532 113.929 402.532 113.136C402.532 112.343 402.69 111.647 403.008 111.05C403.334 110.443 403.787 109.977 404.366 109.65C404.954 109.323 405.626 109.16 406.382 109.16C407.11 109.16 407.758 109.319 408.328 109.636C408.897 109.953 409.34 110.401 409.658 110.98C409.975 111.549 410.134 112.207 410.134 112.954ZM408.468 112.45C408.458 111.862 408.248 111.391 407.838 111.036C407.427 110.681 406.918 110.504 406.312 110.504C405.761 110.504 405.29 110.681 404.898 111.036C404.506 111.381 404.272 111.853 404.198 112.45H408.468ZM415.596 109.16C416.203 109.16 416.744 109.286 417.22 109.538C417.706 109.79 418.084 110.163 418.354 110.658C418.625 111.153 418.76 111.75 418.76 112.45V117H417.178V112.688C417.178 111.997 417.006 111.47 416.66 111.106C416.315 110.733 415.844 110.546 415.246 110.546C414.649 110.546 414.173 110.733 413.818 111.106C413.473 111.47 413.3 111.997 413.3 112.688V117H411.704V109.286H413.3V110.168C413.562 109.851 413.893 109.603 414.294 109.426C414.705 109.249 415.139 109.16 415.596 109.16ZM420.264 113.108C420.264 112.333 420.423 111.647 420.74 111.05C421.067 110.453 421.505 109.991 422.056 109.664C422.616 109.328 423.237 109.16 423.918 109.16C424.422 109.16 424.917 109.272 425.402 109.496C425.897 109.711 426.289 110 426.578 110.364V106.64H428.188V117H426.578V115.838C426.317 116.211 425.953 116.519 425.486 116.762C425.029 117.005 424.501 117.126 423.904 117.126C423.232 117.126 422.616 116.958 422.056 116.622C421.505 116.277 421.067 115.801 420.74 115.194C420.423 114.578 420.264 113.883 420.264 113.108ZM426.578 113.136C426.578 112.604 426.466 112.142 426.242 111.75C426.027 111.358 425.743 111.059 425.388 110.854C425.033 110.649 424.651 110.546 424.24 110.546C423.829 110.546 423.447 110.649 423.092 110.854C422.737 111.05 422.448 111.344 422.224 111.736C422.009 112.119 421.902 112.576 421.902 113.108C421.902 113.64 422.009 114.107 422.224 114.508C422.448 114.909 422.737 115.217 423.092 115.432C423.456 115.637 423.839 115.74 424.24 115.74C424.651 115.74 425.033 115.637 425.388 115.432C425.743 115.227 426.027 114.928 426.242 114.536C426.466 114.135 426.578 113.668 426.578 113.136ZM431.88 106.64V117H430.284V106.64H431.88ZM441.046 112.954C441.046 113.243 441.027 113.505 440.99 113.738H435.096C435.142 114.354 435.371 114.849 435.782 115.222C436.192 115.595 436.696 115.782 437.294 115.782C438.152 115.782 438.759 115.423 439.114 114.704H440.836C440.602 115.413 440.178 115.997 439.562 116.454C438.955 116.902 438.199 117.126 437.294 117.126C436.556 117.126 435.894 116.963 435.306 116.636C434.727 116.3 434.27 115.833 433.934 115.236C433.607 114.629 433.444 113.929 433.444 113.136C433.444 112.343 433.602 111.647 433.92 111.05C434.246 110.443 434.699 109.977 435.278 109.65C435.866 109.323 436.538 109.16 437.294 109.16C438.022 109.16 438.67 109.319 439.24 109.636C439.809 109.953 440.252 110.401 440.57 110.98C440.887 111.549 441.046 112.207 441.046 112.954ZM439.38 112.45C439.37 111.862 439.16 111.391 438.75 111.036C438.339 110.681 437.83 110.504 437.224 110.504C436.673 110.504 436.202 110.681 435.81 111.036C435.418 111.381 435.184 111.853 435.11 112.45H439.38ZM445.416 117.126C444.81 117.126 444.264 117.019 443.778 116.804C443.302 116.58 442.924 116.281 442.644 115.908C442.364 115.525 442.215 115.101 442.196 114.634H443.848C443.876 114.961 444.03 115.236 444.31 115.46C444.6 115.675 444.959 115.782 445.388 115.782C445.836 115.782 446.182 115.698 446.424 115.53C446.676 115.353 446.802 115.129 446.802 114.858C446.802 114.569 446.662 114.354 446.382 114.214C446.112 114.074 445.678 113.92 445.08 113.752C444.502 113.593 444.03 113.439 443.666 113.29C443.302 113.141 442.985 112.912 442.714 112.604C442.453 112.296 442.322 111.89 442.322 111.386C442.322 110.975 442.444 110.602 442.686 110.266C442.929 109.921 443.274 109.65 443.722 109.454C444.18 109.258 444.702 109.16 445.29 109.16C446.168 109.16 446.872 109.384 447.404 109.832C447.946 110.271 448.235 110.873 448.272 111.638H446.676C446.648 111.293 446.508 111.017 446.256 110.812C446.004 110.607 445.664 110.504 445.234 110.504C444.814 110.504 444.492 110.583 444.268 110.742C444.044 110.901 443.932 111.111 443.932 111.372C443.932 111.577 444.007 111.75 444.156 111.89C444.306 112.03 444.488 112.142 444.702 112.226C444.917 112.301 445.234 112.399 445.654 112.52C446.214 112.669 446.672 112.823 447.026 112.982C447.39 113.131 447.703 113.355 447.964 113.654C448.226 113.953 448.361 114.349 448.37 114.844C448.37 115.283 448.249 115.675 448.006 116.02C447.764 116.365 447.418 116.636 446.97 116.832C446.532 117.028 446.014 117.126 445.416 117.126ZM452.895 117.126C452.288 117.126 451.742 117.019 451.257 116.804C450.781 116.58 450.403 116.281 450.123 115.908C449.843 115.525 449.694 115.101 449.675 114.634H451.327C451.355 114.961 451.509 115.236 451.789 115.46C452.078 115.675 452.438 115.782 452.867 115.782C453.315 115.782 453.66 115.698 453.903 115.53C454.155 115.353 454.281 115.129 454.281 114.858C454.281 114.569 454.141 114.354 453.861 114.214C453.59 114.074 453.156 113.92 452.559 113.752C451.98 113.593 451.509 113.439 451.145 113.29C450.781 113.141 450.464 112.912 450.193 112.604C449.932 112.296 449.801 111.89 449.801 111.386C449.801 110.975 449.922 110.602 450.165 110.266C450.408 109.921 450.753 109.65 451.201 109.454C451.658 109.258 452.181 109.16 452.769 109.16C453.646 109.16 454.351 109.384 454.883 109.832C455.424 110.271 455.714 110.873 455.751 111.638H454.155C454.127 111.293 453.987 111.017 453.735 110.812C453.483 110.607 453.142 110.504 452.713 110.504C452.293 110.504 451.971 110.583 451.747 110.742C451.523 110.901 451.411 111.111 451.411 111.372C451.411 111.577 451.486 111.75 451.635 111.89C451.784 112.03 451.966 112.142 452.181 112.226C452.396 112.301 452.713 112.399 453.133 112.52C453.693 112.669 454.15 112.823 454.505 112.982C454.869 113.131 455.182 113.355 455.443 113.654C455.704 113.953 455.84 114.349 455.849 114.844C455.849 115.283 455.728 115.675 455.485 116.02C455.242 116.365 454.897 116.636 454.449 116.832C454.01 117.028 453.492 117.126 452.895 117.126ZM465.102 109.16C465.709 109.16 466.25 109.286 466.726 109.538C467.211 109.79 467.589 110.163 467.86 110.658C468.131 111.153 468.266 111.75 468.266 112.45V117H466.684V112.688C466.684 111.997 466.511 111.47 466.166 111.106C465.821 110.733 465.349 110.546 464.752 110.546C464.155 110.546 463.679 110.733 463.324 111.106C462.979 111.47 462.806 111.997 462.806 112.688V117H461.21V109.286H462.806V110.168C463.067 109.851 463.399 109.603 463.8 109.426C464.211 109.249 464.645 109.16 465.102 109.16ZM477.288 109.286V117H475.692V116.09C475.44 116.407 475.109 116.659 474.698 116.846C474.297 117.023 473.867 117.112 473.41 117.112C472.803 117.112 472.257 116.986 471.772 116.734C471.296 116.482 470.918 116.109 470.638 115.614C470.367 115.119 470.232 114.522 470.232 113.822V109.286H471.814V113.584C471.814 114.275 471.987 114.807 472.332 115.18C472.677 115.544 473.149 115.726 473.746 115.726C474.343 115.726 474.815 115.544 475.16 115.18C475.515 114.807 475.692 114.275 475.692 113.584V109.286H477.288ZM488.732 109.16C489.338 109.16 489.88 109.286 490.356 109.538C490.841 109.79 491.219 110.163 491.49 110.658C491.77 111.153 491.91 111.75 491.91 112.45V117H490.328V112.688C490.328 111.997 490.155 111.47 489.81 111.106C489.464 110.733 488.993 110.546 488.396 110.546C487.798 110.546 487.322 110.733 486.968 111.106C486.622 111.47 486.45 111.997 486.45 112.688V117H484.868V112.688C484.868 111.997 484.695 111.47 484.35 111.106C484.004 110.733 483.533 110.546 482.936 110.546C482.338 110.546 481.862 110.733 481.508 111.106C481.162 111.47 480.99 111.997 480.99 112.688V117H479.394V109.286H480.99V110.168C481.251 109.851 481.582 109.603 481.984 109.426C482.385 109.249 482.814 109.16 483.272 109.16C483.888 109.16 484.438 109.291 484.924 109.552C485.409 109.813 485.782 110.191 486.044 110.686C486.277 110.219 486.641 109.851 487.136 109.58C487.63 109.3 488.162 109.16 488.732 109.16ZM495.537 110.434C495.807 110.061 496.176 109.757 496.643 109.524C497.119 109.281 497.646 109.16 498.225 109.16C498.906 109.16 499.522 109.323 500.073 109.65C500.623 109.977 501.057 110.443 501.375 111.05C501.692 111.647 501.851 112.333 501.851 113.108C501.851 113.883 501.692 114.578 501.375 115.194C501.057 115.801 500.619 116.277 500.059 116.622C499.508 116.958 498.897 117.126 498.225 117.126C497.627 117.126 497.095 117.009 496.629 116.776C496.171 116.543 495.807 116.244 495.537 115.88V117H493.941V106.64H495.537V110.434ZM500.227 113.108C500.227 112.576 500.115 112.119 499.891 111.736C499.676 111.344 499.387 111.05 499.023 110.854C498.668 110.649 498.285 110.546 497.875 110.546C497.473 110.546 497.091 110.649 496.727 110.854C496.372 111.059 496.083 111.358 495.859 111.75C495.644 112.142 495.537 112.604 495.537 113.136C495.537 113.668 495.644 114.135 495.859 114.536C496.083 114.928 496.372 115.227 496.727 115.432C497.091 115.637 497.473 115.74 497.875 115.74C498.285 115.74 498.668 115.637 499.023 115.432C499.387 115.217 499.676 114.909 499.891 114.508C500.115 114.107 500.227 113.64 500.227 113.108ZM510.499 112.954C510.499 113.243 510.48 113.505 510.443 113.738H504.549C504.596 114.354 504.824 114.849 505.235 115.222C505.646 115.595 506.15 115.782 506.747 115.782C507.606 115.782 508.212 115.423 508.567 114.704H510.289C510.056 115.413 509.631 115.997 509.015 116.454C508.408 116.902 507.652 117.126 506.747 117.126C506.01 117.126 505.347 116.963 504.759 116.636C504.18 116.3 503.723 115.833 503.387 115.236C503.06 114.629 502.897 113.929 502.897 113.136C502.897 112.343 503.056 111.647 503.373 111.05C503.7 110.443 504.152 109.977 504.731 109.65C505.319 109.323 505.991 109.16 506.747 109.16C507.475 109.16 508.124 109.319 508.693 109.636C509.262 109.953 509.706 110.401 510.023 110.98C510.34 111.549 510.499 112.207 510.499 112.954ZM508.833 112.45C508.824 111.862 508.614 111.391 508.203 111.036C507.792 110.681 507.284 110.504 506.677 110.504C506.126 110.504 505.655 110.681 505.263 111.036C504.871 111.381 504.638 111.853 504.563 112.45H508.833ZM513.666 110.406C513.899 110.014 514.207 109.711 514.59 109.496C514.982 109.272 515.444 109.16 515.976 109.16V110.812H515.57C514.944 110.812 514.468 110.971 514.142 111.288C513.824 111.605 513.666 112.156 513.666 112.94V117H512.07V109.286H513.666V110.406ZM524.425 117.126C523.697 117.126 523.039 116.963 522.451 116.636C521.863 116.3 521.401 115.833 521.065 115.236C520.729 114.629 520.561 113.929 520.561 113.136C520.561 112.352 520.734 111.657 521.079 111.05C521.425 110.443 521.896 109.977 522.493 109.65C523.091 109.323 523.758 109.16 524.495 109.16C525.233 109.16 525.9 109.323 526.497 109.65C527.095 109.977 527.566 110.443 527.911 111.05C528.257 111.657 528.429 112.352 528.429 113.136C528.429 113.92 528.252 114.615 527.897 115.222C527.543 115.829 527.057 116.3 526.441 116.636C525.835 116.963 525.163 117.126 524.425 117.126ZM524.425 115.74C524.836 115.74 525.219 115.642 525.573 115.446C525.937 115.25 526.231 114.956 526.455 114.564C526.679 114.172 526.791 113.696 526.791 113.136C526.791 112.576 526.684 112.105 526.469 111.722C526.255 111.33 525.97 111.036 525.615 110.84C525.261 110.644 524.878 110.546 524.467 110.546C524.057 110.546 523.674 110.644 523.319 110.84C522.974 111.036 522.699 111.33 522.493 111.722C522.288 112.105 522.185 112.576 522.185 113.136C522.185 113.967 522.395 114.611 522.815 115.068C523.245 115.516 523.781 115.74 524.425 115.74ZM533.241 110.588H531.813V117H530.203V110.588H529.293V109.286H530.203V108.74C530.203 107.853 530.436 107.209 530.903 106.808C531.379 106.397 532.121 106.192 533.129 106.192V107.522C532.644 107.522 532.303 107.615 532.107 107.802C531.911 107.979 531.813 108.292 531.813 108.74V109.286H533.241V110.588ZM539.104 108.264C538.815 108.264 538.572 108.166 538.376 107.97C538.18 107.774 538.082 107.531 538.082 107.242C538.082 106.953 538.18 106.71 538.376 106.514C538.572 106.318 538.815 106.22 539.104 106.22C539.384 106.22 539.622 106.318 539.818 106.514C540.014 106.71 540.112 106.953 540.112 107.242C540.112 107.531 540.014 107.774 539.818 107.97C539.622 108.166 539.384 108.264 539.104 108.264ZM539.888 118.512C539.888 119.268 539.697 119.814 539.314 120.15C538.941 120.495 538.395 120.668 537.676 120.668H536.85V119.324H537.396C537.723 119.324 537.952 119.259 538.082 119.128C538.222 119.007 538.292 118.801 538.292 118.512V109.286H539.888V118.512ZM545.33 117.126C544.602 117.126 543.944 116.963 543.356 116.636C542.768 116.3 542.306 115.833 541.97 115.236C541.634 114.629 541.466 113.929 541.466 113.136C541.466 112.352 541.638 111.657 541.984 111.05C542.329 110.443 542.8 109.977 543.398 109.65C543.995 109.323 544.662 109.16 545.4 109.16C546.137 109.16 546.804 109.323 547.402 109.65C547.999 109.977 548.47 110.443 548.816 111.05C549.161 111.657 549.334 112.352 549.334 113.136C549.334 113.92 549.156 114.615 548.802 115.222C548.447 115.829 547.962 116.3 547.346 116.636C546.739 116.963 546.067 117.126 545.33 117.126ZM545.33 115.74C545.74 115.74 546.123 115.642 546.478 115.446C546.842 115.25 547.136 114.956 547.36 114.564C547.584 114.172 547.696 113.696 547.696 113.136C547.696 112.576 547.588 112.105 547.374 111.722C547.159 111.33 546.874 111.036 546.52 110.84C546.165 110.644 545.782 110.546 545.372 110.546C544.961 110.546 544.578 110.644 544.224 110.84C543.878 111.036 543.603 111.33 543.398 111.722C543.192 112.105 543.09 112.576 543.09 113.136C543.09 113.967 543.3 114.611 543.72 115.068C544.149 115.516 544.686 115.74 545.33 115.74ZM552.507 110.434C552.778 110.061 553.147 109.757 553.613 109.524C554.089 109.281 554.617 109.16 555.195 109.16C555.877 109.16 556.493 109.323 557.043 109.65C557.594 109.977 558.028 110.443 558.345 111.05C558.663 111.647 558.821 112.333 558.821 113.108C558.821 113.883 558.663 114.578 558.345 115.194C558.028 115.801 557.589 116.277 557.029 116.622C556.479 116.958 555.867 117.126 555.195 117.126C554.598 117.126 554.066 117.009 553.599 116.776C553.142 116.543 552.778 116.244 552.507 115.88V117H550.911V106.64H552.507V110.434ZM557.197 113.108C557.197 112.576 557.085 112.119 556.861 111.736C556.647 111.344 556.357 111.05 555.993 110.854C555.639 110.649 555.256 110.546 554.845 110.546C554.444 110.546 554.061 110.649 553.697 110.854C553.343 111.059 553.053 111.358 552.829 111.75C552.615 112.142 552.507 112.604 552.507 113.136C552.507 113.668 552.615 114.135 552.829 114.536C553.053 114.928 553.343 115.227 553.697 115.432C554.061 115.637 554.444 115.74 554.845 115.74C555.256 115.74 555.639 115.637 555.993 115.432C556.357 115.217 556.647 114.909 556.861 114.508C557.085 114.107 557.197 113.64 557.197 113.108ZM567.382 117.126C566.654 117.126 565.996 116.963 565.408 116.636C564.82 116.3 564.358 115.833 564.022 115.236C563.686 114.629 563.518 113.929 563.518 113.136C563.518 112.352 563.691 111.657 564.036 111.05C564.382 110.443 564.853 109.977 565.45 109.65C566.048 109.323 566.715 109.16 567.452 109.16C568.19 109.16 568.857 109.323 569.454 109.65C570.052 109.977 570.523 110.443 570.868 111.05C571.214 111.657 571.386 112.352 571.386 113.136C571.386 113.92 571.209 114.615 570.854 115.222C570.5 115.829 570.014 116.3 569.398 116.636C568.792 116.963 568.12 117.126 567.382 117.126ZM567.382 115.74C567.793 115.74 568.176 115.642 568.53 115.446C568.894 115.25 569.188 114.956 569.412 114.564C569.636 114.172 569.748 113.696 569.748 113.136C569.748 112.576 569.641 112.105 569.426 111.722C569.212 111.33 568.927 111.036 568.572 110.84C568.218 110.644 567.835 110.546 567.424 110.546C567.014 110.546 566.631 110.644 566.276 110.84C565.931 111.036 565.656 111.33 565.45 111.722C565.245 112.105 565.142 112.576 565.142 113.136C565.142 113.967 565.352 114.611 565.772 115.068C566.202 115.516 566.738 115.74 567.382 115.74ZM576.198 110.588H574.77V117H573.16V110.588H572.25V109.286H573.16V108.74C573.16 107.853 573.393 107.209 573.86 106.808C574.336 106.397 575.078 106.192 576.086 106.192V107.522C575.601 107.522 575.26 107.615 575.064 107.802C574.868 107.979 574.77 108.292 574.77 108.74V109.286H576.198V110.588ZM580.847 110.588H579.419V117H577.809V110.588H576.899V109.286H577.809V108.74C577.809 107.853 578.042 107.209 578.509 106.808C578.985 106.397 579.727 106.192 580.735 106.192V107.522C580.249 107.522 579.909 107.615 579.713 107.802C579.517 107.979 579.419 108.292 579.419 108.74V109.286H580.847V110.588ZM589.331 112.954C589.331 113.243 589.312 113.505 589.275 113.738H583.381C583.428 114.354 583.656 114.849 584.067 115.222C584.478 115.595 584.982 115.782 585.579 115.782C586.438 115.782 587.044 115.423 587.399 114.704H589.121C588.888 115.413 588.463 115.997 587.847 116.454C587.24 116.902 586.484 117.126 585.579 117.126C584.842 117.126 584.179 116.963 583.591 116.636C583.012 116.3 582.555 115.833 582.219 115.236C581.892 114.629 581.729 113.929 581.729 113.136C581.729 112.343 581.888 111.647 582.205 111.05C582.532 110.443 582.984 109.977 583.563 109.65C584.151 109.323 584.823 109.16 585.579 109.16C586.307 109.16 586.956 109.319 587.525 109.636C588.094 109.953 588.538 110.401 588.855 110.98C589.172 111.549 589.331 112.207 589.331 112.954ZM587.665 112.45C587.656 111.862 587.446 111.391 587.035 111.036C586.624 110.681 586.116 110.504 585.509 110.504C584.958 110.504 584.487 110.681 584.095 111.036C583.703 111.381 583.47 111.853 583.395 112.45H587.665ZM592.498 110.406C592.731 110.014 593.039 109.711 593.422 109.496C593.814 109.272 594.276 109.16 594.808 109.16V110.812H594.402C593.776 110.812 593.3 110.971 592.974 111.288C592.656 111.605 592.498 112.156 592.498 112.94V117H590.902V109.286H592.498V110.406ZM599.075 117.126C598.468 117.126 597.922 117.019 597.437 116.804C596.961 116.58 596.583 116.281 596.303 115.908C596.023 115.525 595.873 115.101 595.855 114.634H597.507C597.535 114.961 597.689 115.236 597.969 115.46C598.258 115.675 598.617 115.782 599.047 115.782C599.495 115.782 599.84 115.698 600.083 115.53C600.335 115.353 600.461 115.129 600.461 114.858C600.461 114.569 600.321 114.354 600.041 114.214C599.77 114.074 599.336 113.92 598.739 113.752C598.16 113.593 597.689 113.439 597.325 113.29C596.961 113.141 596.643 112.912 596.373 112.604C596.111 112.296 595.981 111.89 595.981 111.386C595.981 110.975 596.102 110.602 596.345 110.266C596.587 109.921 596.933 109.65 597.381 109.454C597.838 109.258 598.361 109.16 598.949 109.16C599.826 109.16 600.531 109.384 601.063 109.832C601.604 110.271 601.893 110.873 601.931 111.638H600.335C600.307 111.293 600.167 111.017 599.915 110.812C599.663 110.607 599.322 110.504 598.893 110.504C598.473 110.504 598.151 110.583 597.927 110.742C597.703 110.901 597.591 111.111 597.591 111.372C597.591 111.577 597.665 111.75 597.815 111.89C597.964 112.03 598.146 112.142 598.361 112.226C598.575 112.301 598.893 112.399 599.313 112.52C599.873 112.669 600.33 112.823 600.685 112.982C601.049 113.131 601.361 113.355 601.623 113.654C601.884 113.953 602.019 114.349 602.029 114.844C602.029 115.283 601.907 115.675 601.665 116.02C601.422 116.365 601.077 116.636 600.629 116.832C600.19 117.028 599.672 117.126 599.075 117.126ZM609.392 107.27L609.21 114.06H607.88L607.698 107.27H609.392ZM608.594 117.098C608.305 117.098 608.062 117 607.866 116.804C607.67 116.608 607.572 116.365 607.572 116.076C607.572 115.787 607.67 115.544 607.866 115.348C608.062 115.152 608.305 115.054 608.594 115.054C608.874 115.054 609.112 115.152 609.308 115.348C609.504 115.544 609.602 115.787 609.602 116.076C609.602 116.365 609.504 116.608 609.308 116.804C609.112 117 608.874 117.098 608.594 117.098Z" fill="#333333"/>
<g opacity="0.7" clip-path="url(#clip0_3272_311)">
<path d="M703.726 124.394C703.79 113.703 710.273 104.706 720.318 101.248C729.948 97.9263 740.506 101.231 747.439 109.481C754.166 117.523 760.893 125.565 767.898 133.401C772.499 138.533 779.826 138.715 784.761 134.33C790.183 129.465 790.506 121.603 785.49 116.469C780.474 111.404 772.592 111.494 767.513 116.775C765.774 118.558 764.578 122 762.298 121.779C760.502 121.562 759 118.449 757.421 116.577C754.4 113.11 754.538 113.18 757.532 109.611C770.413 94.3059 793.889 99.2749 799.935 117.245C803.602 128.304 799.106 140.279 789.115 146.22C779.194 152.024 766.621 150.362 758.792 141.693C751.924 134.064 745.404 126.093 738.814 118.259C735.107 113.822 730.697 111.312 724.742 113.001C719.825 114.42 716.343 118.538 715.969 123.295C715.521 128.88 717.982 133.516 722.6 135.751C727.288 138.055 732.754 137.329 736.578 133.627C738.178 132.05 739.64 130.335 741.033 128.619C741.938 127.52 742.631 127.249 743.591 128.634C744.208 129.534 745.033 130.298 745.788 131.199C750.731 136.954 750.731 136.954 745.376 142.302C738.629 149.021 727.624 151.232 719.004 147.524C709.35 143.466 703.664 134.741 703.726 124.394Z" fill="url(#paint1_linear_3272_311)"/>
</g>
<g opacity="0.7" clip-path="url(#clip1_3272_311)">
<path d="M-22.1303 65.9267C-22.0367 50.3001 -12.5602 37.1493 2.12242 32.0954C16.1976 27.2394 31.6294 32.0704 41.7633 44.1288C51.5959 55.8829 61.4285 67.637 71.6671 79.091C78.3926 86.5921 89.1024 86.8578 96.3154 80.4485C104.24 73.3377 104.713 61.8469 97.3812 54.3423C90.0488 46.9385 78.5282 47.0711 71.1053 54.7899C68.5634 57.396 66.8154 62.4266 63.4827 62.1041C60.8572 61.786 58.6614 57.2359 56.3536 54.4999C51.9377 49.4324 52.1392 49.5344 56.5156 44.318C75.344 21.9477 109.658 29.2106 118.494 55.4769C123.854 71.6404 117.282 89.1438 102.679 97.8278C88.1775 106.311 69.8008 103.882 58.3569 91.2107C48.3186 80.0603 38.7885 68.4088 29.1562 56.9584C23.7383 50.4734 17.293 46.8052 8.58784 49.2736C1.40081 51.3478 -3.68778 57.3666 -4.23467 64.32C-4.88986 72.4825 -1.29261 79.2591 5.45824 82.5257C12.3095 85.8939 20.2989 84.8327 25.8891 79.4218C28.2271 77.117 30.3641 74.6092 32.4002 72.1009C33.7235 70.4957 34.7363 70.0985 36.1389 72.1233C37.0405 73.4394 38.2464 74.5556 39.3501 75.8729C46.5754 84.2843 46.5754 84.2843 38.7477 92.1014C28.8869 101.923 12.8005 105.154 0.201588 99.7346C-13.91 93.8025 -22.2209 81.0493 -22.1303 65.9267Z" fill="url(#paint2_linear_3272_311)"/>
</g>
<path d="M358.004 32.211C358.004 14.4214 372.425 0 390.215 0H391.151C408.941 0 423.362 14.4214 423.362 32.211C423.362 50.0006 408.941 64.422 391.151 64.422H390.215C372.425 64.422 358.004 50.0006 358.004 32.211Z" fill="url(#paint3_linear_3272_311)"/>
<path d="M361.711 32.211C361.711 16.4398 374.496 3.65479 390.267 3.65479H391.097C406.868 3.65479 419.653 16.4398 419.653 32.211C419.653 47.9821 406.868 60.7671 391.097 60.7671H390.267C374.496 60.7671 361.711 47.9821 361.711 32.211Z" stroke="white" stroke-width="0.726986"/>
<path d="M372.802 17.9844L374.891 32.663C375.011 33.5071 375.733 34.1347 376.585 34.136L404.976 34.1818C405.839 34.1832 406.568 33.543 406.679 32.6872L408.567 18.0864C408.778 16.4581 406.8 15.4936 405.647 16.6622L400.556 21.8203C399.8 22.5864 398.549 22.5391 397.853 21.718L391.94 14.7426C391.249 13.9265 389.987 13.9363 389.308 14.7632L383.633 21.6737C382.942 22.5143 381.676 22.5722 380.912 21.7981L375.72 16.5383C374.558 15.3621 372.569 16.348 372.802 17.9844Z" fill="white"/>
<path d="M376.538 43.0869C376.538 39.9837 378.405 37.361 381.314 36.34C384.103 35.359 387.174 36.3 389.2 38.6824C391.167 41.0048 393.133 43.3271 395.18 45.5895C396.524 47.071 398.651 47.111 400.076 45.8297C401.641 44.4082 401.721 42.1259 400.257 40.6444C398.792 39.1829 396.504 39.2229 395.039 40.7645C394.538 41.2851 394.197 42.2861 393.534 42.226C393.013 42.166 392.571 41.265 392.11 40.7245C391.227 39.7235 391.267 39.7435 392.13 38.7024C395.842 34.2379 402.665 35.6393 404.45 40.8446C405.534 44.0479 404.25 47.5314 401.36 49.2732C398.491 50.975 394.839 50.5145 392.551 48.0119C390.545 45.8097 388.638 43.5073 386.712 41.245C385.628 39.9637 384.344 39.243 382.618 39.7435C381.194 40.1639 380.19 41.3651 380.09 42.7465C379.97 44.3682 380.692 45.7096 382.037 46.3502C383.401 47.0109 384.986 46.7907 386.09 45.7096C386.551 45.2491 386.973 44.7486 387.374 44.2481C387.635 43.9278 387.836 43.8477 388.117 44.2481C388.297 44.5083 388.538 44.7286 388.759 44.9888C390.203 46.6505 390.203 46.6505 388.658 48.2121C386.712 50.1741 383.521 50.8348 381.013 49.7737C378.204 48.6125 376.538 46.09 376.538 43.0869Z" fill="white"/>
<defs>
<filter id="filter0_d_3272_311" x="0" y="24" width="783" height="141" filterUnits="userSpaceOnUse" color-interpolation-filters="sRGB">
<feFlood flood-opacity="0" result="BackgroundImageFix"/>
<feColorMatrix in="SourceAlpha" type="matrix" values="0 0 0 0 0 0 0 0 0 0 0 0 0 0 0 0 0 0 127 0" result="hardAlpha"/>
<feOffset dy="5"/>
<feGaussianBlur stdDeviation="5.5"/>
<feComposite in2="hardAlpha" operator="out"/>
<feColorMatrix type="matrix" values="0 0 0 0 0.177885 0 0 0 0 0.177885 0 0 0 0 0.177885 0 0 0 1 0"/>
<feBlend mode="normal" in2="BackgroundImageFix" result="effect1_dropShadow_3272_311"/>
<feBlend mode="normal" in="SourceGraphic" in2="effect1_dropShadow_3272_311" result="shape"/>
</filter>
<linearGradient id="paint0_linear_3272_311" x1="11" y1="30" x2="203.716" y2="425.74" gradientUnits="userSpaceOnUse">
<stop stop-color="#F2FEFE"/>
<stop offset="0.5" stop-color="#32D3D5"/>
<stop offset="1" stop-color="#29FFC6"/>
</linearGradient>
<linearGradient id="paint1_linear_3272_311" x1="708.703" y1="112.407" x2="790.716" y2="110.126" gradientUnits="userSpaceOnUse">
<stop stop-color="#29FFC6"/>
<stop offset="0.5" stop-color="#32D3D5"/>
<stop offset="1" stop-color="#43C2F9"/>
</linearGradient>
<linearGradient id="paint2_linear_3272_311" x1="110.448" y1="44.9999" x2="23.0181" y2="127.201" gradientUnits="userSpaceOnUse">
<stop stop-color="#29FFC6"/>
<stop offset="0.5" stop-color="#32D3D5"/>
<stop offset="1" stop-color="#43C2F9"/>
</linearGradient>
<linearGradient id="paint3_linear_3272_311" x1="390.683" y1="0" x2="390.683" y2="64.422" gradientUnits="userSpaceOnUse">
<stop stop-color="#43C2F9"/>
<stop offset="0.5" stop-color="#32D3D6"/>
<stop offset="1" stop-color="#29FFC6"/>
</linearGradient>
<clipPath id="clip0_3272_311">
<rect width="72" height="49" fill="white" transform="translate(700 100)"/>
</clipPath>
<clipPath id="clip1_3272_311">
<rect width="133" height="137" fill="white" transform="translate(11 23)"/>
</clipPath>
</defs>
</svg>
