<svg width="22" height="21" viewBox="0 0 22 21" fill="none" xmlns="http://www.w3.org/2000/svg">
<path d="M11.4863 0C9.40963 0 7.37956 0.615814 5.65284 1.76957C3.92613 2.92332 2.58032 4.5632 1.7856 6.48182C0.990878 8.40044 0.782943 10.5116 1.18809 12.5484C1.59323 14.5852 2.59326 16.4562 4.06171 17.9246C5.53016 19.3931 7.40108 20.3931 9.43788 20.7982C11.4747 21.2034 13.5859 20.9955 15.5045 20.2007C17.4231 19.406 19.063 18.0602 20.2168 16.3335C21.3705 14.6068 21.9863 12.5767 21.9863 10.5C21.9863 9.12112 21.7147 7.75574 21.1871 6.48182C20.6594 5.2079 19.886 4.05039 18.9109 3.07538C17.9359 2.10036 16.7784 1.32694 15.5045 0.799265C14.2306 0.271591 12.8652 0 11.4863 0ZM17.4461 8.64885L11.1461 14.4238C10.9467 14.6067 10.6843 14.7056 10.4137 14.6997C10.1432 14.6938 9.88533 14.5837 9.69398 14.3923L6.54398 11.2423C6.4437 11.1455 6.3637 11.0296 6.30868 10.9015C6.25365 10.7734 6.22468 10.6356 6.22347 10.4962C6.22226 10.3568 6.24882 10.2185 6.30162 10.0895C6.35441 9.96045 6.43238 9.84322 6.53097 9.74463C6.62955 9.64605 6.74679 9.56808 6.87583 9.51528C7.00487 9.46249 7.14313 9.43592 7.28255 9.43713C7.42197 9.43835 7.55975 9.46731 7.68786 9.52234C7.81596 9.57737 7.93182 9.65736 8.02868 9.75765L10.4678 12.1968L16.0265 7.10115C16.2318 6.9129 16.5034 6.81389 16.7816 6.8259C17.0599 6.83791 17.3219 6.95996 17.5102 7.1652C17.6984 7.37044 17.7974 7.64205 17.7854 7.92029C17.7734 8.19853 17.6514 8.4606 17.4461 8.64885Z" fill="#4BDDB6"/>
</svg>
