<svg width="20" height="20" viewBox="0 0 20 20" fill="none" xmlns="http://www.w3.org/2000/svg">
<path d="M18.9903 8.20901C19.063 7.69206 18.7202 7.21152 18.2246 7.13565L13.1023 6.3546L10.8134 1.48924C10.7309 1.34083 10.6127 1.21758 10.4703 1.13178C10.0207 0.860756 9.44551 1.02117 9.18561 1.49016L6.89754 6.3546L1.77525 7.13571C1.57942 7.16565 1.39841 7.26167 1.25972 7.40898C0.908815 7.78179 0.914181 8.38072 1.27161 8.74672L4.98122 12.5402L4.10582 17.8949C4.09752 17.9461 4.09326 17.998 4.09315 18.0501C4.09176 18.5732 4.49727 18.9986 4.99892 19C5.14679 18.9998 5.2924 18.9617 5.4229 18.8892L9.99994 16.3651L14.5761 18.8883C14.753 18.9862 14.9559 19.0203 15.1533 18.9852C15.6465 18.8975 15.9781 18.4094 15.8941 17.8949L15.0187 12.5402L18.7292 8.74574C18.8699 8.60126 18.9616 8.41281 18.9903 8.20901ZM14.215 12.0379C14.1089 12.1465 14.0603 12.3023 14.0848 12.4552L15.0001 18.0527L10.2115 15.4123C10.0789 15.3402 9.92099 15.3402 9.78839 15.4123L4.9998 18.0536L5.91498 12.4553C5.9396 12.3024 5.89103 12.1466 5.78486 12.038L1.9062 8.07185L7.26481 7.2548C7.4128 7.23172 7.54048 7.13444 7.60653 6.99445L9.99994 1.90665L12.3933 6.9944C12.4593 7.13438 12.5871 7.23166 12.735 7.25474L18.0945 8.07087L14.215 12.0379Z" fill="#757575" stroke="#757575" stroke-width="0.3"/>
</svg>
