<svg width="20" height="19" viewBox="0 0 20 19" fill="none" xmlns="http://www.w3.org/2000/svg">
<path d="M3.6 16.92L5.124 15.701L5.134 15.693C5.452 15.438 5.613 15.31 5.792 15.219C5.95267 15.137 6.122 15.0777 6.3 15.041C6.499 15 6.706 15 7.122 15H15.803C16.921 15 17.481 15 17.908 14.782C18.2843 14.5903 18.5903 14.2843 18.782 13.908C19 13.48 19 12.92 19 11.804V4.197C19 3.079 19 2.519 18.782 2.092C18.59 1.71554 18.2837 1.40957 17.907 1.218C17.48 1 16.92 1 15.8 1H4.2C3.08 1 2.52 1 2.092 1.218C1.71569 1.40974 1.40974 1.71569 1.218 2.092C1 2.52 1 3.08 1 4.2V15.671C1 16.737 1 17.27 1.218 17.543C1.31174 17.6607 1.43083 17.7557 1.56641 17.821C1.70198 17.8863 1.85053 17.9201 2.001 17.92C2.351 17.92 2.767 17.586 3.6 16.92Z" stroke="#9A9A9A" stroke-width="2" stroke-linecap="round" stroke-linejoin="round"/>
</svg>
