<svg width="21" height="21" viewBox="0 0 21 21" fill="none" xmlns="http://www.w3.org/2000/svg">
<path d="M10.918 0.0361328C8.95368 0.0361328 7.0335 0.633175 5.40025 1.75176C3.767 2.87035 2.49404 4.46023 1.74233 6.32037C0.990631 8.18051 0.793952 10.2274 1.17717 12.2021C1.56038 14.1768 2.50628 15.9907 3.89524 17.4144C5.28421 18.838 7.05386 19.8076 8.98041 20.2004C10.907 20.5932 12.9039 20.3916 14.7186 19.6211C16.5334 18.8506 18.0845 17.5458 19.1758 15.8717C20.2671 14.1976 20.8496 12.2295 20.8496 10.2161C20.8496 8.87922 20.5927 7.55546 20.0936 6.32037C19.5945 5.08529 18.8629 3.96306 17.9407 3.01777C17.0185 2.07247 15.9236 1.32262 14.7186 0.811034C13.5137 0.299445 12.2222 0.0361328 10.918 0.0361328ZM16.5552 8.42134L10.5962 14.0203C10.4075 14.1976 10.1593 14.2934 9.90343 14.2877C9.64752 14.2821 9.40363 14.1753 9.22264 13.9898L6.24315 10.9358C6.14829 10.8419 6.07263 10.7295 6.02058 10.6053C5.96853 10.4811 5.94113 10.3476 5.93999 10.2124C5.93884 10.0772 5.96397 9.94318 6.01391 9.81807C6.06384 9.69297 6.13759 9.57931 6.23084 9.48372C6.32409 9.38814 6.43498 9.31255 6.55703 9.26137C6.67909 9.21018 6.80987 9.18442 6.94174 9.1856C7.07361 9.18677 7.20394 9.21486 7.32511 9.26821C7.44628 9.32156 7.55587 9.39911 7.64748 9.49634L9.9546 11.8611L15.2124 6.92082C15.4065 6.73831 15.6635 6.64232 15.9266 6.65396C16.1898 6.66561 16.4377 6.78394 16.6158 6.98292C16.7938 7.1819 16.8875 7.44523 16.8761 7.71499C16.8647 7.98475 16.7493 8.23883 16.5552 8.42134Z" fill="#29ABE2"/>
</svg>
