<svg width="14" height="16" viewBox="0 0 14 16" fill="none" xmlns="http://www.w3.org/2000/svg">
<path d="M8.30859 14.75C8.27318 14.7823 8.23664 14.8139 8.19824 14.8438C7.86385 15.1037 7.43989 15.2484 6.99805 15.249C6.55682 15.2481 6.13384 15.1033 5.7998 14.8438C5.76135 14.8139 5.72394 14.7823 5.68848 14.75H8.30859ZM7.59668 2.12988C9.63145 2.40912 11.1494 4.0635 11.1494 6V7.8584L11.1572 8.14453C11.1949 8.81167 11.366 9.46595 11.6611 10.0713C11.9974 10.7609 12.4865 11.3688 13.0908 11.8555V11.8564C13.2033 11.9482 13.25 12.0617 13.25 12.167C13.2498 12.3618 13.0707 12.583 12.7744 12.583H1.22461C1.11935 12.5826 1.01982 12.5515 0.939453 12.498C0.859463 12.4448 0.804497 12.3738 0.775391 12.2988C0.746476 12.2243 0.742235 12.1448 0.762695 12.0693C0.783294 11.9936 0.829361 11.9195 0.901367 11.8604C1.50663 11.3738 1.99586 10.7652 2.33301 10.0752C2.67149 9.38242 2.84797 8.62565 2.84766 7.8584V6C2.84766 4.06344 4.36507 2.40914 6.40039 2.12988L6.99805 2.04688L7.59668 2.12988Z" stroke="#FFAB24" stroke-width="1.5"/>
</svg>
