<svg width="18" height="18" viewBox="0 0 18 18" fill="none" xmlns="http://www.w3.org/2000/svg">
<path d="M6.44323 5.42508L8.35156 3.50841V11.5001C8.35156 11.7211 8.43936 11.9331 8.59564 12.0893C8.75192 12.2456 8.96388 12.3334 9.1849 12.3334C9.40591 12.3334 9.61787 12.2456 9.77415 12.0893C9.93043 11.9331 10.0182 11.7211 10.0182 11.5001V3.50841L11.9266 5.42508C12.004 5.50318 12.0962 5.56518 12.1977 5.60749C12.2993 5.64979 12.4082 5.67158 12.5182 5.67158C12.6282 5.67158 12.7372 5.64979 12.8387 5.60749C12.9403 5.56518 13.0324 5.50318 13.1099 5.42508C13.188 5.34761 13.25 5.25544 13.2923 5.15389C13.3346 5.05234 13.3564 4.94342 13.3564 4.83341C13.3564 4.7234 13.3346 4.61448 13.2923 4.51293C13.25 4.41138 13.188 4.31921 13.1099 4.24174L9.77656 0.90841C9.69731 0.832543 9.60386 0.773072 9.50156 0.73341C9.29868 0.650061 9.07111 0.650061 8.86823 0.73341C8.76594 0.773072 8.67248 0.832543 8.59323 0.90841L5.2599 4.24174C5.1822 4.31944 5.12056 4.41168 5.07851 4.5132C5.03646 4.61472 5.01482 4.72353 5.01482 4.83341C5.01482 4.94329 5.03646 5.0521 5.07851 5.15362C5.12056 5.25514 5.1822 5.34738 5.2599 5.42508C5.33759 5.50278 5.42984 5.56441 5.53135 5.60646C5.63287 5.64851 5.74168 5.67015 5.85156 5.67015C5.96144 5.67015 6.07025 5.64851 6.17177 5.60646C6.27329 5.56441 6.36553 5.50278 6.44323 5.42508ZM16.6849 10.6667C16.4639 10.6667 16.2519 10.7545 16.0956 10.9108C15.9394 11.0671 15.8516 11.2791 15.8516 11.5001V14.8334C15.8516 15.0544 15.7638 15.2664 15.6075 15.4227C15.4512 15.5789 15.2392 15.6667 15.0182 15.6667H3.35156C3.13055 15.6667 2.91859 15.5789 2.76231 15.4227C2.60603 15.2664 2.51823 15.0544 2.51823 14.8334V11.5001C2.51823 11.2791 2.43043 11.0671 2.27415 10.9108C2.11787 10.7545 1.90591 10.6667 1.6849 10.6667C1.46388 10.6667 1.25192 10.7545 1.09564 10.9108C0.93936 11.0671 0.851563 11.2791 0.851562 11.5001V14.8334C0.851563 15.4965 1.11495 16.1323 1.5838 16.6012C2.05264 17.07 2.68852 17.3334 3.35156 17.3334H15.0182C15.6813 17.3334 16.3172 17.07 16.786 16.6012C17.2548 16.1323 17.5182 15.4965 17.5182 14.8334V11.5001C17.5182 11.2791 17.4304 11.0671 17.2742 10.9108C17.1179 10.7545 16.9059 10.6667 16.6849 10.6667Z" fill="#757575"/>
</svg>
