<svg width="23" height="18" viewBox="0 0 23 18" fill="none" xmlns="http://www.w3.org/2000/svg">
<path d="M0.5 0.687122C0.5 1.06213 0.824139 1.38284 1.20562 1.38284H4.42709L5.95221 11.4354C6.15272 12.7354 6.86729 13.5503 8.24966 13.5503H19.3737C19.745 13.5503 20.0692 13.2573 20.0692 12.8639C20.0692 12.4702 19.745 12.1772 19.3737 12.1772H8.41152C7.86817 12.1772 7.53468 11.8108 7.44887 11.2526L7.29635 10.2912H19.3924C20.7841 10.2912 21.4991 9.46698 21.6992 8.15797L22.4618 3.31452C22.4822 3.19953 22.495 3.08341 22.5 2.96685C22.5 2.52739 22.1567 2.22504 21.6325 2.22504H6.07626L5.88551 1.06252C5.79035 0.357429 5.52355 0 4.55154 0H1.20522C0.824139 0 0.5 0.320709 0.5 0.687122ZM7.44927 16.5167C7.44927 17.3499 8.13578 18 9.00287 18C9.20613 18.0016 9.40769 17.9643 9.5958 17.8903C9.78392 17.8164 9.95482 17.7072 10.0986 17.5691C10.2423 17.4311 10.356 17.2669 10.433 17.0862C10.51 16.9055 10.5488 16.712 10.5471 16.5167C10.548 16.3217 10.5087 16.1284 10.4314 15.9481C10.3541 15.7677 10.2404 15.6039 10.0968 15.466C9.95327 15.328 9.78267 15.2188 9.5949 15.1446C9.40713 15.0704 9.20591 15.0326 9.00287 15.0335C8.13578 15.0335 7.44927 15.6929 7.44927 16.5167ZM16.3617 16.5167C16.3617 17.3499 17.0575 18 17.9153 18C18.7828 18 19.4689 17.3499 19.4689 16.5167C19.4689 15.6925 18.7828 15.0335 17.9153 15.0335C17.0575 15.0335 16.3617 15.6929 16.3617 16.5167Z" fill="black"/>
</svg>
