<svg width="27" height="16" viewBox="0 0 27 16" fill="none" xmlns="http://www.w3.org/2000/svg">
<path d="M1 1.02295L0.999999 14.9768" stroke="url(#paint0_linear_3086_669)" stroke-linecap="round"/>
<path d="M26 1.02295L26 14.9768" stroke="url(#paint1_linear_3086_669)" stroke-linecap="round"/>
<path d="M5.07031 8H20.187" stroke="url(#paint2_linear_3086_669)"/>
<path d="M8.3941 10.6168V5.38398C8.39395 5.331 8.38029 5.27906 8.35459 5.23377C8.32889 5.18848 8.29213 5.15154 8.24826 5.12693C8.2044 5.10232 8.15508 5.09097 8.10563 5.0941C8.05619 5.09724 8.00847 5.11474 7.96763 5.14472L4.4341 7.76115C4.28759 7.86958 4.28759 8.13064 4.4341 8.23937L7.96763 10.8558C8.00839 10.8861 8.05613 10.9038 8.10566 10.9072C8.15519 10.9105 8.20462 10.8992 8.24858 10.8745C8.29254 10.8499 8.32934 10.8129 8.355 10.7674C8.38066 10.722 8.39418 10.6699 8.3941 10.6168Z" fill="url(#paint3_linear_3086_669)"/>
<path d="M18.8579 5.38414V10.617C18.858 10.67 18.8717 10.7219 18.8974 10.7672C18.9231 10.8125 18.9598 10.8494 19.0037 10.874C19.0476 10.8987 19.0969 10.91 19.1463 10.9069C19.1958 10.9037 19.2435 10.8862 19.2843 10.8563L22.8179 8.23983C22.9644 8.13139 22.9644 7.87033 22.8179 7.7616L19.2843 5.14518C19.2436 5.11489 19.1958 5.09713 19.1463 5.09383C19.0968 5.09052 19.0473 5.1018 19.0034 5.12643C18.9594 5.15106 18.9226 5.18811 18.897 5.23354C18.8713 5.27898 18.8578 5.33106 18.8579 5.38414Z" fill="url(#paint4_linear_3086_669)"/>
<defs>
<linearGradient id="paint0_linear_3086_669" x1="0.999999" y1="0.5" x2="2" y2="15.5" gradientUnits="userSpaceOnUse">
<stop stop-color="#29ABE2"/>
<stop offset="0.413462" stop-color="#32D3D5"/>
<stop offset="1" stop-color="#29FFC6"/>
</linearGradient>
<linearGradient id="paint1_linear_3086_669" x1="26.5" y1="-5.13493e-07" x2="26.5" y2="15" gradientUnits="userSpaceOnUse">
<stop stop-color="#29ABE2"/>
<stop offset="0.413462" stop-color="#32D3D5"/>
<stop offset="1" stop-color="#29FFC6"/>
</linearGradient>
<linearGradient id="paint2_linear_3086_669" x1="13" y1="7" x2="12.6287" y2="9" gradientUnits="userSpaceOnUse">
<stop stop-color="#29ABE2"/>
<stop offset="0.413462" stop-color="#32D3D5"/>
<stop offset="1" stop-color="#29FFC6"/>
</linearGradient>
<linearGradient id="paint3_linear_3086_669" x1="7.5" y1="5" x2="7.5" y2="10.5" gradientUnits="userSpaceOnUse">
<stop stop-color="#29ABE2"/>
<stop offset="0.413462" stop-color="#32D3D5"/>
<stop offset="1" stop-color="#29FFC6"/>
</linearGradient>
<linearGradient id="paint4_linear_3086_669" x1="20" y1="5.5" x2="19.5" y2="10.5" gradientUnits="userSpaceOnUse">
<stop stop-color="#29ABE2"/>
<stop offset="0.413462" stop-color="#32D3D5"/>
<stop offset="1" stop-color="#29FFC6"/>
</linearGradient>
</defs>
</svg>
