<svg width="172" height="161" viewBox="0 0 172 161" fill="none" xmlns="http://www.w3.org/2000/svg">
<g clip-path="url(#clip0_2813_2458)">
<g clip-path="url(#clip1_2813_2458)">
<g clip-path="url(#clip2_2813_2458)">
<path d="M182.906 102.711L182.536 101.03C179.46 86.5017 174.41 72.4633 167.526 59.3055C160.785 46.4591 152.349 34.5761 142.446 23.975C132.606 16.2971 121.645 10.1773 109.946 5.83005L108.892 5.4358C102.09 2.89455 97.9666 1.3508 91.1218 7.48305C87.4691 10.7463 75.9218 22.3458 80.4153 34.805C82.5101 40.6048 89.5828 48.105 96.1948 47.1551C97.6662 46.9123 99.0511 46.2975 100.218 45.369C101.096 44.6272 102.184 44.1773 103.329 44.0818C104.446 44.0093 105.566 44.1711 106.616 44.5568C108.333 45.1076 110.124 45.3943 111.927 45.4071C113.353 45.4329 114.77 45.1644 116.088 44.6185C116.593 44.3752 117.153 44.2672 117.712 44.305C120.348 44.6991 122.726 46.1069 124.339 48.2285C125.316 49.6063 125.982 51.1805 126.289 52.8416C126.597 54.5027 126.539 56.2108 126.12 57.8473C126.07 58.0414 126.045 58.2408 126.044 58.441V83.9628C120.803 82.1821 115.179 81.8454 109.763 82.9879C104.347 84.1304 99.3389 86.7101 95.2638 90.4561C86.7106 85.7946 76.6751 84.6578 67.2958 87.2878C62.5635 88.5725 58.148 90.8218 54.3265 93.8945C50.5051 96.9672 47.3603 100.797 45.0896 105.143C42.4561 110.567 41.2168 116.563 41.4838 122.586C41.7509 128.61 43.5159 134.472 46.6191 139.642C49.6558 145.034 54.0851 149.511 59.4441 152.605C63.4795 154.523 67.9247 155.418 72.3878 155.213C74.8958 155.213 77.4656 155.042 79.9878 154.809C82.5004 154.497 84.9822 153.974 87.4073 153.246C90.7417 152.004 94.3213 151.563 97.8573 151.959C104.436 153.51 111.261 153.715 117.921 152.562C133.347 149.324 147.95 142.977 160.842 133.909C168.339 129.019 175.092 123.076 180.897 116.263C182.365 114.365 183.32 112.122 183.672 109.749C184.024 107.376 183.76 104.953 182.906 102.711ZM177.135 113.37C171.615 119.787 165.21 125.385 158.111 129.995C145.775 138.68 131.8 144.761 117.038 147.869C111.036 148.904 104.886 148.715 98.9593 147.314C94.6569 146.686 90.266 147.138 86.1818 148.629C84.0214 149.288 81.8097 149.764 79.5698 150.054C73.5691 151.136 67.387 150.557 61.6908 148.382C57.1008 145.71 53.3104 141.858 50.7136 137.225C48.0142 132.745 46.473 127.663 46.2292 122.439C45.9854 117.214 47.0466 112.011 49.3171 107.3C51.2883 103.536 54.0165 100.22 57.3303 97.561C60.6442 94.9019 64.4721 92.9568 68.5736 91.8478C76.415 89.635 84.8042 90.4839 92.0433 94.2228C90.9743 95.6798 90.0754 97.2544 89.3643 98.9158C87.6968 102.95 87.1503 107.36 87.7826 111.679C87.8636 112.244 88.1454 112.761 88.5763 113.135C89.0072 113.509 89.5584 113.716 90.1291 113.717C90.243 113.724 90.3572 113.724 90.4711 113.717C91.0938 113.626 91.6552 113.292 92.0319 112.788C92.4087 112.284 92.5699 111.651 92.4803 111.028C91.9721 107.558 92.4086 104.016 93.7438 100.773C94.7381 98.3881 96.2053 96.2294 98.0568 94.427L98.0901 94.3796C101.92 90.7084 106.777 88.2903 112.015 87.4469C117.253 86.6035 122.623 87.3747 127.412 89.658C127.774 89.8304 128.173 89.9084 128.573 89.8847C128.974 89.861 129.361 89.7364 129.7 89.5226C130.039 89.3088 130.319 89.0126 130.512 88.6617C130.706 88.3108 130.808 87.9166 130.808 87.5158V58.7166C131.345 56.4212 131.383 54.0373 130.918 51.7262C130.453 49.4151 129.497 47.2309 128.115 45.3215C126.906 43.7291 125.388 42.3971 123.652 41.4054C121.916 40.4138 119.997 39.7828 118.012 39.5503C116.772 39.4625 115.53 39.6777 114.392 40.1773C113.63 40.5613 112.777 40.7257 111.927 40.6523C110.569 40.6403 109.221 40.4159 107.932 39.9873C106.32 39.4375 104.616 39.2083 102.916 39.3128C100.936 39.4758 99.0465 40.2156 97.4821 41.4408C96.9207 41.9237 96.2428 42.2512 95.5156 42.3908C91.8296 42.8658 86.4906 37.6408 84.8756 33.1473C82.1063 25.476 87.9203 16.6648 94.2806 10.9838C99.0068 6.76105 100.745 7.4213 107.224 9.8438L108.288 10.2428C114.311 12.4962 120.14 15.2382 125.716 18.4413C130.423 21.1442 134.944 24.1593 139.249 27.4663C148.744 37.7025 156.839 49.1533 163.322 61.519C170.004 74.2886 174.905 87.9131 177.89 102.013L178.28 103.761C179.225 107.95 179.7 110.045 177.135 113.37ZM141.196 120.566C140.643 120.265 139.993 120.196 139.389 120.375C138.786 120.553 138.277 120.963 137.976 121.516C135.156 126.722 130.717 130.867 125.331 133.325C121.709 134.845 117.808 135.589 113.881 135.507C109.953 135.425 106.087 134.52 102.531 132.85C102.247 132.681 101.931 132.574 101.603 132.535C101.275 132.496 100.942 132.526 100.626 132.623C100.31 132.719 100.018 132.881 99.7681 133.097C99.5182 133.313 99.3161 133.579 99.1747 133.877C99.0334 134.176 98.9559 134.501 98.9472 134.831C98.9385 135.161 98.9989 135.49 99.1243 135.795C99.2498 136.101 99.4376 136.377 99.6758 136.606C99.9141 136.835 100.197 137.012 100.508 137.125C104.981 139.17 109.839 140.241 114.758 140.265C119.058 140.276 123.312 139.378 127.241 137.628C133.578 134.741 138.802 129.869 142.123 123.749C142.413 123.202 142.479 122.564 142.306 121.969C142.133 121.375 141.735 120.871 141.196 120.566Z" fill="#F5F5F5"/>
</g>
</g>
</g>
<defs>
<clipPath id="clip0_2813_2458">
<rect width="172" height="161" fill="white"/>
</clipPath>
<clipPath id="clip1_2813_2458">
<rect width="162.247" height="161.702" fill="white" transform="translate(36.6064 3.21289)"/>
</clipPath>
<clipPath id="clip2_2813_2458">
<rect width="152" height="152" fill="white" transform="translate(36.6064 3.21289)"/>
</clipPath>
</defs>
</svg>
