<svg width="18" height="19" viewBox="0 0 18 19" fill="none" xmlns="http://www.w3.org/2000/svg">
<path d="M16.696 11.9214C16.5581 11.7836 16.3712 11.7061 16.1762 11.7061C15.9812 11.7061 15.7942 11.7836 15.6564 11.9214L13.2351 14.3427V2.88273C13.2351 2.68773 13.1576 2.50071 13.0198 2.36282C12.8819 2.22493 12.6948 2.14746 12.4998 2.14746C12.3048 2.14746 12.1178 2.22493 11.9799 2.36282C11.842 2.50071 11.7646 2.68773 11.7646 2.88273V14.3427L9.34333 11.9214C9.20465 11.7875 9.01892 11.7134 8.82614 11.715C8.63335 11.7167 8.44894 11.794 8.31261 11.9304C8.17629 12.0667 8.09896 12.2511 8.09728 12.4439C8.09561 12.6367 8.16972 12.8224 8.30366 12.9611L11.98 16.6374C12.0483 16.7059 12.1294 16.7602 12.2188 16.7973C12.3081 16.8344 12.4039 16.8534 12.5006 16.8534C12.5973 16.8534 12.6931 16.8344 12.7824 16.7973C12.8717 16.7602 12.9528 16.7059 13.0211 16.6374L16.6975 12.9611C16.8351 12.823 16.9123 12.6359 16.912 12.4409C16.9118 12.246 16.8341 12.0591 16.696 11.9214ZM9.34333 6.03925L5.66698 2.3629C5.5985 2.29428 5.517 2.24003 5.42728 2.20334C5.24741 2.12899 5.0454 2.12899 4.86553 2.20334C4.77581 2.24003 4.69431 2.29428 4.62583 2.3629L0.949483 6.03925C0.811614 6.17731 0.734237 6.36449 0.734375 6.5596C0.734513 6.75472 0.812154 6.94178 0.950218 7.07965C1.08828 7.21752 1.27546 7.2949 1.47057 7.29476C1.66569 7.29462 1.85276 7.21698 1.99063 7.07892L4.41187 4.65767V16.1176C4.41187 16.3126 4.48934 16.4996 4.62723 16.6375C4.76512 16.7754 4.95213 16.8529 5.14714 16.8529C5.34215 16.8529 5.52917 16.7754 5.66706 16.6375C5.80494 16.4996 5.88241 16.3126 5.88241 16.1176V4.65767L8.30366 7.07892C8.44233 7.21285 8.62806 7.28696 8.82085 7.28529C9.01363 7.28361 9.19805 7.20629 9.33437 7.06996C9.4707 6.93364 9.54802 6.74922 9.5497 6.55644C9.55137 6.36365 9.47726 6.17792 9.34333 6.03925Z" fill="#757575"/>
</svg>
