<svg width="18" height="18" viewBox="0 0 18 18" fill="none" xmlns="http://www.w3.org/2000/svg">
<path d="M7.99683 5.74975V9.42976C7.99683 9.77976 8.18683 10.1098 8.48683 10.2898L11.6068 12.1398C11.9668 12.3498 12.4268 12.2298 12.6368 11.8798C12.8468 11.5198 12.7368 11.0598 12.3768 10.8498L9.50683 9.13976V5.73975C9.49683 5.33975 9.15683 4.99975 8.74683 4.99975C8.33683 4.99975 7.99683 5.33975 7.99683 5.74975ZM17.9968 6.49975V1.20975C17.9968 0.759754 17.4568 0.539754 17.1468 0.859754L15.3668 2.63975C13.5568 0.829754 10.9768 -0.210246 8.15683 0.0397544C3.96683 0.419754 0.516833 3.78975 0.0568334 7.97975C-0.543167 13.3998 3.68683 17.9998 8.99683 17.9998C13.5868 17.9998 17.3768 14.5598 17.9268 10.1198C17.9968 9.51975 17.5268 8.99975 16.9268 8.99975C16.4268 8.99975 16.0068 9.36975 15.9468 9.85975C15.5168 13.3498 12.5068 16.0498 8.89683 15.9998C5.18683 15.9498 2.05683 12.8198 1.99683 9.09976C1.93683 5.19976 5.10683 1.99975 8.99683 1.99975C10.9268 1.99975 12.6768 2.78975 13.9468 4.04975L11.8568 6.13975C11.5368 6.45975 11.7568 6.99975 12.2068 6.99975H17.4968C17.7768 6.99975 17.9968 6.77975 17.9968 6.49975Z" fill="#757575"/>
</svg>
