<svg width="42" height="42" viewBox="0 0 42 42" fill="none" xmlns="http://www.w3.org/2000/svg">
<path fill-rule="evenodd" clip-rule="evenodd" d="M8.58065 10.2628C8.58065 7.54095 9.6784 4.93056 11.6324 3.00591C13.5864 1.08126 16.2366 0 19 0C21.7634 0 24.4136 1.08126 26.3676 3.00591C28.3216 4.93056 29.4194 7.54095 29.4194 10.2628C29.4194 12.9847 28.3216 15.5951 26.3676 17.5197C24.4136 19.4444 21.7634 20.5256 19 20.5256C16.2366 20.5256 13.5864 19.4444 11.6324 17.5197C9.6784 15.5951 8.58065 12.9847 8.58065 10.2628ZM19 3.62217C17.2119 3.62217 15.4971 4.32181 14.2327 5.56717C12.9684 6.81253 12.2581 8.50161 12.2581 10.2628C12.2581 12.024 12.9684 13.7131 14.2327 14.9585C15.4971 16.2038 17.2119 16.9035 19 16.9035C20.7881 16.9035 22.5029 16.2038 23.7673 14.9585C25.0316 13.7131 25.7419 12.024 25.7419 10.2628C25.7419 8.50161 25.0316 6.81253 23.7673 5.56717C22.5029 4.32181 20.7881 3.62217 19 3.62217ZM0 33.2032C0 30.8016 0.968603 28.4983 2.69273 26.8001C4.41685 25.1019 6.75527 24.1478 9.19355 24.1478H10.0271C10.4847 24.1494 10.9293 24.2186 11.3608 24.3555L13.4839 25.0389C17.0682 26.1914 20.9318 26.1914 24.5161 25.0389L26.6392 24.3555C27.0683 24.2178 27.5194 24.1478 27.9705 24.1478H28.8065C31.2447 24.1478 33.5831 25.1019 35.3073 26.8001C37.0314 28.4983 38 30.8016 38 33.2032V36.072C38 37.8927 36.6614 39.443 34.8374 39.7352C24.3485 41.4216 13.6515 41.4216 3.16258 39.7352C2.28045 39.5923 1.47844 39.1456 0.899304 38.4748C0.32017 37.804 0.00149346 36.9526 0 36.072V33.2032ZM9.19355 27.77C7.73058 27.77 6.32753 28.3424 5.29306 29.3613C4.25858 30.3803 3.67742 31.7623 3.67742 33.2032V36.072C3.67742 36.1155 3.70929 36.1541 3.75342 36.1613C13.8516 37.7841 24.1508 37.7841 34.2466 36.1613C34.2674 36.1566 34.2861 36.1454 34.2998 36.1292C34.3135 36.1131 34.3215 36.093 34.3226 36.072V33.2032C34.3226 31.7623 33.7414 30.3803 32.7069 29.3613C31.6725 28.3424 30.2694 27.77 28.8065 27.77H27.9729C27.9073 27.7711 27.8422 27.7808 27.7792 27.799L25.6586 28.4823C21.3319 29.8739 16.6681 29.8739 12.3414 28.4823L10.2183 27.799C10.1569 27.7813 10.0935 27.7715 10.0295 27.77H9.19355Z" fill="#B3B3B3"/>
</svg>
