<svg width="15" height="16" viewBox="0 0 15 16" fill="none" xmlns="http://www.w3.org/2000/svg">
<path fill-rule="evenodd" clip-rule="evenodd" d="M3.26882 3.90965C3.26882 2.87274 3.68701 1.87831 4.43139 1.14511C5.17578 0.411908 6.18538 0 7.2381 0C8.29081 0 9.30042 0.411908 10.0448 1.14511C10.7892 1.87831 11.2074 2.87274 11.2074 3.90965C11.2074 4.94655 10.7892 5.94098 10.0448 6.67418C9.30042 7.40738 8.29081 7.81929 7.2381 7.81929C6.18538 7.81929 5.17578 7.40738 4.43139 6.67418C3.68701 5.94098 3.26882 4.94655 3.26882 3.90965ZM7.2381 1.37987C6.55692 1.37987 5.90365 1.6464 5.42199 2.12083C4.94033 2.59525 4.66974 3.23871 4.66974 3.90965C4.66974 4.58058 4.94033 5.22404 5.42199 5.69846C5.90365 6.17289 6.55692 6.43942 7.2381 6.43942C7.91927 6.43942 8.57254 6.17289 9.0542 5.69846C9.53586 5.22404 9.80645 4.58058 9.80645 3.90965C9.80645 3.23871 9.53586 2.59525 9.0542 2.12083C8.57254 1.6464 7.91927 1.37987 7.2381 1.37987ZM0 12.6489C0 11.7339 0.368992 10.8565 1.0258 10.2096C1.68261 9.56261 2.57344 9.19917 3.5023 9.19917H3.81985C3.99418 9.19978 4.16354 9.22615 4.32791 9.27828L5.13671 9.53861C6.50217 9.97769 7.97402 9.97769 9.33948 9.53861L10.1483 9.27828C10.3117 9.22584 10.4836 9.19917 10.6554 9.19917H10.9739C11.9028 9.19917 12.7936 9.56261 13.4504 10.2096C14.1072 10.8565 14.4762 11.7339 14.4762 12.6489V13.7417C14.4762 14.4353 13.9663 15.0259 13.2714 15.1372C9.27564 15.7797 5.20055 15.7797 1.20479 15.1372C0.868743 15.0828 0.563214 14.9126 0.342592 14.6571C0.12197 14.4015 0.000568938 14.0772 0 13.7417V12.6489ZM3.5023 10.579C2.94498 10.579 2.41049 10.7971 2.0164 11.1853C1.62232 11.5734 1.40092 12.0999 1.40092 12.6489V13.7417C1.40092 13.7583 1.41306 13.773 1.42987 13.7758C5.27681 14.3939 9.20032 14.3939 13.0463 13.7758C13.0542 13.774 13.0614 13.7697 13.0666 13.7635C13.0718 13.7574 13.0749 13.7497 13.0753 13.7417V12.6489C13.0753 12.0999 12.8539 11.5734 12.4598 11.1853C12.0657 10.7971 11.5312 10.579 10.9739 10.579H10.6563C10.6314 10.5795 10.6065 10.5832 10.5826 10.5901L9.7747 10.8504C8.12645 11.3805 6.34974 11.3805 4.70149 10.8504L3.89269 10.5901C3.86931 10.5833 3.84514 10.5796 3.82078 10.579H3.5023Z" fill="black"/>
</svg>
