<svg width="23" height="21" viewBox="0 0 23 21" fill="none" xmlns="http://www.w3.org/2000/svg">
<path d="M10.9167 6.09912L20.125 6.09912C20.556 6.09912 20.9693 6.27033 21.274 6.57507C21.5788 6.87982 21.75 7.29314 21.75 7.72412C21.75 8.1551 21.5788 8.56842 21.274 8.87317C20.9693 9.17792 20.556 9.34912 20.125 9.34912H12M12.5417 9.34912H14.7083C15.1393 9.34912 15.5526 9.52033 15.8574 9.82507C16.1621 10.1298 16.3333 10.5431 16.3333 10.9741C16.3333 11.4051 16.1621 11.8184 15.8574 12.1232C15.5526 12.4279 15.1393 12.5991 14.7083 12.5991H12M13.625 12.5991C14.056 12.5991 14.4693 12.7703 14.774 13.0751C15.0788 13.3798 15.25 13.7931 15.25 14.2241C15.25 14.6551 15.0788 15.0684 14.774 15.3732C14.4693 15.6779 14.056 15.8491 13.625 15.8491H12" stroke="#29ABE2" stroke-width="2" stroke-linecap="round" stroke-linejoin="round"/>
<path d="M12.542 15.849C12.973 15.849 13.3863 16.0202 13.691 16.3249C13.9958 16.6297 14.167 17.043 14.167 17.474C14.167 17.905 13.9958 18.3183 13.691 18.623C13.3863 18.9278 12.973 19.099 12.542 19.099H7.66699C5.94308 19.099 4.28978 18.4142 3.0708 17.1952C1.85181 15.9762 1.16699 14.3229 1.16699 12.599V10.4323V10.6577C1.16681 9.58119 1.43398 8.52153 1.94452 7.57383C2.45505 6.62612 3.19296 5.82005 4.09199 5.22799L4.41699 5.01566C4.93555 4.67766 7.00399 3.49105 10.6223 1.45583C10.9912 1.24832 11.4264 1.19288 11.8355 1.30132C12.2446 1.40977 12.5952 1.67352 12.8128 2.03649C13.0442 2.42328 13.1401 2.87619 13.0851 3.32356C13.0302 3.77093 12.8276 4.1872 12.5095 4.50649L10.917 6.09899" stroke="#29ABE2" stroke-width="2" stroke-linecap="round" stroke-linejoin="round"/>
</svg>
