<svg width="17" height="24" viewBox="0 0 17 24" fill="none" xmlns="http://www.w3.org/2000/svg">
<path d="M5.34375 8.44434C5.75443 8.44512 6.15664 8.56243 6.50293 8.7832C6.84923 9.004 7.12579 9.31939 7.2998 9.69141C7.43081 9.97446 7.30849 10.3082 7.02734 10.4375C6.74436 10.5686 6.41063 10.447 6.2793 10.166C6.11055 9.80414 5.74312 9.56934 5.34375 9.56934C4.77563 9.56934 4.3125 10.0325 4.3125 10.6006V14.5381C4.31282 14.7631 4.38655 14.9818 4.52246 15.1611C4.6585 15.3405 4.84971 15.4712 5.06641 15.5322C5.36438 15.6167 5.54041 15.9257 5.45605 16.2256C5.41539 16.369 5.31943 16.4904 5.18945 16.5635C5.05953 16.6364 4.9063 16.655 4.7627 16.6152C4.44209 16.5252 4.15706 16.3642 3.91895 16.1523C3.52707 16.7055 2.88375 17.0693 2.15625 17.0693C0.9675 17.0693 0 16.1018 0 14.9131V11.3506C0 10.1618 0.9675 9.19434 2.15625 9.19434C2.6325 9.19434 3.07344 9.35176 3.42969 9.61426C3.78785 8.92061 4.51133 8.44434 5.34375 8.44434ZM2.15625 10.3193C1.58812 10.3193 1.125 10.7825 1.125 11.3506V14.9131C1.125 15.4812 1.58812 15.9443 2.15625 15.9443C2.72438 15.9443 3.1875 15.4812 3.1875 14.9131V11.3506C3.1875 10.7825 2.72438 10.3193 2.15625 10.3193Z" fill="#757575"/>
<path d="M5.34375 8.44434C5.75443 8.44512 6.15664 8.56243 6.50293 8.7832C6.84923 9.004 7.12579 9.31939 7.2998 9.69141C7.43081 9.97446 7.30849 10.3082 7.02734 10.4375C6.74436 10.5686 6.41063 10.447 6.2793 10.166C6.11055 9.80414 5.74312 9.56934 5.34375 9.56934C4.77563 9.56934 4.3125 10.0325 4.3125 10.6006V14.5381C4.31282 14.7631 4.38655 14.9818 4.52246 15.1611C4.6585 15.3405 4.84971 15.4712 5.06641 15.5322C5.36438 15.6167 5.54041 15.9257 5.45605 16.2256C5.41539 16.369 5.31943 16.4904 5.18945 16.5635C5.05953 16.6364 4.9063 16.655 4.7627 16.6152C4.44209 16.5252 4.15706 16.3642 3.91895 16.1523C3.52707 16.7055 2.88375 17.0693 2.15625 17.0693C0.9675 17.0693 0 16.1018 0 14.9131V11.3506C0 10.1618 0.9675 9.19434 2.15625 9.19434C2.6325 9.19434 3.07344 9.35176 3.42969 9.61426C3.78785 8.92061 4.51133 8.44434 5.34375 8.44434ZM2.15625 10.3193C1.58812 10.3193 1.125 10.7825 1.125 11.3506V14.9131C1.125 15.4812 1.58812 15.9443 2.15625 15.9443C2.72438 15.9443 3.1875 15.4812 3.1875 14.9131V11.3506C3.1875 10.7825 2.72438 10.3193 2.15625 10.3193Z" stroke="white"/>
<path d="M6.98828 11.6133C7.54509 11.4652 8.12629 11.5404 8.625 11.8291L13.1719 14.4541C13.5023 14.6455 13.7764 14.9213 13.9658 15.2529C14.1551 15.5845 14.2531 15.96 14.25 16.3418V16.6943C14.25 20.6225 11.0531 23.8193 7.125 23.8193C3.96784 23.8191 1.15415 21.7025 0.280273 18.6748C0.238999 18.5316 0.256041 18.3775 0.328125 18.2471C0.400207 18.1166 0.520867 18.0198 0.664062 17.9785C0.807279 17.9372 0.961342 17.9553 1.0918 18.0273C1.22208 18.0995 1.31814 18.2202 1.35938 18.3633C2.09621 20.9131 4.46642 22.6942 7.125 22.6943C10.4344 22.6943 13.125 20.0037 13.125 16.6943V16.3359C13.1271 16.1524 13.0808 15.9712 12.9902 15.8115C12.8997 15.6519 12.7679 15.5191 12.6094 15.4268L8.0625 12.8018C7.94557 12.7341 7.81655 12.6896 7.68262 12.6719C7.54847 12.6542 7.41192 12.6641 7.28125 12.6992C7.15031 12.7337 7.02741 12.7936 6.91992 12.876C6.8125 12.9583 6.72264 13.0613 6.65527 13.1787C6.37033 13.6717 6.54024 14.3037 7.03125 14.5869L10.1006 16.3584C10.3706 16.514 10.4632 16.8579 10.3076 17.1279C10.2329 17.2569 10.1098 17.351 9.96582 17.3896C9.8217 17.4283 9.66742 17.4084 9.53809 17.334L6.46875 15.5635C5.43973 14.969 5.08544 13.6474 5.67969 12.6182C5.96839 12.1195 6.4334 11.7633 6.98828 11.6133Z" fill="#757575"/>
<path d="M6.98828 11.6133C7.54509 11.4652 8.12629 11.5404 8.625 11.8291L13.1719 14.4541C13.5023 14.6455 13.7764 14.9213 13.9658 15.2529C14.1551 15.5845 14.2531 15.96 14.25 16.3418V16.6943C14.25 20.6225 11.0531 23.8193 7.125 23.8193C3.96784 23.8191 1.15415 21.7025 0.280273 18.6748C0.238999 18.5316 0.256041 18.3775 0.328125 18.2471C0.400207 18.1166 0.520867 18.0198 0.664062 17.9785C0.807279 17.9372 0.961342 17.9553 1.0918 18.0273C1.22208 18.0995 1.31814 18.2202 1.35938 18.3633C2.09621 20.9131 4.46642 22.6942 7.125 22.6943C10.4344 22.6943 13.125 20.0037 13.125 16.6943V16.3359C13.1271 16.1524 13.0808 15.9712 12.9902 15.8115C12.8997 15.6519 12.7679 15.5191 12.6094 15.4268L8.0625 12.8018C7.94557 12.7341 7.81655 12.6896 7.68262 12.6719C7.54847 12.6542 7.41192 12.6641 7.28125 12.6992C7.15031 12.7337 7.02741 12.7936 6.91992 12.876C6.8125 12.9583 6.72264 13.0613 6.65527 13.1787C6.37033 13.6717 6.54024 14.3037 7.03125 14.5869L10.1006 16.3584C10.3706 16.514 10.4632 16.8579 10.3076 17.1279C10.2329 17.2569 10.1098 17.351 9.96582 17.3896C9.8217 17.4283 9.66742 17.4084 9.53809 17.334L6.46875 15.5635C5.43973 14.969 5.08544 13.6474 5.67969 12.6182C5.96839 12.1195 6.4334 11.7633 6.98828 11.6133Z" stroke="white"/>
<path d="M0.5625 14.3506C0.87364 14.3506 1.12482 14.602 1.125 14.9131C1.125 15.4812 1.58812 15.9443 2.15625 15.9443C2.46739 15.9443 2.71857 16.1957 2.71875 16.5068C2.71875 16.8181 2.4675 17.0693 2.15625 17.0693C0.9675 17.0693 0 16.1018 0 14.9131C0.000177501 14.602 0.25136 14.3506 0.5625 14.3506ZM7.51855 0.200195C8.69597 0.0408314 9.78582 0.869505 9.94531 2.04688L10.6973 7.60059L11.8779 2.12207C11.9373 1.84514 12.0508 1.58253 12.2119 1.34961C12.3731 1.11666 12.5791 0.917844 12.8174 0.764648C13.3011 0.451523 13.8789 0.346875 14.4414 0.46875C14.7183 0.528154 14.981 0.641564 15.2139 0.802734C15.4468 0.963933 15.6457 1.16993 15.7988 1.4082C16.1099 1.89183 16.2146 2.46894 16.0928 3.03125L14.25 11.5869V12.9746C14.25 13.2859 13.9987 13.5371 13.6875 13.5371C13.3763 13.5371 13.125 13.2859 13.125 12.9746V11.5273C13.125 11.488 13.1284 11.4485 13.1396 11.4092L14.9961 2.79492C15.1159 2.2382 14.7599 1.68937 14.2051 1.56934C13.9351 1.50934 13.6593 1.55996 13.4287 1.70996C13.3148 1.78297 13.2165 1.87793 13.1396 1.98926C13.0627 2.10061 13.0084 2.22599 12.9805 2.3584L11.1221 10.9717H11.1211C11.0973 11.0847 11.0387 11.188 10.9541 11.2666C10.8696 11.3451 10.7628 11.3957 10.6484 11.4111C10.5752 11.4213 10.5003 11.4162 10.4287 11.3975C10.3573 11.3787 10.2902 11.3464 10.2314 11.3018C10.1726 11.257 10.1231 11.2007 10.0859 11.1367C10.0488 11.0728 10.0244 11.002 10.0146 10.9287L8.83105 2.19727C8.75419 1.63484 8.23332 1.23771 7.6709 1.31445C7.10843 1.39132 6.7103 1.91028 6.78711 2.47461L7.42285 7.16797C7.43278 7.24104 7.42887 7.31539 7.41016 7.38672C7.39137 7.45808 7.3581 7.52521 7.31348 7.58398C7.26877 7.64278 7.21321 7.69323 7.14941 7.73047C7.08559 7.76769 7.01461 7.79177 6.94141 7.80176C6.86815 7.81173 6.79317 7.80691 6.72168 7.78809C6.65031 7.76925 6.58318 7.73609 6.52441 7.69141C6.46571 7.6467 6.41608 7.59109 6.37891 7.52734C6.34168 7.4635 6.31759 7.39257 6.30762 7.31934L5.67188 2.62695C5.51251 1.44951 6.34115 0.359656 7.51855 0.200195Z" fill="#757575"/>
<path d="M0.5625 14.3506C0.87364 14.3506 1.12482 14.602 1.125 14.9131C1.125 15.4812 1.58812 15.9443 2.15625 15.9443C2.46739 15.9443 2.71857 16.1957 2.71875 16.5068C2.71875 16.8181 2.4675 17.0693 2.15625 17.0693C0.9675 17.0693 0 16.1018 0 14.9131C0.000177501 14.602 0.25136 14.3506 0.5625 14.3506ZM7.51855 0.200195C8.69597 0.0408314 9.78582 0.869505 9.94531 2.04688L10.6973 7.60059L11.8779 2.12207C11.9373 1.84514 12.0508 1.58253 12.2119 1.34961C12.3731 1.11666 12.5791 0.917844 12.8174 0.764648C13.3011 0.451523 13.8789 0.346875 14.4414 0.46875C14.7183 0.528154 14.981 0.641564 15.2139 0.802734C15.4468 0.963933 15.6457 1.16993 15.7988 1.4082C16.1099 1.89183 16.2146 2.46894 16.0928 3.03125L14.25 11.5869V12.9746C14.25 13.2859 13.9987 13.5371 13.6875 13.5371C13.3763 13.5371 13.125 13.2859 13.125 12.9746V11.5273C13.125 11.488 13.1284 11.4485 13.1396 11.4092L14.9961 2.79492C15.1159 2.2382 14.7599 1.68937 14.2051 1.56934C13.9351 1.50934 13.6593 1.55996 13.4287 1.70996C13.3148 1.78297 13.2165 1.87793 13.1396 1.98926C13.0627 2.10061 13.0084 2.22599 12.9805 2.3584L11.1221 10.9717H11.1211C11.0973 11.0847 11.0387 11.188 10.9541 11.2666C10.8696 11.3451 10.7628 11.3957 10.6484 11.4111C10.5752 11.4213 10.5003 11.4162 10.4287 11.3975C10.3573 11.3787 10.2902 11.3464 10.2314 11.3018C10.1726 11.257 10.1231 11.2007 10.0859 11.1367C10.0488 11.0728 10.0244 11.002 10.0146 10.9287L8.83105 2.19727C8.75419 1.63484 8.23332 1.23771 7.6709 1.31445C7.10843 1.39132 6.7103 1.91028 6.78711 2.47461L7.42285 7.16797C7.43278 7.24104 7.42887 7.31539 7.41016 7.38672C7.39137 7.45808 7.3581 7.52521 7.31348 7.58398C7.26877 7.64278 7.21321 7.69323 7.14941 7.73047C7.08559 7.76769 7.01461 7.79177 6.94141 7.80176C6.86815 7.81173 6.79317 7.80691 6.72168 7.78809C6.65031 7.76925 6.58318 7.73609 6.52441 7.69141C6.46571 7.6467 6.41608 7.59109 6.37891 7.52734C6.34168 7.4635 6.31759 7.39257 6.30762 7.31934L5.67188 2.62695C5.51251 1.44951 6.34115 0.359656 7.51855 0.200195Z" stroke="white"/>
</svg>
