<svg width="17" height="24" viewBox="0 0 17 24" fill="none" xmlns="http://www.w3.org/2000/svg">
<path d="M7.29938 9.69121C7.12536 9.31919 6.84906 9.00439 6.50275 8.78359C6.15645 8.56279 5.75445 8.44512 5.34375 8.44434C4.51125 8.44434 3.7875 8.92059 3.42938 9.61434C3.07313 9.35184 2.6325 9.19434 2.15625 9.19434C0.9675 9.19434 0 10.1618 0 11.3506V14.9131C0 16.1018 0.9675 17.0693 2.15625 17.0693C2.88375 17.0693 3.52688 16.7056 3.91875 16.1525C4.15688 16.3643 4.44188 16.5256 4.7625 16.6156C4.9062 16.6554 5.05983 16.6368 5.18982 16.5637C5.31981 16.4906 5.41559 16.3691 5.45625 16.2256C5.54062 15.9256 5.36438 15.6162 5.06625 15.5318C4.84955 15.4708 4.65869 15.3408 4.52264 15.1614C4.3866 14.9821 4.31282 14.7632 4.3125 14.5381V10.6006C4.3125 10.0325 4.77563 9.56934 5.34375 9.56934C5.74312 9.56934 6.11063 9.80371 6.27938 10.1656C6.41063 10.4468 6.74437 10.5687 7.0275 10.4375C7.30875 10.3081 7.43062 9.97434 7.29938 9.69121ZM3.1875 14.9131C3.1875 15.4812 2.72438 15.9443 2.15625 15.9443C1.58812 15.9443 1.125 15.4812 1.125 14.9131V11.3506C1.125 10.7825 1.58812 10.3193 2.15625 10.3193C2.72438 10.3193 3.1875 10.7825 3.1875 11.3506V14.9131Z" fill="#757575"/>
<path d="M7.12542 23.8194C3.96792 23.8194 1.15354 21.7025 0.279792 18.6744C0.238517 18.5312 0.255826 18.3774 0.32791 18.247C0.399995 18.1165 0.52095 18.0201 0.664167 17.9788C0.807384 17.9375 0.961131 17.9548 1.09159 18.0269C1.22204 18.099 1.31852 18.2199 1.35979 18.3632C2.09667 20.9132 4.46667 22.6944 7.12542 22.6944C10.4348 22.6944 13.1254 20.0038 13.1254 16.6944V16.3363C13.1276 16.1526 13.081 15.9717 12.9904 15.812C12.8998 15.6522 12.7685 15.5193 12.6098 15.4269L8.06292 12.8019C7.94581 12.7341 7.81645 12.69 7.68227 12.6723C7.54809 12.6546 7.41174 12.6636 7.28104 12.6988C7.15007 12.7333 7.02726 12.7935 6.91975 12.8759C6.81224 12.9583 6.72218 13.0613 6.65479 13.1788C6.36979 13.6719 6.54042 14.3038 7.03167 14.5869L10.101 16.3588C10.371 16.5144 10.4629 16.8575 10.3073 17.1275C10.2326 17.2567 10.1097 17.351 9.96557 17.3896C9.82145 17.4283 9.66787 17.4082 9.53854 17.3338L6.46917 15.5638C5.43979 14.9694 5.08542 13.6475 5.67979 12.6182C5.96854 12.1194 6.43354 11.7632 6.98854 11.6132C7.54542 11.465 8.12667 11.54 8.62542 11.8288L13.1723 14.4538C13.5028 14.6452 13.7766 14.9208 13.966 15.2525C14.1554 15.5841 14.2535 15.96 14.2504 16.3419V16.6944C14.2504 20.6225 11.0535 23.8194 7.12542 23.8194Z" fill="#757575"/>
<path d="M2.15625 17.0697C0.9675 17.0697 0 16.1022 0 14.9134C0 14.6022 0.25125 14.3509 0.5625 14.3509C0.87375 14.3509 1.125 14.6022 1.125 14.9134C1.125 15.4815 1.58812 15.9447 2.15625 15.9447C2.4675 15.9447 2.71875 16.1959 2.71875 16.5072C2.71875 16.8184 2.4675 17.0697 2.15625 17.0697ZM15.7987 1.40779C15.6455 1.16948 15.4467 0.963802 15.2138 0.802589C14.9808 0.641377 14.7183 0.527809 14.4412 0.468417C13.8787 0.346542 13.3013 0.451542 12.8175 0.764667C12.5792 0.91787 12.3735 1.11667 12.2123 1.34964C12.0511 1.58261 11.9375 1.84515 11.8781 2.12217L10.6969 7.60092L9.945 2.04717C9.78563 0.869667 8.69625 0.0409175 7.51875 0.200292C6.34125 0.359667 5.5125 1.44904 5.67188 2.62654L6.3075 7.31967C6.31747 7.39292 6.34178 7.46349 6.37902 7.52735C6.41627 7.59121 6.46573 7.64711 6.52458 7.69186C6.58343 7.7366 6.65051 7.76932 6.722 7.78814C6.7935 7.80696 6.868 7.81151 6.94125 7.80154C7.0145 7.79157 7.08507 7.76727 7.14894 7.73002C7.2128 7.69278 7.26869 7.64332 7.31344 7.58447C7.35819 7.52562 7.3909 7.45853 7.40972 7.38704C7.42854 7.31554 7.4331 7.24104 7.42313 7.16779L6.7875 2.47467C6.71063 1.91029 7.10812 1.39092 7.67062 1.31404C8.23312 1.23717 8.75437 1.63467 8.83125 2.19717L10.0144 10.929C10.0242 11.0024 10.0484 11.073 10.0856 11.137C10.1227 11.2009 10.1722 11.2569 10.2311 11.3017C10.29 11.3465 10.3571 11.3792 10.4287 11.3979C10.5003 11.4167 10.5748 11.4211 10.6481 11.4109C10.7626 11.3956 10.8694 11.3451 10.954 11.2666C11.0387 11.188 11.0969 11.0852 11.1206 10.9722H11.1225L12.9806 2.35842C13.0086 2.22597 13.0626 2.1004 13.1395 1.98903C13.2165 1.87765 13.3148 1.78269 13.4288 1.70967C13.6594 1.55967 13.935 1.50904 14.205 1.56904C14.76 1.68904 15.1163 2.23842 14.9963 2.79529L13.14 11.409C13.1288 11.4484 13.125 11.4878 13.125 11.5272V12.9747C13.125 13.2859 13.3763 13.5372 13.6875 13.5372C13.9987 13.5372 14.25 13.2859 14.25 12.9747V11.5872L16.0931 3.03154C16.215 2.46904 16.11 1.89154 15.7987 1.40779Z" fill="#757575"/>
</svg>
