<svg width="36" height="34" viewBox="0 0 36 34" fill="none" xmlns="http://www.w3.org/2000/svg">
<ellipse cx="18.2254" cy="17" rx="17.3094" ry="17" fill="#EDE74E" fill-opacity="0.32"/>
<mask id="mask0_5795_2194" style="mask-type:alpha" maskUnits="userSpaceOnUse" x="0" y="0" width="36" height="34">
<path d="M35.5329 17C35.5329 26.3888 27.7832 34 18.2235 34C8.66375 34 0.914062 26.3888 0.914062 17C0.914062 7.61116 8.66375 0 18.2235 0C27.7832 0 35.5329 7.61116 35.5329 17Z" fill="#D4F2FF"/>
<path d="M35.5329 17C35.5329 26.3888 27.7832 34 18.2235 34C8.66375 34 0.914062 26.3888 0.914062 17C0.914062 7.61116 8.66375 0 18.2235 0C27.7832 0 35.5329 7.61116 35.5329 17Z" fill="#42C1F8"/>
<path d="M35.5329 17C35.5329 26.3888 27.7832 34 18.2235 34C8.66375 34 0.914062 26.3888 0.914062 17C0.914062 7.61116 8.66375 0 18.2235 0C27.7832 0 35.5329 7.61116 35.5329 17Z" fill="#BF3737" fill-opacity="0.2"/>
</mask>
<g mask="url(#mask0_5795_2194)">
<path d="M25.4602 13.6392C25.4602 13.6392 26.6484 8.78482 25.4602 7.13903C24.272 5.496 23.7996 4.40065 21.187 3.61648C18.5744 2.83231 19.5264 2.98859 17.6267 3.06881C15.727 3.14902 14.1433 4.16554 14.1433 4.7146C14.1433 4.7146 12.9551 4.79205 12.4826 5.26227C12.0074 5.7325 11.2162 7.9232 11.2162 8.47087C11.2162 9.01855 11.6118 12.7029 12.0074 13.4843L11.5363 13.642C11.1393 18.1824 13.1158 18.7315 13.1158 18.7315C13.8287 22.9608 14.5416 21.1601 14.5416 22.2554C14.5416 23.3508 13.8287 22.9608 13.8287 22.9608C13.8287 22.9608 13.1969 24.6826 11.6146 25.3091C10.0322 25.9356 1.24817 29.3005 0.533871 30.0058C-0.181824 30.7112 -0.100749 34 -0.100749 34H37.5669C37.5669 34 37.6508 30.7126 36.9351 30.0058C36.2222 29.3005 27.4367 25.9342 25.8544 25.3091C24.272 24.6826 23.6402 22.9608 23.6402 22.9608C23.6402 22.9608 22.9273 23.3508 22.9273 22.2554C22.9273 21.1601 23.6402 22.9608 24.3531 18.7315C24.3531 18.7315 26.3282 18.1824 25.9327 13.642H25.4574L25.4602 13.6392Z" fill="#EDE74E"/>
</g>
</svg>
