<svg width="17" height="17" viewBox="0 0 17 17" fill="none" xmlns="http://www.w3.org/2000/svg">
<path d="M6.43484 10.1515C6.35942 10.0793 6.25714 10.0388 6.15049 10.0388C6.04384 10.0388 5.94156 10.0793 5.86613 10.1515L3.33468 12.5728V10.4238C3.33468 10.3218 3.2923 10.2239 3.21687 10.1518C3.14145 10.0796 3.03915 10.0391 2.93247 10.0391C2.8258 10.0391 2.7235 10.0796 2.64808 10.1518C2.57265 10.2239 2.53027 10.3218 2.53027 10.4238V13.5015C2.53027 13.6036 2.57265 13.7014 2.64808 13.7736C2.7235 13.8457 2.8258 13.8863 2.93247 13.8863H6.15009C6.25676 13.8863 6.35906 13.8457 6.43449 13.7736C6.50991 13.7014 6.55229 13.6036 6.55229 13.5015C6.55229 13.3995 6.50991 13.3017 6.43449 13.2295C6.35906 13.1574 6.25676 13.1168 6.15009 13.1168H3.90339L6.43404 10.6962C6.47155 10.6605 6.50133 10.6181 6.52167 10.5714C6.54202 10.5247 6.55253 10.4746 6.5526 10.424C6.55268 10.3734 6.54232 10.3233 6.52211 10.2765C6.5019 10.2297 6.47225 10.1872 6.43484 10.1515ZM13.5434 3.1435C13.4945 3.12465 13.4424 3.11474 13.3897 3.11426H10.1721C10.0654 3.11426 9.96313 3.15479 9.8877 3.22694C9.81227 3.29909 9.7699 3.39694 9.7699 3.49897C9.7699 3.601 9.81227 3.69886 9.8877 3.77101C9.96313 3.84315 10.0654 3.88369 10.1721 3.88369H12.4188L9.88815 6.30431C9.85075 6.34003 9.82108 6.38244 9.80082 6.42913C9.78056 6.47582 9.77011 6.52587 9.77008 6.57641C9.77 6.6785 9.81233 6.77644 9.88774 6.84868C9.96316 6.92092 10.0655 6.96154 10.1722 6.96162C10.2789 6.96169 10.3813 6.9212 10.4569 6.84906L12.9875 4.42767V6.57669C12.9875 6.67872 13.0299 6.77657 13.1053 6.84872C13.1807 6.92087 13.283 6.9614 13.3897 6.9614C13.4964 6.9614 13.5987 6.92087 13.6741 6.84872C13.7495 6.77657 13.7919 6.67872 13.7919 6.57669V3.49897C13.7918 3.42287 13.7681 3.3485 13.7239 3.28524C13.6797 3.22198 13.6168 3.17266 13.5434 3.1435Z" fill="black"/>
<path d="M14.1942 0.805664H2.12819C1.59504 0.806275 1.0839 1.00913 0.706903 1.36974C0.329905 1.73035 0.117826 2.21926 0.117188 2.72924V14.2707C0.117188 15.3317 1.01973 16.1942 2.12819 16.1942H14.1942C15.3027 16.1942 16.2052 15.3317 16.2052 14.2707V2.72924C16.2052 1.66819 15.3027 0.805664 14.1942 0.805664ZM15.4008 14.2707C15.4008 14.907 14.8595 15.4248 14.1942 15.4248H2.12819C1.46295 15.4248 0.92159 14.907 0.92159 14.2707V2.72924C0.92159 2.09292 1.46295 1.57509 2.12819 1.57509H14.1942C14.8595 1.57509 15.4008 2.09292 15.4008 2.72924V14.2707Z" fill="black"/>
</svg>
