<svg width="19" height="19" viewBox="0 0 19 19" fill="none" xmlns="http://www.w3.org/2000/svg">
<g clip-path="url(#clip0_2615_611)">
<path d="M14.032 17.2973H4.3663C2.1462 17.2973 0.338867 15.5904 0.338867 13.4936V10.0703H18.0593V13.4936C18.0593 15.5903 16.252 17.2973 14.032 17.2973ZM1.14429 10.831V13.4936C1.14429 15.1719 2.58924 16.5364 4.3663 16.5364H14.032C15.8091 16.5364 17.2539 15.1719 17.2539 13.4936V10.831H1.14429Z" fill="black" stroke="black" stroke-width="0.201369"/>
<path d="M5.17229 16.9167H5.97771V18.0578H5.17229V16.9167ZM12.4216 16.9167H13.227V18.0578H12.4216V16.9167ZM3.56128 10.4505H2.75586V3.604C2.75586 2.13474 4.01939 0.941406 5.57508 0.941406C7.13065 0.941406 8.39414 2.13474 8.39414 3.604V3.98427H7.58871V3.604C7.58871 2.55316 6.68758 1.70209 5.57508 1.70209C4.46242 1.70209 3.56128 2.55316 3.56128 3.604V10.4505Z" fill="black" stroke="black" stroke-width="0.201369"/>
<path d="M10.8102 7.02679H5.17188V6.26597C5.17188 4.79681 6.4354 3.60352 7.99109 3.60352C9.54667 3.60352 10.8102 4.79685 10.8102 6.26597V7.02679ZM5.9773 6.26597H10.0047C10.0047 5.21527 9.10359 4.3642 7.99109 4.3642C6.87844 4.3642 5.9773 5.21527 5.9773 6.26597Z" fill="black" stroke="black" stroke-width="0.201369"/>
</g>
<defs>
<clipPath id="clip0_2615_611">
<rect width="18.8169" height="17.7715" fill="white" transform="translate(0 0.614258)"/>
</clipPath>
</defs>
</svg>
