<svg width="22" height="17" viewBox="0 0 22 17" fill="none" xmlns="http://www.w3.org/2000/svg">
<path d="M20.6774 12.2812H20.3548V9.53125C20.3544 9.16672 20.2183 8.81726 19.9764 8.55951C19.7345 8.30175 19.4066 8.15673 19.0645 8.15625V2.3125C19.0641 1.94797 18.928 1.59851 18.6861 1.34076C18.4442 1.083 18.1163 0.937978 17.7742 0.9375H4.22581C3.88373 0.937978 3.55579 1.083 3.31391 1.34076C3.07202 1.59851 2.93593 1.94797 2.93548 2.3125V8.15625C2.59341 8.15673 2.26547 8.30175 2.02358 8.55951C1.7817 8.81726 1.64561 9.16672 1.64516 9.53125V12.2812H1.32258C1.23703 12.2812 1.15498 12.3175 1.09448 12.3819C1.03399 12.4464 1 12.5338 1 12.625V14C1 14.0912 1.03399 14.1786 1.09448 14.2431C1.15498 14.3075 1.23703 14.3438 1.32258 14.3438H1.64516V15.7188C1.64516 15.8099 1.67915 15.8974 1.73964 15.9618C1.80014 16.0263 1.88219 16.0625 1.96774 16.0625H2.93548C3.01004 16.0625 3.0823 16.035 3.13994 15.9846C3.19759 15.9343 3.23706 15.8641 3.25161 15.7862L3.52258 14.3438H18.4774L18.7484 15.7862C18.7629 15.8641 18.8024 15.9343 18.8601 15.9846C18.9177 16.035 18.99 16.0625 19.0645 16.0625H20.0323C20.1178 16.0625 20.1999 16.0263 20.2604 15.9618C20.3209 15.8974 20.3548 15.8099 20.3548 15.7188V14.3438H20.6774C20.763 14.3438 20.845 14.3075 20.9055 14.2431C20.966 14.1786 21 14.0912 21 14V12.625C21 12.5338 20.966 12.4464 20.9055 12.3819C20.845 12.3175 20.763 12.2812 20.6774 12.2812ZM3.58065 2.3125C3.58087 2.13024 3.64891 1.95551 3.76986 1.82663C3.8908 1.69775 4.05477 1.62524 4.22581 1.625H17.7742C17.9452 1.62524 18.1092 1.69775 18.2301 1.82663C18.3511 1.95551 18.4191 2.13024 18.4194 2.3125V8.15625H17.7742V6.78125C17.7737 6.41672 17.6377 6.06726 17.3958 5.80951C17.1539 5.55175 16.8259 5.40673 16.4839 5.40625H12.6129C12.2708 5.40673 11.9429 5.55175 11.701 5.80951C11.4591 6.06726 11.323 6.41672 11.3226 6.78125V8.15625H10.6774V6.78125C10.677 6.41672 10.5409 6.06726 10.299 5.80951C10.0571 5.55175 9.72917 5.40673 9.3871 5.40625H5.51613C5.17405 5.40673 4.84611 5.55175 4.60423 5.80951C4.36234 6.06726 4.22625 6.41672 4.22581 6.78125V8.15625H3.58065V2.3125ZM17.129 6.78125V8.15625H11.9677V6.78125C11.968 6.59899 12.036 6.42426 12.157 6.29538C12.2779 6.1665 12.4419 6.09399 12.6129 6.09375H16.4839C16.6549 6.09399 16.8189 6.1665 16.9398 6.29538C17.0608 6.42426 17.1288 6.59899 17.129 6.78125ZM10.0323 6.78125V8.15625H4.87097V6.78125C4.87119 6.59899 4.93924 6.42426 5.06018 6.29538C5.18112 6.1665 5.34509 6.09399 5.51613 6.09375H9.3871C9.55814 6.09399 9.7221 6.1665 9.84305 6.29538C9.96399 6.42426 10.032 6.59899 10.0323 6.78125ZM2.29032 9.53125C2.29055 9.34899 2.35859 9.17426 2.47953 9.04538C2.60048 8.9165 2.76445 8.84399 2.93548 8.84375H19.0645C19.2356 8.84399 19.3995 8.9165 19.5205 9.04538C19.6414 9.17426 19.7095 9.34899 19.7097 9.53125V12.2812H2.29032V9.53125ZM2.67097 15.375H2.29032V14.3438H2.86452L2.67097 15.375ZM19.7097 15.375H19.329L19.1355 14.3438H19.7097V15.375ZM20.3548 13.6562H1.64516V12.9688H20.3548V13.6562Z" fill="black" stroke="black" stroke-width="0.2"/>
</svg>
