<svg width="23" height="17" viewBox="0 0 23 17" fill="none" xmlns="http://www.w3.org/2000/svg">
<path d="M12.3125 2.38281C12.3125 2.14245 12.131 1.80236 11.7012 1.49414C11.2871 1.1972 10.731 1 10.1875 1H3.625C3.08171 1.00006 2.52632 1.1974 2.1123 1.49414C1.68249 1.80236 1.5 2.14245 1.5 2.38281V16H21.5V6.14746C21.5 5.9071 21.3185 5.567 20.8887 5.25879C20.4746 4.96183 19.9186 4.76465 19.375 4.76465H12.8125C12.5364 4.76459 12.3125 4.54075 12.3125 4.26465V2.38281ZM13.3125 3.76465H19.375C20.1438 3.76465 20.9005 4.03752 21.4707 4.44629C22.0252 4.84394 22.5 5.44666 22.5 6.14746V16.5C22.4999 16.776 22.2761 17 22 17H1C0.724063 16.9999 0.500131 16.7759 0.5 16.5V2.38281C0.5 1.68202 0.974753 1.0793 1.5293 0.681641C2.09946 0.272843 2.85623 5.62031e-05 3.625 0H10.1875C10.9562 0 11.713 0.272903 12.2832 0.681641C12.8377 1.0793 13.3125 1.68202 13.3125 2.38281V3.76465Z" fill="black"/>
<path d="M12.3125 16.5L12.3125 9.91211C12.3125 9.63597 12.5364 9.41211 12.8125 9.41211C13.0886 9.41211 13.3125 9.63597 13.3125 9.91211L13.3125 16.5L13.3027 16.6016C13.256 16.8292 13.054 17 12.8125 17C12.571 17 12.369 16.8292 12.3223 16.6016L12.3125 16.5Z" fill="black"/>
</svg>
