<svg width="20" height="19" viewBox="0 0 20 19" fill="none" xmlns="http://www.w3.org/2000/svg">
<path fill-rule="evenodd" clip-rule="evenodd" d="M10.9235 1.0694C11.117 1.00473 11.3225 0.984902 11.5247 1.01141C11.7269 1.03791 11.9204 1.11006 12.0909 1.22243C12.2613 1.33481 12.4042 1.4845 12.5088 1.66026C12.6135 1.83602 12.6771 2.0333 12.6949 2.23728L12.7003 2.3566V7.31555L16.1153 8.00254C16.3999 8.0595 16.6586 8.20702 16.8532 8.42324C17.0477 8.63946 17.1677 8.91287 17.1954 9.20296L17.2008 9.33132V16.1921H18.1009C18.3303 16.1924 18.551 16.2806 18.7178 16.4388C18.8846 16.5969 18.985 16.8131 18.9985 17.0431C19.0119 17.2731 18.9374 17.4996 18.7901 17.6762C18.6429 17.8529 18.434 17.9665 18.2062 17.9937L18.1009 18H1.8991C1.66969 17.9997 1.44902 17.9115 1.2822 17.7534C1.11538 17.5952 1.01499 17.379 1.00155 17.149C0.988103 16.919 1.06262 16.6926 1.20986 16.5159C1.35711 16.3392 1.56598 16.2257 1.79379 16.1985L1.8991 16.1921H2.7992V4.76647C2.7992 4.22412 3.11964 3.73961 3.60749 3.52447L3.7227 3.48018L10.9235 1.0694ZM10.9001 2.98392L4.5994 5.09279V16.1921H10.9001V2.98392ZM12.7003 9.16047V16.1921H15.4006V9.70193L12.7003 9.16047Z" fill="black" stroke="white"/>
</svg>
