<svg width="17" height="16" viewBox="0 0 17 16" fill="none" xmlns="http://www.w3.org/2000/svg">
<path d="M6.00069 11.7414V14.8334C6.0012 14.9385 6.03476 15.0407 6.09662 15.1257C6.15847 15.2106 6.24549 15.274 6.34535 15.3067C6.4452 15.3394 6.55282 15.3399 6.65297 15.3081C6.75312 15.2763 6.84072 15.2138 6.90336 15.1294L8.71202 12.668L6.00069 11.7414ZM15.9574 0.0927162C15.8822 0.0392186 15.7938 0.00754148 15.7018 0.00118804C15.6098 -0.0051654 15.5178 0.0140525 15.436 0.0567162L0.436023 7.89005C0.349718 7.93566 0.278606 8.00548 0.231417 8.09093C0.184227 8.17639 0.163011 8.27376 0.170373 8.3711C0.177736 8.46844 0.213356 8.56151 0.272862 8.63889C0.332368 8.71628 0.413172 8.7746 0.505356 8.80672L4.67536 10.232L13.556 2.63872L6.68402 10.918L13.6727 13.3067C13.742 13.33 13.8156 13.3379 13.8883 13.3297C13.961 13.3216 14.0311 13.2977 14.0936 13.2597C14.1561 13.2216 14.2095 13.1704 14.2501 13.1095C14.2907 13.0487 14.3175 12.9797 14.3287 12.9074L16.162 0.57405C16.1756 0.482749 16.1637 0.389475 16.1275 0.304532C16.0914 0.219589 16.0325 0.146284 15.9574 0.0927162Z" fill="white"/>
</svg>
