<svg width="22" height="22" viewBox="0 0 22 22" fill="none" xmlns="http://www.w3.org/2000/svg">
<path d="M11 0.6875C8.96038 0.6875 6.96657 1.29232 5.27069 2.42547C3.5748 3.55862 2.25303 5.16921 1.4725 7.05358C0.691968 8.93794 0.487746 11.0114 0.885656 13.0119C1.28357 15.0123 2.26574 16.8498 3.70797 18.292C5.1502 19.7343 6.98771 20.7164 8.98814 21.1143C10.9886 21.5123 13.0621 21.308 14.9464 20.5275C16.8308 19.747 18.4414 18.4252 19.5745 16.7293C20.7077 15.0334 21.3125 13.0396 21.3125 11C21.3094 8.2659 20.2219 5.64468 18.2886 3.71138C16.3553 1.77808 13.7341 0.690593 11 0.6875ZM11 20.625C9.09636 20.625 7.23546 20.0605 5.65264 19.0029C4.06982 17.9453 2.83616 16.4421 2.10766 14.6833C1.37917 12.9246 1.18856 10.9893 1.55995 9.12226C1.93133 7.25519 2.84802 5.54018 4.1941 4.1941C5.54018 2.84802 7.25519 1.93132 9.12226 1.55994C10.9893 1.18856 12.9246 1.37917 14.6833 2.10766C16.4421 2.83615 17.9453 4.06981 19.0029 5.65264C20.0605 7.23546 20.625 9.09635 20.625 11C20.6221 13.5518 19.6071 15.9983 17.8027 17.8027C15.9983 19.6071 13.5518 20.6221 11 20.625ZM9.96875 6.875H14.0938C14.1849 6.875 14.2724 6.83878 14.3368 6.77432C14.4013 6.70985 14.4375 6.62242 14.4375 6.53125C14.4375 6.44008 14.4013 6.35265 14.3368 6.28818C14.2724 6.22372 14.1849 6.1875 14.0938 6.1875H11.3438V5.15625C11.3438 5.06508 11.3075 4.97765 11.2431 4.91318C11.1786 4.84872 11.0912 4.8125 11 4.8125C10.9088 4.8125 10.8214 4.84872 10.7569 4.91318C10.6925 4.97765 10.6563 5.06508 10.6563 5.15625V6.1875H9.96875C9.33058 6.1875 8.71854 6.44102 8.26728 6.89227C7.81602 7.34353 7.5625 7.95557 7.5625 8.59375C7.5625 9.23193 7.81602 9.84397 8.26728 10.2952C8.71854 10.7465 9.33058 11 9.96875 11H12.0313C12.4871 11 12.9243 11.1811 13.2466 11.5034C13.5689 11.8257 13.75 12.2629 13.75 12.7188C13.75 13.1746 13.5689 13.6118 13.2466 13.9341C12.9243 14.2564 12.4871 14.4375 12.0313 14.4375H7.90625C7.81509 14.4375 7.72765 14.4737 7.66319 14.5382C7.59872 14.6026 7.5625 14.6901 7.5625 14.7812C7.5625 14.8724 7.59872 14.9599 7.66319 15.0243C7.72765 15.0888 7.81509 15.125 7.90625 15.125H10.6563V16.1562C10.6563 16.2474 10.6925 16.3349 10.7569 16.3993C10.8214 16.4638 10.9088 16.5 11 16.5C11.0912 16.5 11.1786 16.4638 11.2431 16.3993C11.3075 16.3349 11.3438 16.2474 11.3438 16.1562V15.125H12.0313C12.6694 15.125 13.2815 14.8715 13.7327 14.4202C14.184 13.969 14.4375 13.3569 14.4375 12.7188C14.4375 12.0806 14.184 11.4685 13.7327 11.0173C13.2815 10.566 12.6694 10.3125 12.0313 10.3125H9.96875C9.51291 10.3125 9.07574 10.1314 8.75342 9.80909C8.43109 9.48676 8.25 9.04959 8.25 8.59375C8.25 8.13791 8.43109 7.70074 8.75342 7.37841C9.07574 7.05608 9.51291 6.875 9.96875 6.875Z" fill="black" stroke="black" stroke-width="0.5"/>
</svg>
