<svg width="21" height="17" viewBox="0 0 21 17" fill="none" xmlns="http://www.w3.org/2000/svg">
<path d="M6.42871 9.23828H14.5716" stroke="black" stroke-linecap="round" stroke-linejoin="round"/>
<path d="M3.71387 5.64453V3.48828C3.71387 2.72578 3.99984 1.99452 4.50886 1.45535C5.01789 0.916182 5.70828 0.613281 6.42815 0.613281H14.571C15.2909 0.613281 15.9813 0.916182 16.4903 1.45535C16.9993 1.99452 17.2853 2.72578 17.2853 3.48828V5.64453" stroke="black" stroke-linecap="round" stroke-linejoin="round"/>
<path d="M6.42857 12.1133V8.51953C6.42857 7.95091 6.26938 7.39506 5.97113 6.92227C5.67288 6.44948 5.24897 6.08098 4.753 5.86338C4.25703 5.64578 3.71128 5.58884 3.18476 5.69977C2.65824 5.81071 2.1746 6.08452 1.795 6.4866C1.4154 6.88868 1.15689 7.40095 1.05216 7.95865C0.947424 8.51634 1.00118 9.09441 1.20661 9.61975C1.41205 10.1451 1.75995 10.5941 2.20631 10.91C2.65267 11.2259 3.17745 11.3945 3.71429 11.3945V14.9883C3.71429 15.1789 3.78578 15.3617 3.91304 15.4965C4.04029 15.6313 4.21289 15.707 4.39286 15.707H16.6071C16.7871 15.707 16.9597 15.6313 17.087 15.4965C17.2142 15.3617 17.2857 15.1789 17.2857 14.9883V11.3945C17.8225 11.3945 18.3473 11.2259 18.7937 10.91C19.2401 10.5941 19.5879 10.1451 19.7934 9.61975C19.9988 9.09441 20.0526 8.51634 19.9478 7.95865C19.8431 7.40095 19.5846 6.88868 19.205 6.4866C18.8254 6.08452 18.3418 5.81071 17.8152 5.69977C17.2887 5.58884 16.743 5.64578 16.247 5.86338C15.751 6.08098 15.3271 6.44948 15.0289 6.92227C14.7306 7.39506 14.5714 7.95091 14.5714 8.51953V12.1133" stroke="black" stroke-linecap="round" stroke-linejoin="round"/>
</svg>
