<svg width="23" height="23" viewBox="0 0 23 23" fill="none" xmlns="http://www.w3.org/2000/svg">
<path d="M11.5 5.91016C10.3981 5.91016 9.32416 6.25685 8.43027 6.90113C7.53638 7.54542 6.86786 8.45462 6.51941 9.49996C6.17097 10.5453 6.16026 11.6738 6.4888 12.7255C6.81735 13.7773 7.46849 14.699 8.35 15.3602V19.5602C8.35 20.1171 8.57125 20.6513 8.96508 21.0451C9.3589 21.4389 9.89304 21.6602 10.45 21.6602H12.55C13.107 21.6602 13.6411 21.4389 14.0349 21.0451C14.4287 20.6513 14.65 20.1171 14.65 19.5602V15.3602C15.5315 14.699 16.1826 13.7773 16.5112 12.7255C16.8397 11.6738 16.829 10.5453 16.4806 9.49996C16.1321 8.45462 15.4636 7.54542 14.5697 6.90113C13.6758 6.25685 12.6019 5.91016 11.5 5.91016ZM13.075 13.8797C12.9148 13.9722 12.7818 14.1054 12.6896 14.2658C12.5974 14.4262 12.5493 14.6081 12.55 14.7932V19.5602H10.45V14.7932C10.4507 14.6081 10.4026 14.4262 10.3104 14.2658C10.2182 14.1054 10.0852 13.9722 9.925 13.8797C9.44738 13.6039 9.05053 13.2076 8.77414 12.7303C8.49774 12.2531 8.35149 11.7117 8.35 11.1602C8.35 10.3247 8.68187 9.52351 9.27261 8.93277C9.86335 8.34203 10.6646 8.01016 11.5 8.01016C12.3354 8.01016 13.1366 8.34203 13.7274 8.93277C14.3181 9.52351 14.65 10.3247 14.65 11.1602C14.6485 11.7117 14.5023 12.2531 14.2259 12.7303C13.9495 13.2076 13.5526 13.6039 13.075 13.8797ZM11.5 4.86016C11.7785 4.86016 12.0455 4.74953 12.2425 4.55262C12.4394 4.3557 12.55 4.08863 12.55 3.81016V1.71016C12.55 1.43168 12.4394 1.16461 12.2425 0.967694C12.0455 0.770781 11.7785 0.660156 11.5 0.660156C11.2215 0.660156 10.9545 0.770781 10.7575 0.967694C10.5606 1.16461 10.45 1.43168 10.45 1.71016V3.81016C10.45 4.08863 10.5606 4.3557 10.7575 4.55262C10.9545 4.74953 11.2215 4.86016 11.5 4.86016ZM20.95 10.1102H18.85C18.5715 10.1102 18.3044 10.2208 18.1075 10.4177C17.9106 10.6146 17.8 10.8817 17.8 11.1602C17.8 11.4386 17.9106 11.7057 18.1075 11.9026C18.3044 12.0995 18.5715 12.2102 18.85 12.2102H20.95C21.2285 12.2102 21.4955 12.0995 21.6925 11.9026C21.8894 11.7057 22 11.4386 22 11.1602C22 10.8817 21.8894 10.6146 21.6925 10.4177C21.4955 10.2208 21.2285 10.1102 20.95 10.1102ZM4.15 10.1102H2.05C1.77152 10.1102 1.50445 10.2208 1.30754 10.4177C1.11062 10.6146 1 10.8817 1 11.1602C1 11.4386 1.11062 11.7057 1.30754 11.9026C1.50445 12.0995 1.77152 12.2102 2.05 12.2102H4.15C4.42848 12.2102 4.69555 12.0995 4.89246 11.9026C5.08937 11.7057 5.2 11.4386 5.2 11.1602C5.2 10.8817 5.08937 10.6146 4.89246 10.4177C4.69555 10.2208 4.42848 10.1102 4.15 10.1102ZM6.943 5.30116L5.431 3.81016C5.22632 3.61661 4.95314 3.51231 4.67155 3.52019C4.38997 3.52806 4.12304 3.64748 3.9295 3.85216C3.73596 4.05684 3.63165 4.33002 3.63953 4.6116C3.64741 4.89319 3.76682 5.16011 3.9715 5.35366L5.4835 6.81316C5.58497 6.91113 5.70513 6.98766 5.83683 7.03817C5.96852 7.08868 6.10904 7.11215 6.25 7.10716C6.39144 7.10662 6.53131 7.07751 6.66122 7.02157C6.79113 6.96564 6.90841 6.88403 7.006 6.78166C7.19343 6.57672 7.29203 6.30587 7.28022 6.0284C7.26841 5.75093 7.14716 5.48943 6.943 5.30116ZM19.0495 3.86266C18.8528 3.66709 18.5866 3.55732 18.3092 3.55732C18.0319 3.55732 17.7657 3.66709 17.569 3.86266L16.057 5.30116C15.8614 5.49789 15.7517 5.76401 15.7517 6.04141C15.7517 6.3188 15.8614 6.58493 16.057 6.78166C16.1546 6.88403 16.2719 6.96564 16.4018 7.02157C16.5317 7.07751 16.6716 7.10662 16.813 7.10716C17.0833 7.10608 17.3429 7.00077 17.5375 6.81316L19.0495 5.35366C19.1479 5.25604 19.226 5.13991 19.2793 5.01196C19.3326 4.88401 19.3601 4.74677 19.3601 4.60816C19.3601 4.46954 19.3326 4.3323 19.2793 4.20435C19.226 4.0764 19.1479 3.96027 19.0495 3.86266Z" fill="black" stroke="white"/>
</svg>
