<svg width="22" height="21" viewBox="0 0 22 21" fill="none" xmlns="http://www.w3.org/2000/svg">
<path d="M10.624 1C11.0231 1 11.3903 1.14574 11.6641 1.40332H11.665L20.333 9.56152L20.334 9.5625C20.8858 10.083 20.8858 10.9172 20.334 11.4375C20.0599 11.6953 19.692 11.8417 19.293 11.8418H18.4727V18.3457C18.4724 19.2293 17.698 20 16.6826 20H13.291C13.2475 19.9999 13.2139 19.9832 13.1934 19.9639C13.1737 19.9452 13.1689 19.9276 13.1689 19.9141V15.207C13.1689 14.3607 12.4473 13.7236 11.624 13.7236H9.62402C8.80086 13.7236 8.0791 14.3606 8.0791 15.207V19.9141C8.0791 19.9275 8.07442 19.9451 8.05469 19.9639C8.03411 19.9832 8.00044 19.9999 7.95703 20H4.56543C3.55008 20 2.77564 19.2293 2.77539 18.3457V11.8418H1.93066C1.92527 11.8418 1.92012 11.8412 1.91602 11.8408L1.89062 11.8389L1.75098 11.8271C1.43067 11.7861 1.13987 11.6492 0.915039 11.4375H0.914062C0.36257 10.9182 0.362171 10.085 0.912109 9.56445L0.913086 9.56348C0.91551 9.56116 0.918491 9.55901 0.919922 9.55762L9.58301 1.40332C9.85686 1.14554 10.2247 1.00001 10.624 1Z" stroke="black"/>
</svg>
