<svg width="14" height="21" viewBox="0 0 14 21" fill="none" xmlns="http://www.w3.org/2000/svg">
<path d="M0.00217254 3.13687C-0.0304304 1.81137 1.08486 0.875 2.2803 0.875H11.2977C12.4932 0.875 13.6098 1.81137 13.5772 3.13687C13.5433 4.53525 13.2512 5.5995 12.807 6.4465C12.3655 7.29075 11.7922 7.8765 11.2583 8.344C11.0736 8.50625 10.8834 8.66025 10.7109 8.80187L10.5112 8.96688C10.3091 9.12674 10.1184 9.30088 9.94064 9.488C9.65265 9.79875 9.50729 10.0875 9.50729 10.5C9.50729 10.9125 9.65265 11.2013 9.942 11.512C10.0941 11.6784 10.2816 11.8434 10.5112 12.0345L10.7109 12.1995C10.8834 12.3398 11.0736 12.4938 11.257 12.656C11.7909 13.1235 12.3628 13.7093 12.8056 14.5535C13.2485 15.3991 13.5406 16.4634 13.5772 17.8604C13.6112 19.1873 12.4932 20.125 11.2964 20.125H2.2803C1.08486 20.125 -0.0345057 19.1873 0.00081418 17.8604C0.0361341 16.462 0.328202 15.3991 0.772417 14.5535C1.21663 13.7079 1.78854 13.1221 2.32242 12.656C2.50717 12.4938 2.69599 12.3398 2.86852 12.1981L3.06957 12.0331C3.29915 11.8434 3.48661 11.6784 3.64012 11.512C3.92675 11.2013 4.07347 10.9125 4.07347 10.5C4.07347 10.0875 3.92675 9.79875 3.63876 9.488C3.46101 9.30041 3.27035 9.1258 3.06821 8.9655L2.86716 8.80187C2.68268 8.65227 2.50062 8.49962 2.32106 8.344C1.78718 7.8765 1.21392 7.29075 0.771059 6.4465C0.326844 5.5995 0.036134 4.53525 0.00217254 3.13687ZM2.2803 2.25C1.73013 2.25 1.34704 2.6625 1.35791 3.1025C1.3878 4.318 1.63776 5.16775 1.96922 5.80163C2.30068 6.4355 2.73946 6.89475 3.20677 7.3045C3.37386 7.45025 3.53552 7.58225 3.69989 7.717L3.92675 7.90263C4.16448 8.09925 4.41037 8.31238 4.62908 8.54887C5.0828 9.03975 5.43057 9.64888 5.43057 10.5C5.43057 11.3497 5.08416 11.9602 4.62908 12.4525C4.41172 12.6863 4.16584 12.8994 3.92811 13.0974L3.69989 13.2844C3.53552 13.4191 3.37386 13.5497 3.20813 13.6969C2.74082 14.1052 2.3034 14.5631 1.96922 15.1984C1.63776 15.8309 1.38644 16.6806 1.3552 17.8961C1.34433 18.3361 1.72741 18.75 2.27759 18.75H11.295C11.8452 18.75 12.2283 18.3361 12.2174 17.8961C12.1862 16.6806 11.9362 15.8309 11.6048 15.1984C11.2706 14.5631 10.8345 14.1053 10.3672 13.6955C10.2001 13.5498 10.0412 13.4178 9.87544 13.283L9.64857 13.0974C9.40033 12.8987 9.16611 12.6828 8.94761 12.4511C8.49253 11.9602 8.14612 11.3511 8.14612 10.5C8.14612 9.65025 8.49389 9.03975 8.94761 8.5475C9.16632 8.31237 9.4122 8.09925 9.64993 7.90263L9.8768 7.717C10.0425 7.58225 10.2028 7.45025 10.3699 7.3045C10.8372 6.89475 11.2746 6.43688 11.6075 5.80163C11.9389 5.16913 12.1889 4.318 12.2188 3.1025C12.2296 2.6625 11.8466 2.25 11.2977 2.25H2.2803Z" fill="black"/>
</svg>
