<svg width="16" height="21" viewBox="0 0 16 21" fill="none" xmlns="http://www.w3.org/2000/svg">
<path d="M8.24123 1.12012C4.24833 1.12012 1 4.22874 1 8.04991C1 9.30787 1.58952 10.6608 1.61423 10.7179C1.80463 11.1504 2.18032 11.8222 2.45123 12.2159L7.41615 19.4152C7.61933 19.7103 7.92006 19.8795 8.24123 19.8795C8.5624 19.8795 8.86312 19.7103 9.0663 19.4156L14.0317 12.2159C14.303 11.8222 14.6782 11.1504 14.8687 10.7179C14.8934 10.6612 15.4825 9.30827 15.4825 8.04991C15.4825 4.22874 12.2341 1.12012 8.24123 1.12012ZM14.0832 10.4016C13.9132 10.7892 13.5635 11.4141 13.3203 11.7671L8.35496 18.9668C8.25699 19.109 8.22589 19.109 8.12792 18.9668L3.16257 11.7671C2.91935 11.4141 2.56964 10.7888 2.39969 10.4011C2.39244 10.3844 1.85191 9.13911 1.85191 8.04991C1.85191 4.67836 4.71816 1.93539 8.24123 1.93539C11.7643 1.93539 14.6305 4.67836 14.6305 8.04991C14.6305 9.14074 14.0887 10.3893 14.0832 10.4016Z" fill="black" stroke="black" stroke-width="0.4"/>
<path d="M8.24179 4.38184C6.12778 4.38184 4.4082 6.02786 4.4082 8.05055C4.4082 10.0732 6.12778 11.7193 8.24179 11.7193C10.3558 11.7193 12.0754 10.0732 12.0754 8.05055C12.0754 6.02786 10.3558 4.38184 8.24179 4.38184ZM8.24179 10.904C6.59804 10.904 5.26011 9.62402 5.26011 8.05055C5.26011 6.47708 6.59804 5.19711 8.24179 5.19711C9.88555 5.19711 11.2235 6.47708 11.2235 8.05055C11.2235 9.62402 9.88555 10.904 8.24179 10.904Z" fill="black" stroke="black" stroke-width="0.4"/>
</svg>
