<svg width="24" height="24" viewBox="0 0 24 24" fill="none" xmlns="http://www.w3.org/2000/svg">
<path d="M20.1419 18.8538H19.499V9.74665C19.499 5.96719 16.7053 2.84397 13.0705 2.32433V1.28237C13.0705 0.690402 12.591 0.210938 11.999 0.210938C11.4071 0.210938 10.9276 0.690402 10.9276 1.28237V2.32433C7.29277 2.84397 4.49902 5.96719 4.49902 9.74665V18.8538H3.85617C3.38206 18.8538 2.99902 19.2368 2.99902 19.7109V20.5681C2.99902 20.6859 3.09545 20.7824 3.21331 20.7824H8.99902C8.99902 22.4377 10.3437 23.7824 11.999 23.7824C13.6544 23.7824 14.999 22.4377 14.999 20.7824H20.7847C20.9026 20.7824 20.999 20.6859 20.999 20.5681V19.7109C20.999 19.2368 20.616 18.8538 20.1419 18.8538ZM11.999 22.0681C11.2892 22.0681 10.7133 21.4922 10.7133 20.7824H13.2847C13.2847 21.4922 12.7088 22.0681 11.999 22.0681ZM6.4276 18.8538V9.74665C6.4276 8.25737 7.00617 6.85915 8.05885 5.80647C9.11152 4.75379 10.5097 4.17522 11.999 4.17522C13.4883 4.17522 14.8865 4.75379 15.9392 5.80647C16.9919 6.85915 17.5705 8.25737 17.5705 9.74665V18.8538H6.4276Z" fill="#757575"/>
<rect x="14.001" y="0.5" width="10" height="10" rx="5" fill="#EF4444"/>
</svg>
