<svg width="23" height="21" viewBox="0 0 23 21" fill="none" xmlns="http://www.w3.org/2000/svg">
<path d="M20.4503 12.3415C20.4462 12.334 20.4393 12.3293 20.4352 12.3225C20.4167 12.2893 20.3898 12.2635 20.3658 12.2343C20.3355 12.197 20.3067 12.159 20.2696 12.1298C20.2427 12.1081 20.2118 12.0945 20.1816 12.0769C20.137 12.0494 20.0892 12.0273 20.0393 12.0111C20.0262 12.007 20.0166 11.9975 20.0035 11.9941C19.9795 11.988 19.9568 11.9941 19.9334 11.9907C19.841 11.976 19.7463 11.9818 19.6564 12.0077C19.6379 12.0131 19.6186 12.0104 19.6 12.0179L15.7184 13.4482C15.5477 13.5112 15.4093 13.6385 15.3337 13.8022C15.2581 13.9659 15.2515 14.1526 15.3153 14.3211C15.3791 14.4896 15.5081 14.6262 15.6739 14.7009C15.8398 14.7755 16.0288 14.782 16.1996 14.7191L18.7346 13.7854C17.4671 16.7017 14.5987 18.643 11.3542 18.643C7.685 18.643 4.4763 16.1419 3.55246 12.5607C3.53017 12.4743 3.49085 12.3931 3.43676 12.3217C3.38267 12.2503 3.31487 12.1901 3.23722 12.1446C3.15957 12.0991 3.0736 12.0691 2.98422 12.0564C2.89483 12.0437 2.80378 12.0484 2.71627 12.0704C2.62875 12.0925 2.54648 12.1313 2.47416 12.1847C2.40184 12.238 2.34088 12.305 2.29477 12.3816C2.24865 12.4583 2.21828 12.5431 2.20539 12.6314C2.1925 12.7196 2.19734 12.8095 2.21963 12.8959C3.29882 17.0783 7.05467 20 11.3535 20C15.1321 20 18.4741 17.7568 19.9685 14.3825L21.201 16.7465C21.2422 16.8258 21.2988 16.8964 21.3677 16.954C21.4366 17.0117 21.5163 17.0554 21.6024 17.0825C21.6884 17.1097 21.779 17.1198 21.869 17.1124C21.959 17.1049 22.0466 17.0799 22.1269 17.0389C22.2072 16.9982 22.2786 16.9422 22.3369 16.8742C22.3953 16.8062 22.4396 16.7275 22.4672 16.6427C22.4947 16.5578 22.5051 16.4684 22.4977 16.3796C22.4902 16.2907 22.4651 16.2042 22.4238 16.125L20.4503 12.3415ZM11.3529 2.35705C14.9025 2.35705 17.9957 4.65452 19.0508 8.07428C19.1067 8.24302 19.2274 8.38341 19.3869 8.46535C19.5465 8.54729 19.7322 8.56424 19.9042 8.51257C20.0763 8.46089 20.221 8.34472 20.3073 8.18895C20.3936 8.03319 20.4146 7.85025 20.3658 7.67938C19.1333 3.68424 15.5108 1 11.3529 1C7.73105 1 4.52098 3.03421 2.93657 6.19613L1.81133 3.86337C1.77319 3.78191 1.71906 3.70874 1.65208 3.64808C1.58509 3.58742 1.50658 3.54047 1.4211 3.50996C1.33561 3.47945 1.24484 3.46598 1.15404 3.47034C1.06324 3.47469 0.974224 3.49677 0.892133 3.53532C0.810042 3.57386 0.736511 3.62809 0.675796 3.69487C0.615082 3.76166 0.56839 3.83967 0.538423 3.92438C0.508456 4.0091 0.49581 4.09884 0.501217 4.18841C0.506623 4.27799 0.529975 4.36561 0.56992 4.44622L2.37223 8.18081C2.37498 8.18691 2.37979 8.19099 2.38254 8.19641C2.39079 8.21202 2.40248 8.22491 2.4121 8.24052C2.45639 8.31285 2.51425 8.37617 2.58257 8.42711C2.64237 8.47122 2.70699 8.50786 2.77779 8.53093C2.78329 8.53296 2.78741 8.53771 2.7936 8.53907L2.79841 8.53975C2.86152 8.55846 2.92704 8.56806 2.99294 8.56825H2.995C3.0561 8.56813 3.1169 8.55992 3.17578 8.54382L7.09247 7.47718C7.17945 7.45348 7.26084 7.4131 7.332 7.35835C7.40317 7.30359 7.46271 7.23554 7.50723 7.15808C7.55175 7.08061 7.58038 6.99524 7.59148 6.90686C7.60258 6.81847 7.59593 6.72879 7.57192 6.64294C7.54791 6.55708 7.507 6.47674 7.45154 6.40649C7.39607 6.33625 7.32713 6.27747 7.24865 6.23352C7.17017 6.18958 7.08369 6.16132 6.99415 6.15036C6.90461 6.13941 6.81376 6.14597 6.72679 6.16967L4.12849 6.87737C5.47026 4.12935 8.23421 2.35705 11.3529 2.35705Z" fill="#757575" stroke="#757575" stroke-width="0.5"/>
</svg>
