<svg width="25" height="24" viewBox="0 0 25 24" fill="none" xmlns="http://www.w3.org/2000/svg">
<path d="M4.49902 20C3.94902 20 3.47819 19.8042 3.08652 19.4125C2.69486 19.0208 2.49902 18.55 2.49902 18V6C2.49902 5.45 2.69486 4.97917 3.08652 4.5875C3.47819 4.19583 3.94902 4 4.49902 4H20.499C21.049 4 21.5199 4.19583 21.9115 4.5875C22.3032 4.97917 22.499 5.45 22.499 6V18C22.499 18.55 22.3032 19.0208 21.9115 19.4125C21.5199 19.8042 21.049 20 20.499 20H4.49902ZM12.499 13L4.49902 8V18H20.499V8L12.499 13ZM12.499 11L20.499 6H4.49902L12.499 11ZM4.49902 8V6V18V8Z" fill="#757575"/>
</svg>
