<svg width="19" height="25" viewBox="0 0 19 25" fill="none" xmlns="http://www.w3.org/2000/svg">
<path d="M14.6602 15.0065C14.2343 14.9246 13.7961 14.9282 13.3718 15.0177C12.9475 15.1072 12.545 15.2805 12.1885 15.5274C11.832 15.7744 11.5283 16.0903 11.2953 16.456C11.0624 16.8218 10.9049 17.2307 10.8319 17.6582C10.7589 18.0856 10.7719 18.5233 10.8701 18.9455C10.9685 19.3679 11.1502 19.7671 11.4045 20.1184L11.4094 20.1243L11.4142 20.1311C12.4904 21.6854 14.3194 22.5756 15.9767 23.0726C16.5335 23.2396 17.0581 23.356 17.507 23.4398C17.2844 22.9248 17.1555 22.4454 17.1032 21.9849C17.0085 21.1496 17.1637 20.4443 17.2998 19.8578C17.441 19.2498 17.5525 18.7952 17.5191 18.2838C17.4874 17.7993 17.3174 17.2092 16.7707 16.4199L16.7658 16.4141L16.7621 16.4074C16.5227 16.0459 16.2136 15.7355 15.8528 15.495C15.4919 15.2544 15.0861 15.0884 14.6602 15.0065ZM4.19939 0.867326C3.87436 0.808313 3.54064 0.813664 3.21779 0.88364C2.8949 0.953651 2.58845 1.08655 2.317 1.27491L2.31569 1.27666C2.04415 1.4642 1.81209 1.70326 1.63308 1.98049C1.45395 2.258 1.33086 2.56856 1.27177 2.89352C1.2127 3.21848 1.21811 3.55233 1.28809 3.87512C1.35809 4.19782 1.49123 4.5037 1.67953 4.77495L1.6805 4.77513L8.45986 14.5636C8.82405 13.7916 9.38513 13.0984 10.1423 12.5733C10.9 12.0479 11.7463 11.7663 12.5971 11.697L5.81817 1.91159L5.81739 1.91045C5.62955 1.63885 5.39012 1.40665 5.1126 1.22767C4.83498 1.04865 4.5244 0.926363 4.19939 0.867326Z" stroke="#FFAB24" stroke-width="1.5"/>
</svg>
