<svg width="25" height="22" viewBox="0 0 25 22" fill="none" xmlns="http://www.w3.org/2000/svg">
<path d="M12.499 11.0254C13.5783 11.0254 14.6167 11.4386 15.4004 12.1807V12.1816L19.5176 16.0791L19.5244 16.085L19.5303 16.0908C21.3367 17.7238 20.0742 20.9099 17.6494 20.876C16.8676 20.8047 16.1562 20.5973 15.3115 20.3809C14.4852 20.1691 13.5691 19.9635 12.5068 19.9785H12.4814C11.4385 19.964 10.5349 20.2032 9.73926 20.4248C8.91366 20.6547 8.22485 20.8567 7.4707 20.877H7.46191L7.45312 20.8779C4.96813 21.0024 3.62295 17.764 5.46484 16.0898L5.47559 16.0791L9.59668 12.1816L9.59766 12.1807C10.3813 11.4387 11.4198 11.0254 12.499 11.0254ZM2.14941 6.64062C2.60486 6.5588 3.06306 6.74856 3.5 7.22656C3.94673 7.71541 4.28032 8.42166 4.41504 9.0791L4.41602 9.08301C4.61755 10.0401 4.53236 10.8861 4.27246 11.4609C4.02566 12.0067 3.6498 12.2739 3.1709 12.2939C2.74459 12.2854 2.31939 12.053 1.93359 11.5645C1.5413 11.0677 1.24393 10.3671 1.10742 9.61914C0.970522 8.86877 1.00833 8.14237 1.20703 7.5957C1.39616 7.07565 1.70888 6.75908 2.14941 6.64062ZM22.8584 6.6416C23.2094 6.72281 23.5521 7.01387 23.7744 7.58301C23.9975 8.1545 24.0644 8.94228 23.8721 9.81152C23.374 11.9415 22.205 12.3773 21.6113 12.2529C21.033 12.1316 20.1398 11.2864 20.582 9.08105C20.7189 8.42195 21.0535 7.71452 21.5 7.22559C21.9396 6.74438 22.4 6.55526 22.8584 6.6416ZM8.81543 1.14355C9.65988 1.1436 10.8936 1.98122 10.9678 4.44434C10.9652 5.41737 10.6801 6.27046 10.2568 6.8623C9.83017 7.45886 9.30907 7.73926 8.81543 7.73926C8.31922 7.73908 7.79776 7.45819 7.37109 6.8623C6.94748 6.2706 6.66179 5.4174 6.65918 4.44434C6.73543 1.98156 7.97065 1.14355 8.81543 1.14355ZM16.1826 1.14355C17.0274 1.14373 18.2616 1.98183 18.3379 4.44434C18.3353 5.4174 18.0506 6.2706 17.627 6.8623C17.2001 7.45848 16.678 7.73926 16.1816 7.73926C15.6881 7.73919 15.1678 7.45872 14.7412 6.8623C14.3179 6.27046 14.0319 5.4174 14.0293 4.44434C14.1034 1.98115 15.3382 1.14355 16.1826 1.14355Z" stroke="#4BDDB6" stroke-width="1.5"/>
</svg>
