<svg width="24" height="30" viewBox="0 0 24 30" fill="none" xmlns="http://www.w3.org/2000/svg">
<path d="M13.5158 17.7305C14.1362 17.7305 14.7608 17.5931 15.3431 17.3123C15.5192 17.2263 15.6433 17.0611 15.676 16.868C15.7087 16.6755 15.6457 16.4776 15.5071 16.3396L13.9449 14.7774L14.8014 13.9209L16.3636 15.4831C16.5022 15.6217 16.6971 15.6835 16.8926 15.652C17.0857 15.6193 17.2515 15.4952 17.3362 15.3185C18.1164 13.7066 17.786 11.7692 16.5131 10.4969C14.8613 8.84509 12.1739 8.84449 10.5215 10.4969C8.86969 12.1487 8.86969 14.8367 10.5215 16.4891C11.3344 17.302 12.4184 17.7305 13.5158 17.7305ZM13.9449 16.4891C13.0231 16.6222 12.0643 16.3202 11.3767 15.6332C10.1964 14.4529 10.1964 12.533 11.3767 11.3527C12.5564 10.1737 14.4763 10.1731 15.6566 11.3527C16.3436 12.0397 16.6468 12.9979 16.5131 13.9209L15.2287 12.6365C14.992 12.3999 14.6095 12.3999 14.3728 12.6365L12.6605 14.3488C12.5467 14.4626 12.4832 14.6164 12.4832 14.7768C12.4832 14.9372 12.5467 15.0915 12.6605 15.2047L13.9449 16.4891Z" fill="#4BDDB6" stroke="#4BDDB6" stroke-width="0.3"/>
<path d="M16.9426 19.234C17.0976 19.234 17.2525 19.1747 17.3706 19.0566L19.0823 17.3449C19.3189 17.1082 19.3189 16.7257 19.0823 16.4891L15.2303 12.6371C15.0033 12.4101 14.6014 12.4101 14.3745 12.6371L12.6621 14.3494C12.5483 14.4632 12.4848 14.6169 12.4848 14.7773C12.4848 14.9377 12.5483 15.0921 12.6621 15.2053L16.5141 19.0572C16.6327 19.1747 16.7877 19.234 16.9426 19.234ZM17.7985 16.917L16.9426 17.7728L13.9465 14.7767L14.803 13.9203L17.7985 16.917ZM10.951 11.5301C11.0388 11.5301 11.1278 11.5113 11.2119 11.4707C11.5133 11.3267 11.641 10.9653 11.497 10.6633L6.78918 0.819748C6.64452 0.517716 6.28317 0.391214 5.98174 0.534664C5.68032 0.678719 5.5526 1.04007 5.69666 1.3421L10.4045 11.1857C10.5086 11.4036 10.7253 11.5301 10.951 11.5301Z" fill="#4BDDB6" stroke="#4BDDB6" stroke-width="0.3"/>
<path d="M10.9494 11.53C11.1752 11.53 11.3919 11.4035 11.496 11.1862C11.64 10.8841 11.5123 10.5228 11.2109 10.3787L1.36675 5.67093C1.06653 5.52627 0.703976 5.65399 0.559315 5.95602C0.41526 6.25805 0.542973 6.6194 0.844398 6.76345L10.6886 11.4713C10.7727 11.5112 10.8617 11.53 10.9494 11.53ZM17.4482 29.5235C20.8989 29.5235 23.501 28.2228 23.501 26.4972C23.501 25.1105 21.8207 23.9804 19.2641 23.6034V21.0497C19.2641 20.715 18.9929 20.4444 18.6588 20.4444H16.2377C15.9036 20.4444 15.6324 20.715 15.6324 21.0497V23.6034C13.0758 23.9804 11.3955 25.1105 11.3955 26.4972C11.3955 28.2228 13.9976 29.5235 17.4482 29.5235ZM18.0535 21.655V24.1384C18.0535 24.4495 18.289 24.7092 18.5977 24.7407C20.8783 24.9707 22.2904 25.8314 22.2904 26.4972C22.2904 27.238 20.4038 28.313 17.4482 28.313C14.4927 28.313 12.6061 27.238 12.6061 26.4972C12.6061 25.8314 14.0182 24.9707 16.2988 24.7407C16.6075 24.7092 16.843 24.4489 16.843 24.1384V21.655H18.0535Z" fill="#4BDDB6" stroke="#4BDDB6" stroke-width="0.3"/>
</svg>
