<svg width="30" height="20" viewBox="0 0 30 20" fill="none" xmlns="http://www.w3.org/2000/svg">
<path d="M2.29004 0.25H28.3896C28.709 0.25 29.0145 0.375317 29.2393 0.59668C29.4639 0.818001 29.5898 1.11735 29.5898 1.42871V7.14258C29.5898 7.45394 29.4639 7.75329 29.2393 7.97461C29.0145 8.19602 28.7091 8.32129 28.3896 8.32129C27.9402 8.32134 27.5085 8.49739 27.1895 8.81152C26.8702 9.12602 26.6895 9.5536 26.6895 10C26.6895 10.4464 26.8702 10.874 27.1895 11.1885C27.5085 11.5026 27.9402 11.6787 28.3896 11.6787C28.7091 11.6787 29.0145 11.804 29.2393 12.0254C29.4639 12.2467 29.5898 12.5461 29.5898 12.8574V18.5713C29.5898 18.8827 29.4639 19.182 29.2393 19.4033C29.0145 19.6247 28.709 19.75 28.3896 19.75H2.29004C1.97065 19.75 1.66518 19.6247 1.44043 19.4033C1.21579 19.182 1.08984 18.8827 1.08984 18.5713V12.8574C1.08984 12.5461 1.21579 12.2467 1.44043 12.0254C1.66519 11.804 1.97062 11.6787 2.29004 11.6787C2.7395 11.6787 3.17122 11.5026 3.49023 11.1885C3.80945 10.874 3.99023 10.4464 3.99023 10C3.99023 9.5536 3.80945 9.12602 3.49023 8.81152C3.17122 8.49739 2.7395 8.32134 2.29004 8.32129C1.97062 8.32129 1.66519 8.19602 1.44043 7.97461C1.21579 7.75329 1.08984 7.45394 1.08984 7.14258V1.42871C1.08984 1.11735 1.21579 0.818001 1.44043 0.59668C1.66518 0.375317 1.97065 0.25 2.29004 0.25ZM10.9902 7.39258C11.3095 7.39268 11.6152 7.5179 11.8398 7.73926C12.0644 7.96054 12.1894 8.25999 12.1895 8.57129V11.4287C12.1894 11.74 12.0644 12.0395 11.8398 12.2607C11.6152 12.4821 11.3095 12.6073 10.9902 12.6074C10.6708 12.6074 10.3644 12.4822 10.1396 12.2607C9.91512 12.0395 9.79008 11.74 9.79004 11.4287V8.57129C9.79008 8.26003 9.91512 7.96053 10.1396 7.73926C10.3644 7.51781 10.6708 7.39258 10.9902 7.39258ZM27.1895 13.8525L27.0244 13.793C26.2324 13.5097 25.5483 12.9932 25.0654 12.3145C24.5828 11.6358 24.3242 10.8278 24.3242 10C24.3242 9.17216 24.5828 8.36416 25.0654 7.68555C25.5483 7.00683 26.2324 6.49025 27.0244 6.20703L27.1895 6.14746V2.60742H12.1895V2.85742C12.1894 3.16869 12.0644 3.4682 11.8398 3.68945C11.6152 3.91078 11.3095 4.03603 10.9902 4.03613C10.6708 4.03613 10.3644 3.9109 10.1396 3.68945C9.91511 3.4682 9.79011 3.16866 9.79004 2.85742V2.60742H3.49023V6.14746L3.65527 6.20703C4.44731 6.49025 5.13142 7.00683 5.61426 7.68555C6.09693 8.36416 6.35547 9.17216 6.35547 10C6.35547 10.8278 6.09693 11.6358 5.61426 12.3145C5.13142 12.9932 4.44731 13.5097 3.65527 13.793L3.49023 13.8525V17.3926H9.79004V17.1426C9.79011 16.8313 9.91511 16.5318 10.1396 16.3105C10.3644 16.0891 10.6708 15.9639 10.9902 15.9639C11.3095 15.964 11.6152 16.0892 11.8398 16.3105C12.0644 16.5318 12.1894 16.8313 12.1895 17.1426V17.3926H27.1895V13.8525Z" fill="#FFAB24" stroke="white" stroke-width="0.5"/>
</svg>
