<svg width="32" height="24" viewBox="0 0 32 24" fill="none" xmlns="http://www.w3.org/2000/svg">
<path d="M25.2773 18.6797C25.2773 19.9706 24.5426 21.1157 23.4111 21.6514C21.787 22.4178 19.3302 23.25 16.3398 23.25C13.7235 23.25 11.5149 22.6136 9.9082 21.9404L9.25684 21.6514C8.13602 21.1154 7.40234 19.97 7.40234 18.6797V15.5127L13.2197 18.2578C14.2032 18.726 15.2622 18.96 16.3398 18.96C17.4175 18.96 18.4765 18.726 19.46 18.2578L25.2773 15.5127V18.6797ZM29.1523 19C29.1523 19.1584 29.0299 19.25 28.9336 19.25C28.8373 19.25 28.7148 19.1584 28.7148 19V13.8936L29.1523 13.6855V19Z" stroke="#196FF0" stroke-width="1.5"/>
<path d="M16.3398 0.750977C16.9174 0.750977 17.4896 0.879086 18.0166 1.12793L18.0176 1.12891L30.3896 6.96582C30.8145 7.16636 31.0898 7.59369 31.0898 8.10742C31.0898 8.62071 30.8149 9.04737 30.3896 9.24805L18.0176 15.0859C17.49 15.3347 16.9179 15.4629 16.3398 15.4629C15.8342 15.4629 15.333 15.3649 14.8623 15.1738L14.6621 15.0859L2.29004 9.24805H2.29102C1.8649 9.04635 1.5899 8.61955 1.58984 8.10645C1.58984 7.5938 1.86367 7.16585 2.28906 6.96387L2.29004 6.96484L14.6631 1.12891L14.6641 1.12793C15.1909 0.879157 15.7624 0.751048 16.3398 0.750977Z" stroke="#196FF0" stroke-width="1.5"/>
</svg>
