<svg width="27" height="28" viewBox="0 0 27 28" fill="none" xmlns="http://www.w3.org/2000/svg">
<path d="M1.24902 8.625C2.23079 8.62705 3.17191 9.01778 3.86621 9.71191C4.51723 10.3629 4.90211 11.2313 4.94922 12.1465L4.9541 12.3301V17.3457L6.07031 16.7188C6.61014 16.4158 7.23382 16.296 7.84766 16.376C8.46154 16.456 9.03337 16.7318 9.47754 17.1631L11.6494 19.3262C12.0063 19.6851 12.2064 20.1706 12.207 20.6768V26.25C12.207 26.2832 12.1943 26.3154 12.1709 26.3389C12.1475 26.3622 12.1151 26.375 12.082 26.375H4.82031C4.78723 26.375 4.75487 26.3622 4.73145 26.3389C4.708 26.3154 4.69531 26.2832 4.69531 26.25V24.4297C4.69766 23.904 4.57904 23.3847 4.34863 22.9121C4.11746 22.4381 3.77975 22.0235 3.3623 21.7012L1.86621 20.5459C1.63624 20.3662 1.44963 20.1371 1.32129 19.875C1.22475 19.6778 1.16281 19.4661 1.1377 19.249L1.125 19.0303V8.75C1.125 8.71685 1.13769 8.68458 1.16113 8.66113C1.18434 8.63792 1.21622 8.62526 1.24902 8.625ZM25.75 8.625C25.7832 8.625 25.8154 8.63769 25.8389 8.66113C25.8623 8.68457 25.875 8.71685 25.875 8.75V19.0312C25.8744 19.3237 25.8073 19.6123 25.6787 19.875C25.5504 20.1371 25.3638 20.3662 25.1338 20.5459L23.6377 21.7012C23.2203 22.0235 22.8825 22.4381 22.6514 22.9121C22.421 23.3847 22.3023 23.904 22.3047 24.4297V26.25C22.3047 26.2832 22.292 26.3154 22.2686 26.3389C22.2451 26.3622 22.2128 26.375 22.1797 26.375H14.918C14.8849 26.375 14.8525 26.3622 14.8291 26.3389C14.8057 26.3154 14.793 26.2832 14.793 26.25V20.6768C14.7936 20.1706 14.9937 19.6851 15.3506 19.3262L17.5293 17.1562L17.5312 17.1543C17.9674 16.7164 18.5366 16.4354 19.1494 16.3555C19.7622 16.2756 20.3842 16.4016 20.918 16.7129L22.0459 17.3711V12.3301C22.0479 11.348 22.4394 10.4063 23.1338 9.71191C23.8279 9.01801 24.7686 8.62731 25.75 8.625ZM13.625 10.9609V14.5859C13.625 14.619 13.6122 14.6514 13.5889 14.6748C13.5654 14.6982 13.5332 14.7109 13.5 14.7109C13.4668 14.7109 13.4346 14.6982 13.4111 14.6748C13.3878 14.6514 13.375 14.619 13.375 14.5859V10.9609H13.625ZM4.75 1.625H7.66309L8.05762 1.63867C8.97514 1.70002 9.86811 1.97255 10.665 2.43848C11.5757 2.97096 12.3288 3.73621 12.8467 4.65527L13.5 5.81543L14.1533 4.65527C14.6712 3.73621 15.4243 2.97096 16.335 2.43848C17.1319 1.97255 18.0249 1.70002 18.9424 1.63867L19.3369 1.625H22.25C22.2832 1.625 22.3154 1.63769 22.3389 1.66113C22.3623 1.68457 22.375 1.71685 22.375 1.75C22.3727 3.3303 21.7434 4.84543 20.626 5.96289C19.5084 7.0803 17.9935 7.7088 16.4131 7.71094H10.5869C9.00653 7.7088 7.49161 7.0803 6.37402 5.96289C5.25656 4.84543 4.62731 3.3303 4.625 1.75C4.625 1.71685 4.63769 1.68458 4.66113 1.66113C4.68458 1.63769 4.71685 1.625 4.75 1.625Z" stroke="#4BDDB6" stroke-width="1.5"/>
</svg>
