<svg width="26" height="26" viewBox="0 0 26 26" fill="none" xmlns="http://www.w3.org/2000/svg">
<g clip-path="url(#clip0_2851_3560)">
<path d="M13 1.25C19.4811 1.25 24.7499 6.51482 24.75 12.9883C24.75 19.4859 19.4802 24.75 13 24.75C6.49665 24.75 1.25 19.4869 1.25 12.9883C1.25006 6.51387 6.49578 1.25 13 1.25Z" stroke="#FFAB24" stroke-width="1.5"/>
<path d="M13.0001 18.8034C12.8817 18.8034 12.7682 18.7564 12.6845 18.6727C12.6007 18.589 12.5537 18.4754 12.5537 18.357V7.64272C12.5537 7.52432 12.6007 7.41077 12.6845 7.32705C12.7682 7.24332 12.8817 7.19629 13.0001 7.19629C13.1185 7.19629 13.2321 7.24332 13.3158 7.32705C13.3995 7.41077 13.4466 7.52432 13.4466 7.64272V18.357C13.4466 18.4754 13.3995 18.589 13.3158 18.6727C13.2321 18.7564 13.1185 18.8034 13.0001 18.8034Z" fill="#FFAB24" stroke="#FFAB24" stroke-width="0.5"/>
<path d="M13.8929 13.4467H11.2143C10.4759 13.4467 9.875 12.8458 9.875 12.1074V10.3217C9.875 9.58331 10.4759 8.98242 11.2143 8.98242H14.7857C15.5241 8.98242 16.125 9.58331 16.125 10.3217V10.7681C16.125 10.8865 16.078 11.0001 15.9942 11.0838C15.9105 11.1675 15.797 11.2146 15.6786 11.2146C15.5602 11.2146 15.4466 11.1675 15.3629 11.0838C15.2792 11.0001 15.2321 10.8865 15.2321 10.7681V10.3217C15.2321 10.0762 15.0312 9.87528 14.7857 9.87528H11.2143C10.9688 9.87528 10.7679 10.0762 10.7679 10.3217V12.1074C10.7679 12.353 10.9688 12.5539 11.2143 12.5539H13.8929C14.0113 12.5539 14.1248 12.6009 14.2085 12.6846C14.2923 12.7683 14.3393 12.8819 14.3393 13.0003C14.3393 13.1187 14.2923 13.2322 14.2085 13.316C14.1248 13.3997 14.0113 13.4467 13.8929 13.4467Z" fill="#FFAB24" stroke="#FFAB24" stroke-width="0.5"/>
<path d="M14.7857 17.018H11.2143C10.4759 17.018 9.875 16.4171 9.875 15.6787V15.2323C9.875 15.1139 9.92203 15.0003 10.0058 14.9166C10.0895 14.8329 10.203 14.7859 10.3214 14.7859C10.4398 14.7859 10.5534 14.8329 10.6371 14.9166C10.7208 15.0003 10.7679 15.1139 10.7679 15.2323V15.6787C10.7679 15.9242 10.9688 16.1251 11.2143 16.1251H14.7857C15.0312 16.1251 15.2321 15.9242 15.2321 15.6787V13.893C15.2321 13.6475 15.0312 13.4466 14.7857 13.4466H12.1071C11.9887 13.4466 11.8752 13.3995 11.7915 13.3158C11.7077 13.2321 11.6607 13.1185 11.6607 13.0001C11.6607 12.8817 11.7077 12.7682 11.7915 12.6845C11.8752 12.6007 11.9887 12.5537 12.1071 12.5537H14.7857C15.5241 12.5537 16.125 13.1546 16.125 13.893V15.6787C16.125 16.4171 15.5241 17.018 14.7857 17.018Z" fill="#FFAB24" stroke="#FFAB24" stroke-width="0.5"/>
</g>
<defs>
<clipPath id="clip0_2851_3560">
<rect width="25" height="25" fill="white" transform="translate(0.5 0.5)"/>
</clipPath>
</defs>
</svg>
