<svg width="22" height="24" viewBox="0 0 22 24" fill="none" xmlns="http://www.w3.org/2000/svg">
<path d="M20.046 3.167C20.5188 2.513 20.6004 1.2002 20.6004 1.2002H1.40039C1.40039 1.2002 1.48199 2.513 1.95479 3.167L9.80039 13.2002V20.4002H7.40039C5.00039 20.4002 5.00039 22.8002 5.00039 22.8002H17.0004C17.0004 22.8002 17.0004 20.4002 14.6004 20.4002H12.2004V13.2002L20.046 3.167ZM10.2804 7.2002C10.2804 6.69098 10.4827 6.20262 10.8427 5.84255C11.2028 5.48248 11.6912 5.2802 12.2004 5.2802C12.7096 5.2802 13.198 5.48248 13.558 5.84255C13.9181 6.20262 14.1204 6.69098 14.1204 7.2002C14.1204 7.70941 13.9181 8.19777 13.558 8.55784C13.198 8.91791 12.7096 9.1202 12.2004 9.1202C11.6912 9.1202 11.2028 8.91791 10.8427 8.55784C10.4827 8.19777 10.2804 7.70941 10.2804 7.2002Z" stroke="#FFAB24" stroke-width="1.5"/>
</svg>
