<svg width="23" height="26" viewBox="0 0 23 26" fill="none" xmlns="http://www.w3.org/2000/svg">
<path d="M7.0293 6.49902C7.18664 6.01038 7.37269 5.33084 7.54688 4.62402C7.72078 3.91833 7.87939 3.19819 7.98242 2.62793C8.03418 2.34143 8.07015 2.10236 8.08789 1.92676C8.09449 1.86139 8.09535 1.8107 8.09668 1.77344C8.0861 1.76019 8.07253 1.74096 8.05078 1.71875C7.98434 1.65091 7.88911 1.57269 7.77441 1.49902C7.66032 1.42577 7.54069 1.36552 7.43457 1.3252C7.32185 1.28241 7.25723 1.27541 7.24121 1.27539C7.25957 1.27539 7.25318 1.27285 7.21484 1.28125C7.18078 1.28872 7.13547 1.30115 7.08203 1.31934C6.97711 1.35506 6.86541 1.40444 6.77441 1.4541C6.7554 1.46397 6.68583 1.49098 6.55176 1.83008C6.40376 2.20448 6.22413 2.83384 5.93652 3.95703C5.75321 4.69007 5.58474 5.38493 5.46191 5.91797C5.40472 6.16619 5.3583 6.37615 5.3252 6.53711C5.33628 6.53936 5.34833 6.54163 5.36035 6.54395C5.50108 6.571 5.68386 6.59897 5.92188 6.62891C6.2588 6.67049 6.59714 6.71669 6.86719 6.75879C6.89077 6.76246 6.91382 6.76688 6.93652 6.77051C6.96452 6.69179 6.99632 6.60144 7.0293 6.49902ZM7.47168 6.87988C7.45582 6.87489 7.4403 6.87076 7.4248 6.86719C7.44071 6.87158 7.45659 6.875 7.47168 6.87988Z" stroke="#196FF0" stroke-width="1.3"/>
<path d="M12.3145 7.81152C12.4997 7.35912 12.731 6.7411 12.9707 6.06152C13.2095 5.35092 13.3791 4.80001 13.4824 4.36328C13.5877 3.91823 13.6118 3.63899 13.5947 3.45801C13.5802 3.3039 13.5381 3.23902 13.4863 3.1875C13.4121 3.11381 13.2693 3.02339 12.9756 2.91113C12.4284 2.70716 12.0924 2.64126 11.8467 2.65039C11.6324 2.65841 11.4378 2.72556 11.1758 2.91211C11.129 2.94924 10.9879 3.11103 10.7803 3.54492C10.6316 3.85571 10.468 4.26367 10.29 4.77832L10.1074 5.3291C9.90508 5.97674 9.72206 6.57889 9.58984 7.02637C9.57181 7.08741 9.55504 7.14549 9.53906 7.2002C9.64607 7.21766 9.76524 7.23435 9.89258 7.24902H9.89648C10.232 7.28944 10.6205 7.3873 10.9746 7.50684C11.3138 7.62137 11.6676 7.77328 11.9355 7.94629L11.9365 7.94531C12.0275 8.00053 12.1151 8.05082 12.1953 8.09277C12.2313 8.01036 12.2715 7.91655 12.3145 7.81152Z" stroke="#196FF0" stroke-width="1.3"/>
<path d="M14.3018 13.6582C14.8239 13.8096 15.2704 13.692 15.4756 13.4619C15.4794 13.4546 15.4851 13.4452 15.4912 13.4326C15.5167 13.3801 15.5499 13.3032 15.5918 13.2012C15.6751 12.9981 15.7801 12.7214 15.8984 12.3896C16.1346 11.7278 16.4186 10.8712 16.6934 10.0029C16.9681 9.13477 17.2311 8.26059 17.4248 7.56348C17.5218 7.21439 17.5999 6.91453 17.6533 6.68457C17.7117 6.43328 17.7239 6.33062 17.7246 6.32617C17.7246 6.34964 17.7288 6.2989 17.6455 6.17188C17.5696 6.05622 17.4517 5.92349 17.3037 5.79688C17.1565 5.67094 16.9954 5.56576 16.8467 5.49414C16.6911 5.41922 16.5874 5.40048 16.542 5.40039C16.4944 5.40039 16.3864 5.41772 16.2471 5.46973C16.1241 5.51563 16.0253 5.5721 15.9668 5.61426C15.9527 5.63439 15.9137 5.69066 15.8525 5.80859C15.7654 5.97671 15.6597 6.21628 15.5352 6.53516C15.2866 7.17162 14.9813 8.07729 14.6162 9.25977V9.26074L14.1846 10.668C14.0516 11.1087 13.9311 11.5148 13.8301 11.8643C13.7289 12.214 13.648 12.5038 13.5928 12.7148C13.565 12.821 13.5448 12.9024 13.5322 12.959C13.531 12.9647 13.5293 12.9699 13.5283 12.9746C13.5505 13.2043 13.7808 13.507 14.3018 13.6582Z" stroke="#196FF0" stroke-width="1.3"/>
<path d="M19.0117 15.0889C19.4047 15.1302 19.7175 15.0526 19.8877 14.9443C19.9109 14.9027 19.9434 14.8386 19.9834 14.7471C20.0701 14.5487 20.176 14.2705 20.293 13.9287C20.5261 13.2479 20.7927 12.3582 21.04 11.4541C21.2873 10.5504 21.5123 9.642 21.6631 8.92383C21.7387 8.56374 21.7937 8.26017 21.8242 8.0332C21.8395 7.91931 21.8473 7.83423 21.8496 7.77637C21.8498 7.77101 21.8495 7.76613 21.8496 7.76172C21.6948 7.32492 21.2713 6.97004 20.7773 6.83203C20.3147 6.70293 20.0045 6.80407 19.8516 6.9668L19.7959 7.03906C19.7935 7.04362 19.7897 7.05129 19.7842 7.0625C19.7743 7.08274 19.762 7.11012 19.7471 7.14453C19.717 7.21366 19.6808 7.30376 19.6387 7.41406C19.5544 7.63454 19.4519 7.92066 19.3389 8.25391C19.1131 8.91974 18.8477 9.75723 18.5938 10.5957C18.3398 11.4339 18.0995 12.2685 17.9229 12.9307C17.8344 13.2622 17.7633 13.546 17.7148 13.7627C17.6729 13.9503 17.6573 14.0486 17.6523 14.082C17.6539 14.087 17.6557 14.0933 17.6582 14.1006C17.6724 14.1411 17.6982 14.1977 17.7363 14.2656C17.8137 14.4035 17.9227 14.5494 18.0381 14.6621L18.0508 14.6748L18.0625 14.6875C18.2376 14.8786 18.5878 15.0443 19.0117 15.0889Z" stroke="#196FF0" stroke-width="1.3"/>
<path d="M10.6738 24.7246C12.0936 24.7246 13.2487 24.7026 14.0547 24.6641C14.4591 24.6447 14.7645 24.6222 14.9678 24.5977C15.0056 24.5931 15.0378 24.587 15.0645 24.583C15.0952 24.5574 15.1244 24.5354 15.1514 24.5176C15.2539 24.4496 15.3623 24.4031 15.459 24.3711C15.6524 24.3071 15.8702 24.2764 16.0771 24.2764C16.5885 24.2764 17.2843 23.8746 17.708 23.1689V23.168C17.7089 23.1664 17.7128 23.1602 17.7188 23.1475C17.7259 23.132 17.7352 23.111 17.7461 23.084C17.7682 23.0295 17.7942 22.9578 17.8242 22.8701C17.8843 22.6948 17.9543 22.4691 18.0303 22.2051C18.1821 21.6775 18.353 21.0175 18.5137 20.3457C18.6743 19.6739 18.8234 18.9961 18.9316 18.4346C18.9848 18.1587 19.0238 17.9245 19.0518 17.7383C18.9701 17.7321 18.8786 17.7256 18.7793 17.7256C18.2003 17.7256 17.7009 17.6585 17.2178 17.4473C16.7424 17.2395 16.3346 16.9147 15.9004 16.4893C15.7907 16.3833 15.7187 16.3218 15.668 16.2852C15.6612 16.2803 15.6555 16.2759 15.6504 16.2725C15.6232 16.2796 15.5704 16.2935 15.4824 16.3301L15.4668 16.3369L15.4502 16.3428L15.1396 16.4375C14.8292 16.5207 14.4573 16.5895 14.1602 16.6016L14.2139 17.3184C14.2572 17.8942 14.2657 18.3553 14.21 18.793C14.1532 19.2386 14.033 19.6318 13.8506 20.0801L13.8477 20.0869L13.7334 20.3438C13.6156 20.5921 13.4879 20.816 13.3516 20.9971C13.261 21.1174 13.1511 21.2401 13.0195 21.3379C12.9071 21.4214 12.7424 21.5126 12.5371 21.5342L12.4473 21.5391C12.3486 21.5391 12.1951 21.5296 12.0381 21.4629C11.854 21.3846 11.6922 21.2381 11.6064 21.0254C11.5327 20.8425 11.5379 20.666 11.5518 20.5479C11.5664 20.4234 11.5995 20.2974 11.6367 20.1787C11.6367 20.1787 11.6368 20.177 11.6377 20.1738C11.6386 20.1704 11.6401 20.1653 11.6416 20.1592C11.6446 20.1469 11.6481 20.1307 11.6523 20.1104C11.6609 20.0686 11.6713 20.015 11.6816 19.9502C11.7024 19.8206 11.7243 19.6574 11.7461 19.4707C11.7894 19.0995 11.8303 18.6516 11.8613 18.2236V18.2227C11.8881 17.8125 11.9071 17.5274 11.9102 17.3066C11.9132 17.0867 11.8989 16.9751 11.8809 16.9053C11.8513 16.791 11.8014 16.7111 11.4033 16.2881C11.242 16.1166 11.0407 15.9524 10.8555 15.832C10.7636 15.7723 10.6843 15.7292 10.625 15.7021C10.5967 15.6892 10.5784 15.6834 10.5703 15.6807C10.1163 15.6635 8.57702 15.5361 7.03418 15.4131H7.03027C5.7368 15.3022 4.92443 15.221 4.42969 15.1152C4.18731 15.0634 3.94168 14.9906 3.74219 14.8545C3.49561 14.6861 3.36524 14.4546 3.32129 14.2061H3.32227C3.29437 14.0531 3.25885 13.6923 3.56934 13.4102C3.78953 13.2102 4.08756 13.1581 4.28027 13.1318C4.72552 13.0711 5.51339 13.0615 6.83203 13.0615C8.15596 13.0615 8.85844 13.0494 9.29102 12.9941C9.49687 12.9678 9.6092 12.9348 9.68164 12.9043C9.71498 12.8903 9.7467 12.8738 9.78125 12.8516L9.89941 12.7627C10.234 12.477 10.3916 12.0312 10.3584 11.6055C10.3288 11.2275 10.1621 10.9553 9.93945 10.8203L9.84082 10.7705L9.82812 10.7656C9.82466 10.7644 9.79642 10.7539 9.72949 10.7354C9.66261 10.7168 9.57458 10.695 9.46582 10.6699C9.24863 10.6199 8.96436 10.5608 8.63086 10.4971C7.96474 10.3699 7.11397 10.2254 6.24414 10.0918C4.51455 9.84511 2.84153 9.57466 2.55566 9.53125C2.49147 9.5215 2.37565 9.52166 2.2373 9.54297C2.10164 9.56388 1.99188 9.59905 1.92969 9.62891C1.86634 9.66281 1.83608 9.67955 1.81641 9.69336C1.80864 9.69882 1.8053 9.70158 1.80469 9.70215H1.80566C1.80542 9.70249 1.80442 9.70301 1.80371 9.7041C1.80266 9.70574 1.80103 9.7088 1.79883 9.71289C1.79428 9.72135 1.78708 9.73581 1.77832 9.75879C1.75984 9.80735 1.73661 9.88464 1.71191 10.0068C1.63276 10.3987 1.5701 11.0548 1.48047 12.2354L1.38086 13.6006L1.16309 16.708L1.6416 17.4707L1.64453 17.4756C1.95034 17.9739 3.08075 19.6652 4.15723 21.2129L4.16016 21.2168C4.7004 22.0048 5.2143 22.7715 5.61035 23.376C5.80822 23.678 5.97829 23.9417 6.10742 24.1484C6.21984 24.3284 6.31947 24.4963 6.37402 24.6064L6.375 24.6055C6.37569 24.6068 6.3763 24.6081 6.37695 24.6094C6.42224 24.6217 6.51775 24.6432 6.7002 24.6611C7.28762 24.7188 8.40599 24.7246 10.6738 24.7246ZM14.8848 24.7881C14.8809 24.7938 14.8759 24.7996 14.8721 24.8057L14.873 24.8076C14.877 24.801 14.8807 24.7945 14.8848 24.7881Z" stroke="#196FF0" stroke-width="1.3"/>
</svg>
