<svg width="26" height="26" viewBox="0 0 26 26" fill="none" xmlns="http://www.w3.org/2000/svg">
<g clip-path="url(#clip0_2851_3503)">
<mask id="mask0_2851_3503" style="mask-type:luminance" maskUnits="userSpaceOnUse" x="0" y="0" width="26" height="26">
<path d="M0.5 0.5H25.5V25.5H0.5V0.5Z" fill="white"/>
</mask>
<g mask="url(#mask0_2851_3503)">
<path d="M16.4815 3.99121C16.4815 2.06739 14.9141 0.5 12.9902 0.5C11.0665 0.5 9.49902 2.06739 9.49902 3.99121C9.49902 5.57812 10.5635 6.91602 12.0136 7.34082V23.6787C12.0136 24.2158 12.4531 24.6553 12.9902 24.6553C13.5274 24.6553 13.9668 24.2158 13.9668 23.6787V7.34082C15.417 6.91602 16.4815 5.57812 16.4815 3.99121ZM12.9902 5.5293C12.1406 5.5293 11.4522 4.84082 11.4522 3.99121C11.4522 3.1416 12.1406 2.45312 12.9902 2.45312C13.8399 2.45312 14.5283 3.1416 14.5283 3.99121C14.5283 4.84082 13.8399 5.5293 12.9902 5.5293Z" fill="#4BDDB6" stroke="white" stroke-width="0.7"/>
<path d="M22.0576 5.62695C20.2949 5.62695 18.835 6.94042 18.6006 8.63964H17.629C16.8916 8.63964 16.3056 8.97656 15.9785 9.58203C15.71 10.085 15.6758 10.6758 15.6758 11.081V24.46C15.6758 24.9971 16.1152 25.4366 16.6524 25.4366C17.1895 25.4366 17.629 24.9971 17.629 24.46V11.081C17.629 10.8223 17.6484 10.6758 17.668 10.5928H18.8984C19.4551 11.7842 20.6611 12.6094 22.0625 12.6094C23.9864 12.6094 25.5538 11.042 25.5538 9.11816C25.5538 7.19433 23.9815 5.62695 22.0576 5.62695ZM22.0576 10.6562C21.208 10.6562 20.5196 9.96777 20.5196 9.11816C20.5196 8.26855 21.208 7.58008 22.0576 7.58008C22.9072 7.58008 23.5957 8.26855 23.5957 9.11816C23.5957 9.96777 22.9072 10.6562 22.0576 10.6562ZM7.86328 8.63964H7.44824C7.21387 6.94042 5.75391 5.62695 3.99121 5.62695C2.06739 5.62695 0.5 7.19433 0.5 9.11816C0.5 11.042 2.06739 12.6094 3.99121 12.6094C5.3877 12.6094 6.59864 11.7842 7.15527 10.5928H7.86328C8.13183 10.5928 8.35156 10.8125 8.35156 11.081V24.46C8.35156 24.9971 8.79102 25.4366 9.32813 25.4366C9.86524 25.4366 10.3047 24.9971 10.3047 24.46V11.081C10.3047 9.73339 9.21094 8.63964 7.86328 8.63964ZM3.99121 10.6562C3.1416 10.6562 2.45313 9.96777 2.45313 9.11816C2.45313 8.26855 3.1416 7.58008 3.99121 7.58008C4.84082 7.58008 5.52929 8.26855 5.52929 9.11816C5.52929 9.96777 4.84082 10.6562 3.99121 10.6562Z" fill="#4BDDB6" stroke="white" stroke-width="0.7"/>
</g>
</g>
<defs>
<clipPath id="clip0_2851_3503">
<rect width="25" height="25" fill="white" transform="translate(0.5 0.5)"/>
</clipPath>
</defs>
</svg>
