<svg width="20" height="26" viewBox="0 0 20 26" fill="none" xmlns="http://www.w3.org/2000/svg">
<path d="M10 0.75C10.8959 0.75 11.629 1.03526 12.2422 1.60352C12.8533 2.16983 13.1386 2.82338 13.1387 3.60352C13.1387 4.38369 12.8531 5.03717 12.2422 5.60352C11.629 6.17182 10.896 6.45801 10 6.45801C9.10403 6.45801 8.37105 6.17182 7.75781 5.60352C7.14686 5.03717 6.86133 4.38369 6.86133 3.60352C6.86144 2.82338 7.14672 2.16983 7.75781 1.60352C8.37103 1.03526 9.10407 0.75 10 0.75ZM6.30566 10.6133L6.06543 10.3906L0.996094 5.69238C0.820002 5.52919 0.75 5.36172 0.75 5.14844C0.750017 4.93519 0.820023 4.76766 0.996094 4.60449C1.17435 4.43935 1.3832 4.35352 1.66699 4.35352C1.95068 4.35358 2.15968 4.43933 2.33789 4.60449L6.2959 8.27246L6.51172 8.47266H13.4883L13.7041 8.27246L17.6621 4.60449C17.8403 4.43934 18.0493 4.35358 18.333 4.35352C18.6168 4.35352 18.8257 4.43935 19.0039 4.60449C19.18 4.76766 19.25 4.93519 19.25 5.14844C19.25 5.36172 19.18 5.52919 19.0039 5.69238L13.9346 10.3906L13.6943 10.6133V24.1982C13.6943 24.4701 13.5996 24.6981 13.3613 24.9189C13.1215 25.1411 12.8479 25.25 12.5 25.25C12.1521 25.25 11.8785 25.1411 11.6387 24.9189C11.4004 24.6981 11.3057 24.4701 11.3057 24.1982V17.2695H8.69434V24.1982C8.69428 24.4701 8.5996 24.6981 8.36133 24.9189C8.1215 25.1411 7.84794 25.25 7.5 25.25C7.15206 25.25 6.8785 25.1411 6.63867 24.9189C6.4004 24.6981 6.30572 24.4701 6.30566 24.1982V10.6133Z" stroke="#196FF0" stroke-width="1.5"/>
</svg>
