<svg width="24" height="26" viewBox="0 0 24 26" fill="none" xmlns="http://www.w3.org/2000/svg">
<path d="M17.5166 14.9072C17.0726 15.4987 16.5436 16.0282 15.9443 16.4795C14.9952 17.1942 13.8932 17.6935 12.7188 17.9395L12.0889 18.0713L12.124 18.7139L12.4326 24.4248C12.4304 24.7666 12.3479 24.9917 12.2627 25.1104C12.1928 25.2076 12.118 25.2479 11.999 25.248H8.37305C8.25231 25.248 8.17702 25.2072 8.10742 25.1104C8.02243 24.992 7.93886 24.7673 7.93652 24.4258L8.24707 18.7139L8.28223 18.0713L7.65137 17.9395C6.47689 17.694 5.37486 17.1951 4.42578 16.4805C3.82635 16.0291 3.29747 15.4989 2.85352 14.9072H17.5166ZM21.0615 17.8398C21.5147 17.8405 21.9455 18.0165 22.2607 18.3242C22.5753 18.6314 22.7493 19.0441 22.75 19.4707C22.7487 19.8965 22.5748 20.3086 22.2607 20.6152C21.9456 20.9228 21.5146 21.0979 21.0615 21.0986C20.6088 21.0984 20.1782 20.9236 19.8633 20.6162C19.5488 20.3091 19.375 19.8962 19.375 19.4697C19.375 19.0432 19.5487 18.6304 19.8633 18.3232C20.1782 18.0158 20.6087 17.8401 21.0615 17.8398ZM10.9268 0.75L11.3174 0.764648C13.2669 0.883294 15.1151 1.6645 16.5371 2.97559C18.0459 4.36671 18.9658 6.25351 19.124 8.26562V9.42969L19.127 9.45996C19.2026 10.4012 19.1013 11.3459 18.833 12.25H1.5498C1.38495 11.667 1.28547 11.0682 1.25781 10.4639L1.25 10.1299V9.47949L1.48242 8.39648L1.49414 8.34277L1.49805 8.28809C1.63107 6.26005 2.54627 4.35249 4.06543 2.95215C5.49026 1.63879 7.34675 0.864064 9.30078 0.761719L9.69238 0.75H10.9268Z" stroke="#FFAB24" stroke-width="1.5"/>
</svg>
