<svg width="27" height="26" viewBox="0 0 27 26" fill="none" xmlns="http://www.w3.org/2000/svg">
<path fill-rule="evenodd" clip-rule="evenodd" d="M3.33984 1C2.23528 1 1.33984 1.89543 1.33984 3V23C1.33984 24.1046 2.23528 25 3.33984 25H6.67318V23C6.67318 22.6318 6.97164 22.3333 7.33984 22.3333H10.0065C10.3747 22.3333 10.6732 22.6318 10.6732 23V25H15.3398V23C15.3398 22.6318 15.6383 22.3333 16.0065 22.3333H18.6732C19.0414 22.3333 19.3398 22.6318 19.3398 23V25H23.3398C24.4444 25 25.3398 24.1046 25.3398 23V3C25.3398 1.89543 24.4444 1 23.3398 1H3.33984ZM19.9998 20.0899C20.3647 19.7201 20.7334 19.3465 21.0733 18.7902C21.1587 18.6503 21.2454 18.5159 21.3295 18.3857C21.633 17.9151 21.9021 17.4981 21.9522 17.0716C22.0162 16.527 22.0561 13.2606 21.8798 12.7663C21.7035 12.2719 20.6866 11.9949 20.3353 13.1013C20.162 13.6473 20.1072 14.3495 20.0576 14.9863C20.0066 15.6401 19.961 16.2251 19.798 16.5014C19.4761 17.0469 18.4392 18.4031 18.4392 18.4031L19.3336 16.7055C19.3336 16.7055 19.47 16.4704 19.3983 16.0243C19.3266 15.5783 18.787 14.9541 18.5335 15.4499C18.28 15.9456 17.8369 16.3925 17.8369 16.3925L16.2718 18.2783C16.2718 18.2783 15.7618 18.9399 15.7478 19.3029C15.7431 19.4241 15.6672 19.6931 15.5813 19.9978C15.4842 20.3419 15.3744 20.7313 15.3398 21.0045V21.6667H19.1888V21.0045C19.4475 20.6495 19.7226 20.3708 19.9998 20.0899ZM6.79138 21.0045C6.53184 20.6495 6.25591 20.3708 5.97778 20.0899C5.61158 19.7201 5.24171 19.3465 4.90064 18.7902C4.81491 18.6503 4.72791 18.5159 4.64358 18.3856C4.33904 17.9151 4.06904 17.4981 4.01884 17.0716C3.95464 16.527 4.15378 13.2606 4.33071 12.7663C4.50758 12.2719 5.52784 11.9949 5.88031 13.1013C6.05424 13.6473 6.10918 14.3495 6.15898 14.9863C6.21011 15.6401 6.25591 16.2251 6.41944 16.5014C6.74244 17.0469 7.78271 18.4031 7.78271 18.4031L6.88538 16.7055C6.88538 16.7055 6.74851 16.4704 6.82044 16.0243C6.89244 15.5783 7.43378 14.9541 7.68811 15.4499C7.94251 15.9456 8.38704 16.3925 8.38704 16.3925L9.95744 18.2783C9.95744 18.2783 10.4691 18.9399 10.4832 19.3029C10.4931 19.5609 10.6078 20.4893 10.6732 21.0045V21.6667H6.79138V21.0045ZM10.5273 4.33333C8.68518 4.33333 7.33984 6.32427 7.33984 8.47127C7.33984 13.2643 13.3398 16.3333 13.3398 16.3333C13.3398 16.3333 19.3398 13.0667 19.3398 8.47127C19.3398 6.3246 17.9947 4.33333 16.1524 4.33333C14.8739 4.33333 13.9253 5.22667 13.3398 6.49373C12.7543 5.2266 11.8057 4.33333 10.5273 4.33333Z" stroke="#196FF0" stroke-width="1.5"/>
</svg>
