<svg width="27" height="28" viewBox="0 0 27 28" fill="none" xmlns="http://www.w3.org/2000/svg">
<g clip-path="url(#clip0_2851_3512)">
<path d="M9.18457 15.2314C10.0142 15.2315 10.7855 15.427 11.4502 15.7676C12.2105 16.1698 13.1327 16.2041 13.8613 16.2041H13.8926C13.9048 16.2039 13.9249 16.2035 13.9551 16.2031C14.0159 16.2024 14.1172 16.2012 14.2764 16.2002C14.5952 16.1983 15.1456 16.1963 16.0684 16.1963C16.47 16.1963 16.871 16.3156 17.1514 16.5225C17.4091 16.7126 17.5752 16.9788 17.5752 17.374C17.5752 17.7204 17.4177 17.994 17.1426 18.2031C16.8526 18.4235 16.4509 18.5518 16.0684 18.5518H13.0264C12.3918 18.5518 11.794 19.0733 11.7939 19.7832C11.7939 20.1528 11.9805 20.4534 12.1611 20.6387C12.3412 20.8232 12.6439 21.0234 13.0264 21.0234L17.999 21.0225H18.2764L18.4863 20.8428L18.4873 20.8418C18.4879 20.8413 18.4892 20.8407 18.4902 20.8398C18.4926 20.8378 18.4964 20.835 18.501 20.8311C18.5105 20.8229 18.5245 20.8107 18.543 20.7949C18.58 20.7633 18.6344 20.7166 18.7041 20.6572C18.8435 20.5385 19.044 20.368 19.2871 20.1621C19.7735 19.7501 20.431 19.1958 21.1152 18.626C21.8001 18.0556 22.5094 17.4715 23.1006 17C23.7144 16.5105 24.1455 16.1872 24.3057 16.0947C25.0539 15.6628 25.7158 15.6219 26.2266 15.9678C26.2338 15.9729 26.2381 15.9775 26.2412 15.9834C26.2452 15.9908 26.2492 16.0035 26.25 16.0205C26.2516 16.057 26.2369 16.0878 26.2148 16.1074L26.1826 16.1367L26.1533 16.1689L19.585 23.5371C18.999 24.0489 18.2484 24.333 17.4697 24.333H7.39941L7.17969 24.5527L5.78223 25.9492L1.06445 21.2314L5.71582 16.6523L5.72168 16.6475L5.72656 16.6416C6.5612 15.7865 7.79256 15.2314 9.18457 15.2314ZM18.8643 1.73926C19.5548 1.73926 20.2263 1.97976 20.748 2.4707C21.9163 3.57036 21.9369 5.40982 20.8105 6.53613L15.8545 11.4922L10.8984 6.53613C9.77228 5.40993 9.79208 3.57039 10.96 2.4707L10.9609 2.47168C11.4828 1.98056 12.1541 1.73928 12.8447 1.73926C13.6261 1.73926 14.4188 2.04801 15.0088 2.6377L15.3232 2.9541L15.8535 3.48535L16.3848 2.95508L16.7002 2.63965V2.63867C17.2901 2.04804 18.0828 1.7393 18.8643 1.73926Z" stroke="#4BDDB6" stroke-width="1.5"/>
</g>
<defs>
<clipPath id="clip0_2851_3512">
<rect width="27" height="27" fill="white" transform="translate(0 0.5)"/>
</clipPath>
</defs>
</svg>
