<svg width="18" height="24" viewBox="0 0 18 24" fill="none" xmlns="http://www.w3.org/2000/svg">
<path fill-rule="evenodd" clip-rule="evenodd" d="M8.85228 14.364C8.05575 14.3662 7.26666 14.2126 6.53055 13.9119C5.79443 13.6112 5.12586 13.1694 4.56342 12.612C0.74449 8.8428 3.48513 2.394 8.85228 2.394C14.2158 2.394 16.9637 8.8392 13.1423 12.612C12.5798 13.1695 11.911 13.6114 11.1747 13.9121C10.4383 14.2128 9.64901 14.3664 8.85228 14.364ZM14.8399 14.304C20.2071 9.0084 16.3408 0 8.84863 0C1.37349 0 -2.53894 9.0084 2.83063 14.304C4.17849 15.636 6.39213 16.416 7.60521 16.6632V19.212H3.96599V21.606H7.60521V24H10.0313V21.606H13.6706V19.212H10.0313V16.6632C12.4575 16.4148 13.4921 15.6336 14.8399 14.304Z" fill="#196FF0" stroke="white" stroke-width="0.5"/>
</svg>
